<?xml version="1.0" encoding="UTF-8"?>
<svg version="1.1" xmlns="http://www.w3.org/2000/svg" width="617" height="500">
<path d="M0 0 C1.31053848 0.00424484 1.31053848 0.00424484 2.64755249 0.00857544 C5.39799564 0.01963947 8.14809524 0.04471669 10.8984375 0.0703125 C12.77994317 0.08036016 14.66145401 0.08948286 16.54296875 0.09765625 C21.11992107 0.11953338 25.69662135 0.15396531 30.2734375 0.1953125 C30.2734375 1.5153125 30.2734375 2.8353125 30.2734375 4.1953125 C29.36722656 4.50984375 28.46101563 4.824375 27.52734375 5.1484375 C17.19325335 8.77903857 7.51474775 12.99928524 -2.22265625 18.0234375 C-4.7265625 19.1953125 -4.7265625 19.1953125 -6.7265625 19.1953125 C-6.7265625 19.8553125 -6.7265625 20.5153125 -6.7265625 21.1953125 C-9.0365625 22.1853125 -11.3465625 23.1753125 -13.7265625 24.1953125 C-12.9840625 24.1540625 -12.2415625 24.1128125 -11.4765625 24.0703125 C-8.63897298 24.19929384 -7.13882312 24.76582472 -4.7265625 26.1953125 C-5.0565625 27.8453125 -5.3865625 29.4953125 -5.7265625 31.1953125 C-5.11063232 31.03450195 -4.49470215 30.87369141 -3.86010742 30.70800781 C11.76226849 26.67698342 27.28699536 23.80865786 43.26611328 21.63330078 C46.69474761 21.13395267 50.08601815 20.50662987 53.48779297 19.8527832 C67.31466904 17.24520624 80.98635226 17.31872367 94.8359375 19.6953125 C104.74710472 21.35880653 114.56316132 21.53638969 124.5859375 21.5703125 C125.72205978 21.58155151 125.72205978 21.58155151 126.88113403 21.59301758 C139.30414122 21.69402996 152.17303768 21.19491049 163.6484375 15.9453125 C168.68789008 13.68270114 172.94451339 14.15220395 178.2734375 15.1953125 C178.2734375 16.5153125 178.2734375 17.8353125 178.2734375 19.1953125 C176.817183 19.86650799 175.35835883 20.53213057 173.8984375 21.1953125 C173.08632813 21.5665625 172.27421875 21.9378125 171.4375 22.3203125 C169.2734375 23.1953125 169.2734375 23.1953125 167.2734375 23.1953125 C167.2734375 23.8553125 167.2734375 24.5153125 167.2734375 25.1953125 C166.2834375 25.1953125 165.2934375 25.1953125 164.2734375 25.1953125 C164.2734375 25.8553125 164.2734375 26.5153125 164.2734375 27.1953125 C163.2834375 27.1953125 162.2934375 27.1953125 161.2734375 27.1953125 C161.2734375 27.8553125 161.2734375 28.5153125 161.2734375 29.1953125 C157.9734375 30.8453125 154.6734375 32.4953125 151.2734375 34.1953125 C152.5934375 34.5253125 153.9134375 34.8553125 155.2734375 35.1953125 C155.2734375 36.5153125 155.2734375 37.8353125 155.2734375 39.1953125 C154.02691406 39.29328125 152.78039062 39.39125 151.49609375 39.4921875 C139.12483535 40.54867269 127.09532182 42.25468439 115.2734375 46.1953125 C118.5734375 46.5253125 121.8734375 46.8553125 125.2734375 47.1953125 C125.63920406 53.65718832 125.63920406 53.65718832 124.1875 55.79296875 C121.47148899 57.78286253 118.69511408 58.40593797 115.4609375 59.3203125 C100.97440184 63.78625912 87.07060181 73.78502714 78.2734375 86.1953125 C77.9434375 87.1853125 77.6134375 88.1753125 77.2734375 89.1953125 C75.6157003 90.53973168 73.94756577 91.87136005 72.2734375 93.1953125 C70.68563821 94.98883993 69.14419285 96.8243333 67.6484375 98.6953125 C66.89304687 99.63375 66.13765625 100.5721875 65.359375 101.5390625 C63.63316516 103.73723233 61.94563635 105.95617564 60.2734375 108.1953125 C61.28672119 108.40430176 62.30000488 108.61329102 63.34399414 108.82861328 C74.57991459 111.2498756 85.03435303 114.85860248 95.7109375 119.0703125 C98.81152281 120.28196082 101.9146309 121.48695432 105.01953125 122.6875 C105.77648285 122.98058044 106.53343445 123.27366089 107.31332397 123.57562256 C116.76505076 127.20070489 126.42437621 130.81677315 136.2734375 133.1953125 C136.2734375 133.8553125 136.2734375 134.5153125 136.2734375 135.1953125 C137.10746094 135.453125 137.94148438 135.7109375 138.80078125 135.9765625 C142.61854814 137.3164312 146.19218504 138.94835796 149.8359375 140.6953125 C153.93890291 142.65066391 158.03527377 144.54752561 162.2734375 146.1953125 C164.06617907 146.9427395 165.85776959 147.69293103 167.6484375 148.4453125 C171.1674203 149.92101497 174.69350336 151.36758581 178.25 152.75 C178.91854004 153.01135742 179.58708008 153.27271484 180.27587891 153.54199219 C181.5808306 154.05044807 182.8877345 154.55392938 184.19677734 155.05175781 C187.63791101 156.39656867 190.40043726 157.88526501 193.2734375 160.1953125 C194.92140986 160.90693693 196.58509158 161.58563203 198.2734375 162.1953125 C198.2734375 162.8553125 198.2734375 163.5153125 198.2734375 164.1953125 C198.9746875 164.4221875 199.6759375 164.6490625 200.3984375 164.8828125 C204.0430659 166.5466646 206.36832928 168.42532559 209.2734375 171.1953125 C209.2734375 172.1853125 209.2734375 173.1753125 209.2734375 174.1953125 C209.9334375 174.1953125 210.5934375 174.1953125 211.2734375 174.1953125 C211.2734375 175.5153125 211.2734375 176.8353125 211.2734375 178.1953125 C206.9556917 177.68734241 203.24041636 176.99848471 199.2734375 175.1953125 C199.2734375 174.5353125 199.2734375 173.8753125 199.2734375 173.1953125 C198.2834375 173.1953125 197.2934375 173.1953125 196.2734375 173.1953125 C195.9434375 172.5353125 195.6134375 171.8753125 195.2734375 171.1953125 C194.2834375 170.8653125 193.2934375 170.5353125 192.2734375 170.1953125 C192.2734375 169.5353125 192.2734375 168.8753125 192.2734375 168.1953125 C189.27974877 167.17572286 186.27772002 166.1832072 183.2734375 165.1953125 C182.53867187 164.94394531 181.80390625 164.69257813 181.046875 164.43359375 C169.18661308 160.58206539 156.86319248 158.95127529 144.4453125 158.50390625 C141.32220658 158.20005727 139.11689751 157.46568905 136.2734375 156.1953125 C133.73053125 155.61180745 133.73053125 155.61180745 131.2734375 156.1953125 C129.16686058 158.41892147 127.64082316 160.46054118 126.2734375 163.1953125 C127.1603125 163.3809375 128.0471875 163.5665625 128.9609375 163.7578125 C132.34332568 165.22564133 132.80251142 165.60977155 134.6484375 168.5078125 C139.38573999 175.67298251 147.03753941 177.9774225 154.75854492 180.96289062 C162.09593035 183.8354461 167.6488186 186.6865896 172.2734375 193.1953125 C172.8509375 193.6490625 173.4284375 194.1028125 174.0234375 194.5703125 C176.06923102 197.22984407 175.45592188 199.97142171 175.2734375 203.1953125 C168.6484375 202.4453125 168.6484375 202.4453125 165.2734375 200.1953125 C165.2734375 199.5353125 165.2734375 198.8753125 165.2734375 198.1953125 C164.2834375 198.1953125 163.2934375 198.1953125 162.2734375 198.1953125 C163.11637716 199.2667413 163.97364418 200.32689718 164.8359375 201.3828125 C165.31160156 201.97449219 165.78726563 202.56617188 166.27734375 203.17578125 C171.05495958 208.00949433 176.78233518 211.22093182 182.8984375 214.0703125 C183.62063477 214.40981934 184.34283203 214.74932617 185.08691406 215.09912109 C191.79417027 218.15420664 198.69313891 220.44093304 205.70825195 222.67553711 C212.86589543 224.97794462 219.55707218 227.79351708 226.2734375 231.1953125 C226.2734375 232.1853125 226.2734375 233.1753125 226.2734375 234.1953125 C215.06982219 234.63466996 206.22212152 234.78314355 196.27270508 229.04052734 C188.84687871 224.93988514 181.03645873 223.04800395 172.85229492 221.08276367 C170.47287502 220.51068262 168.09868522 219.91999769 165.72460938 219.32617188 C153.97389183 216.42102169 142.25709593 213.78937816 130.0859375 213.9453125 C129.31475586 213.94990479 128.54357422 213.95449707 127.74902344 213.95922852 C122.93572364 214.03586372 118.48084303 214.52492797 113.796875 215.68359375 C108.3753352 216.78300817 102.78760233 216.89338417 97.2734375 217.1953125 C98.7511397 217.80305224 100.23070677 218.40625754 101.7109375 219.0078125 C102.53464844 219.34425781 103.35835938 219.68070313 104.20703125 220.02734375 C106.65768748 220.96077841 109.09697555 221.79839796 111.58984375 222.60546875 C116.10624071 224.09653253 120.4357003 225.87486761 124.7734375 227.8203125 C125.92150879 228.33319824 125.92150879 228.33319824 127.09277344 228.85644531 C132.66137754 231.3818221 138.11669648 234.09069615 143.5234375 236.9453125 C144.55887695 237.49179443 144.55887695 237.49179443 145.61523438 238.04931641 C149.6584499 240.22299201 153.62144718 242.40528263 157.2734375 245.1953125 C157.2734375 246.1853125 157.2734375 247.1753125 157.2734375 248.1953125 C147.6961765 248.81320031 140.60827066 245.58206679 132.2734375 241.1953125 C132.2734375 242.5153125 132.2734375 243.8353125 132.2734375 245.1953125 C127.30037234 244.69800598 123.63543937 243.64228916 119.2734375 241.1953125 C122.45064316 243.98740233 125.38551511 245.67519287 129.26928711 247.28735352 C133.01581848 248.98467964 136.49969133 251.14540969 140.0234375 253.2578125 C140.77753906 253.70447266 141.53164063 254.15113281 142.30859375 254.61132812 C145.34505374 256.41540604 148.33360603 258.23542486 151.2734375 260.1953125 C151.2734375 260.8553125 151.2734375 261.5153125 151.2734375 262.1953125 C151.99200928 262.46786865 152.71058105 262.7404248 153.45092773 263.02124023 C156.23830455 264.18069833 158.79900841 265.50911175 161.43359375 266.98046875 C162.39201172 267.51091797 163.35042969 268.04136719 164.33789062 268.58789062 C166.34123086 269.70375766 168.34383249 270.82095175 170.34570312 271.93945312 C171.30283203 272.46861328 172.25996094 272.99777344 173.24609375 273.54296875 C174.11500244 274.02773682 174.98391113 274.51250488 175.87915039 275.01196289 C178.03625265 276.07808654 179.92367648 276.72944388 182.2734375 277.1953125 C181.9434375 276.6384375 181.6134375 276.0815625 181.2734375 275.5078125 C180.1424774 272.89246728 180.11680776 271.0146479 180.2734375 268.1953125 C184.08626973 268.72487253 186.43866397 269.55604059 189.2734375 272.1953125 C191.30016871 275.23540931 191.47406978 277.58393146 191.2734375 281.1953125 C183.24680774 285.98041871 176.60259067 287.56949189 167.23291016 285.53515625 C163.9980656 284.64306123 160.79104403 283.68887634 157.5859375 282.6953125 C148.10423137 279.66806742 148.10423137 279.66806742 138.2734375 279.1953125 C142.58485255 281.21088413 146.89783231 283.22305326 151.21191406 285.23291016 C153.12729307 286.12708638 155.04046876 287.0257998 156.953125 287.92578125 C158.06945312 288.44785156 159.18578125 288.96992188 160.3359375 289.5078125 C161.33753906 289.97832031 162.33914063 290.44882812 163.37109375 290.93359375 C166.29583964 292.20505125 169.23428695 293.23344167 172.2734375 294.1953125 C172.2734375 295.5153125 172.2734375 296.8353125 172.2734375 298.1953125 C159.76817652 301.53004876 146.93690734 297.82185237 135.3359375 293.1328125 C133.51507643 292.41085706 131.69348894 291.69073039 129.87109375 290.97265625 C129.08226807 290.65546631 128.29344238 290.33827637 127.48071289 290.01147461 C125.42554931 289.25155736 123.40827943 288.68010269 121.2734375 288.1953125 C124.21703948 294.2141064 124.21703948 294.2141064 129.3828125 297.9453125 C131.34062568 298.11679979 133.30840119 298.16256189 135.2734375 298.1953125 C137.2734375 300.1953125 137.2734375 300.1953125 137.2734375 304.1953125 C129.3984375 303.3203125 129.3984375 303.3203125 128.2734375 302.1953125 C126.43448211 301.88211872 124.59445363 301.57416078 122.75 301.29516602 C114.31195361 300.00552006 107.01015099 297.90754723 99.2734375 294.1953125 C91.46710452 290.53393509 83.47137022 287.83074805 75.2734375 285.1953125 C75.2734375 285.8553125 75.2734375 286.5153125 75.2734375 287.1953125 C75.8096875 287.2984375 76.3459375 287.4015625 76.8984375 287.5078125 C79.89845794 288.37623947 82.511391 289.75151546 85.2734375 291.1953125 C85.2734375 291.8553125 85.2734375 292.5153125 85.2734375 293.1953125 C85.90636719 293.41960937 86.53929687 293.64390625 87.19140625 293.875 C91.4970009 295.71947527 95.50838551 298.02246552 99.5859375 300.3203125 C100.42189453 300.78824219 101.25785156 301.25617188 102.11914062 301.73828125 C104.17209983 302.8879384 106.22345952 304.04035052 108.2734375 305.1953125 C108.2734375 305.8553125 108.2734375 306.5153125 108.2734375 307.1953125 C109.13195312 307.46085937 109.99046875 307.72640625 110.875 308 C114.30254558 309.20555051 117.41517548 310.66775636 120.6484375 312.3203125 C121.70804687 312.85914063 122.76765625 313.39796875 123.859375 313.953125 C125.05433594 314.56800781 125.05433594 314.56800781 126.2734375 315.1953125 C126.2734375 315.8553125 126.2734375 316.5153125 126.2734375 317.1953125 C127.51222656 317.60136719 128.75101562 318.00742187 130.02734375 318.42578125 C135.79365582 320.34788527 141.49944805 322.4295883 147.2109375 324.5078125 C153.9882615 326.97197774 160.76320612 329.38768088 167.6394043 331.56176758 C176.35649722 334.32406967 184.33596495 337.91907093 192.40332031 342.21191406 C195.66605457 343.92761819 198.97202598 345.55553856 202.2734375 347.1953125 C202.2734375 347.8553125 202.2734375 348.5153125 202.2734375 349.1953125 C203.4078125 349.5046875 204.5421875 349.8140625 205.7109375 350.1328125 C209.2734375 351.1953125 209.2734375 351.1953125 210.2734375 352.1953125 C210.3984375 355.1953125 210.3984375 355.1953125 210.2734375 358.1953125 C209.2734375 359.1953125 209.2734375 359.1953125 206.8984375 359.5078125 C201.66873892 359.05697642 197.12293128 357.12820682 192.2734375 355.1953125 C193.1396875 355.65421875 194.0059375 356.113125 194.8984375 356.5859375 C196.5690625 357.50632812 196.5690625 357.50632812 198.2734375 358.4453125 C199.9440625 359.35023438 199.9440625 359.35023438 201.6484375 360.2734375 C202.5146875 360.90765625 203.3809375 361.541875 204.2734375 362.1953125 C204.2734375 363.5153125 204.2734375 364.8353125 204.2734375 366.1953125 C200.26963847 365.63096471 196.79676464 364.76850638 193.0625 363.2265625 C192.07813965 362.82501953 191.0937793 362.42347656 190.07958984 362.00976562 C188.50491943 361.35911133 188.50491943 361.35911133 186.8984375 360.6953125 C184.63354523 359.77683691 182.36790161 358.8602122 180.1015625 357.9453125 C178.95623047 357.48253906 177.81089844 357.01976562 176.63085938 356.54296875 C139.22684338 341.52914034 98.90049423 327.72946897 58.6484375 323.0703125 C57.57142578 322.94076172 57.57142578 322.94076172 56.47265625 322.80859375 C54.73999878 322.60067485 53.00677735 322.3974638 51.2734375 322.1953125 C54.5732472 326.13297201 58.2893955 327.62553594 63.0234375 329.2578125 C64.39322917 329.74869792 65.76302083 330.23958333 67.1328125 330.73046875 C67.81617676 330.97216797 68.49954102 331.21386719 69.20361328 331.46289062 C74.99553023 333.51240122 80.4477373 335.69536084 85.8984375 338.5703125 C95.82853694 343.62359412 105.46114033 347.05819921 116.5234375 348.5078125 C123.43696149 349.44014318 127.73380324 351.00271294 132.7421875 356.16015625 C139.71619273 361.76734255 148.81289624 363.13929474 157.3984375 364.6953125 C159.61898304 365.12113266 161.83903838 365.54951716 164.05859375 365.98046875 C165.12609863 366.18687988 166.19360352 366.39329102 167.29345703 366.60595703 C179.40531111 369.00133764 190.83301904 372.59653318 202.2734375 377.1953125 C203.3459375 377.61941406 204.4184375 378.04351562 205.5234375 378.48046875 C211.6012712 380.94167484 217.452686 383.72512085 223.29296875 386.703125 C227.8907217 389.00501442 232.57624345 391.10561594 237.2734375 393.1953125 C237.2734375 393.8553125 237.2734375 394.5153125 237.2734375 395.1953125 C238.2221875 395.5046875 239.1709375 395.8140625 240.1484375 396.1328125 C243.2734375 397.1953125 243.2734375 397.1953125 245.2734375 398.1953125 C245.2734375 399.1853125 245.2734375 400.1753125 245.2734375 401.1953125 C236.77596765 401.96780976 229.01443774 398.56066304 221.4609375 394.9453125 C217.48761714 393.09978118 214.62550488 392.74197215 210.2734375 393.1953125 C208.97710129 394.26176365 208.97710129 394.26176365 209.2109375 396.7578125 C209.241875 397.964375 209.241875 397.964375 209.2734375 399.1953125 C204.43797713 398.97551885 201.17419697 397.74210907 196.90625 395.44921875 C190.11661951 391.99058345 183.15112595 389.54602549 175.8984375 387.2578125 C175.2334726 387.04498627 174.56850769 386.83216003 173.88339233 386.61288452 C161.5953611 382.69414646 149.20230738 379.63107695 136.60546875 376.8515625 C130.60757518 375.52557043 124.68089429 374.00747248 118.74658203 372.42407227 C86.69580521 363.9686691 53.17346649 362.28564234 20.2734375 359.1953125 C20.2734375 360.1853125 20.2734375 361.1753125 20.2734375 362.1953125 C21.80291016 362.34419922 21.80291016 362.34419922 23.36328125 362.49609375 C29.9432504 363.32310018 36.37795919 364.90572637 42.8359375 366.3828125 C43.52416595 366.5387085 44.21239441 366.69460449 44.92147827 366.85522461 C53.52257068 368.80454545 62.07363294 370.8854685 70.5859375 373.1953125 C84.38425082 376.92333072 98.40851858 379.61164826 112.41601562 382.41992188 C117.53944765 383.44979657 122.65790733 384.50195604 127.7734375 385.5703125 C128.53172852 385.72580566 129.29001953 385.88129883 130.07128906 386.04150391 C135.04181609 387.07950179 135.04181609 387.07950179 137.2734375 388.1953125 C137.2734375 389.1853125 137.2734375 390.1753125 137.2734375 391.1953125 C107.8400325 394.65664551 77.54692542 390.78585575 48.2734375 387.1953125 C51.99906924 388.47666744 55.72954344 389.74334603 59.4609375 391.0078125 C60.49669922 391.36423828 61.53246094 391.72066406 62.59960938 392.08789062 C74.87947986 396.23187169 87.24176364 398.6182382 100.0234375 400.6328125 C110.89878417 402.38880448 121.622462 404.35505237 132.2734375 407.1953125 C132.9118457 407.36417969 133.55025391 407.53304688 134.20800781 407.70703125 C140.76587268 409.45579521 147.13719555 411.27329252 153.2734375 414.1953125 C153.2734375 415.5153125 153.2734375 416.8353125 153.2734375 418.1953125 C147.07700421 418.47032757 141.39711694 417.42163452 135.3359375 416.1953125 C134.36591797 416.00453125 133.39589844 415.81375 132.39648438 415.6171875 C130.0209699 415.14910583 127.64703544 414.67301775 125.2734375 414.1953125 C128.2434375 415.1853125 131.2134375 416.1753125 134.2734375 417.1953125 C134.2734375 418.5153125 134.2734375 419.8353125 134.2734375 421.1953125 C123.80690152 419.9826612 113.43563129 418.45046313 103.05444336 416.65234375 C91.98336985 414.73744973 80.94455847 412.93046053 69.7734375 411.6953125 C57.37773138 410.30847907 45.29008955 407.60063477 33.14404297 404.81201172 C27.98326743 403.70330964 23.18589701 403.07406295 17.8984375 403.1328125 C16.83882813 403.14183594 15.77921875 403.15085937 14.6875 403.16015625 C13.89085937 403.17175781 13.09421875 403.18335938 12.2734375 403.1953125 C13.72242432 403.55713623 13.72242432 403.55713623 15.20068359 403.92626953 C49.91978351 412.6185463 49.91978351 412.6185463 63.28320312 417.48046875 C65.50519416 418.27855385 67.73913993 419.03536604 69.9765625 419.7890625 C71.53402277 420.31981801 73.09131964 420.85105328 74.6484375 421.3828125 C75.35758301 421.62088623 76.06672852 421.85895996 76.79736328 422.10424805 C80.37314364 423.34987703 83.5550541 424.49783974 86.2734375 427.1953125 C86.2734375 428.1853125 86.2734375 429.1753125 86.2734375 430.1953125 C80.94490765 430.51722686 76.61993468 429.33687709 71.5859375 427.8203125 C59.62284354 424.34806426 59.62284354 424.34806426 47.2734375 423.1953125 C48.5934375 423.8553125 49.9134375 424.5153125 51.2734375 425.1953125 C51.2734375 425.8553125 51.2734375 426.5153125 51.2734375 427.1953125 C52.57667969 427.60136719 52.57667969 427.60136719 53.90625 428.015625 C57.15482598 429.15375719 60.08720876 430.50315827 63.1484375 432.0703125 C64.18226563 432.59625 65.21609375 433.1221875 66.28125 433.6640625 C67.76238281 434.42203125 67.76238281 434.42203125 69.2734375 435.1953125 C70.85580184 435.98891419 72.43897804 436.78090209 74.0234375 437.5703125 C75.0959375 438.1065625 76.1684375 438.6428125 77.2734375 439.1953125 C77.2734375 439.8553125 77.2734375 440.5153125 77.2734375 441.1953125 C77.9953125 441.4634375 78.7171875 441.7315625 79.4609375 442.0078125 C82.27110133 443.19432612 84.75760307 444.47016889 87.2734375 446.1953125 C87.2734375 446.8553125 87.2734375 447.5153125 87.2734375 448.1953125 C87.9334375 448.1953125 88.5934375 448.1953125 89.2734375 448.1953125 C89.2734375 449.5153125 89.2734375 450.8353125 89.2734375 452.1953125 C87.6234375 452.1953125 85.9734375 452.1953125 84.2734375 452.1953125 C84.2734375 451.5353125 84.2734375 450.8753125 84.2734375 450.1953125 C72.20318866 446.14638753 60.10952324 442.45850599 47.73632812 439.45507812 C45.63876341 438.94295054 43.54615295 438.41313724 41.453125 437.8828125 C32.73679083 435.72228324 24.26584882 434.49919231 15.2734375 434.1953125 C14.27902649 434.15972229 14.27902649 434.15972229 13.26452637 434.12341309 C7.50427853 433.92108132 1.74287133 433.77805293 -4.01928711 433.64306641 C-6.18354031 433.59120236 -8.34761057 433.53411882 -10.51171875 433.4765625 C-11.77894775 433.44626953 -13.04617676 433.41597656 -14.35180664 433.38476562 C-17.26588606 433.2211741 -19.88816131 432.83193695 -22.7265625 432.1953125 C-38.40694134 430.80706416 -52.33610526 437.70981685 -64.984375 446.4453125 C-67.7265625 448.1953125 -67.7265625 448.1953125 -70.7265625 448.1953125 C-70.7265625 448.8553125 -70.7265625 449.5153125 -70.7265625 450.1953125 C-72.5502646 451.6973584 -74.43770017 453.12247419 -76.3515625 454.5078125 C-77.4564951 455.31796683 -78.56067031 456.1291552 -79.6640625 456.94140625 C-80.6746875 457.68519531 -81.6853125 458.42898438 -82.7265625 459.1953125 C-85.90022481 461.65369864 -88.47232599 463.81395773 -90.7265625 467.1953125 C-92.39322917 468.1953125 -94.05989583 469.1953125 -95.7265625 470.1953125 C-98.70333264 472.57018626 -101.58292928 475.04588873 -104.26953125 477.74609375 C-106.27971068 479.74549474 -108.49716688 481.44794837 -110.7265625 483.1953125 C-109.7984375 483.9996875 -108.8703125 484.8040625 -107.9140625 485.6328125 C-107.39199219 486.08527344 -106.86992187 486.53773438 -106.33203125 487.00390625 C-104.61943279 488.40402481 -104.61943279 488.40402481 -101.7265625 489.1953125 C-101.7265625 489.8553125 -101.7265625 490.5153125 -101.7265625 491.1953125 C-97.4365625 491.8553125 -93.1465625 492.5153125 -88.7265625 493.1953125 C-88.7265625 494.5153125 -88.7265625 495.8353125 -88.7265625 497.1953125 C-89.7165625 497.1953125 -90.7065625 497.1953125 -91.7265625 497.1953125 C-91.7265625 497.8553125 -91.7265625 498.5153125 -91.7265625 499.1953125 C-94.14564155 500.40485202 -95.68930102 500.32454573 -98.390625 500.328125 C-99.8147168 500.33126709 -99.8147168 500.33126709 -101.26757812 500.33447266 C-102.28529297 500.3297998 -103.30300781 500.32512695 -104.3515625 500.3203125 C-105.91293945 500.31523682 -105.91293945 500.31523682 -107.50585938 500.31005859 C-127.57154269 500.17698882 -147.19535202 499.8664841 -164.7265625 489.1953125 C-164.7265625 488.5353125 -164.7265625 487.8753125 -164.7265625 487.1953125 C-165.7165625 487.1953125 -166.7065625 487.1953125 -167.7265625 487.1953125 C-167.7265625 486.5353125 -167.7265625 485.8753125 -167.7265625 485.1953125 C-168.45359375 484.91945313 -169.180625 484.64359375 -169.9296875 484.359375 C-187.06405429 477.2280324 -194.24475875 465.96720331 -201.23046875 449.69140625 C-207.08547223 435.1675021 -210.22721201 420.75490946 -207.7265625 405.1953125 C-206.7265625 404.1953125 -206.7265625 404.1953125 -203.6640625 404.1328125 C-202.6946875 404.1534375 -201.7253125 404.1740625 -200.7265625 404.1953125 C-198.69220719 407.92496389 -197.7265625 409.86436292 -197.7265625 414.1953125 C-197.0665625 414.5253125 -196.4065625 414.8553125 -195.7265625 415.1953125 C-194.03274063 418.78621487 -192.50745795 422.29083525 -191.7265625 426.1953125 C-191.0665625 426.1953125 -190.4065625 426.1953125 -189.7265625 426.1953125 C-189.7265625 427.1853125 -189.7265625 428.1753125 -189.7265625 429.1953125 C-189.0665625 429.1953125 -188.4065625 429.1953125 -187.7265625 429.1953125 C-187.7265625 430.1853125 -187.7265625 431.1753125 -187.7265625 432.1953125 C-186.7365625 432.5253125 -185.7465625 432.8553125 -184.7265625 433.1953125 C-180.7265625 438.56674107 -180.7265625 438.56674107 -180.7265625 441.1953125 C-180.13746094 441.45957031 -179.54835937 441.72382813 -178.94140625 441.99609375 C-176.66196462 443.23028878 -175.13996741 444.58320287 -173.2890625 446.3828125 C-170.52765123 448.9353116 -170.52765123 448.9353116 -166.7890625 449.0703125 C-165.768125 448.6371875 -165.768125 448.6371875 -164.7265625 448.1953125 C-164.7265625 447.5353125 -164.7265625 446.8753125 -164.7265625 446.1953125 C-163.16401645 445.13145136 -161.54796682 444.14594774 -159.9140625 443.1953125 C-149.2375191 436.65535081 -149.2375191 436.65535081 -141.76953125 427.0546875 C-141.49930313 424.83062754 -141.49930313 424.83062754 -144.1640625 422.6328125 C-145.0096875 421.8284375 -145.8553125 421.0240625 -146.7265625 420.1953125 C-146.7265625 419.2053125 -146.7265625 418.2153125 -146.7265625 417.1953125 C-147.3865625 417.1953125 -148.0465625 417.1953125 -148.7265625 417.1953125 C-151.2593418 410.70020975 -153.3449291 404.11991936 -155.3515625 397.4453125 C-155.66351563 396.41792969 -155.97546875 395.39054687 -156.296875 394.33203125 C-158.7777759 386.13008733 -158.7777759 386.13008733 -159.7265625 382.1953125 C-160.3865625 382.1953125 -161.0465625 382.1953125 -161.7265625 382.1953125 C-161.8515625 379.3203125 -161.8515625 379.3203125 -161.7265625 376.1953125 C-159.7265625 374.1953125 -159.7265625 374.1953125 -156.5390625 373.9453125 C-153.78516949 374.42129401 -152.88157445 375.01046257 -151.0625 377.1796875 C-149.92602095 378.91402994 -148.80445939 380.65820833 -147.6953125 382.41015625 C-144.19667973 387.35961094 -139.20714574 392.45502088 -133.7265625 395.1953125 C-133.7265625 395.8553125 -133.7265625 396.5153125 -133.7265625 397.1953125 C-133.0459375 397.4634375 -132.3653125 397.7315625 -131.6640625 398.0078125 C-128.32945441 399.35584556 -125.02913013 400.77067548 -121.7265625 402.1953125 C-121.7265625 402.8553125 -121.7265625 403.5153125 -121.7265625 404.1953125 C-119.7465625 404.8553125 -117.7665625 405.5153125 -115.7265625 406.1953125 C-115.57767578 404.81279297 -115.57767578 404.81279297 -115.42578125 403.40234375 C-114.66244497 398.09096198 -113.06678675 393.0156728 -111.5390625 387.8828125 C-111.22517578 386.82336426 -110.91128906 385.76391602 -110.58789062 384.67236328 C-109.64398056 381.51026456 -108.68835782 378.35201315 -107.7265625 375.1953125 C-107.46149902 374.32181152 -107.19643555 373.44831055 -106.92333984 372.54833984 C-104.16197823 363.55362374 -100.98574388 355.21140399 -96.59765625 346.85546875 C-94.34370301 342.53488815 -92.38118064 338.08957857 -90.4140625 333.6328125 C-90.07648926 332.87033203 -89.73891602 332.10785156 -89.39111328 331.32226562 C-87.76955371 327.63787232 -86.18980018 323.94625174 -84.7265625 320.1953125 C-84.0665625 320.1953125 -83.4065625 320.1953125 -82.7265625 320.1953125 C-82.7265625 319.2053125 -82.7265625 318.2153125 -82.7265625 317.1953125 C-82.0665625 317.1953125 -81.4065625 317.1953125 -80.7265625 317.1953125 C-80.7265625 316.2053125 -80.7265625 315.2153125 -80.7265625 314.1953125 C-80.2109375 313.7415625 -79.6953125 313.2878125 -79.1640625 312.8203125 C-78.4525 312.0159375 -78.4525 312.0159375 -77.7265625 311.1953125 C-77.95700114 308.54065201 -77.95700114 308.54065201 -78.7265625 306.1953125 C-79.7165625 305.8653125 -80.7065625 305.5353125 -81.7265625 305.1953125 C-83.05989583 303.86197917 -84.39322917 302.52864583 -85.7265625 301.1953125 C-86.7165625 300.8653125 -87.7065625 300.5353125 -88.7265625 300.1953125 C-89.0565625 299.5353125 -89.3865625 298.8753125 -89.7265625 298.1953125 C-90.7165625 297.8653125 -91.7065625 297.5353125 -92.7265625 297.1953125 C-93.31953125 296.59203125 -93.9125 295.98875 -94.5234375 295.3671875 C-101.01265055 288.97002003 -109.49207535 285.73203327 -118.4765625 285.5703125 C-121.24247798 285.6675622 -123.97544003 285.89727423 -126.7265625 286.1953125 C-127.43296875 286.27072266 -128.139375 286.34613281 -128.8671875 286.42382812 C-144.84325586 288.30590093 -166.7681668 291.78748802 -178.37109375 303.9140625 C-180.45051485 306.97408017 -180.94691429 309.73078864 -180.6640625 313.3203125 C-179.79550115 316.91036608 -178.77047854 319.17387139 -176.7265625 322.1953125 C-176.7265625 322.8553125 -176.7265625 323.5153125 -176.7265625 324.1953125 C-176.0665625 324.1953125 -175.4065625 324.1953125 -174.7265625 324.1953125 C-174.1490625 325.2884375 -173.5715625 326.3815625 -172.9765625 327.5078125 C-171.24532287 330.56042232 -169.59705304 332.15819018 -166.7265625 334.1953125 C-166.29601562 334.93136719 -165.86546875 335.66742188 -165.421875 336.42578125 C-163.47273251 339.60997946 -161.19977501 342.14543802 -158.6640625 344.8828125 C-157.78621094 345.83542969 -156.90835938 346.78804688 -156.00390625 347.76953125 C-153.20863286 350.79118372 -153.20863286 350.79118372 -150.0390625 353.3828125 C-148.7265625 355.1953125 -148.7265625 355.1953125 -148.8515625 358.7578125 C-149.7265625 362.1953125 -149.7265625 362.1953125 -152.7265625 364.1953125 C-156.07542714 363.87122882 -158.24542727 362.41061181 -160.7265625 360.1953125 C-160.7265625 359.5353125 -160.7265625 358.8753125 -160.7265625 358.1953125 C-162.36625 358.288125 -162.36625 358.288125 -164.0390625 358.3828125 C-173.40236316 358.34978498 -181.65519912 354.62493275 -189.7265625 350.1953125 C-189.7265625 349.5353125 -189.7265625 348.8753125 -189.7265625 348.1953125 C-190.7165625 348.1953125 -191.7065625 348.1953125 -192.7265625 348.1953125 C-192.7265625 347.5353125 -192.7265625 346.8753125 -192.7265625 346.1953125 C-193.7165625 346.1953125 -194.7065625 346.1953125 -195.7265625 346.1953125 C-195.7265625 345.5353125 -195.7265625 344.8753125 -195.7265625 344.1953125 C-196.4278125 344.0096875 -197.1290625 343.8240625 -197.8515625 343.6328125 C-201.27897982 341.91910384 -202.87891734 339.87496611 -205.24609375 336.9296875 C-206.7991709 334.99672575 -206.7991709 334.99672575 -209.4140625 333.0703125 C-211.94909437 331.01488125 -213.10557584 328.99519856 -214.7265625 326.1953125 C-215.7165625 325.5353125 -216.7065625 324.8753125 -217.7265625 324.1953125 C-218.79792301 321.89387141 -219.80645967 319.5612912 -220.7265625 317.1953125 C-225.6765625 317.1953125 -230.6265625 317.1953125 -235.7265625 317.1953125 C-235.79751969 328.09248658 -235.79751969 328.09248658 -230.7265625 337.1953125 C-228.89214667 338.81715654 -227.04661656 340.39056437 -225.1171875 341.8984375 C-224.65828125 342.32640625 -224.199375 342.754375 -223.7265625 343.1953125 C-223.7265625 343.8553125 -223.7265625 344.5153125 -223.7265625 345.1953125 C-223.0665625 345.1953125 -222.4065625 345.1953125 -221.7265625 345.1953125 C-221.49469238 345.69981934 -221.26282227 346.20432617 -221.02392578 346.72412109 C-219.97101895 349.00831327 -218.91138082 351.28931944 -217.8515625 353.5703125 C-217.30435547 354.76140625 -217.30435547 354.76140625 -216.74609375 355.9765625 C-216.39160156 356.73710937 -216.03710938 357.49765625 -215.671875 358.28125 C-215.34719238 358.9829834 -215.02250977 359.6847168 -214.68798828 360.40771484 C-213.74247977 362.37127258 -213.74247977 362.37127258 -211.7265625 364.1953125 C-211.7265625 365.5153125 -211.7265625 366.8353125 -211.7265625 368.1953125 C-222.55357416 365.69677135 -232.72714516 362.02882587 -242.7265625 357.1953125 C-243.82226562 356.67324219 -244.91796875 356.15117187 -246.046875 355.61328125 C-254.59365852 351.46112046 -254.59365852 351.46112046 -255.7265625 349.1953125 C-257.36989754 348.15741669 -259.03900117 347.15963326 -260.7265625 346.1953125 C-261.7165625 345.5353125 -262.7065625 344.8753125 -263.7265625 344.1953125 C-263.7265625 343.5353125 -263.7265625 342.8753125 -263.7265625 342.1953125 C-269.0275288 341.87725452 -273.53944389 342.50729501 -278.7265625 343.6953125 C-289.49576881 346.09354508 -299.88053276 345.87377624 -309.8671875 340.5078125 C-311.73001069 339.31241794 -313.57280164 338.08478438 -315.38671875 336.81640625 C-317.61205043 335.17555989 -317.61205043 335.17555989 -319.8203125 334.2265625 C-322.2053573 332.93629236 -323.46708516 331.36237793 -325.1640625 329.2578125 C-327.15506485 326.8948182 -328.56377226 325.29298665 -331.2265625 323.6953125 C-334.47262146 321.74767713 -336.4611666 319.20481923 -338.88671875 316.328125 C-341.66263303 313.11018615 -344.68754821 310.16216022 -347.7265625 307.1953125 C-349.94846074 304.97341426 -350.65255142 303.11048542 -351.7265625 300.1953125 C-352.3865625 300.1953125 -353.0465625 300.1953125 -353.7265625 300.1953125 C-353.7265625 299.2053125 -353.7265625 298.2153125 -353.7265625 297.1953125 C-354.3865625 297.1953125 -355.0465625 297.1953125 -355.7265625 297.1953125 C-356.54488972 295.30198716 -357.35598518 293.40553517 -358.1640625 291.5078125 C-358.61652344 290.45207031 -359.06898438 289.39632813 -359.53515625 288.30859375 C-361.61008092 282.88657747 -361.79655415 278.13846498 -361.6640625 272.3828125 C-361.57383089 263.80013738 -362.79204739 257.88550112 -366.7265625 250.1953125 C-366.7265625 249.2053125 -366.7265625 248.2153125 -366.7265625 247.1953125 C-367.3865625 247.1953125 -368.0465625 247.1953125 -368.7265625 247.1953125 C-372.30364445 243.20549033 -372.11561886 238.99477061 -372.22265625 233.9140625 C-371.56798933 230.32628159 -370.3056271 228.75281301 -367.7265625 226.1953125 C-364.95703125 224.75390625 -364.95703125 224.75390625 -361.9140625 223.6328125 C-358.31132008 222.24274338 -354.91796821 220.86567402 -351.6015625 218.8828125 C-348.7265625 217.1953125 -348.7265625 217.1953125 -346.7265625 217.1953125 C-346.7265625 216.5353125 -346.7265625 215.8753125 -346.7265625 215.1953125 C-345.7365625 215.1953125 -344.7465625 215.1953125 -343.7265625 215.1953125 C-343.7265625 214.5353125 -343.7265625 213.8753125 -343.7265625 213.1953125 C-342.7365625 213.1953125 -341.7465625 213.1953125 -340.7265625 213.1953125 C-340.7265625 212.5353125 -340.7265625 211.8753125 -340.7265625 211.1953125 C-339.06640625 210.31640625 -337.40625 209.4375 -335.74609375 208.55859375 C-333.05258754 206.74034681 -330.99801486 204.52192871 -328.7265625 202.1953125 C-324.10497914 197.76836394 -319.40478141 193.42280871 -314.72314453 189.05957031 C-312.97832906 187.43039314 -311.24006463 185.79463555 -309.50390625 184.15625 C-302.25075101 177.38143205 -294.66511148 171.14865047 -286.7265625 165.1953125 C-286.09830566 164.72319336 -285.47004883 164.25107422 -284.82275391 163.76464844 C-279.97041352 160.1953125 -279.97041352 160.1953125 -277.7265625 160.1953125 C-277.7265625 159.5353125 -277.7265625 158.8753125 -277.7265625 158.1953125 C-276.7365625 158.1953125 -275.7465625 158.1953125 -274.7265625 158.1953125 C-274.7265625 157.5353125 -274.7265625 156.8753125 -274.7265625 156.1953125 C-269.1015625 153.1953125 -269.1015625 153.1953125 -265.7265625 153.1953125 C-265.7265625 152.5353125 -265.7265625 151.8753125 -265.7265625 151.1953125 C-265.16066406 150.95296875 -264.59476562 150.710625 -264.01171875 150.4609375 C-263.27824219 150.12578125 -262.54476562 149.790625 -261.7890625 149.4453125 C-261.05816406 149.12046875 -260.32726562 148.795625 -259.57421875 148.4609375 C-257.6164571 147.32382981 -257.6164571 147.32382981 -256.7109375 145.34765625 C-256.73526068 141.99713798 -258.58167312 140.81053715 -260.9140625 138.5078125 C-267.73333719 131.26432166 -270.81724811 124.2432785 -270.7265625 114.1953125 C-269.7265625 111.1953125 -269.7265625 111.1953125 -267.6015625 109.87109375 C-266.6528125 109.42121094 -265.7040625 108.97132812 -264.7265625 108.5078125 C-263.64890625 107.98960938 -262.57125 107.47140625 -261.4609375 106.9375 C-258.78752631 105.68479107 -256.10831099 104.44464194 -253.4296875 103.203125 C-240.99540552 98.49649206 -240.99540552 98.49649206 -231.7265625 90.1953125 C-230.7365625 90.1953125 -229.7465625 90.1953125 -228.7265625 90.1953125 C-228.7265625 89.5353125 -228.7265625 88.8753125 -228.7265625 88.1953125 C-227.265625 86.90625 -227.265625 86.90625 -225.3515625 85.5703125 C-224.72507813 85.12429687 -224.09859375 84.67828125 -223.453125 84.21875 C-221.7265625 83.1953125 -221.7265625 83.1953125 -219.7265625 83.1953125 C-219.49710938 82.61910156 -219.26765625 82.04289062 -219.03125 81.44921875 C-217.38409153 78.60367852 -215.44880553 77.14661688 -212.8515625 75.1328125 C-208.66974147 71.81675911 -204.7251857 68.36870866 -200.8515625 64.6953125 C-194.90727228 59.13102257 -188.54419287 54.64159318 -181.7265625 50.1953125 C-180.96601563 49.64101563 -180.20546875 49.08671875 -179.421875 48.515625 C-173.8739607 44.70513582 -167.94101521 42.81731207 -161.5390625 40.9453125 C-160.70246094 40.69885986 -159.86585938 40.45240723 -159.00390625 40.19848633 C-146.34708355 36.72050494 -134.04156986 35.98697869 -121.03100586 36.33062744 C-108.43640722 36.63219521 -96.35422132 36.7084266 -84.7265625 31.1953125 C-84.0665625 30.5353125 -83.4065625 29.8753125 -82.7265625 29.1953125 C-81.7365625 29.1953125 -80.7465625 29.1953125 -79.7265625 29.1953125 C-79.7265625 28.5353125 -79.7265625 27.8753125 -79.7265625 27.1953125 C-76.83386856 25.64770517 -73.93681052 24.10843274 -71.0390625 22.5703125 C-70.24177734 22.14363281 -69.44449219 21.71695312 -68.62304688 21.27734375 C-57.24044875 15.24861589 -45.83857702 10.29687897 -33.5390625 6.4453125 C-32.34603516 6.05988281 -31.15300781 5.67445313 -29.92382812 5.27734375 C-19.87019188 2.08273036 -10.57581218 -0.13259382 0 0 Z M-27.7265625 36.1953125 C-27.7265625 36.5253125 -27.7265625 36.8553125 -27.7265625 37.1953125 C-21.56038069 37.59745479 -16.54910493 36.16349586 -10.7265625 34.1953125 C-10.7265625 33.8653125 -10.7265625 33.5353125 -10.7265625 33.1953125 C-16.72886252 32.70863953 -22.04357239 34.49648272 -27.7265625 36.1953125 Z M-179.7265625 137.1953125 C-183.36887785 140.6528039 -183.36887785 140.6528039 -184.7265625 145.1953125 C-185.3865625 145.1953125 -186.0465625 145.1953125 -186.7265625 145.1953125 C-186.7265625 146.1853125 -186.7265625 147.1753125 -186.7265625 148.1953125 C-187.7165625 148.5253125 -188.7065625 148.8553125 -189.7265625 149.1953125 C-189.7265625 150.1853125 -189.7265625 151.1753125 -189.7265625 152.1953125 C-190.7165625 152.5253125 -191.7065625 152.8553125 -192.7265625 153.1953125 C-192.7265625 154.1853125 -192.7265625 155.1753125 -192.7265625 156.1953125 C-193.7165625 156.5253125 -194.7065625 156.8553125 -195.7265625 157.1953125 C-189.72496349 159.1958455 -182.19604876 157.11163557 -176.4765625 154.6328125 C-169.03703257 150.46357594 -163.7695081 143.00112947 -160.7265625 135.1953125 C-161.07341514 133.01767643 -161.07341514 133.01767643 -161.7265625 131.1953125 C-167.66121125 131.1953125 -175.09693498 133.51884358 -179.7265625 137.1953125 Z M130.2734375 238.1953125 C131.2734375 240.1953125 131.2734375 240.1953125 131.2734375 240.1953125 Z M201.2734375 389.1953125 C202.5934375 390.1853125 203.9134375 391.1753125 205.2734375 392.1953125 C205.2734375 391.2053125 205.2734375 390.2153125 205.2734375 389.1953125 C203.9534375 389.1953125 202.6334375 389.1953125 201.2734375 389.1953125 Z " fill="#000000" transform="translate(371.7265625,-0.1953125)"/>
<path d="M0 0 C1.62490954 -0.02698189 3.24994633 -0.04638757 4.875 -0.0625 C5.77992188 -0.07410156 6.68484375 -0.08570313 7.6171875 -0.09765625 C10 0 10 0 12 1 C12 1.99 12 2.98 12 4 C8.04 3.67 4.08 3.34 0 3 C0 2.01 0 1.02 0 0 Z " fill="#000000" transform="translate(581,365)"/>
</svg>
