<?xml version="1.0" encoding="UTF-8"?>
<svg version="1.1" xmlns="http://www.w3.org/2000/svg" width="904" height="500">
<path d="M0 0 C8.26620057 3.56365091 12.70904985 11.75084394 16.3671875 19.546875 C18.3203078 23.67739737 20.42588645 27.71216627 22.5625 31.75 C22.92657959 32.44673828 23.29065918 33.14347656 23.66577148 33.86132812 C25.49154319 37.31870152 27.39588099 40.66975284 29.5078125 43.9609375 C32.13874669 48.11040086 34.24823359 52.42188231 36.3125 56.875 C36.88726074 58.09207642 36.88726074 58.09207642 37.47363281 59.33374023 C39.46438869 63.57781876 41.37431706 67.84329604 43.18359375 72.16796875 C43.53188232 72.98990723 43.8801709 73.8118457 44.23901367 74.65869141 C44.89932744 76.22871056 45.54474811 77.80509998 46.1730957 79.38818359 C47.87007616 83.51180068 47.87007616 83.51180068 51.22070312 86.26293945 C54.6165071 87.16349569 56.93221511 86.84963402 60.390625 86.2578125 C62.25170898 85.95665527 62.25170898 85.95665527 64.15039062 85.64941406 C66.05594727 85.3279541 66.05594727 85.3279541 68 85 C92.19202068 81.26945476 115.75382409 80.34575066 140.20172119 80.93359375 C143.04892719 81.0011611 145.89623284 81.05939266 148.74365234 81.1171875 C170.7234549 81.59644557 191.85909644 82.40076767 213 89 C213.87237305 89.26925293 214.74474609 89.53850586 215.64355469 89.81591797 C219.55132012 91.04146099 223.43072931 92.3260367 227.2890625 93.69921875 C230.30614973 94.75678722 233.29158156 95.66835244 236.375 96.5 C241.23941397 97.91251883 245.56590599 100.19382769 250.05078125 102.51953125 C253.50597925 104.25399488 257.02355321 105.67359756 260.625 107.0703125 C263.00188942 108.00073961 265.34760057 108.98024653 267.6875 110 C268.35136719 110.28875 269.01523437 110.5775 269.69921875 110.875 C276.72543166 114.3105676 283.30757434 118.62269849 289.95458984 122.72705078 C293.50579337 124.90771506 297.05195125 127.06461489 300.72265625 129.0390625 C309.7311804 133.90014901 317.2415972 139.81048648 325.05371094 146.38037109 C328.02963801 148.85682621 331.07270651 151.24378118 334.125 153.625 C334.97529785 154.2914856 334.97529785 154.2914856 335.84277344 154.97143555 C338.76562418 157.26111312 341.69653978 159.5400666 344.6328125 161.8125 C353.63813492 168.80145271 362.20572705 176.07596411 370.19506836 184.22680664 C371.94446802 185.9454445 373.75131335 187.53831304 375.6171875 189.12890625 C380.44251651 193.32821669 384.97639971 197.79253021 389.5 202.3125 C390.70462891 203.49875977 390.70462891 203.49875977 391.93359375 204.70898438 C396.72989524 209.49362549 401.09701052 214.42946138 405.22998047 219.79907227 C406.91671127 221.89643477 408.68672778 223.76105104 410.625 225.625 C414.22013099 229.11463054 417.08734704 232.93516737 420 237 C420.61746094 237.8353125 421.23492188 238.670625 421.87109375 239.53125 C426.09620821 245.26356904 430.15400537 251.08486801 434.0546875 257.04296875 C435.30236534 258.93953928 436.57641077 260.81917298 437.8828125 262.67578125 C442.47739191 269.38864078 445.183477 276.29081025 447.43701172 284.06054688 C447.99080844 285.96833577 448.57525044 287.86714285 449.16015625 289.765625 C451.73915904 298.60263815 452.74021749 306.8426665 453 316 C452.01 316 451.02 316 450 316 C448.60546875 314.49609375 448.60546875 314.49609375 447.1875 312.4375 C439.62063352 301.87735218 431.32554175 294.39696838 420 288 C418.74513552 287.24116567 417.4913057 286.48061884 416.23828125 285.71875 C372.4158463 259.59423066 307.41293702 251.48448186 257.80859375 262.96484375 C254.73855372 263.79926489 251.90443694 264.71744666 249 266 C249.26554688 267.19496094 249.53109375 268.38992188 249.8046875 269.62109375 C251.9296875 279.18359375 251.9296875 279.18359375 252.46289062 281.60986328 C252.81092494 283.15861597 253.17334071 284.7042349 253.55273438 286.24560547 C254.91912154 291.91260864 255.493714 297.43102093 255.75 303.25 C255.79237793 304.16370361 255.83475586 305.07740723 255.87841797 306.01879883 C256.14418863 313.50996132 256.42923843 322.14152313 253 329 C252.01 329 251.02 329 250 329 C248.4921875 326.98046875 248.4921875 326.98046875 246.875 324.1875 C243.67720718 318.92770546 240.08852948 314.28028047 236.13671875 309.5703125 C233.76405708 306.71617835 231.54908492 303.77452334 229.3515625 300.78515625 C228.00355349 299.00469349 226.5834099 297.31561483 225.125 295.625 C223 293 223 293 223 291 C222.01 290.67 221.02 290.34 220 290 C218.29413425 288.37347684 216.6222454 286.70993434 215 285 C214.73445312 285.58523438 214.46890625 286.17046875 214.1953125 286.7734375 C204.87678282 304.13148298 177.99246464 312.8284378 160.48828125 318.32421875 C156.96308987 319.28160981 153.64542937 319.82965283 150 320 C148.73349609 320.09474609 148.73349609 320.09474609 147.44140625 320.19140625 C133.38918411 320.78247665 119.66011182 316.77340788 108 309 C108 308.34 108 307.68 108 307 C107.34 307 106.68 307 106 307 C106 306.34 106 305.68 106 305 C105.34 305 104.68 305 104 305 C93.40464229 295.77917518 87.96575856 282.53286675 86 269 C85.814375 267.85273438 85.62875 266.70546875 85.4375 265.5234375 C84.99909394 261.99270296 84.90084621 258.61791741 84.9375 255.0625 C84.94652344 253.91910156 84.95554687 252.77570313 84.96484375 251.59765625 C84.97644531 250.74042969 84.98804688 249.88320312 85 249 C85.66 249 86.32 249 87 249 C88.25390625 250.64453125 88.25390625 250.64453125 89.5625 252.8125 C89.99691406 253.52019531 90.43132813 254.22789062 90.87890625 254.95703125 C92 257 92 257 93 260 C94.64034193 260.72904086 96.31301918 261.38655243 98 262 C98.72574219 262.50789063 99.45148437 263.01578125 100.19921875 263.5390625 C107.70885323 267.45622191 119.92426479 265.4650891 127.85546875 263.17578125 C143.73109487 257.41896603 143.73109487 257.41896603 155.0703125 245.8515625 C156.05397348 243.42050905 156.05397348 243.42050905 157 240 C145.49097736 231.18457841 132.56907686 227.62130784 117.99682617 229.21972656 C115.94667726 229.52234262 113.91253104 229.87172721 111.875 230.25 C111.13709229 230.38639893 110.39918457 230.52279785 109.63891602 230.66333008 C99.38821725 232.6265116 89.87853774 235.31886402 80.5 239.9375 C79.8412085 240.26129639 79.18241699 240.58509277 78.50366211 240.91870117 C66.06446687 247.32513318 56.58331844 258.72438006 51.56640625 271.7109375 C45.96051758 290.64364574 45.02171012 314.24338167 51.34082031 333.02490234 C52.09384276 335.28118072 52.77831252 337.55349154 53.4609375 339.83203125 C54.89780138 344.58094915 56.42222248 349.29617982 58 354 C58.32742188 354.9796875 58.65484375 355.959375 58.9921875 356.96875 C63.64717365 369.65667686 72.11785365 381.32169719 81.76953125 390.6875 C84 393 84 393 84 395 C85.10408203 395.40605469 85.10408203 395.40605469 86.23046875 395.8203125 C88.87927212 396.94857571 90.96761067 398.22028833 93.3125 399.875 C104.43440486 407.40564728 115.79817631 410.04161429 129 412 C129.33 413.32 129.66 414.64 130 416 C116.28393744 426.45169694 102.5244795 428.34366901 85.625 426.25 C75.56221687 424.81280872 67.68757921 423.33072159 59.875 416.5234375 C57.97293652 414.79497668 57.97293652 414.79497668 55 414 C55.10699219 414.6084375 55.21398437 415.216875 55.32421875 415.84375 C57.52744558 431.95336553 52.04369187 448.64298623 42.71484375 461.7578125 C35.23199386 471.54176657 35.23199386 471.54176657 32 475 C31.34 475 30.68 475 30 475 C30 475.66 30 476.32 30 477 C28.70703125 478.33984375 28.70703125 478.33984375 26.8125 479.9375 C26.08933594 480.55238281 25.36617188 481.16726563 24.62109375 481.80078125 C23.75613281 482.52652344 22.89117187 483.25226563 22 484 C20.9278522 484.90952807 19.85626951 485.81972258 18.78515625 486.73046875 C12.94077057 491.69413624 12.94077057 491.69413624 10.56542969 493.66503906 C9.49846854 494.57491797 8.45781537 495.51635013 7.44238281 496.48339844 C3.68121999 499.96577859 3.68121999 499.96577859 0.51171875 500.125 C-2.86775764 498.61133095 -5.45211452 496.44122722 -8.1875 494 C-8.75194824 493.50959229 -9.31639648 493.01918457 -9.89794922 492.51391602 C-14.31190321 488.66337928 -18.6629946 484.73980728 -22.9765625 480.77734375 C-25.07800791 478.85240994 -25.07800791 478.85240994 -28 477 C-28 476.34 -28 475.68 -28 475 C-28.66 475 -29.32 475 -30 475 C-33.24004115 471.53315597 -36.0987986 467.75189266 -39 464 C-39.55429687 463.29488281 -40.10859375 462.58976562 -40.6796875 461.86328125 C-50.7185813 448.05301923 -55.53649117 430.8788567 -53 414 C-55.8589523 415.64606345 -58.30894653 417.26775366 -60.8125 419.4375 C-73.31249731 428.43206328 -94.63468183 428.16070591 -109 426 C-116.44470199 424.16510554 -122.20563481 420.98082967 -128 416 C-127.67 414.68 -127.34 413.36 -127 412 C-126.28457031 411.90203125 -125.56914062 411.8040625 -124.83203125 411.703125 C-111.61895472 409.72030886 -100.21894263 406.0892058 -89.24609375 398.40234375 C-87 397 -87 397 -84.34765625 396.06640625 C-81.44972651 394.75004216 -81.2695966 393.838818 -80 391 C-78.49311654 389.32226173 -76.94632564 387.6800411 -75.375 386.0625 C-69.96644921 380.20909006 -65.9007332 373.95995992 -62 367 C-61.53980469 366.20335937 -61.07960938 365.40671875 -60.60546875 364.5859375 C-53.68572136 351.80088041 -50.28686699 337.05767728 -47 323 C-46.73413086 322.09556152 -46.73413086 322.09556152 -46.46289062 321.17285156 C-41.7925018 299.24961288 -46.4339081 275.69932693 -57.90234375 256.98046875 C-68.8839922 241.37712095 -87.15526636 235.00414275 -105 231 C-106.14339844 230.7421875 -107.28679687 230.484375 -108.46484375 230.21875 C-122.71381781 227.54156328 -137.97357165 228.68424709 -150.30859375 236.71875 C-152.03289785 238.02492031 -153.51112924 239.43372617 -155 241 C-154.484375 242.19625 -153.96875 243.3925 -153.4375 244.625 C-153.14746094 245.29789063 -152.85742188 245.97078125 -152.55859375 246.6640625 C-148.45416721 252.81555891 -142.28306132 256.26467987 -135.6875 259.25 C-134.93476807 259.59353516 -134.18203613 259.93707031 -133.40649414 260.29101562 C-127.98327313 262.69847932 -122.96504917 264.58831526 -117 265 C-115.71996094 265.09152344 -114.43992187 265.18304688 -113.12109375 265.27734375 C-106.06114597 265.61115516 -100.14718708 265.74660841 -94.3828125 261.09375 C-93 260 -93 260 -91 260 C-90.62875 259.2265625 -90.62875 259.2265625 -90.25 258.4375 C-88.60418384 255.22815849 -86.8023904 252.12414336 -85 249 C-84.34 249 -83.68 249 -83 249 C-82.00580288 270.17271644 -86.99122576 287.52992086 -100.703125 303.78515625 C-102 305 -102 305 -104 305 C-104 305.66 -104 306.32 -104 307 C-104.66 307 -105.32 307 -106 307 C-106 307.66 -106 308.32 -106 309 C-118.41550061 319.0125005 -135.40233287 320.77165197 -150.7421875 319.83203125 C-172.27179085 317.2399402 -199.28606833 303.73964152 -213 287 C-213 286.34 -213 285.68 -213 285 C-214.1446875 286.2065625 -214.1446875 286.2065625 -215.3125 287.4375 C-218 290 -218 290 -221 291 C-221.70813042 292.31178258 -222.3675332 293.65010817 -223 295 C-224.21562217 296.60987801 -225.46933709 298.19136375 -226.75 299.75 C-230.2758778 304.09393218 -233.68574924 308.49327688 -237 313 C-237.67417969 313.91265625 -238.34835938 314.8253125 -239.04296875 315.765625 C-243.04584187 321.13711618 -243.04584187 321.13711618 -246.55078125 326.83203125 C-247.02902344 327.54746094 -247.50726563 328.26289063 -248 329 C-248.99 329 -249.98 329 -251 329 C-258.08337406 310.30453731 -252.52357368 288.24266171 -247.42724609 269.77734375 C-246.92209116 267.98056159 -246.92209116 267.98056159 -247 266 C-248.9131571 265.36433812 -250.83080889 264.74220465 -252.75 264.125 C-253.81734375 263.77695312 -254.8846875 263.42890625 -255.984375 263.0703125 C-267.25591691 259.87038432 -278.68385 259.51348495 -290.3125 259.25 C-291.15348236 259.22942535 -291.99446472 259.20885071 -292.8609314 259.18765259 C-306.36896683 258.87520482 -319.59493181 259.14229728 -333 261 C-334.51158691 261.20351074 -334.51158691 261.20351074 -336.05371094 261.41113281 C-365.93621286 265.5388536 -394.0672417 273.18290444 -420 289 C-421.670625 289.99580078 -421.670625 289.99580078 -423.375 291.01171875 C-428.13695365 293.93094831 -432.29478372 296.76546711 -436 301 C-436.46664063 301.52207031 -436.93328125 302.04414063 -437.4140625 302.58203125 C-440.75433991 306.37624379 -443.73811336 310.33329405 -446.60546875 314.49609375 C-447.06566406 314.99238281 -447.52585937 315.48867188 -448 316 C-448.99 316 -449.98 316 -451 316 C-451.2612072 293.05108209 -442.88573239 271.59558778 -429.453125 253.39453125 C-427.25150496 250.39317019 -425.26104549 247.29796935 -423.3125 244.125 C-420.29289072 239.29503949 -416.85602551 235.17520436 -413 231 C-411.85046808 229.69073813 -410.70466614 228.37819251 -409.5625 227.0625 C-406.45768372 223.51314626 -403.32714238 219.98731474 -400.1875 216.46875 C-398.95616625 215.07910191 -397.73014799 213.68455554 -396.52319336 212.27368164 C-391.77232198 206.74971705 -386.72537664 201.57577198 -381.5625 196.4375 C-380.75490234 195.62603516 -379.94730469 194.81457031 -379.11523438 193.97851562 C-374.80144713 189.6716805 -370.42337128 185.51531807 -365.77392578 181.57177734 C-363.84804087 179.86535743 -362.08284986 178.05384613 -360.3125 176.1875 C-356.5965823 172.42107468 -352.56391041 169.24326226 -348.34106445 166.06323242 C-343.80662912 162.64482684 -339.39224688 159.0988664 -335 155.5 C-328.09972365 149.86353771 -321.12910814 144.3444579 -314 139 C-313.18660156 138.38769531 -312.37320313 137.77539062 -311.53515625 137.14453125 C-305.93049499 133.06926175 -300.02982973 129.6904705 -293.97363281 126.34667969 C-288.96360228 123.57441528 -284.12520371 120.60249763 -279.31640625 117.4921875 C-270.78267803 111.99491232 -261.65248013 108.26532454 -252.29296875 104.421875 C-249.34104506 103.14726026 -246.45864333 101.7725303 -243.57275391 100.35620117 C-236.75317852 97.0329608 -230.13925046 94.75838652 -222.734375 92.9609375 C-218.98283072 91.99558196 -215.40048917 90.79255518 -211.75 89.5 C-196.21227205 84.25786883 -180.76787446 82.30160181 -164.4375 81.75 C-162.52172449 81.6763741 -160.60595309 81.6026413 -158.69018555 81.52880859 C-152.79435981 81.31337307 -146.89787014 81.14786161 -141 81 C-140.06909546 80.97595093 -139.13819092 80.95190186 -138.17907715 80.92712402 C-113.03579811 80.30327906 -88.83655516 81.38862501 -63.97064209 85.32092285 C-61.92331373 85.64387256 -59.87409461 85.95151154 -57.82421875 86.2578125 C-56.61209717 86.44746582 -55.39997559 86.63711914 -54.15112305 86.83251953 C-50.91988958 87.00425783 -49.56751764 86.9131619 -47 85 C-45.64862476 82.4387075 -44.5221398 79.98416621 -43.4375 77.3125 C-42.74520888 75.68621052 -42.04972778 74.06127638 -41.3515625 72.4375 C-40.97805664 71.56480469 -40.60455078 70.69210938 -40.21972656 69.79296875 C-38.01825335 64.75196524 -35.6708216 59.78160684 -33.3125 54.8125 C-32.86124756 53.84546143 -32.40999512 52.87842285 -31.94506836 51.88208008 C-29.68767563 47.13596877 -27.33390991 42.8556844 -24.17211914 38.66088867 C-22.09595137 35.7189663 -20.61308728 32.49009203 -19.0625 29.25 C-18.36564447 27.83541427 -17.66772322 26.42135304 -16.96875 25.0078125 C-15.79899613 22.62908888 -14.63278986 20.24871804 -13.46875 17.8671875 C-9.92359834 10.95414177 -5.4176443 5.55007561 0 0 Z " fill="#000000" transform="translate(451,0)"/>
</svg>
