<?xml version="1.0" standalone="no"?>
<!DOCTYPE svg PUBLIC "-//W3C//DTD SVG 20010904//EN"
 "http://www.w3.org/TR/2001/REC-SVG-20010904/DTD/svg10.dtd">
<svg version="1.0" xmlns="http://www.w3.org/2000/svg"
 width="3000.000000pt" height="3000.000000pt" viewBox="0 0 3000.000000 3000.000000"
 preserveAspectRatio="xMidYMid meet">

<g transform="translate(0.000000,3000.000000) scale(0.100000,-0.100000)"
fill="#000000" stroke="none">
<path d="M12860 27475 l-2145 -2145 -3027 0 -3028 0 0 -3027 0 -3028 -2140
-2140 -2140 -2140 2140 -2140 2140 -2140 0 -3023 0 -3022 3022 0 3023 0 2145
-2145 2145 -2145 2145 2145 2145 2145 3027 0 3028 0 0 3027 0 3028 2140 2140
2140 2140 -2140 2140 -2140 2140 0 3023 0 3022 -3022 0 -3023 0 -2145 2145
-2145 2145 -2145 -2145z m2885 35 l730 -730 -1465 0 -1465 0 730 730 c401 402
732 730 735 730 3 0 334 -328 735 -730z m1830 -1830 l350 -350 -2915 0 -2915
0 350 350 350 350 2215 0 2215 0 350 -350z m-9995 -1323 c0 -1 -439 -441 -975
-977 l-975 -975 0 978 0 977 975 0 c536 0 975 -1 975 -3z m110 -2052 l-2055
-2055 -3 547 -2 548 1507 1507 1508 1508 550 0 550 0 -2055 -2055z m6392 1332
l-722 -722 0 -1158 0 -1157 -459 0 -459 0 -552 331 c-303 182 -553 329 -555
327 -3 -2 83 -150 190 -328 l195 -325 -338 -3 -337 -2 -820 -820 -820 -820
-820 820 -820 820 -200 0 -200 0 602 602 603 603 418 -418 417 -417 525 525
525 525 742 0 743 0 0 742 0 743 427 427 428 428 1005 0 1005 0 -723 -723z
m3550 296 l428 -428 0 -742 0 -743 743 0 742 0 525 -525 525 -525 422 422 423
423 608 -608 607 -607 -210 0 -210 0 -820 -820 -820 -820 -820 820 -820 820
-1157 0 -1158 0 0 1157 0 1158 -722 722 -723 723 1005 0 1005 0 427 -427z
m5221 -1091 l1517 -1517 -2 -533 -3 -532 -2050 2050 -2050 2050 535 0 535 0
1518 -1518z m1517 528 c0 -544 -1 -990 -3 -990 -1 0 -448 446 -992 990 l-990
990 993 0 992 0 0 -990z m-8550 -3595 l815 -815 1160 -2 1160 -3 3 -1160 2
-1160 818 -817 817 -818 -817 -817 -818 -818 -2 -1160 -3 -1160 -1160 -3
-1160 -2 -817 -818 -818 -817 -817 817 -818 818 -1160 2 -1160 3 -3 1160 -2
1160 -813 813 -812 812 -812 -812 -813 -813 -2 -1160 -3 -1160 -1040 -3 -1039
-2 -38 37 -38 37 0 673 0 673 368 2 367 3 3 745 2 745 523 523 522 522 -522
523 -523 522 -2 745 -3 745 -367 3 -368 2 0 663 0 663 48 47 48 47 1029 -2
1030 -3 3 -1160 2 -1160 813 -813 812 -812 812 812 813 813 2 1160 3 1160
1160 2 1160 2 330 -198 c182 -110 332 -198 333 -196 2 2 -84 151 -192 330
-108 180 -196 329 -196 333 0 8 1352 1362 1360 1362 3 0 372 -367 820 -815z
m8512 -852 l38 -37 0 -673 0 -673 -355 0 -355 0 0 -742 0 -743 -527 -527 -528
-528 528 -528 527 -527 0 -743 0 -742 355 0 355 0 0 -663 0 -663 -48 -47 -48
-47 -1019 2 -1020 3 -3 1160 -2 1160 -818 818 -817 817 818 818 817 817 0
1156 c0 636 3 1159 7 1162 3 4 468 7 1032 7 l1025 0 38 -37z m1360 -1360 l338
-338 0 -2215 0 -2215 -345 -345 -345 -345 0 2898 c0 1593 3 2897 7 2897 5 0
160 -152 345 -337z m-21037 -5462 c-3 -3 -161 150 -350 339 l-345 345 0 2205
0 2205 348 348 347 347 3 -2892 c1 -1590 0 -2894 -3 -2897z m22860 3639 l730
-730 -738 -738 -737 -737 0 1468 c0 807 3 1467 8 1467 4 0 336 -329 737 -730z
m-24305 -752 l0 -1453 -727 727 -728 728 725 725 c399 399 726 725 727 725 2
0 3 -654 3 -1452z m9013 -5588 l1157 0 0 -1157 0 -1158 722 -722 723 -723
-1005 0 -1005 0 -427 427 -428 428 0 742 0 743 -743 0 -742 0 -525 525 -525
525 -427 -427 -428 -428 -613 613 -612 612 220 0 220 0 820 820 820 820 820
-820 820 -820 1158 0z m10207 -10 l195 0 -600 -600 -600 -600 -415 415 -415
415 -525 -525 -525 -525 -742 0 -743 0 0 -742 0 -743 -422 -422 -423 -423
-1005 0 -1005 0 718 718 717 717 0 1158 0 1157 1158 0 1157 0 820 820 820 820
820 -820 820 -820 195 0z m413 -2222 l-1528 -1528 -530 0 -530 0 2055 2055
2055 2055 3 -527 2 -528 -1527 -1527z m-13660 -1526 l-548 -2 -1502 1502
-1503 1503 0 550 0 550 2050 -2050 2050 -2050 -547 -3z m15187 998 l0 -1000
-1002 0 -1003 0 1000 1000 c550 550 1001 1000 1002 1000 2 0 3 -450 3 -1000z
m-17765 -30 l970 -970 -973 0 -972 0 0 970 c0 534 1 970 3 970 1 0 439 -436
972 -970z m10910 -2330 l-390 -390 -2135 0 -2135 0 -390 390 -390 390 2915 0
2915 0 -390 -390z m-1833 -1832 l-692 -693 -692 693 -693 692 1385 0 1385 0
-693 -692z"/>
<path d="M14475 18060 l-520 -520 -745 -2 -745 -3 -3 -745 -2 -745 -523 -522
-522 -523 522 -522 523 -523 2 -745 3 -745 745 -3 745 -2 523 -523 522 -522
523 522 522 523 745 2 745 3 3 745 2 745 523 523 522 522 -522 523 -523 522
-2 745 -3 745 -745 3 -745 2 -520 520 c-286 286 -522 520 -525 520 -3 0 -239
-234 -525 -520z"/>
</g>
</svg>
