<?xml version="1.0" encoding="UTF-8"?>
<svg version="1.1" xmlns="http://www.w3.org/2000/svg" width="508" height="500">
<path d="M0 0 C5.75 0.875 5.75 0.875 8 2 C8 2.66 8 3.32 8 4 C8.99 4 9.98 4 11 4 C11 4.66 11 5.32 11 6 C11.99 6 12.98 6 14 6 C14 6.66 14 7.32 14 8 C14.70253906 8.24878906 15.40507813 8.49757813 16.12890625 8.75390625 C19.3667122 10.15915809 22.03503531 11.9315495 24.9375 13.9375 C28.84700373 16.63631871 32.70721819 18.9591693 37 21 C37 21.66 37 22.32 37 23 C37.99 23 38.98 23 40 23 C40 23.66 40 24.32 40 25 C40.99 25 41.98 25 43 25 C43 25.66 43 26.32 43 27 C43.99 27 44.98 27 46 27 C46 27.66 46 28.32 46 29 C46.763125 29.12375 47.52625 29.2475 48.3125 29.375 C51 30 51 30 54 32 C54 32.66 54 33.32 54 34 C56.65228812 35.07525194 59.28368454 36.09456151 62 37 C64 39 64 39 65 41 C65.99 41 66.98 41 68 41 C68 41.66 68 42.32 68 43 C68.99 43 69.98 43 71 43 C71 43.66 71 44.32 71 45 C71.72541992 45.26876953 72.45083984 45.53753906 73.19824219 45.81445312 C77.89351221 47.80122824 81.99564091 50.71411997 86.25 53.5 C87.17296875 54.09425781 88.0959375 54.68851563 89.046875 55.30078125 C90.36171875 56.15736328 90.36171875 56.15736328 91.703125 57.03125 C92.50395508 57.55267578 93.30478516 58.07410156 94.12988281 58.61132812 C96 60 96 60 97 62 C97.99 62 98.98 62 100 62 C100 62.66 100 63.32 100 64 C100.7425 64.144375 101.485 64.28875 102.25 64.4375 C105 65 105 65 106.9152832 65.64819336 C109.61697672 66.10411798 110.70533075 65.47175621 113.10546875 64.19140625 C113.91169678 63.77769775 114.7179248 63.36398926 115.54858398 62.93774414 C116.41942627 62.48391357 117.29026855 62.03008301 118.1875 61.5625 C160.26169994 40.58288351 206.76239093 38.68581246 251 53 C252.19238281 53.37511719 253.38476562 53.75023437 254.61328125 54.13671875 C261.98846504 56.50764823 269.08602932 59.15651163 275.6875 63.25 C279.24450882 65.12917447 281.05146765 65.52647098 285 65 C287.15028304 64.05021103 287.15028304 64.05021103 289 63 C289.99 63 290.98 63 292 63 C292 62.34 292 61.68 292 61 C292.99 61 293.98 61 295 61 C295 60.34 295 59.68 295 59 C297.51261908 57.28712191 300.02172654 55.68878774 302.625 54.125 C304.05519416 53.25343502 305.48488922 52.38105048 306.9140625 51.5078125 C307.60661133 51.08790039 308.29916016 50.66798828 309.01269531 50.23535156 C310.84493868 49.09638947 312.62304933 47.90465138 314.3984375 46.6796875 C317 45 317 45 319 45 C319 44.34 319 43.68 319 43 C319.99 43 320.98 43 322 43 C322 42.34 322 41.68 322 41 C322.99 41 323.98 41 325 41 C325.33 40.34 325.66 39.68 326 39 C327.65365406 37.97862543 329.32376502 36.98387706 331 36 C332.79942216 34.68200219 334.58170064 33.34570924 336.3515625 31.98828125 C338 31 338 31 341 31 C341 30.34 341 29.68 341 29 C341.99 29 342.98 29 344 29 C344 28.34 344 27.68 344 27 C344.99 27 345.98 27 347 27 C347 26.34 347 25.68 347 25 C347.99 25 348.98 25 350 25 C350 24.34 350 23.68 350 23 C350.99 23 351.98 23 353 23 C353 22.34 353 21.68 353 21 C354.80782975 19.82149686 356.67429148 18.73238594 358.5625 17.6875 C362.22019487 15.62329912 365.75299969 13.56823272 369.125 11.0625 C372 9 372 9 374 9 C374 8.34 374 7.68 374 7 C375.65 6.67 377.3 6.34 379 6 C379 5.34 379 4.68 379 4 C379.99 4 380.98 4 382 4 C382.33 3.34 382.66 2.68 383 2 C386.0318856 0.11813998 387.24517355 0 391 0 C390.06283121 7.15803059 387.76145654 12.99229589 384.63671875 19.46875 C381.69154173 25.82302213 379.38892312 32.42100466 377 39 C376.11242753 41.43606048 375.22341422 43.87157276 374.33178711 46.30615234 C373.75933711 47.8705052 373.18958073 49.43584802 372.62329102 51.00244141 C371.12100255 55.11809055 369.52489663 59.17699594 367.82421875 63.21484375 C363.84461038 72.68136256 360.13593425 82.25758613 356.375 91.8125 C354.86317905 95.65281791 353.34994073 99.49257325 351.8359375 103.33203125 C351.32490982 104.63222954 351.32490982 104.63222954 350.80355835 105.95869446 C349.35709013 109.62693084 347.89348592 113.27751065 346.31103516 116.8894043 C343.50621244 123.54419875 344.00192958 128.3005874 346 135 C346.66 135 347.32 135 348 135 C362.07993141 161.07394705 366.26876709 190.45317338 366.62231445 219.61206055 C366.63417786 220.34039597 366.64604126 221.06873138 366.65826416 221.81913757 C366.68966075 223.82593161 366.70954912 225.83289607 366.72875977 227.83984375 C366.7581585 231.15887776 366.7581585 231.15887776 369 234 C369 234.99 369 235.98 369 237 C369.78375 237.309375 370.5675 237.61875 371.375 237.9375 C374 239 374 239 376 240 C376 240.66 376 241.32 376 242 C376.99 242 377.98 242 379 242 C381 244 381 244 382 246 C382.99 246 383.98 246 385 246 C385 246.66 385 247.32 385 248 C385.99 248 386.98 248 388 248 C388 248.66 388 249.32 388 250 C388.99 250 389.98 250 391 250 C391 250.66 391 251.32 391 252 C391.72058594 252.25652344 392.44117188 252.51304687 393.18359375 252.77734375 C397.07517597 254.46675462 400.20296423 256.92546347 403.59765625 259.44140625 C405.82394934 260.88578177 407.41124407 261.56355847 410 262 C410 262.66 410 263.32 410 264 C411.65 264.66 413.3 265.32 415 266 C415 266.66 415 267.32 415 268 C415.99 268 416.98 268 418 268 C418 268.66 418 269.32 418 270 C418.99 270 419.98 270 421 270 C421 270.66 421 271.32 421 272 C421.99 272 422.98 272 424 272 C424 272.66 424 273.32 424 274 C424.53625 274.103125 425.0725 274.20625 425.625 274.3125 C429.60688994 275.46515235 433.05929225 277.05929225 436 280 C436.33 280.66 436.66 281.32 437 282 C437.99 282 438.98 282 440 282 C440 282.66 440 283.32 440 284 C440.99 284 441.98 284 443 284 C443 284.66 443 285.32 443 286 C443.99 286 444.98 286 446 286 C446 286.66 446 287.32 446 288 C446.99 288 447.98 288 449 288 C449 289.98 449 291.96 449 294 C447.14077408 293.99547569 447.14077408 293.99547569 445.24398804 293.99085999 C433.56103237 293.96698233 421.87861547 293.97978369 410.19573021 294.02846622 C404.18939397 294.05231658 398.18361284 294.06325813 392.17724609 294.04467773 C386.38027919 294.02722038 380.58430955 294.04369903 374.78746414 294.08367729 C372.5763178 294.09296912 370.36508519 294.09004698 368.15397263 294.07469368 C365.05514777 294.05526603 361.9594728 294.07932238 358.86083984 294.11352539 C357.94733765 294.0977092 357.03383545 294.08189301 356.09265137 294.06559753 C351.22668964 294.16683704 351.22668964 294.16683704 347.11356354 296.53782558 C345.58679757 298.29306807 344.26687535 300.05124807 343 302 C342.48276367 302.74693115 341.96552734 303.4938623 341.43261719 304.26342773 C341.05782227 304.89708252 340.68302734 305.5307373 340.296875 306.18359375 C339.8740625 306.88291016 339.45125 307.58222656 339.015625 308.30273438 C338.15581628 309.75299816 337.29645711 311.20352854 336.4375 312.65429688 C335.34082069 314.46686407 334.17611675 316.2379402 333 318 C332.34 318 331.68 318 331 318 C330.87625 318.639375 330.7525 319.27875 330.625 319.9375 C330.315625 320.9584375 330.315625 320.9584375 330 322 C329.34 322.33 328.68 322.66 328 323 C327.5978125 323.86625 327.5978125 323.86625 327.1875 324.75 C325.96114935 327.07361177 324.51359379 328.57796732 322.62109375 330.375 C319.67572251 333.32746852 317.00540359 336.53951485 314.28125 339.6953125 C312.00080916 341.99918253 309.77385629 343.36342479 307 345 C306.34 345.99 305.68 346.98 305 348 C303.66666667 348.66666667 302.33333333 349.33333333 301 350 C300.38125 350.61875 299.7625 351.2375 299.125 351.875 C296.62287787 354.37712213 294.03700265 356.19072183 291 358 C290.01 358 289.02 358 288 358 C288 358.66 288 359.32 288 360 C286.35 360.33 284.7 360.66 283 361 C283 361.66 283 362.32 283 363 C264.86433185 371.71000809 264.86433185 371.71000809 256 375.5625 C254.906875 376.03816406 253.81375 376.51382812 252.6875 377.00390625 C250 378 250 378 247 378 C245.62950582 380.69853943 244.34572927 383.41815963 243.125 386.1875 C242.11335368 388.48230067 241.10191025 390.77622207 240.0625 393.05859375 C237.62766441 398.4253772 235.44038502 403.87980366 233.27954102 409.36108398 C231.82135318 413.03326951 230.26825285 416.6244965 228.5625 420.1875 C225.79735743 426.11788615 223.73840432 432.27966211 221.67407227 438.48120117 C219.84916528 443.87972784 217.67215264 448.99479302 215.27148438 454.16113281 C213.11430246 458.97751363 211.31860837 463.92305936 209.5 468.875 C208.71644019 470.98448436 207.93258844 473.09386031 207.1484375 475.203125 C206.7781543 476.20279297 206.40787109 477.20246094 206.02636719 478.23242188 C204.7396511 481.70202549 203.44004767 485.16602614 202.125 488.625 C201.77695312 489.54539062 201.42890625 490.46578125 201.0703125 491.4140625 C199.85340731 494.35417649 198.45242726 497.16984175 197 500 C195.68 500 194.36 500 193 500 C192.68546875 499.17757813 192.3709375 498.35515625 192.046875 497.5078125 C191.61890625 496.39148438 191.1909375 495.27515625 190.75 494.125 C190.33234375 493.03445313 189.9146875 491.94390625 189.484375 490.8203125 C188.39288007 487.99119696 187.26942521 485.17613577 186.13671875 482.36328125 C184.58566832 478.49700076 183.08014559 474.61574057 181.59765625 470.72265625 C181.18193359 469.63146484 180.76621094 468.54027344 180.33789062 467.41601562 C179.48942131 465.18504807 178.64305743 462.95327861 177.79882812 460.72070312 C175.80838276 455.50616697 173.75394008 450.36778206 171.40234375 445.3046875 C169.09272617 440.32001509 167.24122899 435.26868718 165.5 430.0625 C163.28186941 423.58219698 160.95783792 417.21011303 158.2421875 410.91796875 C157.04783264 408.11236157 155.92833017 405.28346382 154.82275391 402.44189453 C152.69698081 397.01209389 150.49069895 391.61449824 148.0625 386.3125 C147.64097656 385.38050781 147.21945313 384.44851563 146.78515625 383.48828125 C142.29738777 377.23290155 133.09886927 374.71761464 126.30307007 371.65600586 C115.6525597 366.84044409 105.51407581 361.86331674 96 355 C95.2265625 354.47535156 94.453125 353.95070313 93.65625 353.41015625 C89.16940045 350.3388009 89.16940045 350.3388009 88 348 C87.01 347.67 86.02 347.34 85 347 C83.76326269 345.50289694 82.52889087 344.00349266 81.32421875 342.48046875 C79.51632206 340.45925092 77.32408033 339.37061147 75 338 C72.9375 335.625 72.9375 335.625 71 333 C68.44805326 329.46330456 68.44805326 329.46330456 65 327 C64.33333333 325.66666667 63.66666667 324.33333333 63 323 C62.34 322.67 61.68 322.34 61 322 C60.505 320.515 60.505 320.515 60 319 C59.2471875 318.26910156 58.494375 317.53820312 57.71875 316.78515625 C54.10109239 313.07913631 51.88621023 308.94296479 49.39453125 304.43945312 C48.84345703 303.47749023 48.84345703 303.47749023 48.28125 302.49609375 C47.96220703 301.92044678 47.64316406 301.3447998 47.31445312 300.75170898 C45.03335205 297.71179438 42.82614616 295.33620985 38.94633293 294.62190151 C36.37477164 294.46734024 33.82892294 294.43997066 31.25268555 294.45410156 C30.27659836 294.44376389 29.30051117 294.43342621 28.29484558 294.42277527 C25.07530198 294.39332707 21.8563865 294.39184763 18.63671875 294.390625 C16.401828 294.37564477 14.16694832 294.35891796 11.93208313 294.34051514 C6.05487563 294.29681213 0.17781748 294.27683583 -5.69952393 294.26177979 C-11.6988611 294.24221948 -17.69803674 294.2002482 -23.69726562 294.16015625 C-35.46479396 294.08482202 -47.2322862 294.03454987 -59 294 C-59 292.35 -59 290.7 -59 289 C-58.01 288.67 -57.02 288.34 -56 288 C-55.67 287.34 -55.34 286.68 -55 286 C-54.01 286 -53.02 286 -52 286 C-52 285.34 -52 284.68 -52 284 C-51.01 284 -50.02 284 -49 284 C-48.67 283.34 -48.34 282.68 -48 282 C-46.66666667 281.33333333 -45.33333333 280.66666667 -44 280 C-43.54367188 279.53851563 -43.08734375 279.07703125 -42.6171875 278.6015625 C-40.86595845 276.86725354 -39.08285294 275.62611748 -37 274.3125 C-36.319375 273.87550781 -35.63875 273.43851562 -34.9375 272.98828125 C-33 272 -33 272 -30 272 C-30 271.34 -30 270.68 -30 270 C-29.01 270 -28.02 270 -27 270 C-27 269.34 -27 268.68 -27 268 C-26.01 268 -25.02 268 -24 268 C-24 267.34 -24 266.68 -24 266 C-22.35 265.34 -20.7 264.68 -19 264 C-19 263.34 -19 262.68 -19 262 C-17.989375 261.608125 -16.97875 261.21625 -15.9375 260.8125 C-13.07236221 259.60122224 -10.68741408 258.16117596 -8.1875 256.3125 C-5 254 -5 254 -3 254 C-3 253.34 -3 252.68 -3 252 C-1.35 251.67 0.3 251.34 2 251 C2 250.34 2 249.68 2 249 C2.99 249 3.98 249 5 249 C5 248.34 5 247.68 5 247 C5.99 247 6.98 247 8 247 C8.33 246.34 8.66 245.68 9 245 C11.0625 244.375 11.0625 244.375 13 244 C13 243.34 13 242.68 13 242 C14.4609375 240.7109375 14.4609375 240.7109375 16.375 239.375 C17.00148438 238.92898437 17.62796875 238.48296875 18.2734375 238.0234375 C20 237 20 237 22 237 C22.2165625 236.13375 22.2165625 236.13375 22.4375 235.25 C22.77468925 233.90124299 23.13022188 232.55658781 23.52197266 231.22265625 C24.10525412 228.51060599 24.16339066 225.96179283 24.2109375 223.1875 C24.8642917 194.37316372 28.67256868 167.17251408 41.453125 141.02734375 C44.5799945 134.49506178 47.24025105 128.72891044 45.33203125 121.453125 C44.3176189 118.58792768 43.17763005 115.80194735 42 113 C41.14022222 110.77299149 40.28615654 108.54377022 39.4375 106.3125 C39.04433594 105.29800781 38.65117188 104.28351563 38.24609375 103.23828125 C37.39141742 101.0171945 36.54824451 98.79165705 35.71484375 96.5625 C33.48800132 90.61266646 31.2063997 84.68377874 28.92138672 78.75610352 C28.39272509 77.38291224 27.86536952 76.0092174 27.33935547 74.63500977 C24.45204723 67.09351954 21.44711515 59.65781892 18.04101562 52.33129883 C16.6811963 49.28605617 15.66112652 46.18778105 14.6875 43 C12.75745918 36.91737445 10.43927188 31.05679835 7.9375 25.1875 C7.59162842 24.37514893 7.24575684 23.56279785 6.8894043 22.72583008 C5.47018467 19.40592457 4.03976941 16.09128132 2.59765625 12.78125 C0.71753865 8.33855219 -0.51942782 4.93456433 0 0 Z M36 45 C38.87664134 52.76285129 41.77665051 60.50972186 44.875 68.1875 C48.40828084 76.95114934 51.74643665 85.78718213 55.09667969 94.62207031 C56.6694807 98.76236271 58.26127716 102.89524181 59.85546875 107.02734375 C60.65396126 109.10124409 61.44787583 111.1769103 62.23828125 113.25390625 C64.1829324 118.3533475 66.16341819 123.42057991 68.3125 128.4375 C71.15468877 135.17088726 73.57890232 142.04825275 76.05126953 148.92333984 C78.16628247 154.779451 80.39736027 160.55361706 82.8515625 166.27734375 C84.61136783 170.44939925 86.20356587 174.68349678 87.81640625 178.9140625 C88.85413727 181.61969782 89.91706256 184.31222755 91 187 C91.31453125 187.78761719 91.6290625 188.57523438 91.953125 189.38671875 C92.74815585 191.37132935 93.5517817 193.35249939 94.359375 195.33203125 C94.81828125 196.48058594 95.2771875 197.62914062 95.75 198.8125 C96.17796875 199.87082031 96.6059375 200.92914063 97.046875 202.01953125 C98.65903042 207.06082054 98.65903042 207.06082054 98 210 C95.89098058 211.74263503 94.02955882 213.02536972 91.6875 214.375 C90.73931396 214.95145264 90.73931396 214.95145264 89.77197266 215.53955078 C88.47791251 216.32614913 87.17969464 217.10594755 85.87744141 217.87890625 C83.17631749 219.49185307 80.52624823 221.18164524 77.875 222.875 C77.02679688 223.40867188 76.17859375 223.94234375 75.3046875 224.4921875 C72.99058084 225.96364247 72.99058084 225.96364247 70.8828125 227.6328125 C69 229 69 229 66 230 C66 230.66 66 231.32 66 232 C65.01 232 64.02 232 63 232 C63 232.66 63 233.32 63 234 C62.01 234 61.02 234 60 234 C60 234.66 60 235.32 60 236 C59.01 236 58.02 236 57 236 C57 236.66 57 237.32 57 238 C55.93652344 238.38478516 55.93652344 238.38478516 54.8515625 238.77734375 C51.77383412 240.09697249 49.16839013 241.71947814 46.375 243.5625 C43.52936671 245.43749947 41.23717611 246.9209413 38 248 C38 248.66 38 249.32 38 250 C35.525 250.99 35.525 250.99 33 252 C33 252.66 33 253.32 33 254 C32.01 254 31.02 254 30 254 C30 254.66 30 255.32 30 256 C29.34 256.061875 28.68 256.12375 28 256.1875 C23.8783325 257.30378495 20.34249498 259.33761566 17 262 C17 262.66 17 263.32 17 264 C16.01 264 15.02 264 14 264 C14 264.66 14 265.32 14 266 C13.01 266 12.02 266 11 266 C11 266.66 11 267.32 11 268 C10.01 268 9.02 268 8 268 C8 268.66 8 269.32 8 270 C6.35 270.33 4.7 270.66 3 271 C2.67 271.99 2.34 272.98 2 274 C6.82045725 274.76327195 11.51349559 275.1708176 16.39086914 275.30322266 C17.09445242 275.32299541 17.7980357 275.34276817 18.52293968 275.36314011 C20.83941554 275.42643461 23.15599207 275.48311457 25.47265625 275.5390625 C26.27947405 275.55984486 27.08629185 275.58062721 27.91755867 275.60203934 C40.54712626 275.92655424 53.17547874 276.10602606 65.80859375 276.2109375 C67.44430595 276.22538342 69.08001762 276.23988941 70.71572876 276.25445557 C77.32257626 276.31200188 83.92935182 276.36874496 90.53637695 276.40136719 C94.67702952 276.4223005 98.81734931 276.45748544 102.95781136 276.50212479 C104.50744826 276.51617414 106.05714284 276.52498188 107.60684013 276.52817917 C109.74533672 276.53309029 111.88292835 276.5562164 114.02124023 276.58349609 C115.83240578 276.59562637 115.83240578 276.59562637 117.68016052 276.60800171 C121.3838768 277.04532721 123.8183376 278.08426034 127 280 C128.21484375 281.84765625 128.21484375 281.84765625 128.9375 284.0625 C129.246875 284.94292969 129.55625 285.82335937 129.875 286.73046875 C130.24625 287.80941406 130.6175 288.88835937 131 290 C132.12281678 292.96734256 133.28185884 295.92031671 134.4375 298.875 C134.71392334 299.59308838 134.99034668 300.31117676 135.27514648 301.05102539 C136.85782641 305.15046328 138.50696312 309.21219232 140.22265625 313.2578125 C144.4419512 323.33266752 148.2015594 333.59327176 152.06152344 343.80957031 C155.55727026 353.05502839 159.05807334 362.27781507 162.91796875 371.37890625 C164.76881375 375.86236111 166.37733213 380.43014579 168 385 C171.09778924 393.61271034 174.23456882 402.1824207 178.16796875 410.45703125 C181.03412751 416.4954434 183.32884512 422.6235879 185.5 428.9375 C188.84429654 442.03870724 188.84429654 442.03870724 196 452 C197.27833161 448.878017 198.54622092 445.75188878 199.8125 442.625 C200.16892578 441.75488281 200.52535156 440.88476562 200.89257812 439.98828125 C202.99647638 434.77679016 204.77469374 429.57240973 206.33618164 424.17480469 C207.12140044 421.60226733 208.13456617 419.2290859 209.3125 416.8125 C212.51449261 409.99504425 215.25571945 403.00984705 218 396 C218.4228125 394.9275 218.845625 393.855 219.28125 392.75 C221.08543271 388.12389048 222.84140511 383.4882052 224.46875 378.796875 C224.72333984 378.06388184 224.97792969 377.33088867 225.24023438 376.57568359 C225.72590011 375.16893843 226.20684234 373.76054785 226.68164062 372.35009766 C228.04624133 368.38602872 229.61414975 364.59521472 231.3828125 360.79296875 C234.23131576 354.62937868 236.56275471 348.31799897 238.875 341.9375 C239.75027875 339.55040577 240.62658354 337.16368752 241.50390625 334.77734375 C242.14030029 333.04460205 242.14030029 333.04460205 242.78955078 331.27685547 C249.61396191 312.80221928 249.61396191 312.80221928 253.4375 304.75 C257.46633505 295.7096872 260.61762805 286.30152285 264 277 C306.24 276.67 348.48 276.34 392 276 C391.67 275.01 391.34 274.02 391 273 C390.01 273 389.02 273 388 273 C388 272.34 388 271.68 388 271 C387.01 271 386.02 271 385 271 C385 270.34 385 269.68 385 269 C383.35 268.67 381.7 268.34 380 268 C380 267.34 380 266.68 380 266 C378.02 265.34 376.04 264.68 374 264 C374 263.34 374 262.68 374 262 C371.92111288 260.52313012 369.86716626 259.18604262 367.6875 257.875 C367.09259766 257.50246094 366.49769531 257.12992188 365.88476562 256.74609375 C362.21519303 254.50698926 362.21519303 254.50698926 358 254 C358 253.34 358 252.68 358 252 C357.01 252 356.02 252 355 252 C355 251.34 355 250.68 355 250 C353.56674374 248.80581591 353.56674374 248.80581591 351.67578125 247.6875 C350.97646484 247.25179687 350.27714844 246.81609375 349.55664062 246.3671875 C348.81607422 245.91601562 348.07550781 245.46484375 347.3125 245 C346.59126953 244.54882812 345.87003906 244.09765625 345.12695312 243.6328125 C341.5113361 241.40070555 338.03535691 239.40083396 334 238 C334 237.34 334 236.68 334 236 C333.01 236 332.02 236 331 236 C331 235.34 331 234.68 331 234 C330.01 234 329.02 234 328 234 C328 233.34 328 232.68 328 232 C327.01 232 326.02 232 325 232 C325 231.34 325 230.68 325 230 C324.01 230 323.02 230 322 230 C322 229.34 322 228.68 322 228 C320.35 227.67 318.7 227.34 317 227 C317 226.34 317 225.68 317 225 C314.6302068 223.17295011 314.6302068 223.17295011 311.6875 221.375 C310.70136719 220.74335938 309.71523438 220.11171875 308.69921875 219.4609375 C306.07181322 217.76200194 306.07181322 217.76200194 303 218 C303 217.34 303 216.68 303 216 C301.21601386 214.71993203 299.37146094 213.52339649 297.5 212.375 C296.4790625 211.74335938 295.458125 211.11171875 294.40625 210.4609375 C293.6121875 209.97882813 292.818125 209.49671875 292 209 C292.77358526 204.22478234 294.33753944 199.79716165 295.9375 195.25 C296.23962402 194.38890625 296.54174805 193.5278125 296.85302734 192.640625 C301.62611366 179.23313267 307.02551044 166.04870367 312.5546875 152.9375 C314.88803038 147.3527479 316.97513264 141.70255246 319 136 C322.09778924 127.38728966 325.23456882 118.8175793 329.16796875 110.54296875 C332.81810299 102.85288012 335.53794328 94.92055144 338.3046875 86.8828125 C342.13926164 75.76468971 346.62430337 64.91212176 351.23828125 54.09765625 C351.61339844 53.19917969 351.98851562 52.30070312 352.375 51.375 C352.71273438 50.57835937 353.05046875 49.78171875 353.3984375 48.9609375 C354.26218259 46.94947534 354.26218259 46.94947534 353 45 C351.35 45.66 349.7 46.32 348 47 C348 47.66 348 48.32 348 49 C346.88625 49.1546875 346.88625 49.1546875 345.75 49.3125 C342.8026481 50.04933797 341.21616926 50.94799142 339 53 C339 53.66 339 54.32 339 55 C338.0925 55.28875 337.185 55.5775 336.25 55.875 C333.67797092 56.76531776 331.38653234 57.71494413 329 59 C329 59.66 329 60.32 329 61 C328.01 61 327.02 61 326 61 C326 61.66 326 62.32 326 63 C325.01 63 324.02 63 323 63 C323 63.66 323 64.32 323 65 C321.8553125 65.433125 321.8553125 65.433125 320.6875 65.875 C317.84970692 66.96269013 317.84970692 66.96269013 315 69 C315 69.66 315 70.32 315 71 C314.29488281 71.09410156 313.58976562 71.18820313 312.86328125 71.28515625 C309.47556303 72.13093037 307.11859766 73.55013993 304.1875 75.4375 C302.72376953 76.36369141 302.72376953 76.36369141 301.23046875 77.30859375 C300.49441406 77.86675781 299.75835937 78.42492187 299 79 C299 79.66 299 80.32 299 81 C298.01 81 297.02 81 296 81 C296 81.66 296 82.32 296 83 C294.35 83.33 292.7 83.66 291 84 C291 84.66 291 85.32 291 86 C290.01 86 289.02 86 288 86 C288 86.66 288 87.32 288 88 C287.01 88 286.02 88 285 88 C285 88.66 285 89.32 285 90 C284.01 90 283.02 90 282 90 C282 90.66 282 91.32 282 92 C281.29101562 92.25652344 280.58203125 92.51304688 279.8515625 92.77734375 C276.77383412 94.09697249 274.16839013 95.71947814 271.375 97.5625 C268.52936671 99.43749947 266.23717611 100.9209413 263 102 C263 102.66 263 103.32 263 104 C261.35 104.66 259.7 105.32 258 106 C258 106.66 258 107.32 258 108 C257.27167969 108.103125 256.54335938 108.20625 255.79296875 108.3125 C252.73095466 109.06622655 250.87660428 110.18901972 248.3125 112 C244.07594937 114.96202532 244.07594937 114.96202532 242 116 C242 116.66 242 117.32 242 118 C241.01 118 240.02 118 239 118 C239 118.66 239 119.32 239 120 C238.01 120 237.02 120 236 120 C236 120.66 236 121.32 236 122 C235.01 122 234.02 122 233 122 C233 122.66 233 123.32 233 124 C230.525 124.495 230.525 124.495 228 125 C227.67 125.99 227.34 126.98 227 128 C225.01463373 128.70905938 223.01089078 129.36694179 221 130 C218.6018499 131.24224175 216.31791404 132.60925157 214 134 C214 134.66 214 135.32 214 136 C213.01 136 212.02 136 211 136 C211 136.66 211 137.32 211 138 C210.01 138 209.02 138 208 138 C208 138.66 208 139.32 208 140 C207.2575 140.28875 206.515 140.5775 205.75 140.875 C203.10631396 141.89157921 203.10631396 141.89157921 201.15625 143.03125 C198.6285576 144.16687992 196.50583696 144.40743392 193.75 144.625 C192.41195312 144.73714844 192.41195312 144.73714844 191.046875 144.8515625 C190.37140625 144.90054688 189.6959375 144.94953125 189 145 C189 144.34 189 143.68 189 143 C186.48738092 141.28712191 183.97827346 139.68878774 181.375 138.125 C179.94480584 137.25343502 178.51511078 136.38105048 177.0859375 135.5078125 C176.39338867 135.08790039 175.70083984 134.66798828 174.98730469 134.23535156 C173.15506132 133.09638947 171.37695067 131.90465138 169.6015625 130.6796875 C167.23607762 128.81919528 167.23607762 128.81919528 165 129 C165 128.34 165 127.68 165 127 C164.01 127 163.02 127 162 127 C162 126.34 162 125.68 162 125 C161.01 125 160.02 125 159 125 C159 124.34 159 123.68 159 123 C158.01 123 157.02 123 156 123 C156 122.34 156 121.68 156 121 C155.01 121 154.02 121 153 121 C153 120.34 153 119.68 153 119 C152.01 119 151.02 119 150 119 C150 118.34 150 117.68 150 117 C147.92111288 115.52313012 145.86716626 114.18604262 143.6875 112.875 C142.79514648 112.31619141 142.79514648 112.31619141 141.88476562 111.74609375 C138.21519303 109.50698926 138.21519303 109.50698926 134 109 C134 108.34 134 107.68 134 107 C133.01 107 132.02 107 131 107 C131 106.34 131 105.68 131 105 C128.48738092 103.28712191 125.97827346 101.68878774 123.375 100.125 C121.94480584 99.25343502 120.51511078 98.38105048 119.0859375 97.5078125 C118.39338867 97.08790039 117.70083984 96.66798828 116.98730469 96.23535156 C115.15506132 95.09638947 113.37695067 93.90465138 111.6015625 92.6796875 C109.23607762 90.81919528 109.23607762 90.81919528 107 91 C107 90.34 107 89.68 107 89 C106.01 89 105.02 89 104 89 C103.67 88.34 103.34 87.68 103 87 C100.97536745 86.34786708 100.97536745 86.34786708 99 86 C99 85.34 99 84.68 99 84 C98.01 84 97.02 84 96 84 C96 83.34 96 82.68 96 82 C95.01 82 94.02 82 93 82 C93 81.34 93 80.68 93 80 C90.91978313 78.57560043 88.85755579 77.2729764 86.6875 76 C85.50369243 75.29202407 84.32009196 74.58370172 83.13671875 73.875 C82.10160156 73.25625 81.06648438 72.6375 80 72 C79.01 71.34 78.02 70.68 77 70 C76.01 70 75.02 70 74 70 C74 69.34 74 68.68 74 68 C72.25740472 66.59363708 72.25740472 66.59363708 69.984375 65.21484375 C69.14519531 64.68439453 68.30601563 64.15394531 67.44140625 63.60742188 C66.55324219 63.05634766 65.66507813 62.50527344 64.75 61.9375 C63.87730469 61.38255859 63.00460938 60.82761719 62.10546875 60.25585938 C56.86664755 56.89661002 56.86664755 56.89661002 51 55 C51 54.34 51 53.68 51 53 C50.01 53 49.02 53 48 53 C48 52.34 48 51.68 48 51 C45.525 50.505 45.525 50.505 43 50 C43 49.34 43 48.68 43 48 C40.525 47.505 40.525 47.505 38 47 C38 46.34 38 45.68 38 45 C37.34 45 36.68 45 36 45 Z " fill="#000000" transform="translate(59,0)"/>
<path d="M0 0 C0.99 0.495 0.99 0.495 2 1 C2 1.66 2 2.32 2 3 C2.639375 3.226875 3.27875 3.45375 3.9375 3.6875 C15.27272727 8.54545455 15.27272727 8.54545455 17 12 C17.99 12 18.98 12 20 12 C20 12.66 20 13.32 20 14 C21.0828125 14.4021875 21.0828125 14.4021875 22.1875 14.8125 C24.99766383 15.99901362 27.48416557 17.27485639 30 19 C30 19.66 30 20.32 30 21 C30.56203125 21.11214844 31.1240625 21.22429687 31.703125 21.33984375 C34.31513108 22.09057339 36.39471322 23.21167376 38.75 24.5625 C39.94882812 25.24505859 39.94882812 25.24505859 41.171875 25.94140625 C41.77515625 26.29074219 42.3784375 26.64007813 43 27 C43 27.66 43 28.32 43 29 C43.99 29 44.98 29 46 29 C46 29.66 46 30.32 46 31 C46.99 31 47.98 31 49 31 C49 31.66 49 32.32 49 33 C49.99 33 50.98 33 52 33 C52 33.66 52 34.32 52 35 C53.65 35.33 55.3 35.66 57 36 C57 36.66 57 37.32 57 38 C57.99 38 58.98 38 60 38 C60 38.66 60 39.32 60 40 C60.721875 40.268125 61.44375 40.53625 62.1875 40.8125 C64.98339591 41.99298938 67.41894188 43.41165654 70 45 C71.32608822 45.68096422 72.65686601 46.35330586 74 47 C74 47.66 74 48.32 74 49 C74.99 49 75.98 49 77 49 C80.12828181 58.38484544 76.47638585 65.88095486 72.75 74.5 C72.25886719 75.67175781 71.76773438 76.84351563 71.26171875 78.05078125 C69.20733986 82.93198549 67.10518443 87.78325888 64.890625 92.59375 C63.31924414 96.08802066 62.07808903 99.63634776 60.88183594 103.27539062 C60.52764587 104.3493811 60.17345581 105.42337158 59.80853271 106.52990723 C59.54171692 107.34503784 59.27490112 108.16016846 59 109 C42.75383842 109.02334643 26.50768228 109.04098777 10.26150799 109.05181217 C2.71835965 109.05697141 -4.82477827 109.06400705 -12.36791992 109.07543945 C-18.94148506 109.08539762 -25.51504265 109.09185614 -32.08861512 109.09408849 C-35.57019273 109.09539367 -39.05174877 109.09846737 -42.53331947 109.10573006 C-46.41715529 109.11376639 -50.30096987 109.1139904 -54.18481445 109.11352539 C-55.34287094 109.11712067 -56.50092743 109.12071594 -57.69407654 109.12442017 C-59.27791641 109.12235817 -59.27791641 109.12235817 -60.89375305 109.12025452 C-62.27229446 109.12163721 -62.27229446 109.12163721 -63.67868519 109.12304783 C-66 109 -66 109 -69 108 C-69 107.34 -69 106.68 -69 106 C-69.66 106 -70.32 106 -71 106 C-71.31453125 105.154375 -71.6290625 104.30875 -71.953125 103.4375 C-72.38109375 102.303125 -72.8090625 101.16875 -73.25 100 C-73.66765625 98.88625 -74.0853125 97.7725 -74.515625 96.625 C-75.58041275 94.02467623 -76.67655602 91.60563447 -77.953125 89.1171875 C-80.10684873 84.89312312 -81.82495623 80.5569559 -83.5 76.125 C-85.40563841 71.10286483 -87.36427638 66.15315641 -89.5625 61.25 C-90.81206949 58.11530412 -91.01296942 57.10004983 -90.5625 53.625 C-88.74401257 50.56994112 -86.91580767 49.01329577 -84 47 C-83.38125 46.505 -82.7625 46.01 -82.125 45.5 C-74.33333333 40 -74.33333333 40 -71 40 C-71 39.34 -71 38.68 -71 38 C-68.525 37.505 -68.525 37.505 -66 37 C-66 36.34 -66 35.68 -66 35 C-65.01 35 -64.02 35 -63 35 C-63 34.34 -63 33.68 -63 33 C-62.01 33 -61.02 33 -60 33 C-59.67 32.34 -59.34 31.68 -59 31 C-56.9375 30.375 -56.9375 30.375 -55 30 C-55 29.34 -55 28.68 -55 28 C-52.92111288 26.52313012 -50.86716626 25.18604262 -48.6875 23.875 C-47.79514648 23.31619141 -47.79514648 23.31619141 -46.88476562 22.74609375 C-42.38338484 20 -42.38338484 20 -39 20 C-39 19.34 -39 18.68 -39 18 C-37.35 17.34 -35.7 16.68 -34 16 C-34 15.34 -34 14.68 -34 14 C-32.35 13.67 -30.7 13.34 -29 13 C-29 12.34 -29 11.68 -29 11 C-28.01 11 -27.02 11 -26 11 C-25.67 10.34 -25.34 9.68 -25 9 C-22.13073269 7.36041868 -19.07584082 6.19616032 -16 5 C-16 4.34 -16 3.68 -16 3 C-11.44274448 -1.08581529 -5.7585722 -0.48219928 0 0 Z " fill="#000000" transform="translate(260,159)"/>
<path d="M0 0 C39.6 0 79.2 0 120 0 C118.16360186 6.12132714 116.33876146 12.05877645 114.0625 18 C113.82337891 18.63421875 113.58425781 19.2684375 113.33789062 19.921875 C110.45636319 27.52484975 107.38335483 35.05231726 104.3359375 42.58984375 C98.92818435 55.99277864 93.6814105 69.42666363 88.72680664 83.00561523 C85.33800124 92.2313376 81.65580768 101.3206854 77.9074707 110.40527344 C75.17922045 117.03820677 72.56924648 123.69479823 70.125 130.4375 C68.21617057 135.68719917 66.30791233 140.93151119 64.25 146.125 C63.88390625 147.05570313 63.5178125 147.98640625 63.140625 148.9453125 C62 151 62 151 59 152 C48.09133181 126.74931611 48.09133181 126.74931611 45 117.5625 C42.58412473 110.39481124 39.76433737 103.4267769 36.875 96.4375 C32.62759608 86.15342569 28.62123849 75.80509087 24.75 65.375 C21.40733827 56.37055633 18.02923884 47.39918264 14.30200195 38.54492188 C12.13176555 33.37979946 10.14976122 28.16065154 8.2109375 22.90576172 C6.19412124 17.45626967 4.04585258 12.06550858 1.82788086 6.69482422 C0 2.21329044 0 2.21329044 0 0 Z " fill="#000000" transform="translate(194,277)"/>
<path d="M0 0 C5.90398753 0.43311105 9.57158988 2.14721792 14.4375 5.4375 C15.07365234 5.84548828 15.70980469 6.25347656 16.36523438 6.67382812 C17.95346512 7.71956974 19.48302923 8.85333 21 10 C21 10.66 21 11.32 21 12 C23.475 12.495 23.475 12.495 26 13 C26 13.66 26 14.32 26 15 C26.99 15 27.98 15 29 15 C29 15.66 29 16.32 29 17 C29.99 17 30.98 17 32 17 C32 17.66 32 18.32 32 19 C32.99 19 33.98 19 35 19 C35 19.66 35 20.32 35 21 C35.99 21 36.98 21 38 21 C38 21.66 38 22.32 38 23 C39.11375 23.28875 40.2275 23.5775 41.375 23.875 C45 25 45 25 47 27 C48.31747324 27.69748583 49.64914193 28.36959957 51 29 C51 29.66 51 30.32 51 31 C51.99 31 52.98 31 54 31 C54 31.66 54 32.32 54 33 C55.08812988 33.4031543 55.08812988 33.4031543 56.19824219 33.81445312 C60.89351221 35.80122824 64.99564091 38.71411997 69.25 41.5 C70.63445312 42.39138672 70.63445312 42.39138672 72.046875 43.30078125 C72.9234375 43.87183594 73.8 44.44289062 74.703125 45.03125 C75.50395508 45.55267578 76.30478516 46.07410156 77.12988281 46.61132812 C79 48 79 48 80 50 C80.99 50 81.98 50 83 50 C83 50.66 83 51.32 83 52 C83.99 52 84.98 52 86 52 C86 52.66 86 53.32 86 54 C86.99 54 87.98 54 89 54 C89 54.66 89 55.32 89 56 C89.5775 56.11472656 90.155 56.22945312 90.75 56.34765625 C93.18555205 57.05379721 94.88694267 58.04667906 97 59.4375 C99.60436882 61.14153038 102.19267917 62.65273665 105 64 C105 64.66 105 65.32 105 66 C105.99 66 106.98 66 108 66 C108 66.66 108 67.32 108 68 C108.64582031 68.21527344 109.29164063 68.43054688 109.95703125 68.65234375 C114.16690681 70.51679441 117.85608673 73.02447306 121.6875 75.5625 C123.21169852 76.56462551 124.73641359 77.56596593 126.26171875 78.56640625 C127.26658325 79.23071655 127.26658325 79.23071655 128.29174805 79.90844727 C130.01184042 81.04956807 130.01184042 81.04956807 132 82 C131.67 83.98 131.34 85.96 131 88 C130.01 88 129.02 88 128 88 C128 88.66 128 89.32 128 90 C127.01 90 126.02 90 125 90 C125 90.66 125 91.32 125 92 C124.01 92 123.02 92 122 92 C122 92.66 122 93.32 122 94 C121.01 94 120.02 94 119 94 C118.67 94.66 118.34 95.32 118 96 C116.63692053 97.00437435 115.23433676 97.95568846 113.8125 98.875 C111.04941445 100.66727171 108.31616225 102.47695106 105.625 104.375 C103 106 103 106 100 106 C100 106.66 100 107.32 100 108 C98.3203125 109.2890625 98.3203125 109.2890625 96.125 110.625 C95.40570313 111.07101563 94.68640625 111.51703125 93.9453125 111.9765625 C92 113 92 113 90 113 C90 113.66 90 114.32 90 115 C89.01 115 88.02 115 87 115 C86.67 115.66 86.34 116.32 86 117 C84.36209288 118.04644066 82.68991979 119.0398183 81 120 C80.113125 120.556875 79.22625 121.11375 78.3125 121.6875 C76 123 76 123 74 123 C74 123.66 74 124.32 74 125 C73.01 125 72.02 125 71 125 C71 125.66 71 126.32 71 127 C70.01 127 69.02 127 68 127 C68 127.66 68 128.32 68 129 C67.01 129 66.02 129 65 129 C65 129.66 65 130.32 65 131 C64.01 131 63.02 131 62 131 C61.67 131.66 61.34 132.32 61 133 C55.58823529 137 55.58823529 137 52 137 C46.98439517 125.22463852 42.14658225 113.42472021 37.66796875 101.43359375 C35.51580665 95.69472134 33.32036516 89.97245332 31.125 84.25 C30.70347656 83.1465625 30.28195313 82.043125 29.84765625 80.90625 C27.78186577 75.52382342 25.67076153 70.17142346 23.4296875 64.859375 C21.09412775 59.30270053 19.01615173 53.67902189 17 48 C14.54674813 41.16893771 12.01942404 34.40882833 9.15234375 27.73828125 C7.38575892 23.54039661 5.80407999 19.27401285 4.2109375 15.0078125 C3.02564026 11.92840334 3.02564026 11.92840334 1.36328125 8.828125 C-0.1724743 5.64220231 -0.24942504 3.49195056 0 0 Z " fill="#000000" transform="translate(113,67)"/>
<path d="M0 0 C-0.50963048 6.50528321 -2.22758544 11.75804416 -4.75 17.75 C-5.11198486 18.63252441 -5.47396973 19.51504883 -5.84692383 20.42431641 C-7.76424255 25.08695498 -9.72805967 29.72993699 -11.6875 34.375 C-13.92836507 39.69611773 -15.83700172 45.11252678 -17.75 50.55859375 C-19.28378048 54.78128314 -21.00879845 58.90369014 -22.76171875 63.0390625 C-24.69044721 67.65097471 -26.46300197 72.32007208 -28.23730469 76.99316406 C-29.11643751 79.30637528 -29.99954724 81.61805109 -30.8828125 83.9296875 C-34.79673804 94.15793938 -34.79673804 94.15793938 -38.63671875 104.4140625 C-41.44769385 112.0184708 -44.42625722 119.49706608 -47.703125 126.9140625 C-48.96046874 129.90593466 -50.0159873 132.90871483 -51 136 C-55.75 135.125 -55.75 135.125 -58 134 C-58 133.34 -58 132.68 -58 132 C-58.99 132 -59.98 132 -61 132 C-61 131.34 -61 130.68 -61 130 C-61.99 130 -62.98 130 -64 130 C-64 129.34 -64 128.68 -64 128 C-64.99 128 -65.98 128 -67 128 C-67 127.34 -67 126.68 -67 126 C-68.65 125.67 -70.3 125.34 -72 125 C-72 124.34 -72 123.68 -72 123 C-72.99 123 -73.98 123 -75 123 C-75 122.34 -75 121.68 -75 121 C-77.65228812 119.92474806 -80.28368454 118.90543849 -83 118 C-83.45375 117.525625 -83.9075 117.05125 -84.375 116.5625 C-86.38576214 114.62907486 -88.39052205 113.9168436 -91 113 C-91 112.34 -91 111.68 -91 111 C-91.96873047 110.67708984 -91.96873047 110.67708984 -92.95703125 110.34765625 C-97.16690681 108.48320559 -100.85608673 105.97552694 -104.6875 103.4375 C-106.21169852 102.43537449 -107.73641359 101.43403407 -109.26171875 100.43359375 C-110.26658325 99.76928345 -110.26658325 99.76928345 -111.29174805 99.09155273 C-113.01184042 97.95043193 -113.01184042 97.95043193 -115 97 C-115 96.34 -115 95.68 -115 95 C-115.99 95 -116.98 95 -118 95 C-118 94.34 -118 93.68 -118 93 C-119.65 92.67 -121.3 92.34 -123 92 C-123 91.34 -123 90.68 -123 90 C-123.99 90 -124.98 90 -126 90 C-126 89.34 -126 88.68 -126 88 C-126.99 88 -127.98 88 -129 88 C-129 87.34 -129 86.68 -129 86 C-129.99 86 -130.98 86 -132 86 C-132.015625 83.85546875 -132.015625 83.85546875 -131 81 C-128.46806247 78.76014951 -125.63331526 77.06393531 -122.75 75.3125 C-121.98558594 74.82716797 -121.22117187 74.34183594 -120.43359375 73.84179688 C-116.72898027 71.52241451 -113.15795361 69.42202013 -109 68 C-109 67.34 -109 66.68 -109 66 C-108.01 66 -107.02 66 -106 66 C-105.67 65.34 -105.34 64.68 -105 64 C-103.34634594 62.97862543 -101.67623498 61.98387706 -100 61 C-98.20057784 59.68200219 -96.41829936 58.34570924 -94.6484375 56.98828125 C-93 56 -93 56 -90 56 C-90 55.34 -90 54.68 -90 54 C-89.01 54 -88.02 54 -87 54 C-87 53.34 -87 52.68 -87 52 C-86.01 52 -85.02 52 -84 52 C-84 51.34 -84 50.68 -84 50 C-83.01 50 -82.02 50 -81 50 C-80.505 49.01 -80.505 49.01 -80 48 C-78.6023032 46.96212802 -77.16203375 45.98115518 -75.703125 45.03125 C-74.8265625 44.46019531 -73.95 43.88914063 -73.046875 43.30078125 C-72.12390625 42.70652344 -71.2009375 42.11226562 -70.25 41.5 C-69.3425 40.90574219 -68.435 40.31148437 -67.5 39.69921875 C-63.40588349 37.0476199 -59.59094513 34.70095435 -55 33 C-55 32.34 -55 31.68 -55 31 C-54.01 31 -53.02 31 -52 31 C-52 30.34 -52 29.68 -52 29 C-51.01 29 -50.02 29 -49 29 C-48.67 28.34 -48.34 27.68 -48 27 C-46.35443434 25.96564444 -44.6829392 24.97236487 -43 24 C-41.989375 23.29875 -40.97875 22.5975 -39.9375 21.875 C-37.45586727 20.29097911 -35.85586221 19.43936342 -33 19 C-33 18.34 -33 17.68 -33 17 C-32.01 17 -31.02 17 -30 17 C-30 16.34 -30 15.68 -30 15 C-29.01 15 -28.02 15 -27 15 C-26.67 14.34 -26.34 13.68 -26 13 C-23.95816792 11.46625172 -21.82084316 10.11603505 -19.67578125 8.73046875 C-17.82174691 7.53143633 -15.9867678 6.30261673 -14.16796875 5.05078125 C-13.22566406 4.41527344 -12.28335938 3.77976562 -11.3125 3.125 C-10.44238281 2.52945313 -9.57226562 1.93390625 -8.67578125 1.3203125 C-5.56629988 -0.21400093 -3.42375088 -0.25064062 0 0 Z " fill="#000000" transform="translate(395,68)"/>
<path d="M0 0 C11.79303959 4.62472141 22.21561162 12.69925696 32.64453125 19.80078125 C36.0681529 22.1211693 39.47754188 24.29793445 43.125 26.25 C48.01848595 28.90134866 52.5765746 31.99757922 57.17651367 35.12036133 C60.35804356 37.27119264 63.55169618 39.36120664 66.85546875 41.3203125 C67.45907227 41.67891357 68.06267578 42.03751465 68.68457031 42.40698242 C70.34551531 43.38342376 72.01434556 44.34641579 73.68359375 45.30859375 C74.44800781 45.86675781 75.21242188 46.42492187 76 47 C76 47.99 76 48.98 76 50 C44.98 50 13.96 50 -18 50 C-17.33426273 46.00557636 -16.86584352 43.22609177 -15.46875 39.62890625 C-15.15679687 38.81768311 -14.84484375 38.00645996 -14.5234375 37.1706543 C-14.18570312 36.30996338 -13.84796875 35.44927246 -13.5 34.5625 C-13.15195312 33.66249268 -12.80390625 32.76248535 -12.4453125 31.83520508 C-11.30323407 28.88762012 -10.15222455 25.94363249 -9 23 C-8.15614324 20.83597913 -7.31239457 18.6719161 -6.46875 16.5078125 C-4.31985227 11.00231297 -2.16285661 5.50002958 0 0 Z " fill="#000000" transform="translate(346,217)"/>
<path d="M0 0 C1.32 0 2.64 0 4 0 C7.65331101 9.61322231 11.20046156 19.26269866 14.6875 28.9375 C15.06769287 29.9905835 15.44788574 31.04366699 15.83959961 32.12866211 C16.20577393 33.14710205 16.57194824 34.16554199 16.94921875 35.21484375 C17.27237061 36.11323975 17.59552246 37.01163574 17.9284668 37.93725586 C19.3299042 41.94295926 20.65799827 45.9739948 22 50 C-9.02 50 -40.04 50 -72 50 C-72 49.01 -72 48.02 -72 47 C-69.95662289 45.51608338 -67.99191051 44.25075123 -65.8125 43 C-65.23435547 42.65710938 -64.65621094 42.31421875 -64.06054688 41.9609375 C-61.45001018 40.4152638 -58.823321 38.89749168 -56.19921875 37.375 C-53.90595805 36.05576069 -53.90595805 36.05576069 -52 34 C-50.26638003 32.84991878 -48.51364643 31.7284837 -46.75 30.625 C-43.61925343 28.66213664 -40.52057003 26.69062888 -37.5 24.5625 C-35 23 -35 23 -32 23 C-32 22.34 -32 21.68 -32 21 C-31.01 21 -30.02 21 -29 21 C-29 20.34 -29 19.68 -29 19 C-27.27406355 17.88552097 -25.49042489 16.86007968 -23.6875 15.875 C-18.21014631 12.79236611 -13.24420035 9.34756767 -8.27734375 5.50390625 C-6 4 -6 4 -3 4 C-2.67 3.34 -2.34 2.68 -2 2 C-1.34 1.34 -0.68 0.68 0 0 Z " fill="#000000" transform="translate(159,217)"/>
</svg>
