<?xml version="1.0" encoding="UTF-8"?>
<svg xmlns="http://www.w3.org/2000/svg" viewBox="0 0 512 640" role="img" aria-label="Black gothic emblem inspired by the provided symbol">
  <g fill="#000000">
    <!-- upper flame crown -->
    <path d="M256 4c15 23 21 43 21 66 8-15 14-31 15-50 15 27 16 54 7 81 15-9 27-24 34-44 5 35-6 62-25 82H204c-19-20-30-47-25-82 7 20 19 35 34 44-9-27-8-54 7-81 1 19 7 35 15 50 0-23 6-43 21-66z"/>
    <!-- cup in crown -->
    <path d="M226 42h60l-12 62h-36z"/>

    <!-- main outer cartouche -->
    <path fill-rule="evenodd" d="M256 103c104 0 193 48 206 112 23 5 42 24 42 51 0 34-30 58-67 55-34 47-102 78-181 78s-147-31-181-78c-37 3-67-21-67-55 0-27 19-46 42-51 13-64 102-112 206-112zm0 39c-89 0-160 38-171 86l-5 22-22 1c-8 0-13 6-13 14 0 14 16 21 32 15l23-8 12 21c25 42 82 68 144 68s119-26 144-68l12-21 23 8c16 6 32-1 32-15 0-8-5-14-13-14l-22-1-5-22c-11-48-82-86-171-86z"/>

    <!-- inner field and crossing bands as blackline version -->
    <path d="M84 235c32-45 97-71 172-71s140 26 172 71c-47-12-102-18-172-18s-125 6-172 18z"/>
    <path d="M84 295c47 12 102 18 172 18s125-6 172-18c-32 45-97 71-172 71s-140-26-172-71z"/>
    <path d="M80 250c45 5 90 13 131 25-41 12-86 20-131 25z"/>
    <path d="M432 250c-45 5-90 13-131 25 41 12 86 20 131 25z"/>

    <!-- central spear/flame axis -->
    <path d="M256 140c27 31 36 63 20 96h-40c-16-33-7-65 20-96z"/>
    <path d="M236 319h40c16 33 7 65-20 96-27-31-36-63-20-96z"/>
    <rect x="242" y="224" width="28" height="104" rx="14"/>

    <!-- bat wings -->
    <path d="M231 239c-31-11-64-23-106-47 6 25 2 54-9 87 20-8 36-12 50-12-7 18-13 39-14 61 24-22 45-41 79-54z"/>
    <path d="M281 239c31-11 64-23 106-47-6 25-2 54 9 87-20-8-36-12-50-12 7 18 13 39 14 61-24-22-45-41-79-54z"/>

    <!-- mask -->
    <path fill-rule="evenodd" d="M256 210c38 22 62 48 62 91 0 52-27 83-62 98-35-15-62-46-62-98 0-43 24-69 62-91zm-38 76c12-10 32-8 45 8-20 4-35 2-45-8zm76 0c-12-10-32-8-45 8 20 4 35 2 45-8zm-56 57h36c-7 8-29 8-36 0z"/>
    <path d="M244 247l12-21 12 21 22-4-15 17 9 22-28-12-28 12 9-22-15-17z"/>

    <!-- crescent horns -->
    <path d="M43 315c31 91 92 140 164 148-56 22-116 14-159-26-36-34-51-77-45-121z"/>
    <path d="M469 315c-31 91-92 140-164 148 56 22 116 14 159-26 36-34 51-77 45-121z"/>

    <!-- lower stem and bird/anchor shape -->
    <path d="M214 403h84v45c0 12 7 20 22 20 12 0 23-7 30-19 3 35-18 63-50 65 8 22 26 39 57 51-45 9-78-3-101-31-23 28-56 40-101 31 31-12 49-29 57-51-32-2-53-30-50-65 7 12 18 19 30 19 15 0 22-8 22-20z"/>
    <path d="M256 441c18 43 54 70 112 82-35 15-70 16-103 1l-9 111-9-111c-33 15-68 14-103-1 58-12 94-39 112-82z"/>
    <path d="M178 572c27 9 51 7 72-4-8 24-31 45-70 63 3-20 2-39-2-59z"/>
    <path d="M334 572c-27 9-51 7-72-4 8 24 31 45 70 63-3-20-2-39 2-59z"/>
  </g>
</svg>
