<?xml version="1.0" standalone="no"?>
<!DOCTYPE svg PUBLIC "-//W3C//DTD SVG 20010904//EN"
 "http://www.w3.org/TR/2001/REC-SVG-20010904/DTD/svg10.dtd">
<svg version="1.0" xmlns="http://www.w3.org/2000/svg"
 width="527.000000pt" height="500.000000pt" viewBox="0 0 527.000000 500.000000"
 preserveAspectRatio="xMidYMid meet">

<g transform="translate(0.000000,500.000000) scale(0.100000,-0.100000)"
fill="#000000" stroke="none">
<path d="M3595 4994 c-444 -35 -786 -106 -1053 -220 -186 -80 -375 -198 -466
-292 -81 -83 -169 -222 -141 -222 2 0 28 15 57 34 133 85 330 166 523 217 90
24 381 79 415 79 4 0 20 20 34 45 15 25 31 45 36 45 5 0 10 -17 12 -37 l3 -38
285 3 c374 5 658 -23 897 -88 107 -29 207 -79 211 -106 5 -36 -78 -144 -218
-284 -74 -75 -160 -158 -192 -185 -53 -47 -58 -56 -87 -149 -32 -98 -69 -301
-58 -312 6 -7 64 26 247 141 238 148 378 254 558 418 44 42 81 67 95 67 12 0
51 -9 87 -21 93 -29 119 -21 180 52 115 138 232 346 246 437 6 39 4 45 -29 76
-42 40 -273 146 -318 146 -17 0 -49 -10 -71 -22 -47 -27 -68 -18 -83 36 -6 20
-20 43 -32 51 -41 29 -292 78 -558 110 -127 15 -480 27 -580 19z"/>
<path d="M1120 4086 c0 -5 11 -22 26 -38 88 -105 156 -364 185 -697 18 -209
11 -267 -60 -471 -87 -255 -105 -359 -106 -600 0 -147 4 -216 18 -282 53 -261
173 -495 342 -663 135 -135 333 -278 770 -553 252 -159 261 -164 285 -149 85
50 468 295 604 387 426 287 589 473 699 800 53 159 62 228 62 465 -1 262 -13
329 -105 600 -32 96 -61 198 -65 227 -8 63 9 311 31 453 33 214 97 402 166
489 l32 39 -195 -6 c-923 -31 -1413 -31 -2466 0 -123 3 -223 3 -223 -1z m1454
-383 c22 -94 31 -112 97 -199 l51 -67 -21 -26 c-12 -14 -30 -44 -42 -65 -42
-79 -6 -195 76 -246 20 -12 38 -20 41 -18 2 3 7 32 10 66 6 50 3 68 -14 101
l-21 39 25 17 c13 8 41 40 61 71 l37 55 16 -44 c10 -25 29 -60 44 -80 l27 -35
-26 -26 c-22 -22 -25 -33 -25 -96 0 -75 3 -79 51 -55 65 34 118 150 106 236
-3 22 -24 69 -46 105 -23 36 -41 67 -41 69 0 2 24 11 53 21 80 26 136 57 215
118 80 64 115 81 185 91 l47 7 -108 -219 c-60 -121 -116 -248 -124 -282 l-16
-63 39 -38 c31 -29 39 -44 39 -73 0 -40 -41 -97 -70 -97 -28 0 -37 -20 -43
-99 -3 -40 -8 -75 -10 -78 -2 -2 -26 1 -53 7 -223 50 -575 72 -813 51 -116
-10 -318 -40 -388 -57 -20 -5 -22 -1 -28 73 -8 83 -17 103 -45 103 -29 0 -70
57 -70 97 0 29 8 44 40 75 40 37 41 38 30 80 -17 69 -28 92 -137 312 l-104
209 46 -6 c65 -9 120 -36 193 -95 64 -52 154 -100 229 -122 l42 -13 -23 -31
c-75 -100 -91 -198 -46 -290 24 -51 89 -106 123 -106 18 0 19 5 15 72 -5 62
-9 75 -32 94 l-26 23 36 52 c19 29 38 66 41 81 3 15 8 28 12 28 3 0 19 -23 34
-50 16 -28 41 -60 57 -72 l29 -21 -21 -40 c-16 -32 -19 -52 -15 -94 7 -70 12
-76 45 -59 62 32 102 104 102 181 0 51 -9 72 -53 127 l-29 36 48 58 c57 71 88
136 105 220 7 35 16 64 19 64 3 0 14 -35 24 -77z m257 -903 c133 -14 292 -46
348 -71 42 -18 43 -20 38 -56 -11 -66 -21 -69 -139 -45 -189 39 -276 47 -533
46 -259 0 -390 -11 -533 -45 -46 -10 -90 -19 -98 -19 -17 0 -48 65 -41 84 11
29 260 89 432 105 132 12 408 13 526 1z m119 -204 c115 -18 186 -42 195 -64 3
-9 12 -60 20 -113 10 -75 21 -112 49 -164 40 -76 45 -118 21 -186 -24 -67 -58
-95 -157 -130 -121 -44 -174 -79 -198 -132 -23 -50 -26 -87 -6 -87 7 0 19 13
26 29 6 16 23 39 36 52 21 20 26 21 34 9 13 -21 13 -33 -10 -199 -18 -127 -26
-157 -61 -228 -38 -78 -85 -133 -115 -133 -17 0 -17 -2 1 50 8 23 15 69 15
101 l0 58 -54 -6 c-34 -4 -56 -2 -60 6 -11 17 -39 14 -32 -4 9 -24 -40 -18
-64 7 -20 22 -22 22 -51 5 -41 -23 -76 -22 -89 3 -14 25 -30 26 -30 1 0 -30
-13 -32 -55 -11 -71 36 -92 1 -80 -131 6 -76 5 -80 -12 -71 -31 17 -50 44 -89
125 -32 69 -39 95 -50 205 -7 70 -20 151 -29 181 -19 63 -12 78 32 64 19 -7
36 -25 53 -59 l25 -49 3 32 c5 45 -14 106 -40 130 -13 12 -66 35 -118 53 -112
37 -155 62 -181 104 -28 46 -25 130 7 213 19 48 29 99 35 172 9 124 16 133
109 157 134 34 722 40 920 10z"/>
<path d="M2153 2389 c-40 -12 -48 -23 -50 -74 0 -22 -4 -54 -8 -72 -5 -24 -1
-42 16 -72 25 -46 38 -49 83 -22 17 10 67 26 110 35 44 8 83 19 88 24 16 16
21 90 8 121 -6 17 -26 36 -43 44 -41 18 -162 28 -204 16z"/>
<path d="M2757 2381 c-87 -8 -107 -28 -107 -107 0 -64 13 -76 105 -94 33 -7
79 -23 102 -36 23 -13 46 -24 52 -24 5 0 22 25 36 55 24 48 26 58 15 90 -6 19
-9 48 -5 64 5 23 2 32 -17 45 -23 17 -56 18 -181 7z"/>
<path d="M2506 2148 c-9 -21 -16 -44 -16 -52 0 -8 -11 -27 -23 -43 -53 -63
-37 -125 22 -84 36 26 45 26 81 0 32 -25 60 -19 60 11 0 11 -16 43 -35 71 -19
28 -35 59 -35 69 0 10 -9 28 -19 41 l-20 24 -15 -37z"/>
<path d="M1255 1448 c-52 -29 -455 -339 -575 -442 -94 -81 -143 -116 -160
-116 -14 0 -54 9 -90 21 -93 29 -119 21 -180 -52 -115 -138 -232 -346 -246
-437 -6 -39 -4 -45 29 -76 42 -40 273 -146 318 -146 17 0 49 10 71 22 47 27
68 18 83 -36 14 -47 37 -62 137 -86 531 -126 1154 -125 1698 1 191 44 413 126
548 201 124 69 250 158 306 216 81 83 169 222 141 222 -2 0 -28 -15 -57 -34
-133 -85 -330 -166 -523 -217 -90 -24 -381 -79 -415 -79 -4 0 -20 -20 -34 -45
-15 -25 -31 -45 -36 -45 -5 0 -10 17 -12 38 l-3 37 -285 -3 c-373 -5 -670 25
-900 89 -92 25 -199 75 -207 96 -13 34 45 111 202 269 88 88 221 210 295 270
74 61 136 118 138 127 2 10 -19 41 -50 74 -30 32 -69 77 -87 101 -35 44 -65
53 -106 30z"/>
</g>
</svg>
