<?xml version="1.0" encoding="UTF-8"?>
<svg version="1.1" xmlns="http://www.w3.org/2000/svg" width="547" height="500">
<path d="M0 0 C61.38 0 122.76 0 186 0 C183.96947159 4.06105681 183.12811224 4.9163407 179.5625 7.375 C178.58152344 8.0659375 177.60054687 8.756875 176.58984375 9.46875 C176.02894043 9.86191406 175.46803711 10.25507813 174.89013672 10.66015625 C171.09841071 13.34796203 167.36611856 16.11744262 163.625 18.875 C162.87162354 19.42720215 162.11824707 19.9794043 161.34204102 20.54833984 C159.8120208 21.67367434 158.29586627 22.8181186 156.79458618 23.98151779 C154 26 154 26 150.72663879 27.81883621 C146.33264818 30.39649934 142.06450045 33.11880912 140.23456573 38.07173443 C138.95811541 44.28344379 139.16471055 50.61369094 139.22265625 56.92480469 C139.1951887 59.05139511 139.16229884 61.17792134 139.12442017 63.30435181 C139.03974195 69.06148434 139.03778454 74.815818 139.05617905 80.5734396 C139.0646387 85.38940935 139.03406966 90.20482502 139.0041132 95.02068448 C138.93466147 106.38922484 138.93391897 117.75636561 138.97558594 129.125 C139.01724757 140.82953058 138.94168619 152.52916391 138.80833912 164.23289943 C138.69787327 174.30234951 138.66149523 184.3702505 138.68360424 194.4402802 C138.69600573 200.44574632 138.68077452 206.4477992 138.59378052 212.45272064 C138.51504731 218.10566758 138.52939102 223.75111061 138.61314011 229.40391159 C138.62857658 231.46858096 138.61213009 233.53379368 138.5601387 235.59786606 C138.16095588 246.61318509 138.16095588 246.61318509 142.8610878 256.18118382 C147.3990509 260.29252832 152.40436436 263.50363278 157.67569923 266.58841181 C161.05242186 268.63915406 164.10888061 271.0332639 167.1875 273.5 C168.19941406 274.28246094 169.21132813 275.06492187 170.25390625 275.87109375 C171.16011719 276.57363281 172.06632813 277.27617187 173 278 C174.5381724 279.19202267 176.07934317 280.3801983 177.625 281.5625 C178.21539062 282.01753906 178.80578125 282.47257812 179.4140625 282.94140625 C181.13687409 284.19210554 181.13687409 284.19210554 184 285 C184.66 286.32 185.32 287.64 186 289 C124.62 289 63.24 289 0 289 C1.98172177 285.03655646 2.46629342 284.38897014 5.9765625 282.2421875 C11.34348952 278.82374898 16.3408615 275.01165105 21.375 271.125 C23.1318436 269.7721783 24.8896588 268.42061745 26.6484375 267.0703125 C27.46738652 266.41760376 28.28633554 265.76489502 29.1301012 265.09240723 C32 263 32 263 34.87938213 261.58996582 C38.80080079 259.49280823 42.20750347 257.4626745 43.63531899 253.02575302 C44.72003445 246.7480101 44.48583079 240.37031658 44.4074707 234.0234375 C44.42074676 231.8677445 44.43871529 229.71207607 44.46101379 227.55645752 C44.50683532 221.71287383 44.48336402 215.87146207 44.44464898 210.0279007 C44.41304076 203.90836808 44.43597926 197.78899761 44.45048523 191.66943359 C44.46591589 181.39320923 44.43568963 171.11786034 44.37915039 160.84179688 C44.31444436 148.96693236 44.32503768 137.09391543 44.37532359 125.21902275 C44.42172107 113.78830757 44.41170252 102.35828527 44.37709618 90.92755127 C44.36355101 86.06627617 44.37029309 81.20565598 44.39351845 76.34442139 C44.41854447 70.6177051 44.39430677 64.89324668 44.332304 59.16683197 C44.31750466 57.06746134 44.3196419 54.96789157 44.34009552 52.86856842 C44.82778643 41.83758717 44.82778643 41.83758717 40.79103661 32.01438904 C38.27507053 29.97144059 35.88057162 28.46490621 33 27 C32.0203125 26.24332031 31.040625 25.48664063 30.03125 24.70703125 C25.49526032 21.31203898 20.94119663 17.95033052 16.33984375 14.64453125 C15.5303125 14.06276123 14.72078125 13.48099121 13.88671875 12.8815918 C12.27807877 11.72786725 10.66745857 10.57689776 9.0546875 9.42895508 C8.31347656 8.89810303 7.57226562 8.36725098 6.80859375 7.8203125 C6.14657959 7.34867676 5.48456543 6.87704102 4.80249023 6.39111328 C3.03300723 5.02547409 1.4687084 3.68607383 0 2 C0 1.34 0 0.68 0 0 Z " fill="#020202" transform="translate(219,211)"/>
<path d="M0 0 C5.5527785 4.7800041 9.40771414 10.03803731 12.8125 16.5 C13.36679687 17.52738281 13.92109375 18.55476563 14.4921875 19.61328125 C22.18056009 34.38304964 23.33967517 51.30651683 19.1875 67.5 C18.43835213 69.84732998 17.64563527 72.18114982 16.8125 74.5 C16.36003359 75.84744034 15.90823507 77.1951051 15.45703125 78.54296875 C11.37633547 90.36488217 6.30061031 101.06612417 -3.1875 109.5 C-4.1465625 110.49 -4.1465625 110.49 -5.125 111.5 C-7.6876076 113.98495283 -10.36352004 116.3175081 -13.06640625 118.6484375 C-14.40681375 119.81851698 -15.72990638 121.00900981 -17.02734375 122.2265625 C-42.98060679 146.25939381 -77.65255434 152.08984425 -111.56811523 151.66113281 C-114.1875 151.5 -114.1875 151.5 -116.1875 150.5 C-116.89241267 148.17793475 -117.55962429 145.84406932 -118.1875 143.5 C-120.2443946 141.4431054 -124.54305998 142.24252924 -127.37890625 142.18359375 C-128.60866432 142.1524221 -128.60866432 142.1524221 -129.86326599 142.12062073 C-132.49208901 142.05503506 -135.12101504 141.99619874 -137.75 141.9375 C-139.52800561 141.89432333 -141.30600065 141.85070933 -143.08398438 141.80664062 C-147.45171634 141.69934457 -151.81955227 141.59810296 -156.1875 141.5 C-155.0138556 137.97906681 -154.32880675 137.66532052 -151.3125 135.6875 C-145.93623525 132.05404756 -140.71399226 128.23749571 -135.5 124.375 C-133.89222696 123.18449075 -132.2841628 121.99437453 -130.67578125 120.8046875 C-129.91604004 120.24104492 -129.15629883 119.67740234 -128.37353516 119.09667969 C-126.37012223 117.63338725 -124.33764576 116.22492137 -122.29296875 114.8203125 C-119.20062326 112.78820464 -119.20062326 112.78820464 -117.80249023 110.37060547 C-116.1875 108.5 -116.1875 108.5 -113.91357422 108.109375 C-113.0320166 108.15578125 -112.15045898 108.2021875 -111.2421875 108.25 C-110.25565186 108.28383789 -109.26911621 108.31767578 -108.25268555 108.35253906 C-107.19992432 108.40120117 -106.14716309 108.44986328 -105.0625 108.5 C-94.41373531 108.75151429 -85.32836766 107.65056083 -75.1875 104.5 C-73.68896484 104.066875 -73.68896484 104.066875 -72.16015625 103.625 C-57.02153024 98.75978877 -41.40646619 87.34345796 -33.19921875 73.4921875 C-29.1252488 65.4700845 -28.79394778 55.90568629 -31.02734375 47.2421875 C-35.91671925 34.36847827 -45.01141697 27.02653962 -57.1015625 21.0625 C-78.08892878 11.75939305 -101.4411803 11.73493428 -122.8046875 19.87890625 C-125.01012482 20.75658028 -127.21464259 21.63657071 -129.41796875 22.51953125 C-135.22880796 24.57668307 -140.57383048 23.87501403 -146.1875 21.5 C-148.84544976 18.09450187 -149.42019271 15.33528364 -149.1875 11.125 C-147.90562565 3.16669673 -143.41147137 -2.07288997 -137.015625 -6.7109375 C-126.15789921 -13.57949884 -114.61984947 -18.35226088 -102.1875 -21.5 C-100.94484375 -21.8196875 -99.7021875 -22.139375 -98.421875 -22.46875 C-63.23681688 -30.47687456 -27.73161418 -22.79909748 0 0 Z " fill="#080808" transform="translate(526.1875,24.5)"/>
<path d="M0 0 C3.59391114 1.33488128 6.75490696 2.96022723 10 5 C9.38136753 10.1258119 7.80644788 14.41522174 5.8125 19.125 C5.49933838 19.87491211 5.18617676 20.62482422 4.86352539 21.39746094 C2.62546076 26.69000539 0.18059054 31.84367437 -2.45727539 36.94995117 C-3.92479569 39.85131707 -5.3068038 42.774353 -6.66015625 45.73046875 C-7.18311279 46.8695166 -7.70606934 48.00856445 -8.24487305 49.18212891 C-8.52696625 49.79670959 -8.80905945 50.41129028 -9.09970093 51.04449463 C-10.38379932 53.8336359 -11.67913157 56.6175173 -12.97380066 59.40176392 C-24.14077003 83.38524029 -24.14077003 83.38524029 -34.17041016 107.85888672 C-35.65895405 111.70071425 -37.23788698 115.50532543 -38.8125 119.3125 C-39.23039795 120.32715332 -39.23039795 120.32715332 -39.65673828 121.36230469 C-40.87766704 124.31964891 -42.11508091 127.26765278 -43.37890625 130.20703125 C-53.44443429 153.62754 -62.98941917 177.46296708 -70 202 C-70.20044922 202.70157227 -70.40089844 203.40314453 -70.60742188 204.12597656 C-73.6052686 214.76786549 -75.95556912 225.47977393 -78.12719727 236.31762695 C-79.27492106 241.91674852 -80.61123966 247.27290065 -82.4375 252.6875 C-85.40018849 261.53818139 -87.093758 270.64847639 -88.85717773 279.79956055 C-92.04092563 296.04092563 -92.04092563 296.04092563 -96 300 C-102.61647504 301.0092928 -102.61647504 301.0092928 -105.90625 298.609375 C-107.6949453 296.80498939 -109.35462807 294.93525136 -111 293 C-112.175625 291.8553125 -112.175625 291.8553125 -113.375 290.6875 C-120.06187829 283.84141032 -126.23844079 276.59373562 -132.25 269.15234375 C-133.82177538 267.14403815 -133.82177538 267.14403815 -135 266 C-134.61209942 258.2419883 -132.5124394 251.30874972 -130 244 C-129.77554199 243.32114746 -129.55108398 242.64229492 -129.31982422 241.94287109 C-124.41824647 227.29715351 -117.54997272 213.67860249 -110.52294922 199.96655273 C-106.49450986 192.09203136 -102.73073796 184.22728645 -99.31884766 176.06274414 C-97.52139551 171.88854252 -95.43393929 167.91925776 -93.25 163.9375 C-90.11116653 158.11781443 -87.1539028 152.26226677 -84.39501953 146.25292969 C-80.69342658 138.19713782 -76.68023931 130.64007698 -71.875 123.1875 C-66.17840041 114.34300421 -61.43755307 105.18119862 -56.8125 95.75 C-51.66612307 85.26540879 -46.34903628 75.02805298 -40.24365234 65.06396484 C-37.77242674 60.96271999 -35.42809746 56.78772966 -33.0625 52.625 C-32.04317779 50.83972438 -31.02364741 49.0545676 -30.00390625 47.26953125 C-28.06673344 43.87527571 -26.13827878 40.47627311 -24.21484375 37.07421875 C-16.9475741 24.28882171 -9.41289655 11.34888237 0 0 Z " fill="#0D0D0D" transform="translate(135,81)"/>
<path d="M0 0 C1.98 0.495 1.98 0.495 4 1 C4 16.51 4 32.02 4 48 C1.69 48.66 -0.62 49.32 -3 50 C-5.09126802 51.40623631 -5.09126802 51.40623631 -6.7109375 53.1875 C-7.31550781 53.80367188 -7.92007813 54.41984375 -8.54296875 55.0546875 C-9.14753906 55.69664062 -9.75210938 56.33859375 -10.375 57 C-11.00277344 57.64195312 -11.63054687 58.28390625 -12.27734375 58.9453125 C-15.52728346 62.18857123 -15.52728346 62.18857123 -18 66 C-18.66 66 -19.32 66 -20 66 C-20.39485344 66.88332001 -20.39485344 66.88332001 -20.79768372 67.78448486 C-22.05466455 70.10073068 -23.36661913 71.60191459 -25.23706055 73.44824219 C-25.89502121 74.1028241 -26.55298187 74.75740601 -27.23088074 75.43182373 C-27.94230728 76.12979065 -28.65373383 76.82775757 -29.38671875 77.546875 C-30.12195267 78.27690735 -30.85718658 79.0069397 -31.61470032 79.75909424 C-33.9676025 82.09419488 -36.32705672 84.42252447 -38.6875 86.75 C-41.02926472 89.06399867 -43.36950514 91.3794862 -45.70674133 93.69805908 C-47.15979808 95.13902375 -48.61551808 96.57730974 -50.0743866 98.01239014 C-53.98498685 101.88508186 -57.6711014 105.87014557 -61.26399231 110.03790283 C-64.18008284 113.33377127 -67.3066907 116.40966684 -70.4375 119.5 C-71.12126709 120.17998047 -71.80503418 120.85996094 -72.50952148 121.56054688 C-75.39737773 124.43225143 -78.29123075 127.29788438 -81.18457031 130.1640625 C-83.31265725 132.27392787 -85.43762917 134.38689645 -87.5625 136.5 C-88.20437256 137.13357422 -88.84624512 137.76714844 -89.50756836 138.41992188 C-92.61927743 141.51498645 -95.6094713 144.65723345 -98.47314453 147.98413086 C-102.06014529 152.13784733 -105.91989481 155.94531072 -109.8671875 159.75390625 C-111.34448846 161.19911532 -112.8210293 162.64510173 -114.296875 164.09179688 C-116.59414316 166.33952095 -118.89548861 168.58224096 -121.20996094 170.81225586 C-123.46379668 172.98736433 -125.69798169 175.1811276 -127.9296875 177.37890625 C-128.62440155 178.03951553 -129.3191156 178.70012482 -130.03488159 179.38075256 C-134.10037443 183.42279051 -135.9066863 186.01297508 -136 192 C-135.95875 193.0725 -135.9175 194.145 -135.875 195.25 C-136 198 -136 198 -137.2578125 199.69921875 C-139 201 -139 201 -140.875 201.06640625 C-156.6276976 197.330932 -169.22773821 186.92248398 -177.64453125 173.34765625 C-179.74625266 169.49739526 -181.01669535 166.93493942 -180.9375 162.5 C-180 160 -180 160 -178 158 C-176.43066092 158.39011819 -174.86929904 158.81251387 -173.3125 159.25 C-170.05348548 159.64503206 -167.9300283 159.59882855 -165.12841797 157.79492188 C-161.05745723 154.4629279 -157.40394541 150.71088961 -153.79199219 146.89355469 C-149.78819955 142.6628441 -145.72474809 138.48579886 -141.25 134.75 C-137.84156989 131.81716479 -134.65657734 128.69874433 -131.5 125.5 C-126.68461623 120.63397097 -121.69114899 116.10845891 -116.45654297 111.70019531 C-109.44442575 105.7870368 -102.66363792 99.82577537 -96.25 93.25390625 C-93.51334538 90.51250049 -90.63342941 87.98501137 -87.6875 85.47265625 C-86.27139667 84.23684386 -84.93664801 82.90866507 -83.625 81.5625 C-82 80 -82 80 -80 80 C-80 79.34 -80 78.68 -80 78 C-78.35648543 76.63823078 -76.68477344 75.31037934 -75 74 C-72.71830265 71.77262878 -70.48514077 69.52107713 -68.3125 67.1875 C-67 66 -67 66 -65 66 C-64.74589355 65.40888428 -64.49178711 64.81776855 -64.22998047 64.20874023 C-62.86594619 61.75927257 -61.46980259 60.44558141 -59.3203125 58.66015625 C-58.60391602 58.05316895 -57.88751953 57.44618164 -57.14941406 56.82080078 C-56.44010742 56.21993652 -55.73080078 55.61907227 -55 55 C-52.59661367 52.84269641 -50.23352928 50.64367514 -47.875 48.4375 C-46.8847583 47.51312134 -46.8847583 47.51312134 -45.87451172 46.57006836 C-41.55206472 42.49959152 -37.32287852 38.34626933 -33.140625 34.1328125 C-32.642211 33.63111038 -32.143797 33.12940826 -31.63027954 32.61250305 C-29.14092572 30.10373774 -26.6593365 27.58780307 -24.18701172 25.06225586 C-22.82987061 23.68759155 -22.82987061 23.68759155 -21.4453125 22.28515625 C-20.63594238 21.45894775 -19.82657227 20.63273926 -18.99267578 19.78149414 C-17 18 -17 18 -15 18 C-15 17.34 -15 16.68 -15 16 C-13.36897194 14.298441 -11.69447719 12.63838415 -10 11 C-8.21822291 9.07255938 -6.4473074 7.13502019 -4.6875 5.1875 C-3.80449219 4.21167969 -2.92148438 3.23585937 -2.01171875 2.23046875 C-1.34785156 1.49441406 -0.68398437 0.75835937 0 0 Z " fill="#080808" transform="translate(254,248)"/>
<path d="M0 0 C3.96270089 1.82763412 6.71694538 4.41918074 9.75 7.5 C10.25660156 7.99886719 10.76320313 8.49773437 11.28515625 9.01171875 C15 12.74658861 15 12.74658861 15 15 C15.66 15 16.32 15 17 15 C18.41015625 16.43359375 18.41015625 16.43359375 20.0625 18.4375 C22.75174994 21.60757217 25.53513377 24.58581525 28.5 27.5 C31.26560408 30.22829407 33.91287031 32.98516834 36.4375 35.9375 C39.15619248 39.1103592 42.02751675 42.06338382 45 45 C47.93118191 47.89591958 50.76403174 50.80242571 53.4375 53.9375 C56.30172355 57.28925096 59.36334093 60.40556417 62.5 63.5 C66.2184599 67.1684722 69.73668192 70.93149226 73.125 74.90625 C75.93600311 78.04520347 78.95267797 80.97350681 81.95092773 83.93139648 C85.20000607 87.15366448 88.22443863 90.49340645 91.19140625 93.97265625 C94.17528004 97.31743054 97.40619732 100.41335157 100.59375 103.5625 C103.24959753 106.25283906 105.70135432 109.06573525 108.15625 111.9375 C111.15350228 115.29035849 114.39159634 118.39893756 117.58984375 121.55859375 C120.26344405 124.26685986 122.7371253 127.09596858 125.20703125 129.98828125 C127.98959181 133.11032632 130.98657221 136.00792683 133.984375 138.921875 C136 141 136 141 137.55078125 143.26171875 C138.02902344 143.83535156 138.50726563 144.40898437 139 145 C141.33294775 145.04241723 143.66702567 145.04092937 146 145 C148.4375 146.0625 148.4375 146.0625 150 148 C151.19125048 153.0898884 149.63308487 156.21743766 147.1875 160.75 C140.90136512 170.8635799 132.6268471 178.65218536 122 184 C121.20335937 184.41121094 120.40671875 184.82242188 119.5859375 185.24609375 C115.34636072 187.29498621 111.80152808 188.81977309 107 188 C105 185 105 185 105.3046875 182.8359375 C105.49289062 182.02382813 105.68109375 181.21171875 105.875 180.375 C106.33197115 176.89694183 106.32586591 175.50469476 104.3984375 172.51953125 C103.0034492 171.00533485 101.56435378 169.53021684 100.078125 168.10546875 C97.88926287 165.88780581 96.58990296 163.66876568 95 161 C93.45629689 159.19451507 91.86956269 157.42526058 90.25 155.6875 C87.27514922 152.46725632 84.31109676 149.24852952 81.4375 145.9375 C78.82298058 142.92926472 76.17048344 139.95869751 73.5 137 C68.68985199 131.66437363 63.94019763 126.28413119 59.28515625 120.8125 C58.27363138 119.62483485 57.26190654 118.43733998 56.25 117.25 C55.73985352 116.65098877 55.22970703 116.05197754 54.70410156 115.43481445 C50.36412236 110.36584376 45.85899855 105.4718619 41.27734375 100.62109375 C39.15859588 98.18253488 37.60841102 95.78759798 36 93 C33.87890632 90.76106779 31.6728904 88.63924588 29.4375 86.515625 C24.99150564 82.19313048 21.14381953 77.53042397 17.26171875 72.69921875 C15.23265835 70.27766307 13.14163488 68.07148758 10.875 65.875 C-0.32947194 54.79498591 -0.32947194 54.79498591 -0.79467773 47.11303711 C-0.79358305 44.917494 -0.75483461 42.72173102 -0.68359375 40.52734375 C-0.67368912 39.3636879 -0.66378448 38.20003204 -0.65357971 37.00111389 C-0.61463025 33.31191955 -0.52683559 29.62578347 -0.4375 25.9375 C-0.40236143 23.4251734 -0.37042692 20.91279982 -0.34179688 18.40039062 C-0.26493194 12.26589694 -0.14803617 6.133167 0 0 Z " fill="#070707" transform="translate(364,266)"/>
<path d="M0 0 C0.99 0 1.98 0 3 0 C6 4.22222222 6 4.22222222 6 7 C6.99 7.33 7.98 7.66 9 8 C9.26094627 14.96137313 8.24852434 21.46310684 7.0625 28.3125 C5.85437066 35.36063265 4.7768732 42.31061302 4.34155273 49.45385742 C3.93630484 52.47482259 2.97219505 55.11225871 2 58 C1.45838878 60.51159784 0.96310191 63.00287689 0.51953125 65.53125 C0.38585648 66.28701828 0.2521817 67.04278656 0.11445618 67.82145691 C-0.33002539 70.37930685 -0.7610754 72.93907914 -1.1875 75.5 C-1.33729309 76.39562653 -1.48708618 77.29125305 -1.64141846 78.21401978 C-4.88683727 97.94667146 -6.91844622 117.7949361 -8.875 137.6875 C-8.95081173 138.4555899 -9.02662346 139.22367981 -9.10473251 140.01504517 C-9.61786014 145.22142501 -10.12098516 150.42870017 -10.6171875 155.63671875 C-10.74292648 156.94899948 -10.86866547 158.26128021 -10.99821472 159.61332703 C-12.18335936 172.32581669 -13.15121373 185.03467465 -13.16796875 197.80859375 C-13.17129715 198.74445816 -13.17462555 199.68032257 -13.17805481 200.64454651 C-13.1830489 202.5961153 -13.18546551 204.5476924 -13.18530273 206.49926758 C-13.18749439 209.42999706 -13.20574612 212.36035194 -13.22460938 215.29101562 C-13.25833919 226.69493406 -12.65337915 237.71043699 -11 249 C-10.81097431 250.3234196 -10.6223989 251.64690362 -10.43432617 252.97045898 C-10.29099854 253.97020752 -10.1476709 254.96995605 -10 256 C-10.81339844 256.57105469 -11.62679687 257.14210938 -12.46484375 257.73046875 C-20.78823234 263.60783045 -28.92196995 269.70215319 -36.9921875 275.921875 C-37.64799805 276.42525391 -38.30380859 276.92863281 -38.97949219 277.44726562 C-40.39511657 278.53515483 -41.80691362 279.62803413 -43.21582031 280.72460938 C-43.93092773 281.27439453 -44.64603516 281.82417969 -45.3828125 282.390625 C-46.35178467 283.14134277 -46.35178467 283.14134277 -47.34033203 283.90722656 C-49 285 -49 285 -51 285 C-52.14348462 281.56954615 -52.145885 278.90013552 -52.16796875 275.28125 C-52.1723848 274.60514679 -52.17680084 273.92904358 -52.18135071 273.23245239 C-52.22213992 264.48771662 -52.14282039 255.74350509 -52 247 C-51.98857971 246.28638306 -51.97715942 245.57276611 -51.96539307 244.83752441 C-51.60169147 224.65059291 -49.21402454 204.89031222 -46.1875 184.9375 C-46.0210498 183.83972229 -45.85459961 182.74194458 -45.68310547 181.61090088 C-43.3306896 166.26357186 -40.53618573 151.0240637 -37.54244995 135.79013062 C-36.82469086 132.09828474 -36.14910661 128.40027726 -35.48046875 124.69921875 C-32.4893267 108.34794357 -28.63551381 92.43122668 -23.99804688 76.46044922 C-23.01249982 73.04333965 -22.05556384 69.61960513 -21.109375 66.19140625 C-18.64111311 57.2502535 -16.16182362 48.32814144 -13.3125 39.5 C-11.59768576 34.17797135 -10.28877586 28.89527101 -9.125 23.4375 C-7.30546808 15.00502469 -3.95435961 7.63102542 0 0 Z " fill="#0F0F0F" transform="translate(146,90)"/>
<path d="M0 0 C61.71 0 123.42 0 187 0 C184.07599634 4.87333944 182.64331299 6.26236785 178.125 9.3125 C170.68911645 14.43052249 163.53108818 19.87971222 156.37353516 25.37817383 C155.51937012 26.03325928 154.66520508 26.68834473 153.78515625 27.36328125 C152.65412476 28.23400269 152.65412476 28.23400269 151.50024414 29.12231445 C150.26262329 30.0517688 150.26262329 30.0517688 149 31 C148.52350667 31.4124701 148.04701334 31.8249402 147.55608082 32.2499094 C142.66334217 36.22637772 138.75963253 36.75621498 132.57080078 36.77392578 C131.65098923 36.79553772 130.73117767 36.81714966 129.78349304 36.8394165 C126.75384205 36.90199741 123.72553312 36.92655555 120.6953125 36.9453125 C118.57127574 36.96902909 116.44724215 36.99303078 114.32321167 37.01730347 C109.86968105 37.06074141 105.41661527 37.08202035 100.96289062 37.09130859 C95.29827707 37.10749234 89.63846676 37.20662862 83.97523689 37.32676888 C79.58399876 37.40553032 75.19388135 37.42457694 70.80199814 37.42809677 C68.71692009 37.43942338 66.63183137 37.47191723 64.54745865 37.52731705 C49.39039345 37.89866007 40.81938392 34.92106772 29.67674828 24.52887154 C27.4050287 22.45750075 24.96362941 20.66544401 22.46484375 18.87890625 C21.69849609 18.31623047 20.93214844 17.75355469 20.14257812 17.17382812 C19.41490234 16.64208984 18.68722656 16.11035156 17.9375 15.5625 C15.67766124 13.90630372 13.41844831 12.24937645 11.16357422 10.58642578 C9.68344258 9.50112953 8.19502496 8.42706828 6.69970703 7.36279297 C5.61278564 6.57799561 5.61278564 6.57799561 4.50390625 5.77734375 C3.85365479 5.31448975 3.20340332 4.85163574 2.53344727 4.37475586 C1 3 1 3 0 0 Z " fill="#030303" transform="translate(218,130)"/>
<path d="M0 0 C61.38 0 122.76 0 186 0 C184.00110576 3.99778848 183.39042892 4.71199203 179.875 7 C175.26971305 10.10327526 170.80608007 13.34335962 166.375 16.6875 C165.70380127 17.19321533 165.03260254 17.69893066 164.34106445 18.2199707 C162.94794031 19.26994464 161.55512314 20.32032597 160.16259766 21.37109375 C157.92821246 23.05407162 155.68941416 24.7310151 153.44921875 26.40625 C152.71461426 26.95579346 151.98000977 27.50533691 151.22314453 28.0715332 C149.80388125 29.13301384 148.38429483 30.1940626 146.96435547 31.25463867 C143.86517833 33.48842256 143.86517833 33.48842256 141 36 C138.03472692 36.13794527 135.09209605 36.21053992 132.125 36.24047852 C130.7273214 36.25997307 130.7273214 36.25997307 129.30140686 36.27986145 C119.52680271 36.4068845 109.75131873 36.46338886 99.97607422 36.51489258 C95.33919435 36.54160524 90.70334687 36.5902846 86.06689453 36.65844727 C80.46999621 36.74052599 74.87407885 36.78309846 69.27661133 36.79795647 C67.1459521 36.81018697 65.01532434 36.83617971 62.88500977 36.87640572 C44.09859895 37.21325203 44.09859895 37.21325203 38.33227539 32.1081543 C37.1933289 30.76212313 36.078481 29.39494722 35 28 C33.34023546 26.59942303 33.34023546 26.59942303 31.62109375 25.453125 C24.38947607 20.4486681 17.31358876 15.2801398 10.32983398 9.93457031 C9.69247314 9.45084961 9.0551123 8.96712891 8.3984375 8.46875 C7.83817871 8.04013672 7.27791992 7.61152344 6.70068359 7.16992188 C4.99686327 5.91307731 4.99686327 5.91307731 2.85009766 5.09570312 C2.23956543 4.73412109 1.6290332 4.37253906 1 4 C0.67 2.68 0.34 1.36 0 0 Z " fill="#020202" transform="translate(219,171)"/>
<path d="M0 0 C61.38 0 122.76 0 186 0 C185 4 185 4 182.8828125 5.60546875 C181.97273437 6.12753906 181.06265625 6.64960937 180.125 7.1875 C176.04108354 9.6578227 172.34051791 12.24027394 168.6875 15.3125 C163.99100047 19.25540649 159.13645858 22.85424908 154.12182617 26.37426758 C153.29775269 26.95277466 153.29775269 26.95277466 152.45703125 27.54296875 C151.92687408 27.90844189 151.39671692 28.27391502 150.85049438 28.6504631 C148.97516923 29.97722181 148.97516923 29.97722181 147.24967957 31.5251503 C142.00373572 35.96642712 138.17909608 36.87242576 131.40625 36.77636719 C130.01925903 36.79213806 130.01925903 36.79213806 128.60424805 36.80822754 C125.56879713 36.83448642 122.53546963 36.81720658 119.5 36.796875 C117.37825114 36.80092066 115.256505 36.80674702 113.13476562 36.81427002 C108.69634421 36.82309742 104.25864921 36.81031812 99.8203125 36.78222656 C94.14398372 36.74804162 88.46935721 36.76773456 82.79309082 36.80366135 C78.41425862 36.82539004 74.03582699 36.81842056 69.65698242 36.80289459 C67.56469519 36.79890511 65.47237105 36.80375806 63.38012695 36.81777191 C60.45036129 36.83309111 57.52331422 36.80967799 54.59375 36.77636719 C53.3092395 36.79458527 53.3092395 36.79458527 51.9987793 36.81317139 C46.19816036 36.69158939 42.92680331 35.10500719 38.41271973 31.48051834 C37 30 37 30 37 28 C36.25903076 27.7321167 35.51806152 27.4642334 34.75463867 27.18823242 C32.07862893 26.03391713 30.19052886 24.80035402 27.92578125 22.98828125 C27.18021973 22.39837402 26.4346582 21.8084668 25.66650391 21.20068359 C24.88968262 20.57758301 24.11286133 19.95448242 23.3125 19.3125 C17.63750298 14.8193654 11.98020798 10.4313207 5.9453125 6.4296875 C3.72938856 4.80111689 1.86631343 3.01695757 0 1 C0 0.67 0 0.34 0 0 Z " fill="#020202" transform="translate(219,91)"/>
<path d="M0 0 C2 3 2 3 2.625 6.25 C4.02002158 10.05460432 4.62789039 10.82429834 7.60131836 13.25805664 C11.86421172 16.85431295 15.81787772 20.67296742 19.75390625 24.62109375 C20.45845444 25.32468521 21.16300262 26.02827667 21.88890076 26.75318909 C23.36653367 28.23014648 24.84292457 29.70834742 26.31811523 31.18774414 C28.55666481 33.43165085 30.80050473 35.67016704 33.04492188 37.90820312 C34.48990404 39.35384618 35.93457592 40.79979945 37.37890625 42.24609375 C38.03951553 42.9046788 38.70012482 43.56326385 39.38075256 44.24180603 C43.24745027 48.12771829 46.92979125 52.12254556 50.50169373 56.2815094 C52.4021027 58.4611939 54.42499416 60.48693463 56.5 62.5 C60.00717539 65.95937742 63.29206378 69.53394321 66.4921875 73.27734375 C67.74099787 74.70409342 69.07946714 76.05178849 70.4375 77.375 C72 79 72 79 72 81 C63.585 81.495 63.585 81.495 55 82 C54.43065826 89.20904408 54.43065826 89.20904408 56.0625 92.25 C58.05155241 94.18196447 58.05155241 94.18196447 61.0703125 95.68359375 C65.67389752 98.27292448 69.69262075 101.52533441 73.8125 104.8125 C79.56235645 109.35736711 85.30642999 113.75571521 91.4453125 117.765625 C91.95835937 118.17296875 92.47140625 118.5803125 93 119 C93 119.66 93 120.32 93 121 C88.98015717 121.23368566 84.96206913 121.3748607 80.9375 121.5 C79.80376953 121.56703125 78.67003906 121.6340625 77.50195312 121.703125 C69.21228425 121.89647005 69.21228425 121.89647005 65.80517578 119.37695312 C64.02555898 117.33731642 62.50875973 115.24506361 61 113 C59.3392464 111.16130852 57.67323092 109.3273443 56 107.5 C52.54356229 103.70990918 49.13156146 99.88943967 45.76953125 96.015625 C43.74885044 93.71392236 41.68687382 91.45235621 39.625 89.1875 C36.57141133 85.81059018 33.65570795 82.36782868 30.8125 78.8125 C25.90595269 72.74183338 20.56799383 67.10931085 15.21875 61.4296875 C11.71059742 57.70327657 8.32125382 53.89364012 5 50 C4.05491526 48.89694023 3.10957763 47.79409712 2.1640625 46.69140625 C1.64827637 46.0893335 1.13249023 45.48726074 0.60107422 44.86694336 C-0.46111487 43.62837063 -1.52457995 42.39089096 -2.58935547 41.15454102 C-4.7753875 38.61380344 -6.94305744 36.07063485 -9.046875 33.4609375 C-12.3548883 29.40937992 -15.24733608 26.91506335 -20.10546875 24.88671875 C-22.31471501 23.8527004 -24.09210026 22.51024436 -26 21 C-25.06970303 14.80618069 -24.12636728 9.92871648 -20 5 C-19.21625 4.05125 -18.4325 3.1025 -17.625 2.125 C-12.90900735 -1.66245524 -5.65276738 -0.86965652 0 0 Z " fill="#0C0C0C" transform="translate(160,45)"/>
<path d="M0 0 C31.68 0 63.36 0 96 0 C96 8.58 96 17.16 96 26 C64.32 26 32.64 26 0 26 C0 17.42 0 8.84 0 0 Z " fill="#020202" transform="translate(263,59)"/>
<path d="M0 0 C0.70125 0.00515625 1.4025 0.0103125 2.125 0.015625 C2.82625 0.01046875 3.5275 0.0053125 4.25 0 C6.125 0.265625 6.125 0.265625 8.125 2.265625 C8.390625 4.140625 8.390625 4.140625 8.375 6.265625 C8.38015625 6.966875 8.3853125 7.668125 8.390625 8.390625 C8.125 10.265625 8.125 10.265625 6.125 12.265625 C4.25 12.53125 4.25 12.53125 2.125 12.515625 C1.42375 12.52078125 0.7225 12.5259375 0 12.53125 C-1.875 12.265625 -1.875 12.265625 -3.875 10.265625 C-4.140625 8.390625 -4.140625 8.390625 -4.125 6.265625 C-4.13015625 5.564375 -4.1353125 4.863125 -4.140625 4.140625 C-3.75603481 1.4258707 -2.7147543 0.38459019 0 0 Z " fill="#222222" transform="translate(111.875,269.734375)"/>
<path d="M0 0 C0.99 0.33 1.98 0.66 3 1 C1.71451591 2.33929505 0.42141845 3.67128643 -0.875 5 C-1.59429687 5.7425 -2.31359375 6.485 -3.0546875 7.25 C-5 9 -5 9 -7 9 C-5.44499019 5.18315774 -2.96404505 2.80804268 0 0 Z " fill="#6B6B6B" transform="translate(254,248)"/>
<path d="M0 0 C0.66 0.33 1.32 0.66 2 1 C-0.64 3.64 -3.28 6.28 -6 9 C-6.66 8.67 -7.32 8.34 -8 8 C-5.33333333 5.33333333 -2.66666667 2.66666667 0 0 Z " fill="#4F4F4F" transform="translate(138,359)"/>
<path d="M0 0 C0.66 0 1.32 0 2 0 C2 0.66 2 1.32 2 2 C1.34 2 0.68 2 0 2 C0 1.34 0 0.68 0 0 Z " fill="#E1E1E1" transform="translate(507,477)"/>
<path d="M0 0 C0.66 0 1.32 0 2 0 C2 0.66 2 1.32 2 2 C1.34 2 0.68 2 0 2 C0 1.34 0 0.68 0 0 Z " fill="#E1E1E1" transform="translate(514,476)"/>
<path d="M0 0 C0.66 0 1.32 0 2 0 C2 0.66 2 1.32 2 2 C1.34 2 0.68 2 0 2 C0 1.34 0 0.68 0 0 Z " fill="#E2E2E2" transform="translate(527,474)"/>
<path d="M0 0 C0.66 0 1.32 0 2 0 C2 0.66 2 1.32 2 2 C1.34 2 0.68 2 0 2 C0 1.34 0 0.68 0 0 Z " fill="#DEDEDE" transform="translate(520,475)"/>
<path d="M0 0 C0.66 0 1.32 0 2 0 C2 0.66 2 1.32 2 2 C1.34 2 0.68 2 0 2 C0 1.34 0 0.68 0 0 Z " fill="#E0E0E0" transform="translate(540,472)"/>
<path d="M0 0 C0.66 0 1.32 0 2 0 C2 0.66 2 1.32 2 2 C1.34 2 0.68 2 0 2 C0 1.34 0 0.68 0 0 Z " fill="#E1E1E1" transform="translate(535,473)"/>
<path d="M0 0 C3 1 3 1 3 1 Z " fill="#E3E3E3" transform="translate(482,484)"/>
<path d="M0 0 C0.66 0.66 1.32 1.32 2 2 C1.34 2 0.68 2 0 2 C0 1.34 0 0.68 0 0 Z " fill="#E5E5E5" transform="translate(498,479)"/>
<path d="M0 0 C0.66 0.66 1.32 1.32 2 2 C1.34 2 0.68 2 0 2 C0 1.34 0 0.68 0 0 Z " fill="#DADADA" transform="translate(530,474)"/>
<path d="M0 0 C0.33 0.66 0.66 1.32 1 2 C0.34 1.67 -0.32 1.34 -1 1 C-0.67 0.67 -0.34 0.34 0 0 Z " fill="#DEDEDE" transform="translate(533,473)"/>
<path d="M0 0 C0.33 0.66 0.66 1.32 1 2 C0.34 1.67 -0.32 1.34 -1 1 C-0.67 0.67 -0.34 0.34 0 0 Z " fill="#DADADA" transform="translate(546,471)"/>
<path d="" fill="#E3E3E3" transform="translate(0,0)"/>
<path d="M0 0 C2 1 2 1 2 1 Z " fill="#DEDEDE" transform="translate(510,477)"/>
<path d="M0 0 C2 1 2 1 2 1 Z " fill="#E4E4E4" transform="translate(517,476)"/>
<path d="M0 0 C2 1 2 1 2 1 Z " fill="#DFDFDF" transform="translate(524,475)"/>
<path d="" fill="#E5E5E5" transform="translate(0,0)"/>
<path d="" fill="#E4E4E4" transform="translate(0,0)"/>
<path d="" fill="#E3E3E3" transform="translate(0,0)"/>
<path d="" fill="#E7E7E7" transform="translate(0,0)"/>
<path d="" fill="#E5E5E5" transform="translate(0,0)"/>
<path d="" fill="#E0E0E0" transform="translate(0,0)"/>
<path d="" fill="#DCDCDC" transform="translate(0,0)"/>
<path d="" fill="#E5E5E5" transform="translate(0,0)"/>
<path d="" fill="#D7D7D7" transform="translate(0,0)"/>
<path d="" fill="#DDDDDD" transform="translate(0,0)"/>
</svg>
