<?xml version="1.0" encoding="UTF-8"?>
<svg xmlns="http://www.w3.org/2000/svg" viewBox="0 0 512 640" role="img" aria-label="Black Danava style heraldic emblem">
  <title>Danava black heraldic emblem</title>
  <g fill="#000000">
    <!-- crown -->
    <path d="M256 5l18 42 27-32 5 48 41-20-15 47 50-1-35 36 43 23-54 10 19 47-45-25-20 38-34-33-34 33-20-38-45 25 19-47-54-10 43-23-35-36 50 1-15-47 41 20 5-48 27 32z"/>
    <path d="M105 145c20 18 38 28 57 31 26 4 51-14 75-2 8 4 14 12 19 22 5-10 11-18 19-22 24-12 49 6 75 2 19-3 37-13 57-31-1 53-19 92-53 117H158c-34-25-52-64-53-117z"/>
    <path d="M139 252h234l-22 52H161z"/>
    <circle cx="188" cy="210" r="16"/>
    <circle cx="256" cy="205" r="18"/>
    <circle cx="324" cy="210" r="16"/>

    <!-- shield outer frame -->
    <path fill-rule="evenodd" d="M63 286h386v153c0 77-51 143-95 179-41 34-82 51-98 57-16-6-57-23-98-57-44-36-95-102-95-179V286zm44 44v109c0 55 39 106 80 139 28 23 55 38 69 45 14-7 41-22 69-45 41-33 80-84 80-139V330H107z"/>

    <!-- ermine-like border marks -->
    <path d="M83 317c15 7 16 26 0 33-16-7-15-26 0-33zm0 57c15 7 16 26 0 33-16-7-15-26 0-33zm0 57c15 7 16 26 0 33-16-7-15-26 0-33zm346-114c15 7 16 26 0 33-16-7-15-26 0-33zm0 57c15 7 16 26 0 33-16-7-15-26 0-33zm0 57c15 7 16 26 0 33-16-7-15-26 0-33z"/>
    <path d="M136 309c8-8 20-8 28 0-7 14-21 14-28 0zm53 0c8-8 20-8 28 0-7 14-21 14-28 0zm53 0c8-8 20-8 28 0-7 14-21 14-28 0zm53 0c8-8 20-8 28 0-7 14-21 14-28 0zm53 0c8-8 20-8 28 0-7 14-21 14-28 0z"/>

    <!-- crossed scepters -->
    <path d="M145 560l27 24 196-220-27-24z"/>
    <path d="M367 560l-27 24-196-220 27-24z"/>
    <path d="M127 575l36-40 21 19-36 40zM385 575l-36-40-21 19 36 40z"/>
    <path d="M320 329l39-44 21 19-39 44zM192 329l-39-44-21 19 39 44z"/>

    <!-- three-headed lion / danava beast -->
    <path d="M256 323c28 0 51 14 66 37 21-13 44-14 64-1 25 17 33 49 18 75-9 16-24 25-43 29 26 21 32 61 15 90-16 28-51 37-77 20-12-8-20-19-25-32-5 40-19 71-18 82 1-11-13-42-18-82-5 13-13 24-25 32-26 17-61 8-77-20-17-29-11-69 15-90-19-4-34-13-43-29-15-26-7-58 18-75 20-13 43-12 64 1 15-23 38-37 66-37z"/>
    <path d="M167 376c20-18 54-8 62 16 7 22-4 44-25 51 21 9 32 37 20 59-8 15-25 22-41 17 18-25 9-54-20-61 24-12 30-43 4-82z"/>
    <path d="M345 376c-20-18-54-8-62 16-7 22 4 44 25 51-21 9-32 37-20 59 8 15 25 22 41 17-18-25-9-54 20-61-24-12-30-43-4-82z"/>
    <path d="M222 381c18-34 50-45 68-25 21 23 10 70-34 98-44-28-55-75-34-98z"/>
    <path d="M194 397c-14 5-26 14-34 28 15-2 26 1 35 9-12 7-19 18-22 34 20-11 34-14 49-11-16-19-24-38-28-60z"/>
    <path d="M318 397c14 5 26 14 34 28-15-2-26 1-35 9 12 7 19 18 22 34-20-11-34-14-49-11 16-19 24-38 28-60z"/>
    <path d="M241 380c11 11 19 11 30 0-2 24-9 36-15 43-6-7-13-19-15-43z" fill="#ffffff"/>
    <path d="M212 411c18 10 37 18 44 31 7-13 26-21 44-31-9 32-22 54-44 74-22-20-35-42-44-74z" fill="#ffffff"/>
    <path d="M184 526c14 9 31 8 47-2-3 32-4 59 11 81-33-15-58-39-58-79zm144-2c16 10 33 11 47 2 0 40-25 64-58 79 15-22 14-49 11-81z"/>

    <!-- mane cuts in negative space -->
    <path d="M231 341l-16 45 24-26-10 47 27-28 27 28-10-47 24 26-16-45c-18-10-32-10-50 0z" fill="#ffffff"/>
  </g>
</svg>
