<?xml version="1.0" encoding="UTF-8"?>
<svg version="1.1" xmlns="http://www.w3.org/2000/svg" width="1206" height="1691">
<path d="M0 0 C1.73632812 0.14599609 1.73632812 0.14599609 4.03125 0.5234375 C4.89137695 0.6572583 5.75150391 0.7910791 6.63769531 0.92895508 C8.05453613 1.14974731 8.05453613 1.14974731 9.5 1.375 C34.90887062 5.02893051 60.73210493 4.80806101 86 0 C87.25097721 2.50195442 86.99702976 3.87084555 86.77807617 6.65356445 C86.70430756 7.6311673 86.63053894 8.60877014 86.55453491 9.61599731 C86.46821808 10.68760101 86.38190125 11.75920471 86.29296875 12.86328125 C86.11738377 15.17405627 85.94201912 17.48484804 85.7668457 19.7956543 C85.67214996 21.01956879 85.57745422 22.24348328 85.47988892 23.50448608 C81.88431815 70.33247017 80.57148713 117.05585519 80 164 C99.39720646 165.03750966 118.76923531 165.20256824 138.1875 165.1875 C138.9597718 165.18723312 139.73204361 165.18696625 140.52771759 165.18669128 C164.06714877 165.1764943 187.53249618 165.01820665 211 163 C211.77877502 162.93447937 212.55755005 162.86895874 213.35992432 162.80145264 C290.0847911 156.31565252 369.18919257 142.29850819 435 100 C439.2707998 103.59135438 443.37682436 107.29699609 447.4375 111.125 C500.8436101 160.6247958 574.71893826 181.56134342 646 183 C646 183.66 646 184.32 646 185 C645.33806641 185.01458252 644.67613281 185.02916504 643.99414062 185.04418945 C601.62325063 186.07575878 561.99714386 194.27321662 523 211 C522.21044922 211.33612305 521.42089844 211.67224609 520.60742188 212.01855469 C498.63990419 221.49069703 478.34399386 234.71333845 460 250 C459.46375 250.44601562 458.9275 250.89203125 458.375 251.3515625 C450.53640128 257.89539268 443.07786384 264.62858421 436 272 C432.69722474 270.74662429 429.69013083 269.33745479 426.65625 267.53125 C425.83382812 267.047771 425.01140625 266.56429199 424.1640625 266.06616211 C423.28492188 265.54932861 422.40578125 265.03249512 421.5 264.5 C340.84674197 217.98055244 242.60833023 208.62995985 80 208 C82.91801575 270.57396054 82.91801575 270.57396054 88 333 C88.13504944 334.35448242 88.13504944 334.35448242 88.27282715 335.73632812 C95.99005239 412.62968567 108.9965113 490.00446275 133.77685547 563.37646484 C134.94427182 566.83490666 136.08521901 570.30113791 137.22265625 573.76953125 C150.25503429 612.97295574 167.00399103 652.94269922 189.28515625 687.8125 C189.98842041 688.91416504 190.69168457 690.01583008 191.41625977 691.15087891 C192.77825215 693.25825692 194.15704003 695.35489927 195.55444336 697.43896484 C196.16553955 698.37434082 196.77663574 699.3097168 197.40625 700.2734375 C197.95603516 701.09247559 198.50582031 701.91151367 199.07226562 702.75537109 C200 705 200 705 199.3503418 707.09716797 C198.00927348 708.9869323 196.65224256 710.56062976 194.98828125 712.171875 C194.39893799 712.74945557 193.80959473 713.32703613 193.20239258 713.92211914 C192.57872803 714.52531982 191.95506348 715.12852051 191.3125 715.75 C186.3140413 720.66898794 181.50373477 725.61969941 177 731 C176.20722656 731.91523437 175.41445313 732.83046875 174.59765625 733.7734375 C150.99746376 761.10384356 131.28146858 791.35253166 114 823 C113.25435791 824.35351562 113.25435791 824.35351562 112.49365234 825.734375 C75.29213803 893.59189831 54.26515403 971.49248492 48 1091 C47.34 1091 46.68 1091 46 1091 C45.97812622 1089.57010742 45.97812622 1089.57010742 45.95581055 1088.11132812 C45.2503697 1045.10960698 41.02058224 1002.8919282 31 961 C30.58524414 959.26097412 30.58524414 959.26097412 30.16210938 957.48681641 C22.44253206 925.71544092 11.70939758 894.68101585 -2 865 C-2.27328125 864.40678955 -2.5465625 863.8135791 -2.828125 863.20239258 C-21.86787885 821.93679704 -45.61276586 781.90658536 -75.62158203 747.58886719 C-77.09689506 745.88831154 -78.54808022 744.16916028 -79.99609375 742.4453125 C-86.03344733 735.27781865 -92.26499929 728.5248967 -99 722 C-100.6693227 720.33599361 -102.33588761 718.66921703 -104 717 C-104.88300781 716.11699219 -105.76601563 715.23398438 -106.67578125 714.32421875 C-109.1171875 711.8828125 -111.55859375 709.44140625 -114 707 C-112.65677032 703.39238824 -111.03801832 700.22940168 -109.015625 696.95703125 C-108.41733887 695.97951904 -107.81905273 695.00200684 -107.20263672 693.99487305 C-106.5582666 692.94468994 -105.91389648 691.89450684 -105.25 690.8125 C-72.27104495 636.33088491 -49.4852493 576.73518723 -33.56781006 515.19116211 C-33.00519587 513.02005071 -32.43601898 510.85074528 -31.86572266 508.68164062 C-7.45591757 415.42249993 0.85061858 319.09555697 6 208 C-86.1120926 205.53018992 -178.94583339 207.52413211 -346.01171875 271.0859375 C-348 272 -348 272 -349.921875 271.51171875 C-352.77118456 269.43900672 -355.14014949 266.97772645 -357.5625 264.4375 C-363.05233341 258.83073723 -368.80433486 253.82584845 -375 249 C-376.2436966 248.00416474 -377.48717183 247.00805297 -378.73046875 246.01171875 C-426.58438836 208.09691149 -486.82486802 187.50484005 -547.625 185.4375 C-549.41744141 185.37272461 -549.41744141 185.37272461 -551.24609375 185.30664062 C-554.16397406 185.20159693 -557.08192438 185.09944352 -560 185 C-560 184.34 -560 183.68 -560 183 C-559.30890137 182.9906543 -558.61780273 182.98130859 -557.90576172 182.97167969 C-530.00491107 182.50475815 -503.02702319 179.0927145 -476 172 C-475.13294434 171.77618652 -474.26588867 171.55237305 -473.37255859 171.32177734 C-427.91184766 159.36501208 -382.54174121 134.31138273 -350 100 C-344.93248447 102.74583441 -339.87211307 105.49905567 -334.859375 108.34375 C-272.14325508 143.8463222 -199.45843368 157.02782949 -128.375 162.6875 C-127.23289566 162.77890762 -127.23289566 162.77890762 -126.06771851 162.87216187 C-120.71456155 163.29411668 -115.35929279 163.66517327 -110 164 C-109.21417542 164.04979004 -108.42835083 164.09958008 -107.61871338 164.15087891 C-91.00534547 165.16045056 -74.38818571 165.15512294 -57.75146484 165.13037109 C-53.90411653 165.12468456 -50.05683764 165.12804799 -46.20949173 165.13382339 C-28.78187206 165.15584331 -11.40763642 164.95000044 6 164 C5.51389457 113.30441937 4.11944954 62.63975032 -0.17333984 12.10253906 C-0.23671539 11.34079376 -0.30009094 10.57904846 -0.36538696 9.79421997 C-0.53359955 7.79091467 -0.70934855 5.78824606 -0.88574219 3.78564453 C-0.9422998 2.40675049 -0.9422998 2.40675049 -1 1 C-0.67 0.67 -0.34 0.34 0 0 Z " fill="#000000" transform="translate(560,600)"/>
<path d="M0 0 C0.93301941 -0.00067474 1.86603882 -0.00134949 2.82733154 -0.00204468 C67.57068912 0.0721371 130.34289886 21.68851862 180.9375 62.25 C181.9171875 63.01699219 182.896875 63.78398438 183.90625 64.57421875 C196.09422513 74.27082838 208.50914293 85.2377858 218.25 97.4375 C221.37532675 101.32961589 224.56368562 105.14807467 227.8125 108.9375 C248.11447603 133.29987123 263.38326038 162.49041554 273.9375 192.25 C274.22318848 193.05324707 274.50887695 193.85649414 274.80322266 194.68408203 C285.3223628 224.80851533 290.1745758 256.40489539 290.125 288.25 C290.12409363 289.33399078 290.12409363 289.33399078 290.12316895 290.43988037 C289.98583726 351.24264627 270.49613939 411.52562852 233.9375 460.25 C233.4748877 460.86955566 233.01227539 461.48911133 232.53564453 462.12744141 C196.49732906 510.06339031 196.49732906 510.06339031 177.9375 516.25 C179.2346699 513.54799734 180.65947954 511.06489083 182.3359375 508.58203125 C214.83762503 459.50033393 227.05424296 400.41516844 215.6875 342.625 C205.38028575 292.82777068 179.10491387 246.94418104 138.9375 215.25 C137.96167969 214.45722656 136.98585938 213.66445312 135.98046875 212.84765625 C90.75109191 176.83483167 30.98661616 161.5806552 -26.17089844 168.01928711 C-30.50105063 168.61650708 -34.77982506 169.37715305 -39.0625 170.25 C-40.04686035 170.44867676 -41.0312207 170.64735352 -42.04541016 170.85205078 C-63.15069972 175.24692858 -83.10708242 181.95424586 -102.0625 192.25 C-102.72443359 192.60175293 -103.38636719 192.95350586 -104.06835938 193.31591797 C-154.81360203 220.32744067 -191.95610767 267.19183908 -208.8828125 321.90136719 C-210.46995641 327.30809823 -211.82900371 332.75270563 -213.0625 338.25 C-213.28993896 339.23709961 -213.28993896 339.23709961 -213.52197266 340.24414062 C-225.92086069 395.18332125 -214.2268655 455.00233313 -184.5625 502.5 C-182.45535863 505.82001998 -180.27029196 508.99524136 -177.78125 512.046875 C-176.0625 514.25 -176.0625 514.25 -176.0625 516.25 C-187.615587 511.259287 -197.08614315 499.43359041 -205.875 490.6875 C-206.36223541 490.20544098 -206.84947083 489.72338196 -207.35147095 489.22671509 C-214.0500348 482.58424154 -220.22990204 475.66863626 -226.0625 468.25 C-226.59528564 467.58186279 -227.12807129 466.91372559 -227.67700195 466.2253418 C-267.1136288 416.35652731 -288.25744795 353.17649631 -288.3125 289.75 C-288.31351212 288.68484665 -288.31351212 288.68484665 -288.31454468 287.59817505 C-288.21910987 223.4865006 -266.80940551 159.06341954 -226.0625 109.25 C-225.5871582 108.66573242 -225.11181641 108.08146484 -224.62207031 107.47949219 C-175.73734628 47.71629212 -107.83624328 10.62288048 -31.0625 1.25 C-30.24354248 1.146875 -29.42458496 1.04375 -28.58081055 0.9375 C-19.09225454 -0.09597104 -9.5331112 0.00619947 0 0 Z " fill="#000000" transform="translate(602.0625,-0.25)"/>
<path d="M0 0 C3.46658605 1.15552868 3.68125556 1.66263496 5.42578125 4.69921875 C5.88573486 5.48562744 6.34568848 6.27203613 6.81958008 7.08227539 C7.31224365 7.94199951 7.80490723 8.80172363 8.3125 9.6875 C9.38276571 11.5145763 10.4557894 13.3400392 11.53125 15.1640625 C12.37623047 16.59733887 12.37623047 16.59733887 13.23828125 18.05957031 C16.17011839 22.95300802 19.23694204 27.75852244 22.3125 32.5625 C22.87428955 33.44059326 23.4360791 34.31868652 24.01489258 35.22338867 C24.83703247 36.50693237 24.83703247 36.50693237 25.67578125 37.81640625 C26.21283691 38.65574707 26.74989258 39.49508789 27.30322266 40.35986328 C28.52006823 42.25323997 29.74460663 44.14168105 30.97412109 46.02685547 C31.61559082 47.0170166 32.25706055 48.00717773 32.91796875 49.02734375 C33.50731201 49.930896 34.09665527 50.83444824 34.70385742 51.76538086 C36 54 36 54 36 56 C36.80766312 56.02061493 37.61532623 56.04122986 38.44746399 56.06246948 C46.05506324 56.25834118 53.66233468 56.46335782 61.26940632 56.67867851 C65.18038524 56.78905645 69.09139429 56.89588262 73.00268555 56.99462891 C76.77656762 57.09003626 80.55008794 57.19472471 84.32353783 57.3058815 C85.76395865 57.34667453 87.20447857 57.38410975 88.64507484 57.41814804 C90.66115694 57.46635501 92.6769157 57.52755681 94.69262695 57.58935547 C95.84068314 57.62044403 96.98873932 57.65153259 98.17158508 57.68356323 C101 58 101 58 104 60 C101.66533496 64.4268181 99.32837972 68.85241826 96.98989868 73.27722168 C95.75304643 75.61923151 94.5184653 77.96242934 93.28393555 80.30566406 C89.62995715 87.22947532 85.96003776 94.13508337 82.09765625 100.9453125 C81.53530273 101.94224121 80.97294922 102.93916992 80.39355469 103.96630859 C79.36527122 105.77676074 78.32360574 107.57969958 77.26660156 109.37353516 C76.81381836 110.1732373 76.36103516 110.97293945 75.89453125 111.796875 C75.30442261 112.80766113 75.30442261 112.80766113 74.70239258 113.83886719 C73.30119951 118.1500806 74.76983448 121.49595233 76.59130859 125.48486328 C77.26822703 126.7680227 77.95447259 128.04629155 78.6484375 129.3203125 C79.01729065 130.01325409 79.3861438 130.70619568 79.76617432 131.4201355 C80.96098429 133.65955201 82.16781642 135.89223341 83.375 138.125 C84.19648206 139.65979179 85.01728073 141.19494956 85.83740234 142.73046875 C90.80518481 152.01316521 95.82510292 161.26963954 101.00146484 170.43798828 C104 175.79089341 104 175.79089341 104 178 C96.24457762 178.28791505 88.48903348 178.57236441 80.73339844 178.85449219 C78.09925511 178.95071365 75.46513981 179.047706 72.83105469 179.14550781 C69.02806735 179.28657244 65.22498524 179.42479353 61.421875 179.5625 C60.25887878 179.60624756 59.09588257 179.64999512 57.89764404 179.69506836 C50.59487962 179.95609239 43.30725943 180.05219915 36 180 C35.69536835 180.77975189 35.39073669 181.55950378 35.07687378 182.36288452 C34.03651661 184.91057586 32.83884666 187.08369033 31.3828125 189.4140625 C30.86412598 190.24824707 30.34543945 191.08243164 29.81103516 191.94189453 C29.25464355 192.82731934 28.69825195 193.71274414 28.125 194.625 C27.54927246 195.54780762 26.97354492 196.47061523 26.38037109 197.42138672 C24.59195633 200.28412115 22.79712597 203.14272736 21 206 C20.44828125 206.87785156 19.8965625 207.75570312 19.328125 208.66015625 C13.58336333 217.79321181 7.80455678 226.90483181 2 236 C-1.46658605 234.84447132 -1.68125556 234.33736504 -3.42578125 231.30078125 C-3.88573486 230.51437256 -4.34568848 229.72796387 -4.81958008 228.91772461 C-5.31224365 228.05800049 -5.80490723 227.19827637 -6.3125 226.3125 C-7.38276571 224.4854237 -8.4557894 222.6599608 -9.53125 220.8359375 C-10.09457031 219.88041992 -10.65789062 218.92490234 -11.23828125 217.94042969 C-14.17011839 213.04699198 -17.23694204 208.24147756 -20.3125 203.4375 C-21.15518433 202.12036011 -21.15518433 202.12036011 -22.01489258 200.77661133 C-22.56298584 199.92091553 -23.1110791 199.06521973 -23.67578125 198.18359375 C-24.21283691 197.34425293 -24.74989258 196.50491211 -25.30322266 195.64013672 C-26.52006823 193.74676003 -27.74460663 191.85831895 -28.97412109 189.97314453 C-29.61559082 188.9829834 -30.25706055 187.99282227 -30.91796875 186.97265625 C-31.50731201 186.069104 -32.09665527 185.16555176 -32.70385742 184.23461914 C-34 182 -34 182 -34 180 C-35.10061768 179.97494385 -36.20123535 179.9498877 -37.33520508 179.92407227 C-58.89672926 179.43012767 -80.45073709 178.89512766 -102 178 C-100.541921 174.17705236 -98.82224407 170.57604152 -96.9453125 166.94140625 C-96.64737793 166.36390625 -96.34944336 165.78640625 -96.04248047 165.19140625 C-95.07246147 163.31381259 -94.09875555 161.4381581 -93.125 159.5625 C-92.45295565 158.26229182 -91.78091795 156.9620802 -91.10888672 155.66186523 C-86.43486669 146.64277185 -81.62834711 137.70369427 -76.59423828 128.87915039 C-76.13259277 128.05406982 -75.67094727 127.22898926 -75.1953125 126.37890625 C-74.79328613 125.6732251 -74.39125977 124.96754395 -73.97705078 124.24047852 C-72.11101642 119.96146869 -71.5400531 117.20027859 -73.24072266 112.76220703 C-73.8754248 111.60575684 -74.51012695 110.44930664 -75.1640625 109.2578125 C-75.50803574 108.62019989 -75.85200897 107.98258728 -76.20640564 107.32565308 C-77.33076708 105.25008522 -78.4775142 103.18785833 -79.625 101.125 C-80.40378119 99.6974421 -81.18103307 98.2690489 -81.95678711 96.83984375 C-83.52919581 93.94866236 -85.11039494 91.06258725 -86.69970703 88.18066406 C-88.82961094 84.31638281 -90.93416789 80.43896379 -93.02734375 76.5546875 C-96.00599678 71.02975367 -98.99721521 65.51185238 -102 60 C-98.478328 57.65221867 -96.87247907 57.70254295 -92.69262695 57.58935547 C-90.74094353 57.52951981 -90.74094353 57.52951981 -88.74983215 57.46847534 C-87.32932004 57.43450917 -85.90880293 57.40075147 -84.48828125 57.3671875 C-83.03522911 57.32603675 -81.5822006 57.28404348 -80.12919617 57.24124146 C-76.3071508 57.13091954 -72.48489151 57.03204937 -68.66247559 56.93554688 C-64.76111847 56.83502882 -60.86007152 56.72370282 -56.95898438 56.61328125 C-49.30625234 56.39826471 -41.65326217 56.19534315 -34 56 C-33.69817307 55.22429153 -33.39634613 54.44858307 -33.08537292 53.64936829 C-31.96630131 50.91774235 -30.62708384 48.59911382 -29.05078125 46.10546875 C-28.45676514 45.16082764 -27.86274902 44.21618652 -27.25073242 43.24291992 C-26.61111572 42.23463135 -25.97149902 41.22634277 -25.3125 40.1875 C-23.96080023 38.04175313 -22.60924208 35.89591705 -21.2578125 33.75 C-20.55946289 32.64398438 -19.86111328 31.53796875 -19.14160156 30.3984375 C-15.63579433 24.84133879 -12.16463027 19.26256838 -8.6875 13.6875 C-7.44194669 11.69106898 -6.19589485 9.69494884 -4.94921875 7.69921875 C-4.42674561 6.86221436 -3.90427246 6.02520996 -3.3659668 5.1628418 C-2.26895902 3.42586379 -1.13957059 1.70935588 0 0 Z M0 55 C-1.28608826 56.80780686 -2.47700933 58.68353024 -3.625 60.58203125 C-4.14634521 61.43700447 -4.14634521 61.43700447 -4.67822266 62.30924988 C-5.79234517 64.13960071 -6.8963221 65.97583602 -8 67.8125 C-9.10591727 69.63702308 -10.21382707 71.4603261 -11.32177734 73.28361511 C-12.32962816 74.94474962 -13.33289243 76.6086643 -14.3359375 78.27270508 C-15.51637572 80.20736989 -16.74285276 82.11427914 -18 84 C-20.75178645 84.40841183 -23.30378885 84.62985257 -26.0703125 84.73046875 C-26.86654022 84.770616 -27.66276794 84.81076324 -28.48312378 84.85212708 C-31.02998142 84.97742971 -33.57722499 85.08268192 -36.125 85.1875 C-37.85032305 85.26886485 -39.57558527 85.35153078 -41.30078125 85.43554688 C-45.53329572 85.63880997 -49.76626386 85.82409436 -54 86 C-53.46665039 87.13977295 -52.93330078 88.2795459 -52.38378906 89.45385742 C-51.3610445 91.64362177 -50.34910906 93.83576137 -49.35839844 96.0402832 C-47.59472799 99.92061679 -45.77295358 103.46372353 -43.265625 106.91796875 C-40.61964184 110.74849088 -38.21870712 114.23299484 -38 119 C-40.0418551 126.1568576 -44.33972596 132.30915227 -48.41601562 138.45263672 C-50.70147516 142.12811219 -52.39815997 145.98742753 -54 150 C-52.98800537 149.93490234 -51.97601074 149.86980469 -50.93334961 149.80273438 C-22.90588822 148.28460119 -22.90588822 148.28460119 -14.87109375 154.36962891 C-10.06786187 160.01004381 -6.86872056 166.40074763 -4.14624023 173.26098633 C-2.98031301 176.0470433 -1.71575365 178.5136424 0 181 C0.66 181 1.32 181 2 181 C3.6677412 178.78436165 3.6677412 178.78436165 5.37109375 175.92578125 C6.35625977 174.33540039 6.35625977 174.33540039 7.36132812 172.71289062 C8.3890332 171.02969727 8.3890332 171.02969727 9.4375 169.3125 C10.11876953 168.20970703 10.80003906 167.10691406 11.50195312 165.97070312 C15.14672417 160.23930325 15.14672417 160.23930325 18.20849609 154.19921875 C20 152 20 152 23.64526367 151.2487793 C25.15167375 151.1658531 26.65968518 151.10927223 28.16796875 151.07421875 C29.36018791 151.01824272 29.36018791 151.01824272 30.57649231 150.96113586 C33.11313104 150.84724851 35.64957293 150.76698281 38.1875 150.6875 C39.90829626 150.61614399 41.62900339 150.54260243 43.34960938 150.46679688 C47.56579134 150.28582961 51.78210606 150.13500043 56 150 C51.27042508 139.4943731 51.27042508 139.4943731 44.94140625 129.95703125 C41.93955903 125.98907228 39.90522817 123.08608797 40 118 C42.99570778 108.61309828 48.24971038 100.10478007 53.38256836 91.7487793 C55.09919194 89.0500356 55.09919194 89.0500356 56 86 C54.98800537 86.06509766 53.97601074 86.13019531 52.93334961 86.19726562 C24.90588822 87.71539881 24.90588822 87.71539881 16.87109375 81.63037109 C12.06786187 75.98995619 8.86872056 69.59925237 6.14624023 62.73901367 C4.98031301 59.9529567 3.71575365 57.4863576 2 55 C1.34 55 0.68 55 0 55 Z " fill="#000000" transform="translate(602,250)"/>
<path d="" fill="#000000" transform="translate(0,0)"/>
<path d="" fill="#000000" transform="translate(0,0)"/>
</svg>
