<?xml version="1.0" standalone="no"?>
<!DOCTYPE svg PUBLIC "-//W3C//DTD SVG 20010904//EN"
 "http://www.w3.org/TR/2001/REC-SVG-20010904/DTD/svg10.dtd">
<svg version="1.0" xmlns="http://www.w3.org/2000/svg"
 width="1159.000000pt" height="600.000000pt" viewBox="0 0 1159.000000 600.000000"
 preserveAspectRatio="xMidYMid meet">

<g transform="translate(0.000000,600.000000) scale(0.100000,-0.100000)"
fill="#000000" stroke="none">
<path d="M5560 5990 c-497 -43 -981 -212 -1392 -486 -187 -125 -325 -240 -508
-425 -85 -86 -780 -741 -1545 -1457 l-1390 -1300 -359 -782 c-197 -429 -356
-783 -353 -786 3 -3 157 54 344 126 186 73 376 147 423 165 47 18 249 97 450
174 201 78 372 145 381 149 9 4 294 267 633 585 347 325 618 572 620 565 3 -7
10 -44 16 -83 34 -209 130 -502 235 -723 161 -336 348 -595 622 -862 505 -494
1137 -780 1858 -840 748 -62 1522 180 2109 660 45 37 89 71 98 76 8 5 701 651
1539 1436 l1524 1426 359 782 c197 430 356 784 353 786 -3 3 -367 -136 -810
-308 l-805 -313 -582 -545 c-320 -300 -585 -546 -589 -548 -4 -1 -17 49 -29
111 -75 388 -220 742 -437 1072 -488 744 -1238 1212 -2130 1330 -145 19 -490
27 -635 15z m386 -1370 c466 -36 873 -256 1158 -625 158 -203 256 -416 312
-675 27 -122 27 -497 1 -620 -74 -345 -212 -608 -440 -838 -144 -146 -274
-238 -461 -328 -525 -249 -1118 -204 -1611 123 -134 90 -338 293 -424 423
-118 177 -197 362 -247 575 -27 113 -29 133 -28 350 0 202 2 241 22 325 68
292 192 539 379 753 266 305 663 503 1076 537 132 10 130 10 263 0z"/>
<path d="M5155 3658 c-3 -7 -4 -308 -3 -668 l3 -655 668 -3 667 -2 0 670 0
670 -665 0 c-523 0 -667 -3 -670 -12z"/>
</g>
</svg>
