<?xml version="1.0" encoding="UTF-8"?>
<svg version="1.1" xmlns="http://www.w3.org/2000/svg" width="691" height="600">
<path d="M0 0 C1.34362885 0.00031689 2.68728332 0.01162897 4.03076172 0.03173828 C4.73820526 0.03456818 5.4456488 0.03739807 6.17453003 0.04031372 C8.43667432 0.05151941 10.69842437 0.07662399 12.96044922 0.10205078 C14.49299559 0.11208011 16.02554816 0.12120604 17.55810547 0.12939453 C21.31737223 0.15145992 25.07634386 0.18599183 28.83544922 0.22705078 C30.01793495 2.59202224 29.88998324 3.79585935 29.74951172 6.41845703 C29.70632813 7.27334717 29.66314453 8.1282373 29.61865234 9.0090332 C29.56644531 9.926604 29.51423828 10.8441748 29.46044922 11.78955078 C29.38600586 13.1920105 29.38600586 13.1920105 29.31005859 14.62280273 C29.20676348 16.54928927 29.10094828 18.47564226 28.99267578 20.40185547 C28.84565038 23.0437467 28.7098222 25.68594447 28.57763672 28.32861328 C28.49738901 29.85728447 28.41668583 31.38593183 28.33544922 32.91455078 C28.28251709 33.98201538 28.28251709 33.98201538 28.22851562 35.07104492 C27.95034997 39.99724927 27.95034997 39.99724927 26.83544922 42.22705078 C27.61557373 42.16646484 28.39569824 42.10587891 29.19946289 42.04345703 C32.80692045 41.76622686 36.4149104 41.49660643 40.02294922 41.22705078 C41.24949219 41.13166016 42.47603516 41.03626953 43.73974609 40.93798828 C61.37083673 39.6354275 61.37083673 39.6354275 67.83544922 40.22705078 C68.49544922 40.88705078 69.15544922 41.54705078 69.83544922 42.22705078 C69.63176291 44.33180931 69.415327 46.4361701 69.13232422 48.53173828 C68.40759967 55.11147433 68.56559759 61.73795851 69.46044922 68.28955078 C69.83544922 72.22705078 69.83544922 72.22705078 67.83544922 75.22705078 C65.76782227 75.55517578 65.76782227 75.55517578 63.15966797 75.47705078 C62.17272949 75.44998047 61.18579102 75.42291016 60.16894531 75.39501953 C53.98878048 75.08361237 47.81907033 74.68302978 41.64794922 74.22705078 C40.3009696 74.13033956 38.95396445 74.03398321 37.60693359 73.93798828 C34.34950506 73.70448086 31.09237672 73.46742859 27.83544922 73.22705078 C28.51599177 87.75082105 28.51599177 87.75082105 29.83544922 102.22705078 C30.90085937 102.40107422 30.90085937 102.40107422 31.98779297 102.57861328 C46.11056275 105.79449776 58.13141054 117.39216027 65.83544922 129.22705078 C69.80724869 135.89749757 72.11694248 142.68004217 73.83544922 150.22705078 C74.17576172 151.71205078 74.17576172 151.71205078 74.52294922 153.22705078 C75.29760795 160.66377465 74.83136426 167.84463291 73.83544922 175.22705078 C74.34479004 174.96190674 74.85413086 174.6967627 75.37890625 174.42358398 C112.57976368 155.17511387 153.83977651 135.27768153 196.50732422 135.02392578 C197.30363251 135.01686615 198.0999408 135.00980652 198.92037964 135.00253296 C238.23357398 134.73314324 279.15645397 140.08994293 309.83544922 167.22705078 C311.11355469 168.34273438 311.11355469 168.34273438 312.41748047 169.48095703 C314.92053308 171.69880425 317.38500226 173.95133858 319.83544922 176.22705078 C320.44001953 176.77748047 321.04458984 177.32791016 321.66748047 177.89501953 C343.50350856 198.60600636 358.5586083 230.83606991 360.01245117 260.88549805 C360.29741258 279.05831586 360.36079094 296.49232039 355.83544922 314.22705078 C355.63177734 315.0673584 355.42810547 315.90766602 355.21826172 316.7734375 C346.93135707 350.49014137 330.34960901 381.26239354 313.15771484 411.14306641 C295.29073226 440.91387236 295.29073226 440.91387236 289.83544922 474.22705078 C291.06711834 477.33554904 292.32036713 479.61291444 294.46044922 482.16455078 C296.49825057 485.22125281 296.71347947 487.56795846 296.83544922 491.22705078 C295.64844835 496.02983891 293.4009145 500.02901668 290.83544922 504.22705078 C290.47260099 505.55265632 290.1341884 506.88554275 289.83544922 508.22705078 C290.51091797 508.26443359 291.18638672 508.30181641 291.88232422 508.34033203 C292.77435547 508.40607422 293.66638672 508.47181641 294.58544922 508.53955078 C295.46716797 508.59755859 296.34888672 508.65556641 297.25732422 508.71533203 C300.24100894 509.30754824 301.68049691 510.09164453 303.83544922 512.22705078 C305.90233397 518.23980641 305.1045286 526.11148716 303.83544922 532.22705078 C301.10924472 536.52606558 297.58025036 536.93854418 292.83544922 538.22705078 C292.69936422 540.60400201 292.60091254 542.9730556 292.52294922 545.35205078 C292.46010742 546.34978516 292.46010742 546.34978516 292.39599609 547.36767578 C292.29594899 551.44959747 292.64069955 552.99867087 295.32373047 556.14501953 C298.71162141 560.3021672 298.52064211 563.22494098 298.33544922 568.41455078 C298.33931641 569.62401367 298.33931641 569.62401367 298.34326172 570.85791016 C298.24635895 576.6866118 298.24635895 576.6866118 296.53662109 578.93530273 C293.88530737 580.94852043 291.07784065 580.9211648 287.83544922 581.22705078 C287.50544922 583.53705078 287.17544922 585.84705078 286.83544922 588.22705078 C287.82544922 588.88705078 288.81544922 589.54705078 289.83544922 590.22705078 C290.49336077 596.25790662 290.49336077 596.25790662 288.67993164 598.92919922 C280.42351743 604.73874229 258.55840837 599.2670564 249.18241882 598.48667622 C211.15072995 595.32285318 173.08334539 593.07296289 134.96195984 591.32498932 C132.92872281 591.23134659 130.89557236 591.13582942 128.86242676 591.04022217 C88.74507015 589.16809608 48.6143256 589.02606675 8.46153784 588.98425841 C3.69273325 588.97928373 -1.07605158 588.97069391 -5.84484863 588.96081543 C-53.96759684 588.87533579 -102.00846056 590.10444467 -150.05067825 592.9201088 C-152.18315008 593.04427282 -154.31577517 593.16545855 -156.44845581 593.28598022 C-173.35827986 594.24385882 -190.25343388 595.34114209 -207.14111328 596.63330078 C-207.90987604 596.69206579 -208.6786388 596.7508308 -209.4706974 596.81137657 C-216.87952308 597.37938391 -224.28723242 597.95936056 -231.69276428 598.56888771 C-233.73192143 598.73608573 -235.77128947 598.90040012 -237.8107605 599.0637207 C-240.28590882 599.26286172 -242.76058914 599.46794735 -245.23464966 599.68017578 C-246.32921478 599.76759033 -247.42377991 599.85500488 -248.55151367 599.94506836 C-249.49652237 600.02404861 -250.44153107 600.10302887 -251.41517639 600.18440247 C-254.50042496 600.23226086 -257.1709656 599.98794031 -260.16455078 599.22705078 C-262.47737665 595.75781198 -262.58933664 594.30499503 -262.16455078 590.22705078 C-261.16455078 589.22705078 -260.16455078 588.22705078 -259.16455078 587.22705078 C-258.91406442 584.10156061 -258.91406442 584.10156061 -259.16455078 581.22705078 C-261.38860736 580.65044352 -263.59178091 580.14756611 -265.85205078 579.72705078 C-268.16455078 579.22705078 -268.16455078 579.22705078 -269.16455078 578.22705078 C-269.49883042 574.79920349 -269.48950112 571.3566027 -269.53955078 567.91455078 C-269.57693359 566.95097656 -269.61431641 565.98740234 -269.65283203 564.99462891 C-269.68626194 562.31466459 -269.6662415 559.86128518 -269.16455078 557.22705078 C-267.51584925 555.87156606 -265.84932422 554.53743012 -264.16455078 553.22705078 C-263.51696684 549.96721165 -263.69329717 546.78401057 -263.85205078 543.47705078 C-263.87460937 542.58888672 -263.89716797 541.70072266 -263.92041016 540.78564453 C-263.97922526 538.59772266 -264.0613381 536.41325407 -264.16455078 534.22705078 C-265.40205078 534.16517578 -266.63955078 534.10330078 -267.91455078 534.03955078 C-271.19334029 533.61840187 -272.03786165 533.3375285 -274.63720703 531.07080078 C-276.448399 527.69855589 -276.66885604 525.53940413 -276.60205078 521.72705078 C-276.60076172 520.62361328 -276.59947266 519.52017578 -276.59814453 518.38330078 C-276.12036414 514.90540387 -275.25630645 513.02262071 -273.16455078 510.22705078 C-270.00214496 508.11878024 -268.6579761 507.88887613 -264.97705078 507.60205078 C-263.62546875 507.48990234 -263.62546875 507.48990234 -262.24658203 507.37548828 C-261.55951172 507.32650391 -260.87244141 507.27751953 -260.16455078 507.22705078 C-261.2244731 503.09335375 -262.81515442 500.26961093 -265.35205078 496.91455078 C-267.58097509 493.66403616 -268.62248231 491.57063341 -268.35205078 487.60205078 C-267.59104467 483.6085141 -265.89774702 480.83618811 -263.32080078 477.73486328 C-260.49840994 474.05431306 -260.74323166 469.63397357 -261.16455078 465.22705078 C-261.93532013 461.8506843 -263.01909125 458.61810081 -264.16455078 455.35205078 C-264.48214355 454.43149902 -264.79973633 453.51094727 -265.12695312 452.5625 C-270.49582585 437.31700175 -277.54323302 423.49594391 -285.59033203 409.50048828 C-314.04817447 359.86342866 -343.68505307 299.5328556 -328.48876953 240.65283203 C-321.21830313 215.55547261 -309.25214951 195.00186831 -291.16455078 176.22705078 C-290.52259766 175.52193359 -289.88064453 174.81681641 -289.21923828 174.09033203 C-270.786551 154.42081942 -244.1412145 143.44412132 -218.16455078 138.22705078 C-217.09769043 138.00275391 -217.09769043 138.00275391 -216.00927734 137.77392578 C-156.28106762 125.7086714 -98.61767816 147.41006139 -46.16455078 174.22705078 C-46.49455078 173.19580078 -46.82455078 172.16455078 -47.16455078 171.10205078 C-50.87814389 155.76329663 -46.94167257 139.58435312 -39.13720703 126.19580078 C-31.60232627 114.85617826 -21.16118005 106.58633685 -8.16455078 102.22705078 C-7.17455078 102.22705078 -6.18455078 102.22705078 -5.16455078 102.22705078 C-4.140752 96.09286143 -3.84847405 89.99860927 -3.60205078 83.78955078 C-3.55886719 82.77183594 -3.51568359 81.75412109 -3.47119141 80.70556641 C-3.36586496 78.2128405 -3.26373406 75.7200274 -3.16455078 73.22705078 C-3.98544189 73.28763672 -4.80633301 73.34822266 -5.65209961 73.41064453 C-8.75132555 73.6374544 -11.85078666 73.86064904 -14.95043945 74.08154297 C-16.93020961 74.22368765 -18.90968988 74.36985187 -20.88916016 74.51611328 C-36.88798741 75.65020737 -36.88798741 75.65020737 -43.16455078 75.22705078 C-44.16455078 74.22705078 -44.16455078 74.22705078 -44.26220703 72.12915039 C-44.24480469 70.76802124 -44.24480469 70.76802124 -44.22705078 69.37939453 C-44.21931641 68.38101563 -44.21158203 67.38263672 -44.20361328 66.35400391 C-44.17790645 64.25504145 -44.15187362 62.15608295 -44.12548828 60.05712891 C-44.09067507 55.52270819 -44.09116122 51.15560995 -44.78955078 46.66845703 C-45.16455078 43.22705078 -45.16455078 43.22705078 -43.16455078 40.22705078 C-40.64624023 39.89892578 -40.64624023 39.89892578 -37.46533203 39.97705078 C-36.29566895 40.00412109 -35.12600586 40.03119141 -33.92089844 40.05908203 C-27.72131093 40.33630263 -21.53891807 40.74588612 -15.35205078 41.22705078 C-14.07523437 41.32244141 -12.79841797 41.41783203 -11.48291016 41.51611328 C-8.37644 41.74880767 -5.27036978 41.98584703 -2.16455078 42.22705078 C-2.31851318 41.37111328 -2.47247559 40.51517578 -2.63110352 39.63330078 C-3.14959687 36.32253679 -3.46180846 33.06885466 -3.69970703 29.72705078 C-3.78671875 28.51017578 -3.87373047 27.29330078 -3.96337891 26.03955078 C-4.05039062 24.78142578 -4.13740234 23.52330078 -4.22705078 22.22705078 C-4.36336914 20.33986328 -4.36336914 20.33986328 -4.50244141 18.41455078 C-5.37470385 6.03235907 -5.37470385 6.03235907 -5.16455078 2.22705078 C-3.16455078 0.22705078 -3.16455078 0.22705078 0 0 Z M-246.62158203 215.33251953 C-250.41369806 219.64889123 -253.37665619 224.21617707 -256.16455078 229.22705078 C-256.61314453 230.01466797 -257.06173828 230.80228516 -257.52392578 231.61376953 C-274.0679901 262.5062353 -273.26109066 301.85924845 -263.42431641 334.69824219 C-261.16337801 341.92859179 -258.66728929 349.07757359 -256.16455078 356.22705078 C-255.81457031 357.22711151 -255.81457031 357.22711151 -255.45751953 358.24737549 C-252.98399347 365.31357034 -250.50640378 372.37833283 -248.02050781 379.44018555 C-244.44046175 389.62681993 -240.92671413 399.83407182 -237.46923828 410.06298828 C-237.07032379 411.24252579 -236.6714093 412.42206329 -236.26040649 413.63734436 C-234.29463259 419.45382064 -232.33466295 425.27218229 -230.38183594 431.09301758 C-224.35792916 452.58552861 -224.35792916 452.58552861 -212.47705078 470.78955078 C-208.77438503 474.40003398 -206.09737757 477.38522205 -204.16455078 482.22705078 C-204.31066235 486.82956522 -204.90353945 489.62150448 -206.72705078 493.85205078 C-208.19748924 497.30438455 -208.43536777 499.52588525 -208.16455078 503.22705078 C-204.97668339 504.82098448 -201.59194043 504.12644256 -198.11376953 503.92236328 C-197.30398148 503.87892792 -196.49419342 503.83549255 -195.65986633 503.79074097 C-193.93724742 503.69736395 -192.21476982 503.60134901 -190.49243164 503.50292969 C-187.90097974 503.35484672 -185.30922383 503.2139813 -182.71728516 503.07470703 C-173.5227506 502.57321716 -164.34145921 501.99135928 -155.16455078 501.22705078 C-154.99208772 495.24730468 -156.4369328 492.7755149 -159.85205078 487.98486328 C-161.586378 484.34071145 -161.82891417 481.15053766 -161.16455078 477.22705078 C-160.15328907 474.65422228 -158.79216726 472.41576819 -157.28955078 470.10205078 C-151.94299861 461.58157365 -149.76747373 454.53049119 -151.68359375 444.51367188 C-152.40977136 441.61762462 -153.22960429 438.76991564 -154.10205078 435.91455078 C-154.41343994 434.87492188 -154.7248291 433.83529297 -155.0456543 432.76416016 C-160.96488411 413.62953369 -170.06386656 395.84528583 -179.38330078 378.18408203 C-197.79089961 343.27428908 -214.13297176 305.25510146 -202.03955078 265.28955078 C-194.25195049 241.09752835 -178.27119367 219.82648321 -155.54882812 207.84814453 C-150.19790186 205.17779523 -144.78154872 202.65815306 -139.32421875 200.21337891 C-137.24535476 199.26395425 -135.20210666 198.2617426 -133.16455078 197.22705078 C-173.04013796 186.70968184 -215.85871572 183.61509319 -246.62158203 215.33251953 Z M172.96044922 194.22705078 C171.62300659 194.47588013 171.62300659 194.47588013 170.25854492 194.72973633 C165.57109531 195.51545887 165.57109531 195.51545887 161.83544922 198.22705078 C162.77001953 198.54416016 163.70458984 198.86126953 164.66748047 199.18798828 C193.46134516 209.28275226 217.91310894 225.8073902 232.39404297 253.17236328 C243.94950329 277.24338152 239.75878665 303.82289464 231.57763672 328.39111328 C225.3213757 346.13758441 216.6764001 362.65884001 207.83544922 379.22705078 C198.43259369 396.89514026 190.05798609 414.15760114 183.83544922 433.22705078 C183.60664062 433.91814941 183.37783203 434.60924805 183.14208984 435.32128906 C178.85076287 448.44284653 178.55372046 456.75256959 184.83544922 469.22705078 C185.59368087 470.40194648 186.3625848 471.5701161 187.14794922 472.72705078 C189.6416308 477.89913109 189.84505364 482.59375073 188.83544922 488.22705078 C187.48779029 490.85225922 186.01396409 493.00886594 184.14794922 495.28955078 C182.46155046 497.3889623 182.46155046 497.3889623 182.83544922 501.22705078 C195.34561108 502.79708445 207.87862859 503.67713253 220.46044922 504.41455078 C221.25963776 504.46311218 222.05882629 504.51167358 222.88223267 504.56170654 C225.17103077 504.69957145 227.46012383 504.8298676 229.74951172 504.95751953 C230.44973953 505.00008377 231.14996735 505.04264801 231.87141418 505.08650208 C233.52446055 505.17364007 235.18024065 505.20607679 236.83544922 505.22705078 C237.16544922 504.89705078 237.49544922 504.56705078 237.83544922 504.22705078 C237.50006506 500.26951775 237.07493337 496.91732864 235.77294922 493.16455078 C234.59475389 489.47287209 234.31106084 487.0944151 234.83544922 483.22705078 C236.86825939 479.34368239 239.47452449 475.88954004 242.24682617 472.50292969 C246.26757089 467.45156503 248.62796436 462.54090258 250.77294922 456.47705078 C251.14371582 455.46231689 251.51448242 454.44758301 251.89648438 453.40209961 C255.99855081 442.0424681 259.79332246 430.57327116 263.64910889 419.12838745 C270.18127354 399.77087513 277.27904091 380.63954728 284.48118591 361.52285767 C292.42608264 341.43548296 292.42608264 341.43548296 298.14794922 320.66455078 C298.30328125 319.94976562 298.45861328 319.23498047 298.61865234 318.49853516 C304.97174229 288.47814019 301.42306188 254.48473458 284.83544922 228.22705078 C282.63968909 225.09641462 280.29703986 222.15091197 277.83544922 219.22705078 C277.16642578 218.34146484 277.16642578 218.34146484 276.48388672 217.43798828 C264.44258057 202.01666637 243.79145622 193.62435545 224.83544922 191.22705078 C207.4897198 189.13600418 190.06752635 191.03517674 172.96044922 194.22705078 Z M-125.16455078 247.22705078 C-126.17001953 247.78134766 -127.17548828 248.33564453 -128.21142578 248.90673828 C-141.53159453 256.77090571 -150.09107875 267.24517133 -155.03173828 281.77783203 C-161.50437842 308.15605725 -149.2739388 336.13308732 -138.88833618 359.76144409 C-127.32774863 386.06468822 -118.59386584 412.93115622 -111.78564453 440.83251953 C-109.689797 451.50748597 -109.689797 451.50748597 -103.47705078 459.91455078 C-102.77837891 460.47142578 -102.07970703 461.02830078 -101.35986328 461.60205078 C-100.27318359 462.40642578 -100.27318359 462.40642578 -99.16455078 463.22705078 C-98.07787109 464.03142578 -98.07787109 464.03142578 -96.96923828 464.85205078 C-95.63198159 465.83895609 -94.2853661 466.81341404 -92.92626953 467.77001953 C-88.96119995 471.04933428 -87.38959375 474.31418553 -86.78955078 479.41455078 C-87.16674176 483.24932574 -87.6368842 484.26720464 -89.72705078 487.28955078 C-91.77989024 490.26183101 -92.17700499 490.88456015 -92.03955078 494.66455078 C-91.40749908 497.13099355 -91.40749908 497.13099355 -90.16455078 498.22705078 C-88.06376068 498.32653056 -85.95958899 498.35504715 -83.85644531 498.35644531 C-82.86859039 498.35907379 -82.86859039 498.35907379 -81.86077881 498.36175537 C-79.67294721 498.36617421 -77.48519578 498.36323514 -75.29736328 498.35986328 C-73.78140243 498.36053647 -72.26544168 498.36150663 -70.7494812 498.36276245 C-67.56670101 498.3642396 -64.38394882 498.36208494 -61.20117188 498.35742188 C-57.11990177 498.35173426 -53.03869756 498.35499733 -48.95742989 498.36099434 C-45.82448836 498.36460778 -42.69156245 498.36345759 -39.55862045 498.36086655 C-38.05391304 498.36019894 -36.54920421 498.3610199 -35.04449844 498.3633461 C-32.94010923 498.36588436 -30.83582659 498.362015 -28.73144531 498.35644531 C-26.93394333 498.35525192 -26.93394333 498.35525192 -25.10012817 498.35403442 C-22.10258649 498.35913695 -22.10258649 498.35913695 -19.16455078 497.22705078 C-17.67327907 490.99976233 -18.86546172 487.43245454 -21.53955078 481.72705078 C-23.91251239 476.54546665 -25.79983288 472.01247789 -26.16455078 466.22705078 C-24.85924601 462.86073848 -23.20428421 460.28243678 -21.10205078 457.35205078 C-16.85047112 450.49466424 -16.53686573 442.13753136 -15.65673828 434.27392578 C-15.52639191 433.13731506 -15.39604553 432.00070435 -15.26174927 430.82965088 C-14.98853085 428.43296418 -14.71806519 426.03596225 -14.45019531 423.63867188 C-14.0423135 420.00168534 -13.6215793 416.36634404 -13.19970703 412.73095703 C-12.93460262 410.3912017 -12.67025523 408.05136044 -12.40673828 405.71142578 C-12.28176971 404.63914734 -12.15680115 403.5668689 -12.02804565 402.46209717 C-11.24720329 395.3565493 -11.0217952 388.37320941 -11.16455078 381.22705078 C-14.70268943 379.45798145 -18.75722962 380.2909553 -22.63720703 380.47705078 C-24.09925316 380.54593506 -24.09925316 380.54593506 -25.59083557 380.61621094 C-37.65482376 381.26249921 -49.61650907 382.75403505 -61.60205078 384.22705078 C-94.09211154 388.17619576 -94.09211154 388.17619576 -102.16455078 388.22705078 C-102.49455078 387.89705078 -102.82455078 387.56705078 -103.16455078 387.22705078 C-103.09917646 385.36982564 -102.96093219 383.51500679 -102.78955078 381.66455078 C-102.69931641 380.65263672 -102.60908203 379.64072266 -102.51611328 378.59814453 C-102.27031216 376.2411849 -101.97303567 373.88928226 -101.63720703 371.54345703 C-100.97173713 366.28059456 -100.9736841 361.02537232 -100.97705078 355.72705078 C-100.97640625 354.67275879 -100.97576172 353.6184668 -100.97509766 352.53222656 C-101.02521125 345.05960681 -101.58443697 337.84861912 -102.72705078 330.46923828 C-103.15046035 327.33147092 -103.31464466 324.38840313 -103.16455078 321.22705078 C-102.83455078 320.89705078 -102.50455078 320.56705078 -102.16455078 320.22705078 C-88.94673657 320.31855323 -75.57604743 322.64570538 -62.47705078 324.22705078 C-59.04662889 324.63925295 -55.61609499 325.05046886 -52.18534851 325.45996094 C-50.06584997 325.71313068 -47.94654145 325.96789865 -45.82746887 326.22460938 C-32.50118374 327.82431301 -32.50118374 327.82431301 -19.10205078 328.41455078 C-17.47589844 328.43582031 -17.47589844 328.43582031 -15.81689453 328.45751953 C-13.0086754 328.50000257 -13.0086754 328.50000257 -11.16455078 326.22705078 C-10.95477589 323.39508968 -10.88287413 320.68476985 -10.91455078 317.85205078 C-10.92059326 316.98225586 -10.92663574 316.11246094 -10.93286133 315.21630859 C-11.13406045 279.46110272 -11.13406045 279.46110272 -24.79345703 247.40283203 C-26.05724058 245.39734077 -26.87378319 243.57462242 -27.66455078 241.35205078 C-29.58173694 237.35791296 -31.13522804 236.92559433 -35.16455078 235.22705078 C-37.43711657 234.61013617 -39.73166156 234.0697967 -42.03955078 233.60205078 C-43.19197266 233.36228516 -44.34439453 233.12251953 -45.53173828 232.87548828 C-73.3193351 227.91555165 -100.70186674 233.41299254 -125.16455078 247.22705078 Z M57.83544922 237.22705078 C55.46453519 239.69779277 54.87917455 241.04121811 54.08544922 244.41455078 C53.24601293 247.81534395 51.70859708 249.68341126 49.39794922 252.28955078 C42.21410171 261.08217403 42.20937655 274.55234633 41.14794922 285.47705078 C41.02129883 286.75668701 40.89464844 288.03632324 40.76416016 289.35473633 C39.62274073 301.83728071 38.83836659 314.70157793 39.83544922 327.22705078 C41.57526417 328.96686573 43.8342914 328.43656678 46.21435547 328.46923828 C58.12960955 328.38172597 69.95191913 326.72276613 81.77294922 325.35205078 C84.18367971 325.07923583 86.59448666 324.80709565 89.00537109 324.53564453 C99.66100193 323.32829004 110.30763886 322.10387868 120.91967773 320.5546875 C123.92733712 320.21672561 126.81166277 320.09959988 129.83544922 320.22705078 C130.83544922 321.22705078 130.83544922 321.22705078 130.96044922 324.83251953 C130.91107182 328.79946472 130.43221036 332.61501744 129.83544922 336.53955078 C127.99899433 350.00262074 128.37748487 363.29778747 130.39794922 376.71142578 C130.84027868 380.26585899 130.97928351 383.64917275 130.83544922 387.22705078 C130.50544922 387.55705078 130.17544922 387.88705078 129.83544922 388.22705078 C115.3882704 388.13675591 100.83830818 385.61441734 86.53613281 383.81103516 C71.29837293 381.89809906 56.19090371 380.62649563 40.83544922 380.22705078 C39.19645744 383.31541101 38.61324722 385.10113179 38.90185547 388.60986328 C38.97243164 389.50954834 39.04300781 390.4092334 39.11572266 391.33618164 C39.20885742 392.33141846 39.30199219 393.32665527 39.39794922 394.35205078 C39.49237305 395.407229 39.58679688 396.46240723 39.68408203 397.54956055 C39.97789406 400.6944456 40.28902639 403.83710676 40.60894775 406.97943115 C40.85662614 409.43719365 41.09490317 411.89578442 41.33300781 414.35449219 C41.7890589 419.02108336 42.27738692 423.68353814 42.78390503 428.34490967 C42.98348812 430.21114587 43.17527774 432.0782335 43.35891724 433.94610596 C44.78626639 448.54821939 44.78626639 448.54821939 51.83544922 461.22705078 C54.77949752 465.64312324 54.82217016 469.04356221 53.83544922 474.22705078 C52.37338745 477.78869079 50.57585936 481.16809463 48.68164062 484.5168457 C46.42112933 488.59130403 45.25312451 491.4228719 45.83544922 496.22705078 C50.34701198 500.73861354 67.09832791 498.50188499 73.24560547 498.61376953 C74.58890365 498.63950706 75.93220096 498.66529022 77.27549744 498.69111633 C80.06293369 498.74355307 82.85040722 498.79256032 85.63793945 498.83959961 C89.20905433 498.90055835 92.77976841 498.97477361 96.350564 499.0519743 C99.11192773 499.10947194 101.87339645 499.15780178 104.63497734 499.20356178 C106.59109059 499.23824619 108.54702728 499.28246426 110.50294495 499.326828 C111.68525192 499.34377213 112.8675589 499.36071625 114.08569336 499.37817383 C115.12649551 499.39736374 116.16729767 499.41655365 117.23963928 499.43632507 C120.073289 499.41952219 120.073289 499.41952219 122.83544922 497.22705078 C122.34845305 492.84408522 121.00149031 491.19521431 117.83544922 488.22705078 C116.02197192 482.78661888 116.12537852 477.98679122 118.27294922 472.66455078 C121.8774135 467.12912348 127.45608956 462.98570792 132.71044922 459.10205078 C136.97379935 455.34027125 138.28043265 450.15301532 139.52685547 444.76611328 C139.97581177 442.87687134 139.97581177 442.87687134 140.43383789 440.94946289 C140.66808975 439.95002151 140.66808975 439.95002151 140.90707397 438.9303894 C147.39176512 411.47456591 156.12317116 385.47017674 167.36816406 359.61328125 C178.48543509 333.9566175 191.32712053 304.3080708 181.83544922 276.22705078 C174.16835002 258.26549752 158.2637098 247.48360922 140.64404297 240.33837891 C115.2601277 230.78078298 83.69089948 226.46274088 57.83544922 237.22705078 Z M4.83544922 524.22705078 C2.39161699 527.61688258 1.58837388 530.18767748 1.89794922 534.28955078 C2.56008641 538.1299465 4.05628554 540.4478871 6.83544922 543.22705078 C10.62001083 545.11933159 14.73375522 544.97338348 18.83544922 544.22705078 C21.76768596 542.39296545 23.37503609 540.3475429 24.83544922 537.22705078 C25.83927172 532.62358354 25.49750539 529.37951893 23.14794922 525.28955078 C20.02127663 522.50089685 17.53039033 521.44435092 13.39794922 520.91455078 C9.93832718 521.33645591 7.75765878 522.32126193 4.83544922 524.22705078 Z M-36.97705078 526.85205078 C-38.85042864 530.59880649 -38.94357635 534.13362553 -38.16455078 538.22705078 C-36.44550327 541.29586894 -34.35740911 543.63062162 -31.16455078 545.22705078 C-26.65726427 545.76721675 -23.21460955 545.83027603 -19.22705078 543.53955078 C-16.2632198 540.21646756 -15.3495051 537.67585959 -14.78955078 533.28955078 C-15.27402656 529.33299862 -16.65686783 527.29199662 -19.16455078 524.22705078 C-25.22676345 519.62813083 -31.90425647 522.30402829 -36.97705078 526.85205078 Z M44.83544922 526.22705078 C42.32772003 530.46884803 42.02751537 534.40523284 42.83544922 539.22705078 C44.86301325 542.36650477 46.34906627 543.78987933 49.96044922 544.85205078 C53.82530971 545.47878491 56.44664452 545.34945226 60.21044922 544.16455078 C63.42732897 541.79018716 64.50877484 539.98596151 65.83544922 536.22705078 C66.42547442 532.18116367 66.03333149 530.58187416 64.02294922 526.97705078 C61.84281307 524.2363082 60.29975454 522.46287523 56.74951172 521.89111328 C51.4920755 521.80139594 48.57249076 522.15027819 44.83544922 526.22705078 Z M-77.16455078 527.22705078 C-79.48480038 530.85874581 -79.42348295 534.15342131 -78.78173828 538.29345703 C-77.76456275 541.48017785 -75.71161227 543.1769769 -73.16455078 545.22705078 C-70.0926017 546.76302532 -67.56210785 546.45355459 -64.16455078 546.22705078 C-59.91995492 544.66961553 -59.91995492 544.66961553 -57.02392578 541.39111328 C-55.54938389 537.67794871 -55.47988595 534.14523172 -56.16455078 530.22705078 C-57.87823687 527.1564311 -59.9735653 524.82254352 -63.16455078 523.22705078 C-69.19943969 522.72414337 -72.426347 523.05291888 -77.16455078 527.22705078 Z M85.83544922 526.22705078 C83.40739134 529.59500203 82.58120153 532.20617887 82.83544922 536.28955078 C83.55160628 540.48993262 85.51761743 542.5566008 88.83544922 545.22705078 C91.89974698 546.75919966 94.45201342 546.45643626 97.83544922 546.22705078 C101.55335601 544.53709315 103.66965057 542.66182441 105.83544922 539.22705078 C106.71212066 534.36981714 106.54972915 530.393708 103.96044922 526.16455078 C100.65964027 523.15498969 98.39977268 522.93504854 93.93310547 523.01611328 C90.6428275 523.34697922 88.53512361 524.34355702 85.83544922 526.22705078 Z M-117.16455078 527.22705078 C-119.70486384 531.46090589 -119.94842047 535.40708611 -119.16455078 540.22705078 C-117.87974832 543.23323907 -116.8482755 544.03625509 -114.16455078 546.22705078 C-109.51322113 547.81739511 -106.25180818 547.73041069 -101.78955078 545.66455078 C-98.84421084 542.92959226 -97.4363757 541.04252555 -96.16455078 537.22705078 C-96.25774901 531.91475198 -97.47403549 529.02939987 -101.16455078 525.22705078 C-106.29616824 522.66124205 -112.86354714 523.57771436 -117.16455078 527.22705078 Z M125.83544922 527.22705078 C123.4116219 530.20174794 123.47665949 533.50429259 123.58154297 537.26611328 C124.07061503 541.04325447 125.99446857 543.28903391 128.46044922 546.03955078 C132.18966626 547.9041593 135.75468977 547.89017419 139.83544922 547.22705078 C143.3060509 545.15945829 145.61270315 543.11760645 146.83544922 539.22705078 C147.31129516 534.94443727 147.11312457 532.75265055 145.08544922 528.91455078 C141.89892371 525.10842309 140.38356695 524.37039502 135.46044922 523.91455078 C131.4813848 524.25757358 129.17159322 525.05467794 125.83544922 527.22705078 Z M-159.03955078 531.35205078 C-160.66224128 535.49892649 -160.44920194 538.9807787 -159.16455078 543.22705078 C-156.96631263 545.93257466 -155.26898411 547.67483412 -152.16455078 549.22705078 C-147.0408468 549.83433923 -147.0408468 549.83433923 -142.34033203 548.18017578 C-140.17626331 546.398618 -138.42650262 544.75095446 -137.16455078 542.22705078 C-136.81737087 536.93255706 -136.6403336 533.48041634 -140.16455078 529.22705078 C-146.68293225 523.97613237 -153.70799982 525.30962636 -159.03955078 531.35205078 Z M167.83544922 529.22705078 C164.81672418 532.24577582 164.00190217 534.98250049 163.83544922 539.22705078 C165.33291818 543.87708596 166.634195 546.70031782 170.83544922 549.22705078 C175.45446934 550.06072758 179.56835669 549.80780152 183.83544922 547.85205078 C186.80819348 543.95032394 187.64321296 540.09447286 187.83544922 535.22705078 C187.12604254 531.72324055 187.12604254 531.72324055 184.83544922 529.22705078 C178.32328368 525.67496049 174.21887981 525.42415596 167.83544922 529.22705078 Z M-199.16455078 533.22705078 C-200.90676789 536.711485 -200.75130232 540.42592123 -200.16455078 544.22705078 C-198.46203359 547.30174601 -196.3522857 549.63318332 -193.16455078 551.22705078 C-189.09380528 551.49398491 -186.19039019 551.59179368 -182.35205078 550.22705078 C-179.21473158 547.35864466 -178.05675661 544.34371979 -177.16455078 540.22705078 C-177.16455078 535.98282692 -177.80232167 534.64500745 -180.60205078 531.41455078 C-184.15046927 528.38541305 -186.34487608 527.8333282 -191.05908203 527.86767578 C-194.78048531 528.50286892 -196.56767927 530.56684094 -199.16455078 533.22705078 Z M205.83544922 534.22705078 C204.33358375 538.73264719 204.11955227 542.56918415 206.02294922 546.97705078 C208.20900436 549.6907744 209.56754239 550.94830463 212.83544922 552.22705078 C217.80569602 552.5343024 220.93134824 551.96163282 224.83544922 548.78955078 C228.00250756 544.73175728 228.18554089 542.39090292 227.83544922 537.22705078 C226.18756222 533.60169937 224.42429503 531.02147369 220.83544922 529.22705078 C214.1095817 528.0590089 210.45034649 529.26603622 205.83544922 534.22705078 Z M-239.16455078 534.22705078 C-241.52331391 537.25974624 -241.52993841 540.49081284 -241.41064453 544.26611328 C-241.03455909 547.26285755 -240.12396688 548.94106534 -238.16455078 551.22705078 C-234.05360575 554.09515197 -230.88888032 554.70219988 -226.06298828 553.87939453 C-222.27546144 552.57791926 -219.91339539 549.72473999 -218.16455078 546.22705078 C-217.81422722 540.88461645 -217.70844388 537.5791854 -221.16455078 533.22705078 C-226.56426775 529.62723947 -234.17293322 529.85938542 -239.16455078 534.22705078 Z M248.83544922 534.22705078 C245.81672418 537.24577582 245.00190217 539.98250049 244.83544922 544.22705078 C246.282152 548.71944362 247.53477016 552.01527298 251.83544922 554.22705078 C255.74272664 555.4426482 257.58739322 555.30693322 261.52294922 554.03955078 C265.5119319 551.8884081 265.5119319 551.8884081 267.83544922 548.22705078 C268.914082 544.21588513 269.285141 541.29211025 267.64794922 537.41455078 C264.75653306 533.92491059 262.91173476 532.50608777 258.46044922 531.35205078 C254.24272692 531.20661208 252.33461562 531.92078202 248.83544922 534.22705078 Z M-215.87188721 576.03033447 C-218.46868169 576.2021541 -221.06564686 576.37141446 -223.66278076 576.5380249 C-227.23963996 576.76957914 -230.81539455 577.01373518 -234.39111328 577.26220703 C-235.45879944 577.32985764 -236.5264856 577.39750824 -237.62652588 577.46720886 C-238.59636414 577.53756851 -239.56620239 577.60792816 -240.56542969 577.68041992 C-241.41037994 577.73798965 -242.2553302 577.79555939 -243.12588501 577.85487366 C-245.384061 578.06748088 -245.384061 578.06748088 -247.16455078 580.22705078 C-246.84256112 583.32631897 -246.84256112 583.32631897 -246.16455078 586.22705078 C-235.07890383 585.72639318 -224.00583528 585.10880037 -212.93408203 584.35986328 C-211.16118805 584.2401693 -211.16118805 584.2401693 -209.35247803 584.11805725 C-208.13465637 584.0358342 -206.91683472 583.95361115 -205.66210938 583.86889648 C-181.14400702 582.21441328 -156.62366048 580.76232779 -132.07549667 579.6333847 C-130.09086739 579.54191589 -128.10630002 579.44910683 -126.12173462 579.35626221 C-117.13743806 578.93923476 -108.1519355 578.57061011 -99.16455078 578.22705078 C-97.94005219 578.17759308 -96.71555359 578.12813538 -95.45394897 578.07717896 C-63.6161624 576.82975217 -31.7421547 577.03939041 0.11441183 577.04193932 C5.63887731 577.04163831 11.16329321 577.0335205 16.68774414 577.02124023 C69.91596253 576.90576185 123.02770709 577.85535971 176.17887115 580.97981262 C178.35892338 581.10706937 180.53913891 581.2311238 182.71942139 581.35437012 C205.75549583 582.65792523 228.76776971 584.20707346 251.77075195 586.0078125 C252.82301468 586.08987946 253.8752774 586.17194641 254.95942688 586.25650024 C256.8932881 586.40829678 258.8269718 586.56238171 260.76042175 586.71932983 C263.11798609 586.90579282 265.47560877 587.07249114 267.83544922 587.22705078 C268.98770996 587.30407227 270.1399707 587.38109375 271.32714844 587.46044922 C272.56875732 587.34491699 272.56875732 587.34491699 273.83544922 587.22705078 C276.16936125 584.44591022 276.16936125 584.44591022 275.46044922 581.53955078 C275.25419922 580.77642578 275.04794922 580.01330078 274.83544922 579.22705078 C230.64620788 575.15828431 186.23525613 572.80434761 141.89794922 571.03955078 C140.52589828 570.98442825 140.52589828 570.98442825 139.12612915 570.92819214 C133.46993256 570.70499161 127.81320857 570.51153789 122.15539551 570.334198 C119.85878149 570.26007758 117.56231607 570.18125831 115.26599121 570.09866333 C82.71529546 568.93850141 50.14863463 569.03931478 17.58206624 569.0419398 C12.08789245 569.04163784 6.59376853 569.03352481 1.09960938 569.02124023 C-71.33418926 568.86306907 -143.58707215 571.24310655 -215.87188721 576.03033447 Z " fill="#000000" transform="translate(331.16455078125,-0.22705078125)"/>
</svg>
