<?xml version="1.0" encoding="UTF-8"?>
<svg version="1.1" xmlns="http://www.w3.org/2000/svg" width="600" height="1233">
<path d="M0 0 C0.93563782 -0.00974854 1.87127563 -0.01949707 2.83526611 -0.02954102 C23.22348887 -0.19825136 42.98920623 -0.09790449 63.0078125 4.23828125 C63.89919922 4.42551758 64.79058594 4.61275391 65.70898438 4.80566406 C85.99912009 9.17294606 105.36506944 16.17328954 124.0078125 25.23828125 C124.79365723 25.61823242 125.57950195 25.99818359 126.38916016 26.38964844 C149.54940844 37.72267236 171.49614813 52.77781533 190.18359375 70.5625 C192.47448585 72.7329856 194.79470061 74.81725076 197.1953125 76.86328125 C204.73445413 83.40038507 211.55746963 90.63943013 218.0078125 98.23828125 C218.80574219 99.14707031 219.60367187 100.05585937 220.42578125 100.9921875 C228.24567742 109.9618991 235.20196359 119.4841761 242.0078125 129.23828125 C242.68674561 130.20918701 242.68674561 130.20918701 243.37939453 131.19970703 C250.54617557 141.5167215 256.88839336 152.27329944 263.0078125 163.23828125 C263.42530762 163.97997559 263.84280273 164.72166992 264.27294922 165.48583984 C291.87084907 214.84678011 306.49222887 271.25701591 312.0078125 327.23828125 C312.10352539 328.1300708 312.19923828 329.02186035 312.29785156 329.94067383 C313.42234546 341.9382982 313.25176116 354.01210894 313.2578125 366.05078125 C313.25882462 367.85748291 313.25882462 367.85748291 313.25985718 369.70068359 C313.24294409 388.73186294 312.67036731 407.37379718 310.0078125 426.23828125 C309.83088867 427.49350586 309.65396484 428.74873047 309.47167969 430.04199219 C298.69367679 503.9243644 269.94440525 577.79154988 220.0078125 634.23828125 C219.24984375 635.09550781 218.491875 635.95273437 217.7109375 636.8359375 C215.49232307 639.31811074 213.25066536 641.77800899 211.0078125 644.23828125 C210.16734375 645.18316406 209.326875 646.12804687 208.4609375 647.1015625 C191.68510637 665.87013672 171.72098599 682.44673737 150.17260742 695.47265625 C148.75294145 696.34540002 147.37504485 697.28549121 146.0078125 698.23828125 C146.0078125 701.33284048 147.99248418 702.39279346 150.1328125 704.55078125 C158.54524716 713.7448437 162.92725836 724.95153916 163.03515625 737.390625 C162.34494086 752.27450049 156.7624231 764.38771101 145.94921875 774.64453125 C135.6644683 783.0875457 123.33035232 787.21893499 110.0078125 786.23828125 C104.42738076 785.39905353 99.38129258 784.02944128 94.0078125 782.23828125 C90.3778125 788.83828125 86.7478125 795.43828125 83.0078125 802.23828125 C84.9878125 802.89828125 86.9678125 803.55828125 89.0078125 804.23828125 C90.65553548 805.0697011 92.2833716 805.94239103 93.8828125 806.86328125 C95.05457031 807.53230469 95.05457031 807.53230469 96.25 808.21484375 C96.83007812 808.55257812 97.41015625 808.8903125 98.0078125 809.23828125 C96.62006907 814.9649187 93.74695846 818.25562891 89.8828125 822.48828125 C88.69821499 823.82593468 87.51461924 825.16447592 86.33203125 826.50390625 C85.22397724 827.74871475 84.1159061 828.993508 83.0078125 830.23828125 C62.58934779 853.3995248 56.9329915 884.28792389 56.81494141 914.38232422 C56.80676392 915.55444458 56.79858643 916.72656494 56.79016113 917.9342041 C56.76550561 921.782954 56.74884642 925.63166765 56.734375 929.48046875 C56.72900493 930.81564461 56.72362743 932.15082044 56.71824265 933.48599625 C56.69666613 939.04342908 56.67793253 944.60085934 56.66662025 950.15832329 C56.65038703 958.07516076 56.61716481 965.99150745 56.56021941 973.90816009 C56.52136437 979.50340719 56.50196988 985.09852378 56.49669969 990.69390213 C56.49307011 994.02336306 56.47874755 997.35188129 56.44859695 1000.6812706 C56.41683055 1004.39970642 56.41692622 1008.11691226 56.42431641 1011.83544922 C56.3997084 1013.45835373 56.3997084 1013.45835373 56.37460327 1015.11404419 C56.45847649 1025.48487675 60.02155332 1034.26157602 66.3203125 1042.42578125 C80.61217723 1062.05047609 89.89237416 1090.31914918 86.54296875 1114.609375 C82.83685533 1134.63115932 69.35887231 1149.87602805 57.0234375 1165.41796875 C40.00532487 1186.90536745 24.94306189 1208.52529428 13.0078125 1233.23828125 C12.3478125 1233.23828125 11.6878125 1233.23828125 11.0078125 1233.23828125 C10.63011719 1232.29210938 10.25242187 1231.3459375 9.86328125 1230.37109375 C0.31698469 1207.15664173 -15.01649161 1187.51653117 -30.37109375 1167.8828125 C-64.69914602 1123.92375623 -64.69914602 1123.92375623 -61.56640625 1095.35546875 C-58.46942947 1073.8627601 -50.13959011 1053.96036821 -37.4921875 1036.39453125 C-33.24585354 1030.29042619 -31.70549246 1024.61034904 -30.90332031 1017.23413086 C-30.77487417 1016.05407549 -30.77487417 1016.05407549 -30.64383316 1014.85018063 C-29.69537327 1005.34311454 -29.70296594 995.84980017 -29.7265625 986.3046875 C-29.7252089 984.33243258 -29.72326266 982.36017799 -29.72076416 980.38792419 C-29.71783928 976.27754503 -29.7220204 972.1672536 -29.73144531 968.05688477 C-29.74277176 962.87331373 -29.73611788 957.68994954 -29.72456741 952.5063858 C-27.87777433 886.18400587 -27.87777433 886.18400587 -56.61328125 828.81640625 C-59.39110966 825.80595182 -61.9230713 822.66269657 -64.4296875 819.42578125 C-64.85491699 818.88622803 -65.28014648 818.3466748 -65.71826172 817.79077148 C-68.17272179 814.59540788 -69.45643057 812.07767358 -70.9921875 808.23828125 C-63.5671875 804.27828125 -63.5671875 804.27828125 -55.9921875 800.23828125 C-59.2921875 794.29828125 -62.5921875 788.35828125 -65.9921875 782.23828125 C-69.04788452 782.09192411 -69.04788452 782.09192411 -72.0546875 783.17578125 C-85.2968159 787.01848657 -98.97008637 784.8367571 -110.9921875 778.23828125 C-122.47072288 770.54538204 -130.15588518 760.39313468 -133.57421875 746.94921875 C-136.07980568 730.69802874 -132.59162338 717.56381396 -122.9921875 704.23828125 C-121.67136921 702.56167915 -120.34133607 700.89217172 -118.9921875 699.23828125 C-120.33796875 698.36429688 -120.33796875 698.36429688 -121.7109375 697.47265625 C-147.99934764 680.25941291 -174.10624656 659.81458487 -193.734375 635.05078125 C-195.70525657 632.59570386 -197.74461671 630.22314877 -199.82202148 627.85839844 C-212.24419509 613.60674089 -222.49339875 597.54211828 -231.9921875 581.23828125 C-232.40919922 580.52526855 -232.82621094 579.81225586 -233.25585938 579.07763672 C-245.28471742 558.36491898 -254.85596399 536.74861947 -262.9921875 514.23828125 C-263.32202637 513.32868652 -263.65186523 512.4190918 -263.99169922 511.48193359 C-278.48391635 471.03554191 -287.02039237 426.61839265 -287.1953125 383.58984375 C-287.20232681 382.4266008 -287.20934113 381.26335785 -287.21656799 380.06486511 C-287.23397187 376.33096395 -287.24042051 372.59722149 -287.2421875 368.86328125 C-287.24286224 367.58617279 -287.24353699 366.30906433 -287.24423218 364.99325562 C-287.22818185 345.87761455 -286.74229211 327.18041192 -283.9921875 308.23828125 C-283.83121582 307.05621094 -283.67024414 305.87414062 -283.50439453 304.65625 C-272.58703526 225.87507531 -239.68541264 151.14263396 -185.9921875 92.23828125 C-184.47119498 90.53008965 -182.95036112 88.82175676 -181.4296875 87.11328125 C-175.0173061 79.99954563 -168.27247356 73.45376357 -160.9921875 67.23828125 C-160.06921875 66.42617187 -159.14625 65.6140625 -158.1953125 64.77734375 C-115.44262599 27.45043608 -57.38173968 0.49716649 0 0 Z M-53.125 53.87109375 C-54.17518311 54.19424561 -54.17518311 54.19424561 -55.24658203 54.52392578 C-57.20619196 55.19454158 -57.20619196 55.19454158 -58.9921875 57.23828125 C-50.83073832 72.70617066 -38.4462454 86.04160377 -27.41162109 99.50292969 C-26.14770132 101.04815531 -24.89164961 102.59980906 -23.63671875 104.15234375 C-14.83570917 115.02135011 -5.6203479 125.53495289 3.828125 135.84375 C5.67026282 137.86746054 7.47269387 139.91452404 9.2578125 141.98828125 C19.57612216 153.82258872 30.60974238 165.00346355 41.72363281 176.08447266 C43.90548158 178.26089394 46.08184163 180.44270364 48.2578125 182.625 C49.67155402 184.03808162 51.08560524 185.45085348 52.5 186.86328125 C53.13662567 187.50193115 53.77325134 188.14058105 54.4291687 188.79858398 C58.23573363 192.5856351 62.1553357 196.18873881 66.22421265 199.6927948 C67.86356907 201.11329455 69.46577581 202.5626053 71.0546875 204.0390625 C71.94671875 204.86792969 72.83875 205.69679687 73.7578125 206.55078125 C74.66015625 207.39253906 75.5625 208.23429688 76.4921875 209.1015625 C78.66966892 210.95106924 80.46005104 212.04034731 83.0078125 213.23828125 C81.00200767 207.00972941 78.75727311 200.91263951 76.39038086 194.81274414 C56.79673148 144.15573893 56.79673148 144.15573893 56.10539246 123.0068512 C56.01250188 120.37132978 55.889999 117.73935923 55.75463867 115.10571289 C55.02168385 100.49571674 54.88738966 85.92684411 54.9453125 71.30078125 C54.95034754 69.04492289 54.95490683 66.78906342 54.95898438 64.53320312 C54.96980833 59.10153747 54.98638124 53.66991491 55.0078125 48.23828125 C20.0305194 37.98205557 -18.89838983 43.33554678 -53.125 53.87109375 Z M69.0078125 51.23828125 C68.96056039 58.46458643 68.92548901 65.69085605 68.90418816 72.91728687 C68.89394239 76.27623521 68.87897828 79.63499349 68.85693359 82.99389648 C68.76745225 97.00299021 68.8588474 110.9565584 69.828125 124.9375 C69.8977243 126.00418411 69.96732361 127.07086823 70.03903198 128.1698761 C71.00696333 140.47993517 74.67712856 151.79610911 78.8203125 163.36328125 C79.05369324 164.01914215 79.28707397 164.67500305 79.52752686 165.35073853 C84.73239526 179.93288117 90.53807754 194.25891157 96.59039307 208.50773621 C98.28083042 212.49040147 99.91577896 216.48992413 101.51171875 220.51171875 C105.66706843 230.74866687 109.50241416 237.09774359 119.0078125 243.23828125 C120.0179541 243.91294434 121.0280957 244.58760742 122.06884766 245.28271484 C130.82698012 251.04912436 139.83660191 255.96182813 149.1953125 260.67578125 C150.66059086 261.4210211 152.12543042 262.16712428 153.58984375 262.9140625 C156.44852847 264.3719619 159.30850062 265.82727991 162.16943359 267.28076172 C166.97113135 269.72455788 171.74426581 272.22103464 176.5078125 274.73828125 C177.59521729 275.30820801 177.59521729 275.30820801 178.70458984 275.88964844 C182.40466993 277.83437724 186.07118719 279.82633074 189.71484375 281.875 C190.48828125 282.30296875 191.26171875 282.7309375 192.05859375 283.171875 C193.51558043 283.97963445 194.96550624 284.80033192 196.40625 285.63671875 C199.32207743 287.24245274 201.60148159 288.22587008 204.94921875 288.328125 C208.46411598 287.07569035 211.15311359 285.3266616 214.22705078 283.23754883 C226.47741888 274.96662342 239.17054054 271.73909942 253.52783203 268.80395508 C255.99196939 268.34499795 255.99196939 268.34499795 258.0078125 267.23828125 C256.67565962 259.38553252 254.48379155 251.96705085 251.9453125 244.42578125 C251.54755615 243.24161621 251.1497998 242.05745117 250.73999023 240.83740234 C247.04722542 230.03757391 242.75402254 219.61171031 238.0078125 209.23828125 C237.62544434 208.3860498 237.24307617 207.53381836 236.84912109 206.65576172 C225.40804631 181.21686761 210.64660654 157.81341633 193.0078125 136.23828125 C192.56953125 135.69558594 192.13125 135.15289062 191.6796875 134.59375 C179.45402688 119.52742117 165.59920271 104.84064619 150.0078125 93.23828125 C148.88776826 92.37793288 147.76799528 91.5172313 146.6484375 90.65625 C129.52853738 77.64990057 111.04909826 67.43896526 91.3203125 58.98828125 C90.58498291 58.67093018 89.84965332 58.3535791 89.09204102 58.02661133 C84.53327859 56.11981887 79.93252693 54.55973192 75.20385742 53.12207031 C74.04117844 52.76759827 72.87849945 52.41312622 71.68058777 52.0479126 C70.79857193 51.78073425 69.91655609 51.51355591 69.0078125 51.23828125 Z M-81.2421875 65.73828125 C-82.32137451 66.28512573 -82.32137451 66.28512573 -83.42236328 66.84301758 C-107.9553773 79.37953355 -128.36730152 95.52218079 -147.8671875 114.86328125 C-148.73512939 115.72179687 -149.60307129 116.5803125 -150.49731445 117.46484375 C-156.41532773 123.41289195 -161.79898531 129.65088848 -166.9921875 136.23828125 C-167.80139648 137.25849365 -167.80139648 137.25849365 -168.62695312 138.29931641 C-211.0618114 192.40232903 -233.33572917 259.36097013 -239.9921875 327.23828125 C-240.18941406 329.15447266 -240.18941406 329.15447266 -240.390625 331.109375 C-241.14881179 339.48016703 -241.0891936 347.84186404 -240.9921875 356.23828125 C-234.599807 356.33572822 -228.41811883 355.99223805 -222.06738281 355.29199219 C-221.11778687 355.19112808 -220.16819092 355.09026398 -219.18981934 354.98634338 C-216.0661168 354.65322765 -212.94321779 354.31315893 -209.8203125 353.97265625 C-207.61581531 353.73532217 -205.41128587 353.49828749 -203.20672607 353.26153564 C-198.57986008 352.76354741 -193.95337958 352.2621517 -189.32714844 351.75830078 C-183.48616344 351.12238385 -177.64434543 350.49454003 -171.80223846 349.86902618 C-142.29624958 346.72781006 -142.29624958 346.72781006 -112.8515625 343.06640625 C-111.20308319 342.85114288 -111.20308319 342.85114288 -109.52130127 342.63153076 C-98.85645916 341.13484955 -89.47557172 337.78002213 -79.62890625 333.50390625 C-78.54444717 333.03810654 -77.4599881 332.57230682 -76.34266663 332.09239197 C-72.78601509 330.56302535 -69.23283452 329.0257702 -65.6796875 327.48828125 C-63.17458082 326.40826853 -60.66879477 325.32983548 -58.16308594 324.2512207 C-50.43543506 320.92285047 -42.7132585 317.58188137 -34.9921875 314.23828125 C-33.20932343 313.46638458 -33.20932343 313.46638458 -31.39044189 312.67889404 C-19.11165152 307.36178995 -6.83776649 302.03344499 5.43359375 296.69921875 C17.09571126 291.63008604 28.76876088 286.58655855 40.4453125 281.55078125 C62.98708814 271.82810942 85.49935167 262.03778779 108.0078125 252.23828125 C106.88850342 251.34532349 106.88850342 251.34532349 105.74658203 250.43432617 C103.54749544 248.67101864 101.36156326 246.89546325 99.1875 245.1015625 C98.49309814 244.52905762 97.79869629 243.95655273 97.08325195 243.36669922 C96.35710693 242.76744629 95.63096191 242.16819336 94.8828125 241.55078125 C90.04064517 237.55657241 85.1926466 233.57069121 80.3203125 229.61328125 C67.14065006 218.81907808 54.31133755 207.61675936 42.30078125 195.5234375 C40.02889935 193.23824565 37.73312898 191.05482987 35.2578125 188.98828125 C27.90214742 182.63241531 21.1207841 175.65852853 14.81640625 168.265625 C12.63822758 165.82399491 10.33533242 163.53780093 8.0078125 161.23828125 C4.45863093 157.72651575 1.08812793 154.14819224 -2.15625 150.35546875 C-4.3442492 147.8322867 -6.60511863 145.38273606 -8.8671875 142.92578125 C-13.01464008 138.3830344 -16.92451445 133.69708163 -20.78515625 128.91015625 C-22.90842088 126.33969075 -25.11030599 123.87908762 -27.3671875 121.42578125 C-31.88872262 116.45757802 -36.00370956 111.23024548 -40.1171875 105.92578125 C-42.48309378 102.8765342 -44.8978498 99.87077973 -47.32910156 96.87353516 C-52.55479316 90.41837079 -57.60496118 83.84497404 -62.5546875 77.17578125 C-63.15063721 76.37825439 -63.74658691 75.58072754 -64.3605957 74.7590332 C-67.33718617 70.71677628 -69.9320018 66.82054483 -71.9921875 62.23828125 C-75.39164955 62.23828125 -78.26056298 64.22665243 -81.2421875 65.73828125 Z M204.71484375 306.2109375 C201.26392247 309.82455622 198.27105889 313.62324992 195.4453125 317.73828125 C194.94483398 318.45910889 194.44435547 319.17993652 193.92871094 319.92260742 C181.64619744 337.826155 170.48744817 356.55676791 160.09375 375.6159668 C158.62758204 378.25201989 157.00888007 380.71102427 155.28125 383.18286133 C146.42875079 396.38975685 147.22990782 407.76932056 148.6328125 423.17578125 C148.82548787 425.68167325 149.01311398 428.18795789 149.19604492 430.69458008 C149.48704514 434.66651132 149.78108687 438.63786701 150.10069275 442.60758972 C150.85422866 452.10742504 151.28615203 461.59092191 151.57228088 471.11556816 C151.71550975 475.66435136 151.8967539 480.21180272 152.07704544 484.75924778 C152.21978864 488.43321013 152.34054467 492.10509253 152.41021729 495.78121948 C152.3500419 515.17011641 152.3500419 515.17011641 161.82421875 531.28125 C163.59796742 532.87293362 165.40228819 534.37370735 167.28489685 535.83451843 C170.04485981 538.08322596 172.28152548 540.69398301 174.6328125 543.36328125 C178.35453031 547.4327216 182.08123354 551.49729788 185.8203125 555.55078125 C186.30765869 556.07937744 186.79500488 556.60797363 187.29711914 557.15258789 C190.10979163 560.19847306 192.9356696 563.23138032 195.7734375 566.25390625 C196.72126099 567.26457153 196.72126099 567.26457153 197.68823242 568.2956543 C198.91579235 569.6034698 200.14504412 570.90969996 201.3762207 572.21411133 C203.65071237 574.63772854 205.822535 576.98459359 207.78515625 579.671875 C208.39037109 580.44724609 208.39037109 580.44724609 209.0078125 581.23828125 C209.6678125 581.23828125 210.3278125 581.23828125 211.0078125 581.23828125 C212.26621808 579.72641653 212.26621808 579.72641653 213.4765625 577.71484375 C213.95996094 576.95107422 214.44335938 576.18730469 214.94140625 575.40039062 C215.45832031 574.56314453 215.97523438 573.72589844 216.5078125 572.86328125 C217.04535156 571.99767578 217.58289063 571.13207031 218.13671875 570.24023438 C219.77497125 567.58146288 221.39559689 564.91291077 223.0078125 562.23828125 C223.67490234 561.13371582 223.67490234 561.13371582 224.35546875 560.00683594 C249.39004031 518.0405753 263.37752001 469.43499319 269.2578125 421.17578125 C269.34098724 420.49675751 269.42416199 419.81773376 269.50985718 419.11813354 C271.39212534 403.53034162 272.21883106 388.0479824 272.1953125 372.36328125 C272.19470825 371.60682312 272.194104 370.85036499 272.19348145 370.07098389 C272.12947346 340.2565331 269.29687039 310.20065488 262.0078125 281.23828125 C241.6760664 281.23828125 219.0489675 292.31332616 204.71484375 306.2109375 Z M53.29756165 300.60574341 C46.45920775 303.6873291 39.51162143 306.40189491 32.4889431 309.03391647 C30.58829136 309.74667591 28.6893322 310.4637709 26.79084778 311.18228149 C16.49660276 315.07651553 16.49660276 315.07651553 11.67263794 316.85992432 C-1.92049748 321.9070169 -13.29706858 326.17813757 -22.9921875 337.23828125 C-24.45981137 338.62559491 -25.93715251 340.00280401 -27.4296875 341.36328125 C-37.45439132 351.55172796 -58.9921875 375.10985519 -58.9921875 390.23828125 C-47.92151168 395.47196587 -36.94303853 399.51927754 -24.9921875 402.23828125 C-24.26757324 402.40344238 -23.54295898 402.56860352 -22.79638672 402.73876953 C-2.08653058 407.21795336 20.36536452 406.92073875 41.0078125 402.23828125 C41.75144043 402.07199219 42.49506836 401.90570313 43.26123047 401.734375 C71.01751397 395.29744432 94.52263686 380.74397445 115.0078125 361.23828125 C115.82765625 360.49449219 116.6475 359.75070312 117.4921875 358.984375 C135.6827314 341.8935862 148.71438966 318.590814 157.0078125 295.23828125 C145.58217609 291.77373344 133.87375016 290.22710939 122.0078125 289.23828125 C120.98119507 289.14755341 120.98119507 289.14755341 119.93383789 289.05499268 C94.95538571 286.90672259 76.02157092 290.26146097 53.29756165 300.60574341 Z M-143.27612305 360.23217773 C-144.27387756 360.33786072 -145.27163208 360.4435437 -146.29962158 360.5524292 C-149.57650524 360.9006163 -152.85270153 361.25486095 -156.12890625 361.609375 C-158.41474729 361.8539049 -160.70062124 362.09812737 -162.98652649 362.34205627 C-167.76710146 362.85309503 -172.54735869 363.36698181 -177.32739258 363.88305664 C-183.45359595 364.54436298 -189.58039931 365.19990012 -195.70743084 365.85348415 C-200.42333954 366.35694988 -205.13899194 366.86278208 -209.85456276 367.36940193 C-212.11393922 367.61198158 -214.37337783 367.85398318 -216.63287926 368.09539604 C-219.78765115 368.43295827 -222.94208245 368.77353964 -226.09643555 369.11499023 C-227.02901688 369.21425308 -227.96159821 369.31351593 -228.92243958 369.41578674 C-232.99198744 369.85925245 -236.99473591 370.32514397 -240.9921875 371.23828125 C-242.21949261 399.28447575 -237.41342153 428.3916467 -231.3671875 455.67578125 C-231.16109863 456.61236572 -230.95500977 457.5489502 -230.74267578 458.51391602 C-230.54399902 459.37041748 -230.34532227 460.22691895 -230.140625 461.109375 C-229.96708496 461.8614624 -229.79354492 462.6135498 -229.61474609 463.38842773 C-229.07184784 465.45504027 -229.07184784 465.45504027 -226.9921875 467.23828125 C-226.26128906 466.30822266 -226.26128906 466.30822266 -225.515625 465.359375 C-216.77064317 454.4360977 -207.20964925 444.18781818 -197.15234375 434.4609375 C-195.29594042 432.55082268 -193.56412525 430.59995251 -191.828125 428.58203125 C-187.61479477 423.73268425 -183.10633933 419.20574134 -178.5546875 414.67578125 C-177.34329102 413.45858398 -177.34329102 413.45858398 -176.10742188 412.21679688 C-171.83616082 407.9524194 -167.48458862 403.86558512 -162.91040039 399.92944336 C-159.6145709 397.02372732 -156.52428816 393.91786473 -153.4296875 390.80078125 C-152.77129883 390.14045898 -152.11291016 389.48013672 -151.43457031 388.79980469 C-147.71897826 385.05092212 -144.13884946 381.24550655 -140.7421875 377.203125 C-137.50450898 373.56796363 -133.94668287 370.23067832 -130.4453125 366.8515625 C-128.17167364 364.42948544 -126.56572731 362.14932989 -124.9921875 359.23828125 C-131.16565844 359.12405488 -137.14190125 359.56157696 -143.27612305 360.23217773 Z M-125.9921875 381.23828125 C-127.61299612 382.87563892 -129.16634681 384.57986371 -130.69042969 386.30761719 C-136.82401718 393.15103508 -143.27652036 399.63892357 -149.79380035 406.1150589 C-151.8741893 408.18244634 -153.95122928 410.25315002 -156.02752686 412.324646 C-160.42956921 416.71538388 -164.83557594 421.10212974 -169.2421875 425.48828125 C-174.36957014 430.59194022 -179.4952476 435.69728887 -184.61672211 440.80687714 C-186.65023367 442.83396971 -188.68676088 444.8579975 -190.72344971 446.88189697 C-196.6939493 452.82864305 -202.58686773 458.76360437 -207.9921875 465.23828125 C-209.05836033 466.47398276 -210.12590459 467.7085034 -211.1953125 468.94140625 C-212.21135792 470.12333663 -213.22698703 471.30562503 -214.2421875 472.48828125 C-214.7578125 473.08640625 -215.2734375 473.68453125 -215.8046875 474.30078125 C-216.78748885 475.44569416 -217.76141668 476.59830796 -218.72460938 477.75976562 C-219.9921875 479.23828125 -219.9921875 479.23828125 -221.9765625 481.09765625 C-224.09372213 485.55997732 -221.55707694 490.55409603 -220.07128906 494.98388672 C-218.96773383 498.06814225 -217.80533586 501.12311837 -216.6171875 504.17578125 C-216.17729492 505.30677246 -215.73740234 506.43776367 -215.28417969 507.60302734 C-198.84145253 549.25140667 -175.73731433 585.9005746 -145.3046875 618.61328125 C-144.69923096 619.26723877 -144.09377441 619.92119629 -143.4699707 620.5949707 C-139.21886875 625.11677011 -134.71462713 629.21602168 -129.9921875 633.23828125 C-128.93542037 634.16187151 -127.8793733 635.08628664 -126.82421875 636.01171875 C-119.52716645 642.29870042 -112.02337967 647.91482326 -103.9921875 653.23828125 C-101.26647512 651.87542506 -101.11371556 650.53061329 -99.98828125 647.71875 C-99.58665771 646.73527588 -99.18503418 645.75180176 -98.77124023 644.73852539 C-98.32852783 643.64531982 -97.88581543 642.55211426 -97.4296875 641.42578125 C-81.87543131 603.93947198 -63.55914505 567.22299548 -42.9921875 532.23828125 C-42.40373047 531.23684082 -41.81527344 530.23540039 -41.20898438 529.20361328 C-31.23188419 512.28922866 -20.95472403 495.53538544 -9.9921875 479.23828125 C-14.44065779 474.68333162 -18.96692297 470.30520829 -23.79296875 466.15234375 C-26.39610632 463.88673556 -28.94377474 461.56524573 -31.4921875 459.23828125 C-34.61125761 456.39303897 -37.73974141 453.56628545 -40.9296875 450.80078125 C-44.87808224 447.37127206 -48.72076208 443.82951302 -52.56787109 440.28759766 C-55.97835639 437.15296836 -59.43386566 434.0809428 -62.93359375 431.046875 C-66.44661052 427.96048645 -69.88518568 424.79199347 -73.33984375 421.640625 C-75.51679746 419.66886281 -77.71057424 417.72462788 -79.9296875 415.80078125 C-83.3390733 412.83944615 -86.6701306 409.79675639 -89.9921875 406.73828125 C-93.9476775 403.09702102 -97.92612223 399.49198391 -102.0078125 395.9921875 C-103.48924945 394.6828072 -104.93134513 393.32866666 -106.3515625 391.953125 C-111.75671584 386.79137142 -118.04742738 381.23828125 -125.9921875 381.23828125 Z M127.15136719 408.01977539 C125.62187187 408.60863022 125.62187187 408.60863022 124.06147766 409.2093811 C122.38749153 409.85983902 122.38749153 409.85983902 120.6796875 410.5234375 C118.93869026 411.19540665 118.93869026 411.19540665 117.16252136 411.88095093 C113.35939246 413.35023719 109.55834828 414.82480567 105.7578125 416.30078125 C104.45884435 416.8048928 103.15986363 417.30897197 101.86087036 417.8130188 C96.63871768 419.83968277 91.41675237 421.8668214 86.19630432 423.89787292 C79.41267155 426.53607545 72.62257828 429.15590108 65.81826782 431.74043274 C62.32014109 433.07084727 58.82697541 434.41393112 55.33483887 435.75997925 C53.75888532 436.36397401 52.18070532 436.96219551 50.60021973 437.55422974 C39.03278147 441.89256404 31.10786157 446.88876265 23.6328125 456.86328125 C23.22804688 457.39050781 22.82328125 457.91773438 22.40625 458.4609375 C21.49864403 459.64465251 20.59596647 460.83215521 19.69702148 462.02246094 C18.40237925 463.72070822 17.09151927 465.40660269 15.77368164 467.08691406 C9.52803092 475.06296186 3.77500003 483.28576093 -1.8046875 491.73828125 C-2.23628174 492.38924774 -2.66787598 493.04021423 -3.11254883 493.71090698 C-37.9286364 546.23371361 -66.39524742 602.30107046 -90.9921875 660.23828125 C-86.40701538 665.25525298 -80.79964357 667.59341152 -74.7421875 670.48828125 C-74.14360931 670.77485596 -73.54503113 671.06143066 -72.92831421 671.35668945 C-21.678362 695.75276511 35.99945948 698.82481798 89.55078125 679.921875 C102.7109392 675.58730679 102.7109392 675.58730679 114.0078125 668.23828125 C114.74179254 666.48745717 114.74179254 666.48745717 115.31713867 664.44824219 C115.55490524 663.66316284 115.79267181 662.8780835 116.03764343 662.06921387 C116.28947891 661.21234985 116.54131439 660.35548584 116.80078125 659.47265625 C117.06772293 658.58034302 117.33466461 657.68802979 117.60969543 656.76867676 C118.48034654 653.84439294 119.33923793 650.91686366 120.1953125 647.98828125 C120.48849365 646.98921753 120.7816748 645.99015381 121.08374023 644.96081543 C138.66506067 584.89090244 142.21919568 528.81071842 138.35339355 466.57940674 C138.05574496 461.73359873 137.77197838 456.88701981 137.48866463 452.04035568 C137.14835903 446.22583032 136.80143234 440.41170708 136.453125 434.59765625 C136.35519339 432.95492863 136.35519339 432.95492863 136.25528336 431.27901459 C136.0697913 428.19196078 135.87971104 425.10522706 135.68798828 422.01855469 C135.63390808 421.11171432 135.57982788 420.20487396 135.52410889 419.27055359 C135.2454345 414.86549229 134.83976484 410.5822368 134.0078125 406.23828125 C131.40135144 406.23828125 129.58815698 407.07732718 127.15136719 408.01977539 Z M154.0078125 542.23828125 C153.94835449 543.17003174 153.94835449 543.17003174 153.88769531 544.12060547 C151.59412963 578.79653079 144.99732389 612.35466096 134.76489258 645.52807617 C134.39130615 646.7576001 134.01771973 647.98712402 133.6328125 649.25390625 C133.29507812 650.33961914 132.95734375 651.42533203 132.609375 652.54394531 C131.74746659 655.31616173 131.74746659 655.31616173 133.0078125 658.23828125 C142.64000777 651.57532003 152.13209965 644.8965917 161.0078125 637.23828125 C161.76449219 636.59246094 162.52117187 635.94664062 163.30078125 635.28125 C177.74705655 622.62563529 190.89699974 608.90835856 202.0078125 593.23828125 C201.4204834 592.61336792 201.4204834 592.61336792 200.82128906 591.97583008 C192.66735531 583.29710287 184.54045105 574.59542183 176.47705078 565.83251953 C174.94701353 564.17230962 173.41340789 562.51545894 171.87890625 560.859375 C170.83844458 559.73576698 169.79807878 558.61207017 168.7578125 557.48828125 C168.26023437 556.95090332 167.76265625 556.41352539 167.25 555.85986328 C163.57676364 551.88174831 159.9810748 547.84098746 156.43359375 543.75 C155.72783203 543.00169922 155.72783203 543.00169922 155.0078125 542.23828125 C154.6778125 542.23828125 154.3478125 542.23828125 154.0078125 542.23828125 Z " fill="#000000" transform="translate(286.9921875,-0.23828125)"/>
</svg>
