<?xml version="1.0" encoding="UTF-8"?>
<svg version="1.1" xmlns="http://www.w3.org/2000/svg" width="600" height="916">
<path d="M0 0 C51.12820377 21.35354393 108.8901961 27.89454392 163.6875 32.203125 C164.74343353 32.28629974 165.79936707 32.36947449 166.88729858 32.45516968 C231.52289139 37.47430143 294.80327401 34.22485229 359.1875 27.953125 C360.47851624 27.82812622 361.76953247 27.70312744 363.09967041 27.57434082 C398.06880025 24.16684317 433.07512006 19.55201515 467.1875 10.953125 C468.17363281 10.7051416 469.15976562 10.4571582 470.17578125 10.20166016 C481.3754236 7.31460003 492.04293259 3.68227941 502.68774414 -0.82202148 C528.21028478 -11.61751314 528.21028478 -11.61751314 540.83984375 -7.09765625 C545.15930854 -4.74655516 548.18535838 -1.55169364 550.1875 2.953125 C551.36854468 12.09043399 548.75499836 20.59954437 546.27734375 29.28515625 C545.86672622 30.76659508 545.45754295 32.2484321 545.04969788 33.7306366 C543.97437032 37.62687091 542.88341359 41.51853453 541.7878418 45.40911865 C539.84950039 52.30022576 537.93514829 59.19804076 536.02734375 66.09765625 C535.81934647 66.84904499 535.61134918 67.60043373 535.39704895 68.37459183 C529.84070924 88.49545371 524.61910096 108.82825845 521.3125 129.453125 C521.11325928 130.68828857 520.91401855 131.92345215 520.70874023 133.19604492 C516.62270848 159.75439112 518.77692846 185.01170572 523.76953125 211.30859375 C524.80847757 216.79975399 525.75300604 222.29825306 526.63671875 227.81640625 C528.82193263 241.4275934 531.0133139 254.93171505 534.3125 268.328125 C537.47460003 281.22782456 539.17533405 294.21597248 540.75390625 307.39111328 C541.16626869 310.77870785 541.60697958 314.16093481 542.0625 317.54296875 C542.20018799 318.56688721 542.33787598 319.59080566 542.47973633 320.64575195 C542.73141232 322.51288002 542.98377825 324.37991532 543.23706055 326.24682617 C544.64085231 336.8967366 545.34611012 347.47357102 545.390625 358.21484375 C545.39754868 359.35188248 545.40447235 360.4889212 545.41160583 361.66041565 C545.42882146 365.32052089 545.43519663 368.98048114 545.4375 372.640625 C545.43883942 373.89266724 545.44017883 375.14470947 545.44155884 376.43469238 C545.436986 396.15339782 544.55770089 415.37548661 542.1875 434.953125 C541.81952294 438.24029018 541.46249878 441.52847854 541.1081543 444.81713867 C540.86604257 447.06381005 540.62000688 449.31006149 540.37036133 451.5559082 C539.61855289 458.43799185 538.97526084 465.31802375 538.42578125 472.21875 C535.79967328 504.94420123 531.96537339 537.49781926 528.06725883 570.09089088 C526.90025909 579.85015174 525.76166123 589.61105294 524.703125 599.3828125 C518.13841492 659.93432176 509.46757102 723.59319874 466.1875 769.953125 C464.99472289 771.32354976 463.80692068 772.69832619 462.625 774.078125 C456.64486077 780.92634896 450.10036783 787.06307945 443.1875 792.953125 C441.80304688 794.15388672 441.80304688 794.15388672 440.390625 795.37890625 C432.36396315 802.30201398 424.02715175 808.76226671 415.57080078 815.14941406 C412.14616894 817.74121697 408.73456336 820.34998092 405.3215332 822.95703125 C382.32933467 840.50978979 359.09815017 857.66299011 335.1875 873.953125 C334.46884766 874.44441895 333.75019531 874.93571289 333.00976562 875.44189453 C309.25307514 891.51016354 281.41913011 903.05988118 253.06445312 907.64550781 C251.49917668 907.90204375 249.94308207 908.21382708 248.390625 908.5390625 C239.46789225 909.64691858 231.24155358 902.61527842 224.1875 897.953125 C223.39005371 897.42895996 222.59260742 896.90479492 221.77099609 896.36474609 C211.59082173 889.6301067 201.74383798 882.54547076 192.1875 874.953125 C191.36636719 874.31375 190.54523438 873.674375 189.69921875 873.015625 C171.46057762 858.68739629 153.35410072 842.88769433 138.2265625 825.2734375 C136.1522666 822.91303182 134.02340877 820.61425059 131.87841797 818.31835938 C126.04200951 812.06519459 120.4916181 805.66943303 115.1875 798.953125 C114.41817139 797.98463623 114.41817139 797.98463623 113.63330078 796.99658203 C109.42670058 791.69250229 105.28608471 786.34104898 101.1875 780.953125 C100.65688965 780.25944824 100.1262793 779.56577148 99.57958984 778.85107422 C91.92664087 768.75657431 85.96616263 758.19346953 80.24609375 746.90625 C77.26194559 741.03573174 74.0748449 735.29780782 70.8125 729.578125 C70.2757666 728.63646484 69.7390332 727.69480469 69.18603516 726.72460938 C68.08457674 724.79337471 66.98268395 722.86238772 65.88037109 720.93164062 C62.93333141 715.74648283 60.03186508 710.53587545 57.125 705.328125 C52.83860286 697.6545955 48.5082217 690.0092027 44.125 682.390625 C37.60196892 671.0249182 31.35313081 659.51603103 25.1875 647.953125 C24.67155273 646.98584473 24.15560547 646.01856445 23.62402344 645.02197266 C13.26929602 625.54522346 3.6398119 605.88227662 -4.6875 585.453125 C-4.95867645 584.79047638 -5.22985291 584.12782776 -5.50924683 583.44509888 C-21.68511061 543.77790485 -25.93737135 502.58742717 -29.10394287 460.22579956 C-29.53555537 454.47441108 -29.99676508 448.72747267 -30.50698853 442.98252869 C-34.27361554 400.48260061 -34.19422123 357.48546468 -30.8125 314.953125 C-30.74933594 314.1472998 -30.68617187 313.34147461 -30.62109375 312.51123047 C-28.90296352 290.75245861 -26.55061899 269.09812521 -23.75 247.453125 C-23.62022766 246.44533997 -23.49045532 245.43755493 -23.35675049 244.39923096 C-22.2062301 235.47255582 -21.05134453 226.54842901 -19.76171875 217.640625 C-15.7206322 188.32298257 -15.25006383 156.05614577 -20.8125 126.953125 C-20.99570801 125.91236816 -21.17891602 124.87161133 -21.36767578 123.79931641 C-27.30739641 90.5244166 -37.19736878 57.73382217 -46.4284668 25.24462891 C-46.66435516 24.4109227 -46.90024353 23.57721649 -47.14328003 22.71824646 C-47.56163679 21.24467723 -47.98406051 19.77225208 -48.41189575 18.30140686 C-50.31344979 11.60603118 -51.22350701 6.06909882 -48.3125 -0.359375 C-34.16796671 -15.56474829 -16.35352479 -6.8368453 0 0 Z M-25.8125 16.953125 C-25.32692226 24.06929485 -24.04234685 30.63074738 -22.1171875 37.48828125 C-21.56349302 39.51857399 -21.01003546 41.54893135 -20.45678711 43.5793457 C-20.02292191 45.15530014 -20.02292191 45.15530014 -19.58029175 46.76309204 C-8.09204313 88.6159736 0.45224285 129.8015662 0.25 173.390625 C0.24497031 175.29752485 0.24041003 177.20442601 0.23632812 179.11132812 C0.22544957 183.72529322 0.20826764 188.33919425 0.1875 192.953125 C2.11105891 190.45387978 3.84811096 187.95015497 5.4296875 185.22265625 C10.11706311 177.27355844 14.96291688 169.69937883 20.6875 162.453125 C41.59109636 135.81444733 51.80246747 106.52434546 47.7265625 72.38671875 C45.52223467 57.77083933 38.8810845 40.60347565 27.1875 30.953125 C23.96035206 29.54314066 20.63504753 28.59784171 17.25 27.640625 C8.17968188 24.93971969 -0.67723594 21.89484121 -9.48999023 18.44213867 C-17.57936534 15.31790007 -17.57936534 15.31790007 -25.8125 16.953125 Z M504.4375 20.578125 C497.00073312 23.47014526 489.71239951 26.17639051 481.96264648 28.08911133 C474.70843811 29.94490769 469.94459477 31.88086998 465.875 38.390625 C464.50003375 40.85525528 463.32212333 43.37033822 462.1875 45.953125 C461.89601074 46.57993164 461.60452148 47.20673828 461.30419922 47.85253906 C449.99937958 72.38964057 449.2454691 99.51028943 458.40283203 124.86914062 C462.73936838 136.38646304 468.11466373 145.74205702 476.04296875 155.14453125 C479.34188052 159.07112564 482.31519228 163.18760204 485.25 167.390625 C485.73855469 168.08986084 486.22710938 168.78909668 486.73046875 169.50952148 C488.22155754 171.65370124 489.70558614 173.80259545 491.1875 175.953125 C491.7139209 176.7152832 492.2403418 177.47744141 492.78271484 178.26269531 C495.9283707 182.81886899 499.06261975 187.38268007 502.1875 191.953125 C503.23035368 188.82456396 503.15492756 187.47865118 502.765625 184.27734375 C497.8649373 136.05299588 508.53050489 88.58504994 521.25390625 42.3984375 C521.5794751 41.21403076 521.90504395 40.02962402 522.24047852 38.80932617 C522.85287868 36.59859156 523.47388638 34.39021545 524.10522461 32.18481445 C525.56917868 26.93321741 526.55479258 22.40895019 526.1875 16.953125 C519.08160285 13.40017643 511.13437863 17.94350208 504.4375 20.578125 Z M44.1875 35.953125 C44.71859375 36.96890625 45.2496875 37.9846875 45.796875 39.03125 C59.75685952 66.07335714 62.1619963 95.17890703 53.41601562 124.49511719 C48.17261515 140.86781981 38.69624147 156.37234949 27.875 169.640625 C15.59296382 184.78693793 6.27181505 202.271439 -1.8125 219.953125 C-2.15853271 220.68958252 -2.50456543 221.42604004 -2.86108398 222.18481445 C-4.17388441 226.00463585 -4.6556673 229.81331456 -5.1796875 233.80859375 C-5.29932358 234.68690857 -5.41895966 235.56522339 -5.54222107 236.47015381 C-5.93212656 239.35928955 -6.31069536 242.24975321 -6.6875 245.140625 C-6.88392593 246.62551926 -6.88392593 246.62551926 -7.08432007 248.14041138 C-12.58931718 289.88960861 -15.82092905 331.67387714 -16.04367065 373.78762817 C-16.05602872 375.82418538 -16.07338069 377.86071967 -16.09622192 379.89718628 C-16.43394025 412.10553267 -9.89415202 438.39525046 9.0546875 464.57421875 C25.6491104 487.58549434 38.09995625 512.87023851 47.890625 539.43701172 C49.18709415 542.95202466 50.51441667 546.45433568 51.84375 549.95703125 C63.83952886 582.00695879 69.39403351 615.07416764 74.97265625 648.68359375 C80.39556311 681.30032203 86.07352068 713.64009352 102.1875 742.953125 C102.73921875 743.99339844 103.2909375 745.03367187 103.859375 746.10546875 C111.1390946 759.29562736 121.41707158 770.57051101 131.1875 781.953125 C132.30743631 783.26159496 133.42722299 784.570193 134.546875 785.87890625 C137.423782 789.23982185 140.30462992 792.59732335 143.1875 795.953125 C144.50021995 793.3276851 143.95124784 792.40125019 143.18359375 789.59765625 C135.47612328 760.99344965 131.07476592 732.54037906 128.24531937 703.11676788 C127.99569487 700.53357416 127.74116536 697.95090767 127.4850769 695.36834717 C126.34808104 683.90006421 125.25070007 672.4284765 124.1875 660.953125 C124.07688232 659.76380371 123.96626465 658.57448242 123.85229492 657.34912109 C119.91796928 614.7050597 119.74287903 572.00634418 121.1171875 529.22991943 C121.21697563 525.99867223 121.29516903 522.76694989 121.375 519.53515625 C122.39453239 482.8849168 125.84264618 442.28132057 153.62792969 415.35839844 C158.9964365 410.52102755 165.16357272 406.73584766 172.1875 404.953125 C174.31747489 405.13018247 176.44354854 405.3610055 178.5625 405.640625 C182.75180587 405.68342154 184.47236444 405.64199515 187.52734375 402.69921875 C189.73047418 399.21347378 191.48920313 395.7026 193.1875 391.953125 C193.86992103 390.53979774 194.55354549 389.12705101 195.23828125 387.71484375 C208.61372277 359.45443763 214.84389367 329.13182425 214.1875 297.953125 C213.1975 298.613125 212.2075 299.273125 211.1875 299.953125 C211.1875 300.613125 211.1875 301.273125 211.1875 301.953125 C210.61386719 302.21867187 210.04023438 302.48421875 209.44921875 302.7578125 C207.08610227 304.00671344 205.12589459 305.46018752 203 307.078125 C177.69390339 324.76675693 143.94610051 330.78333723 113.78125 333.484375 C108.75371115 333.95407586 103.79473615 334.76960011 98.8125 335.578125 C91.16529935 336.80235764 83.93987628 337.25517588 76.1875 336.953125 C77.47649331 346.11728546 79.16500675 355.12471161 81.25 364.140625 C81.39756744 364.77954681 81.54513489 365.41846863 81.69717407 366.07675171 C85.25894127 381.34231162 89.79296369 396.5654688 96.40234375 410.80859375 C99.66275467 417.9872955 100.1097428 426.17677151 98.0390625 433.796875 C94.94737261 441.62537418 89.45071984 447.63500814 82.390625 452.0859375 C76.5740905 454.37542448 69.15339804 453.83893988 63.2578125 452.078125 C56.66867059 449.03390138 51.7691853 444.8806206 49.03125 438.08203125 C44.47001229 421.16744141 55.9130354 399.84164087 62.20825195 384.69433594 C68.62845535 369.1920285 73.76408398 353.96235249 73.1875 336.953125 C57.82957082 341.56262795 42.85074716 347.41857696 33.1875 360.953125 C14.75658856 339.69998024 8.29181885 311.53116473 10.1875 283.953125 C14.53864422 238.71058246 42.35704142 197.68401107 76.06640625 168.45703125 C77.87169403 166.97530856 79.69047804 165.50985128 81.5234375 164.0625 C83.30731032 162.65004938 85.06295219 161.20123513 86.7890625 159.71875 C107.23198622 142.23070316 132.1117918 134.72429068 157.43554688 127.02856445 C178.05652837 120.73617835 199.14855845 113.97508241 214.359375 97.88671875 C217.29872653 96.38563966 220.02314415 97.43128466 223.1875 97.953125 C223.88724367 145.14307312 224.3101135 192.33238088 224.36474609 239.52770996 C224.37056174 244.55076142 224.38091925 249.57376828 224.39550781 254.59680176 C224.52153162 300.60121213 224.52153162 300.60121213 223.2890625 322.77734375 C223.22944116 323.85450181 223.22944116 323.85450181 223.16861534 324.95342064 C221.90242576 347.00641223 220.33486414 369.93516188 213.1875 390.953125 C212.86724854 391.90396973 212.86724854 391.90396973 212.54052734 392.87402344 C208.63349467 404.13117957 202.88410547 414.52512525 197.1875 424.953125 C194.02937137 424.39612629 191.65644809 423.71604825 188.6875 422.390625 C182.06979141 419.83664241 174.47211545 419.93788023 167.75 422.015625 C164.36696287 424.57353113 161.671612 427.51765095 159.1875 430.953125 C159.1875 431.283125 159.1875 431.613125 159.1875 431.953125 C160.20328125 432.11167969 161.2190625 432.27023437 162.265625 432.43359375 C181.62206126 435.63446892 196.86483061 444.6311751 212.4987793 456.08374023 C227.36947605 466.97198023 240.85486589 476.54564236 260.1875 473.953125 C273.4360846 470.83933336 283.79449091 461.8460087 294.3125 453.69360352 C307.27249374 443.6756997 320.02104185 435.64646414 336.1875 431.953125 C333.3129873 425.25034423 330.44136919 419.96923531 324.1875 415.953125 C318.30444111 413.99210537 311.55795673 414.09114073 305.75 416.203125 C303.1137764 418.00347283 300.61645491 419.88136934 298.1875 421.953125 C297.93484375 421.39496094 297.6821875 420.83679688 297.421875 420.26171875 C296.00209495 417.60637062 294.28337735 415.39451732 292.4375 413.015625 C265.84483265 376.73975812 270.72998727 318.7843984 270.68138909 276.00887322 C270.67183497 270.35688308 270.64562213 264.70496709 270.62138367 259.05302429 C270.57817354 248.41170689 270.54935028 237.77040423 270.52606028 227.12902659 C270.49876058 214.98813604 270.45486744 202.84732179 270.40977156 190.70648634 C270.317579 165.78874095 270.24560348 140.87097162 270.1875 115.953125 C269.5275 115.953125 268.8675 115.953125 268.1875 115.953125 C268.1875 111.003125 268.1875 106.053125 268.1875 100.953125 C269.6725 100.458125 269.6725 100.458125 271.1875 99.953125 C272.85460346 98.45326891 272.85460346 98.45326891 274.1875 96.953125 C275.44240234 97.7884375 275.44240234 97.7884375 276.72265625 98.640625 C298.23901417 112.82193211 321.50883066 122.01006266 345.75 130.453125 C369.99337252 138.9049464 394.77392213 147.61521269 414.1875 164.953125 C414.94546875 165.6028125 415.7034375 166.2525 416.484375 166.921875 C428.67902461 177.56150218 440.32132606 189.11444994 450.1875 201.953125 C450.74953125 202.62472656 451.3115625 203.29632813 451.890625 203.98828125 C458.2316244 211.67748379 463.15463964 220.38024644 468.1875 228.953125 C468.62529785 229.69804199 469.0630957 230.44295898 469.51416016 231.21044922 C490.05444614 266.45243516 507.22469892 310.05350555 497.625 351.453125 C494.9038131 361.70483191 490.15691296 370.97954276 483.1875 378.953125 C473.18587798 377.10967843 463.47985717 374.81597041 453.75 371.828125 C453.06919373 371.62059601 452.38838745 371.41306702 451.68695068 371.19924927 C308.04003616 327.20409139 308.04003616 327.20409139 281.4296875 298.23828125 C281.01976562 297.81417969 280.60984375 297.39007813 280.1875 296.953125 C279.8575 296.953125 279.5275 296.953125 279.1875 296.953125 C278.36270501 326.16778636 281.10301351 364.50319673 301.6171875 387.46875 C307.77035544 393.28517741 314.74024015 397.37194353 322.3125 401.015625 C340.96826586 410.05421245 352.55055769 425.64045294 363.1875 442.953125 C363.79223145 443.90952881 363.79223145 443.90952881 364.40917969 444.88525391 C373.20410103 458.99236772 377.66756582 475.22593468 382.57434082 490.98547363 C383.14823908 492.82713519 383.72772414 494.66705319 384.30761719 496.50683594 C388.29588573 509.23672251 391.51967654 521.71842883 393.1875 534.953125 C393.3431543 536.13648438 393.49880859 537.31984375 393.65917969 538.5390625 C401.28841219 596.92723196 400.38342661 655.88335093 397.29849243 714.59033203 C397.20301548 716.62283343 397.14865992 718.65719189 397.10229492 720.69140625 C396.679484 732.89077077 393.77627516 744.72133 391.20483398 756.61376953 C390.37739293 760.44205372 389.5653209 764.27334688 388.75585938 768.10546875 C380.64798477 806.26239784 380.64798477 806.26239784 372.1875 818.953125 C400.93816954 811.02190582 423.89954572 786.1228083 438.24658203 761.10644531 C456.71880651 727.94849841 457.94578854 692.43672363 454.60812378 655.50411987 C453.48623705 643.07927841 452.63516143 630.66248898 452 618.203125 C451.95748108 617.40008942 451.91496216 616.59705383 451.87115479 615.76968384 C448.88894749 558.98573917 459.00270282 508.17311314 495.25 463.390625 C508.45413957 447.0645198 519.92764298 429.29034128 528.1875 409.953125 C528.55488281 409.128125 528.92226563 408.303125 529.30078125 407.453125 C536.74684853 386.45980756 532.13140028 360.05996985 529.875 338.515625 C529.71510086 336.98216431 529.71510086 336.98216431 529.55197144 335.41772461 C527.3212237 314.30824535 523.99839705 293.99521648 518.79150391 273.40161133 C517.94030053 270.02672864 517.10806345 266.64755361 516.27734375 263.26757812 C512.08940244 246.43755587 507.27802942 229.77956508 499.9375 214.015625 C499.5667334 213.20826904 499.1959668 212.40091309 498.81396484 211.5690918 C488.17623316 188.71270054 475.62316397 166.73560768 459.12109375 147.55078125 C442.55375332 128.24074912 440.72512616 97.36368556 442.4609375 73.13671875 C444.00968757 60.29378182 448.01976555 48.72740938 455.1875 37.953125 C455.5175 37.293125 455.8475 36.633125 456.1875 35.953125 C447.30691304 36.60665119 438.51991826 37.83059142 429.71141624 39.09846687 C426.18029859 39.60633503 422.64817777 40.10706248 419.11611843 40.60833263 C416.28548939 41.01013467 413.45498555 41.41281137 410.6244812 41.81549072 C383.32574142 45.69465004 356.03309789 49.54688732 328.625 52.578125 C327.59844299 52.69191498 326.57188599 52.80570496 325.51422119 52.92294312 C319.07507203 53.63114334 312.63280644 54.30355277 306.1875 54.953125 C305.29138 55.04444702 304.39526001 55.13576904 303.47198486 55.2298584 C285.92798882 57.00772522 268.51212107 58.16371176 250.875 58.140625 C249.67703293 58.14021713 249.67703293 58.14021713 248.4548645 58.13980103 C182.4812242 58.03887822 116.30588036 51.5867913 51.83007812 37.5222168 C49.28700229 36.97455329 46.73963996 36.45666939 44.1875 35.953125 Z M208.25 115.890625 C190.9593131 128.09726049 170.04298621 133.61175992 150.09765625 139.86328125 C127.78679018 146.85886865 108.19864624 154.79114275 90.1875 169.953125 C89.59549805 170.44361328 89.00349609 170.93410156 88.39355469 171.43945312 C76.4755475 181.31639696 65.82370156 191.79145054 56.1875 203.953125 C55.55585937 204.69433594 54.92421875 205.43554688 54.2734375 206.19921875 C38.54710884 224.8701892 28.23384609 246.44901906 22.1875 269.953125 C21.919375 270.984375 21.65125 272.015625 21.375 273.078125 C16.96200254 294.1624462 19.90604497 319.55404783 29.1875 338.953125 C29.5175 338.953125 29.8475 338.953125 30.1875 338.953125 C30.15269531 337.10460937 30.15269531 337.10460937 30.1171875 335.21875 C29.99202342 325.92743458 30.0203303 317.04162202 32.1875 307.953125 C32.41348877 306.98221924 32.41348877 306.98221924 32.64404297 305.99169922 C42.54038112 264.40046059 68.94404163 230.75414943 104.7421875 208.01953125 C120.47630859 198.33586675 136.62830008 194.05423374 154.40097046 189.56655884 C181.08272526 182.84315518 181.08272526 182.84315518 205.1875 169.953125 C205.85121109 169.51327271 206.51492218 169.07342041 207.19874573 168.62023926 C210.4214037 166.2209834 212.78524854 164.33988384 213.92955017 160.39491272 C214.2075508 157.3489106 214.24364679 154.39018216 214.1875 151.33203125 C214.19837646 150.23213364 214.20925293 149.13223602 214.22045898 147.99900818 C214.24654838 144.50354128 214.21781309 141.01101254 214.1875 137.515625 C214.19559429 135.13865677 214.20727369 132.76169786 214.22265625 130.38476562 C214.25245866 124.57368462 214.23731619 118.76403978 214.1875 112.953125 C211.39534724 112.953125 210.45529152 114.18142718 208.25 115.890625 Z M281.1875 112.953125 C280.98391679 119.78447283 280.84425548 126.61503333 280.74804688 133.44873047 C280.70792462 135.77096792 280.65341134 138.09300464 280.58398438 140.41455078 C280.48643817 143.76124646 280.44146032 147.10526251 280.40625 150.453125 C280.36495972 151.4836499 280.32366943 152.5141748 280.28112793 153.57592773 C280.27759913 159.3015252 280.92993609 162.35401523 285.0078125 166.51757812 C288.62394017 169.70092232 292.39805234 172.27476156 296.6875 174.453125 C297.41267822 174.82566406 298.13785645 175.19820312 298.88500977 175.58203125 C315.64470807 183.84373109 334.12903995 188.19875681 352.17358398 192.72070312 C379.11522406 199.53576228 398.39202872 212.99231871 418.1875 231.953125 C418.93773437 232.66210938 419.68796875 233.37109375 420.4609375 234.1015625 C434.39864908 247.59855592 445.66138144 264.12705411 455.1875 280.953125 C455.55584961 281.58879395 455.92419922 282.22446289 456.30371094 282.87939453 C470.13880176 306.87181786 477.68889134 333.76416563 482.1875 360.953125 C492.30738824 348.85646559 493.05215605 329.6538738 491.9453125 314.67578125 C488.10982411 278.63001794 468.34457249 247.10674375 448.1875 217.953125 C447.58550781 217.07720703 446.98351562 216.20128906 446.36328125 215.29882812 C440.56816735 206.90568001 434.81953268 199.03874135 427.37109375 192.03125 C425.37860376 190.13499835 423.63117508 188.19068769 421.875 186.078125 C397.5543526 157.82744324 364.4621185 143.65838651 329.08886719 134.52758789 C315.67140847 131.03868845 303.09913643 126.75139567 291.375 119.140625 C289.84783542 118.17549768 288.32050042 117.21063995 286.79296875 116.24609375 C286.14481201 115.8286792 285.49665527 115.41126465 284.82885742 114.98120117 C283.16037593 113.8996546 283.16037593 113.8996546 281.1875 112.953125 Z M281.1875 252.953125 C281.06978283 256.74452346 280.99974802 260.53544235 280.9375 264.328125 C280.90398437 265.38902344 280.87046875 266.44992187 280.8359375 267.54296875 C280.73091728 276.10211694 282.41564366 282.40443767 286.86328125 289.703125 C290.3347173 293.06370847 294.25298064 295.45812834 298.375 297.953125 C299.29917725 298.51636475 300.22335449 299.07960449 301.17553711 299.65991211 C342.47444866 324.47371787 388.1770702 339.577794 433.44482422 355.33032227 C435.67695222 356.10898068 437.90889099 356.88818181 440.140625 357.66796875 C441.73434433 358.22427727 441.73434433 358.22427727 443.36026001 358.79182434 C450.54832463 361.32144062 457.61165576 364.05755688 464.61621094 367.05688477 C465.46473633 367.35264404 466.31326172 367.64840332 467.1875 367.953125 C467.8475 367.623125 468.5075 367.293125 469.1875 366.953125 C453.91261736 353.51561603 437.50301929 341.62134923 420.1875 330.953125 C419.38038574 330.45490234 418.57327148 329.95667969 417.74169922 329.44335938 C402.62343168 320.17443872 387.03586517 311.89893403 371.1875 303.953125 C370.36813965 303.54143066 369.5487793 303.12973633 368.70458984 302.70556641 C360.527841 298.63245046 352.19990709 294.93869744 343.80078125 291.3515625 C343.0423996 291.02762009 342.28401794 290.70367767 341.50265503 290.36991882 C337.69679686 288.74677725 333.88758409 287.13227322 330.07226562 285.53149414 C322.76865823 282.45313786 315.55242502 279.25383425 308.44921875 275.734375 C307.79899246 275.4146019 307.14876617 275.0948288 306.47883606 274.7653656 C296.87939851 269.92566391 290.05601079 263.0673951 283.1875 254.953125 C282.5275 254.293125 281.8675 253.633125 281.1875 252.953125 Z M212.1875 253.953125 C211.04694696 255.44133324 209.92583297 256.94444522 208.8125 258.453125 C189.21979204 283.03055018 149.58191565 290.17676473 120.38671875 295.375 C105.52231389 298.03285207 91.7059537 300.96929248 78.1875 307.953125 C77.06859375 308.50742187 75.9496875 309.06171875 74.796875 309.6328125 C66.81492413 313.91031951 60.60262999 319.66815707 54.1875 325.953125 C53.48367187 326.61828125 52.77984375 327.2834375 52.0546875 327.96875 C48.21573662 331.65813136 45.16199206 335.53645498 42.1875 339.953125 C42.99960938 339.54707031 42.99960938 339.54707031 43.828125 339.1328125 C44.99601562 338.54886719 44.99601562 338.54886719 46.1875 337.953125 C47.06921875 337.50195312 47.9509375 337.05078125 48.859375 336.5859375 C64.43127259 328.95807904 80.32550333 327.1402208 97.390625 325.43093872 C158.36752085 319.89291035 158.36752085 319.89291035 208.6796875 288.140625 C213.68276718 280.88227106 213.56612743 274.63596238 213.375 266.015625 C213.36146484 264.85482422 213.34792969 263.69402344 213.33398438 262.49804688 C213.2988141 259.64925448 213.24959287 256.80143656 213.1875 253.953125 C212.8575 253.953125 212.5275 253.953125 212.1875 253.953125 Z M143.875 451.015625 C134.83087522 466.75910147 133.60176371 486.05015129 132.5 503.828125 C132.37864159 505.64535456 132.25713792 507.46257442 132.13549805 509.27978516 C130.95653939 527.48578299 130.39434524 545.71174014 130.1875 563.953125 C130.17696594 564.68163666 130.16643188 565.41014832 130.15557861 566.16073608 C129.9369808 582.46489614 130.68285768 598.73309106 131.4375 615.015625 C131.47044411 615.73352077 131.50338821 616.45141655 131.53733063 617.19106674 C134.31912784 677.74589382 138.17060919 738.86703161 155.42919922 797.31933594 C156.11473858 799.70040439 156.72804118 802.08568236 157.31640625 804.4921875 C159.72088667 813.72574988 164.31800506 818.89390546 171.59130859 824.65478516 C174.2220425 826.79462041 176.65161023 829.13369454 179.125 831.453125 C182.32931848 834.43028968 185.41644786 836.75180717 189.1875 838.953125 C189.19336624 837.82211868 189.19923248 836.69111237 189.20527649 835.52583313 C189.26292997 824.77473991 189.33590621 814.02384074 189.42321491 803.27294636 C189.46760785 797.74814168 189.50692891 792.22340552 189.53393555 786.69848633 C189.56028302 781.34906382 189.60089714 775.99990955 189.65068626 770.65065575 C189.66714553 768.62776255 189.67878813 766.6048232 189.68511391 764.58187294 C189.76525028 741.27188054 190.56385817 715.59880126 206.76953125 697.15234375 C218.90822452 685.72247928 235.01566985 683.16891983 250.95703125 683.609375 C266.37332646 684.39065331 283.09580639 691.01160906 294.1875 701.953125 C306.15944495 715.7175423 311.32466656 732.56842855 313.265625 750.3984375 C313.39330261 751.56763481 313.39330261 751.56763481 313.52355957 752.76045227 C314.28013709 760.11931893 314.53808633 767.44919322 314.65164185 774.84225464 C314.71617469 778.97856249 314.81012355 783.11423133 314.90234375 787.25 C314.93176308 788.59813026 314.93176308 788.59813026 314.96177673 789.97349548 C315.25944212 802.94996174 315.76666642 815.92002008 316.25 828.890625 C316.29624512 830.13862885 316.34249023 831.38663269 316.39013672 832.67245483 C316.65309681 839.76611912 316.9186226 846.85968255 317.1875 853.953125 C318.79239055 853.16571939 320.39558112 852.37484823 321.99804688 851.58251953 C322.89100464 851.14247589 323.7839624 850.70243225 324.70397949 850.24905396 C349.49790719 837.31130341 366.12148547 806.6205388 374.1875 780.953125 C390.52638014 728.4265688 391.88925427 660.70376375 386.49316406 606.57373047 C386.13300892 602.30767549 385.92503376 598.04628941 385.7421875 593.76953125 C384.9176019 574.61387487 383.59382188 555.86102291 380.1875 536.953125 C380.00848145 535.9532959 379.82946289 534.9534668 379.64501953 533.92333984 C376.07713951 514.63896423 370.3114903 496.06895405 362.0625 478.265625 C361.66716064 477.39856934 361.27182129 476.53151367 360.86450195 475.63818359 C356.70574291 467.04987057 351.03506044 463.26062423 342.1875 459.953125 C334.75299718 457.72277415 327.93318933 458.65484927 320.83984375 461.4921875 C313.84436416 465.34536771 308.1794696 470.65760692 302.625 476.328125 C301.96806152 476.99223389 301.31112305 477.65634277 300.63427734 478.34057617 C295.59049981 483.46923403 290.83413477 488.77187001 286.234375 494.30078125 C278.4466301 503.36313908 268.10032865 513.82633231 255.7578125 515.38671875 C248.30468765 515.395169 242.57631708 514.92589819 236.1875 510.953125 C235.53652344 510.55222656 234.88554687 510.15132812 234.21484375 509.73828125 C225.44147484 503.72076182 218.84129315 494.90303832 212.31640625 486.625 C198.11498998 468.80157114 181.40606365 449.81720356 157.5390625 446.0078125 C152.19207492 445.88346395 147.8457975 447.47410291 143.875 451.015625 Z M519.1875 460.953125 C490.08027306 500.11733401 462.083842 544.54464073 462.01953125 594.9375 C462.01620285 595.87378235 462.01287445 596.8100647 462.00944519 597.77471924 C462.00440834 599.75133783 462.00203586 601.72796484 462.00219727 603.70458984 C462.00003638 606.65347299 461.98191684 609.60196535 461.96289062 612.55078125 C461.90377579 631.771966 463.96988648 650.52331953 466.75 669.515625 C470.1208987 692.66082836 472.37116124 714.34345764 464.30859375 736.80859375 C463.45775516 739.19509222 462.73254974 741.48509078 462.1875 743.953125 C478.71220253 730.59272721 489.35286745 713.23864981 495.1875 692.953125 C495.37892578 692.30698242 495.57035156 691.66083984 495.76757812 690.99511719 C500.84838097 673.548667 502.4713617 655.37805584 503.52416992 637.30767822 C503.80970443 632.42659604 504.12635991 627.54747347 504.4375 622.66796875 C504.53049377 621.19215332 504.53049377 621.19215332 504.62536621 619.68652344 C505.23985944 609.97809159 505.931759 600.27655511 506.6875 590.578125 C506.749375 589.78182678 506.81125 588.98552856 506.875 588.1651001 C507.63498177 578.50477195 508.64543826 568.93010613 510.06469727 559.3425293 C511.50277193 548.908799 511.98470959 538.3963734 512.625 527.890625 C513.87144458 507.52902805 515.24251351 486.99923728 519.91577148 467.08081055 C520.21263456 464.75631668 519.8967895 463.1696154 519.1875 460.953125 Z M-11.8125 468.953125 C-6.83495215 533.77902214 9.4338677 589.64626177 44.56689453 644.64794922 C53.97181382 659.39947934 63.22302198 674.36506102 71.1875 689.953125 C72.41521838 686.26996987 71.82320613 683.49306842 71.18359375 679.76953125 C71.0654985 679.05095947 70.94740326 678.3323877 70.82572937 677.59204102 C70.4343075 675.23165858 70.03073274 672.87358718 69.625 670.515625 C69.487453 669.70624481 69.34990601 668.89686462 69.20819092 668.06295776 C60.79239968 618.64836076 47.9754137 569.38335064 24.1875 524.953125 C23.61781494 523.87973877 23.61781494 523.87973877 23.03662109 522.78466797 C16.45100694 510.43829911 9.09701899 498.85209369 0.99609375 487.453125 C0.45645996 486.69330322 -0.08317383 485.93348145 -0.63916016 485.15063477 C-1.68454739 483.68395553 -2.73473267 482.22067989 -3.79052734 480.76147461 C-6.51699793 476.95712895 -8.84659332 473.22480696 -10.8125 468.953125 C-11.1425 468.953125 -11.4725 468.953125 -11.8125 468.953125 Z M207.625 731.328125 C201.55084819 739.42103903 201.0554624 748.93311165 200.78833008 758.69946289 C200.75927078 759.66456787 200.73021149 760.62967285 200.70027161 761.62402344 C200.44667327 770.50741612 200.29344301 779.39254499 200.17274952 788.27864933 C200.09006491 794.23836796 199.9731186 800.19306608 199.7746582 806.15014648 C199.58312966 811.92830591 199.48143685 817.70184683 199.4407711 823.48296928 C199.41022019 825.6750653 199.34845256 827.86697326 199.25379372 830.05723763 C198.48482524 841.73870538 198.48482524 841.73870538 202.91881943 852.11887741 C207.14785443 856.03672372 211.86436852 858.94322703 216.91391563 861.68346977 C219.7817286 863.28496465 222.43911582 865.1161707 225.11784077 867.0123148 C227.46385168 868.66081951 229.8729148 870.20248001 232.29150391 871.74169922 C233.61043095 872.5844131 234.9221386 873.43848925 236.22802734 874.30126953 C238.29815041 875.65868776 240.39315614 876.96611373 242.5 878.265625 C243.12148926 878.68166992 243.74297852 879.09771484 244.38330078 879.52636719 C247.2590281 881.23560443 249.16569788 882.09542811 252.53833008 881.62573242 C255.14876357 880.85837762 257.65123621 879.93712159 260.1875 878.953125 C261.86346417 878.40786546 263.54186197 877.87002718 265.22265625 877.33984375 C278.04868469 873.26854206 278.04868469 873.26854206 289.1875 865.953125 C290.17621094 865.10363281 291.16492188 864.25414062 292.18359375 863.37890625 C295.93839708 859.56136652 297.32402507 855.24218273 298.875 850.203125 C299.16971191 849.27137451 299.46442383 848.33962402 299.76806641 847.37963867 C309.20260705 816.50845512 310.51294445 778.28634735 295.10546875 749.1796875 C286.30949965 734.38239529 273.82294304 724.80680261 257.3125 720.015625 C241.10236807 716.53585001 219.50566837 718.47940217 207.625 731.328125 Z " fill="#000000" transform="translate(49.8125,8.046875)"/>
<path d="M0 0 C1.22976563 -0.01224609 2.45953125 -0.02449219 3.7265625 -0.03710938 C31.99417171 -0.08164868 53.22750768 10.01858375 73.1796875 29.4296875 C99.22993358 57.15384498 111.82397556 98.38795392 111.0625 135.890625 C110.02366916 154.15673391 106.10045643 171.73658714 97.875 188.1875 C97.215 188.1875 96.555 188.1875 95.875 188.1875 C95.51148438 187.14851562 95.14796875 186.10953125 94.7734375 185.0390625 C88.68956547 168.0083108 81.03274035 156.41397068 65.875 146.1875 C65.26897949 145.7656543 64.66295898 145.34380859 64.03857422 144.90917969 C37.90474195 126.74449647 9.63449979 117.77384265 -22.3515625 122.87109375 C-26.39054363 123.69005559 -30.22662153 124.8509131 -34.125 126.1875 C-35.1152417 126.52491211 -35.1152417 126.52491211 -36.12548828 126.86914062 C-44.08889825 129.64400774 -51.45649976 132.93701418 -58.125 138.1875 C-58.85976562 138.74824219 -59.59453125 139.30898438 -60.3515625 139.88671875 C-71.3566523 148.9063542 -77.68318984 160.86206953 -82.125 174.1875 C-82.785 174.1875 -83.445 174.1875 -84.125 174.1875 C-92.70436442 129.09942912 -100.89031204 74.19490468 -74.125 33.1875 C-60.31510959 13.96341488 -41.59696898 4.41524784 -18.51953125 0.58984375 C-12.37253861 -0.10818557 -6.17777147 0.00317787 0 0 Z " fill="#000000" transform="translate(298.125,537.8125)"/>
</svg>
