<?xml version="1.0" encoding="UTF-8"?>
<svg version="1.1" xmlns="http://www.w3.org/2000/svg" width="2000" height="1716">
<path d="M0 0 C0.66 0 1.32 0 2 0 C3.79193741 2.19186808 5.46658977 4.39683777 7.125 6.6875 C8.21252402 8.16481218 9.30112064 9.6413352 10.390625 11.1171875 C11.26557617 12.30586426 11.26557617 12.30586426 12.15820312 13.51855469 C15.35012136 17.81901293 18.61769356 22.06149899 21.875 26.3125 C27.56852271 33.76187433 33.17022128 41.27136262 38.71044922 48.83520508 C43.07237469 54.7762783 47.52036737 60.6472999 52 66.5 C57.65353395 73.88641792 63.21470194 81.33194466 68.7109375 88.8359375 C73.07277032 94.77671433 77.52054548 100.6475326 82 106.5 C87.65353395 113.88641792 93.21470194 121.33194466 98.7109375 128.8359375 C103.07277032 134.77671433 107.52054548 140.6475326 112 146.5 C117.65353395 153.88641792 123.21470194 161.33194466 128.7109375 168.8359375 C133.07277032 174.77671433 137.52054548 180.6475326 142 186.5 C147.65290465 193.88559574 153.21433838 201.32967004 158.70874023 208.83374023 C163.7418601 215.69060912 168.89725248 222.45016152 174.08520508 229.19042969 C177.38844046 233.50015424 180.62034164 237.8386249 183.7265625 242.29296875 C184.31171631 243.12820068 184.89687012 243.96343262 185.49975586 244.82397461 C186.59662241 246.40065086 187.68151807 247.98574699 188.75219727 249.58032227 C189.48394165 250.63110962 189.48394165 250.63110962 190.23046875 251.703125 C190.64707764 252.31833008 191.06368652 252.93353516 191.49291992 253.56738281 C193.64350684 255.61171199 195.04332651 255.8701416 198 256 C201.03751279 254.9399416 201.03751279 254.9399416 204.171875 253.203125 C204.76250732 252.89861923 205.35313965 252.59411346 205.96166992 252.28038025 C207.23323019 251.62389563 208.50174583 250.96148665 209.76745605 250.29379272 C213.14039398 248.51796926 216.53965626 246.79396051 219.9375 245.06640625 C220.62269714 244.71697464 221.30789429 244.36754303 222.01385498 244.00752258 C240.40289799 234.67041751 259.63207336 227.04110928 279 220 C280.69358643 219.38342529 280.69358643 219.38342529 282.42138672 218.75439453 C313.04563566 207.75303367 344.83171194 199.87948777 377 195 C378.21155762 194.81453613 379.42311523 194.62907227 380.67138672 194.43798828 C387.52117469 193.41978866 394.06996454 192.71257917 401 193 C404.80413493 202.59303591 404.80413493 202.59303591 405 207 C404.03567924 208.68756133 403.03789581 210.35666496 402 212 C402.40218904 215.50293419 403.01107717 216.00957255 405.83447266 218.44946289 C410.46968626 222.88273596 411.2521302 228.75253929 412.6484375 234.80859375 C413.10181992 236.66871849 413.10181992 236.66871849 413.56436157 238.56642151 C414.19779182 241.18284211 414.82294056 243.79959162 415.43408203 246.42114258 C416.21410292 249.76595033 417.01966164 253.10390664 417.83475304 256.44032192 C418.61579277 259.64406945 419.38213569 262.85129417 420.1484375 266.05859375 C420.43584808 267.25044785 420.72325867 268.44230194 421.01937866 269.67027283 C422.31294242 275.22919194 423.37834339 280.28701474 423 286 C417.21148552 287.57157457 411.42995252 288.63786297 405.51074219 289.59692383 C381.10096146 293.56195603 357.21562652 299.05592732 333.79003906 307.04882812 C331.2064024 307.9296339 328.61640386 308.78777157 326.0234375 309.640625 C302.72374768 317.42143885 280.20743814 327.56041989 258 338 C258.53863277 341.66112443 259.34076005 343.88775351 261.66796875 346.7578125 C262.22468262 347.45648438 262.78139648 348.15515625 263.35498047 348.875 C264.26207764 349.98875 264.26207764 349.98875 265.1875 351.125 C266.46706544 352.73000213 267.74433833 354.33683416 269.01953125 355.9453125 C270.00687256 357.18909668 270.00687256 357.18909668 271.01416016 358.45800781 C274.22717995 362.57086275 277.29971562 366.78374905 280.375 371 C291.3789659 387.06335602 291.3789659 387.06335602 306.2434082 399.22998047 C312.53239564 402.81673201 312.53239564 402.81673201 313.81274414 406.05664062 C314.14469114 408.59141055 314.24873293 411.06934234 314.3125 413.625 C315.1682629 423.78820319 317.55801231 433.02793065 320.875 442.625 C321.24951294 443.71229904 321.24951294 443.71229904 321.6315918 444.82156372 C323.05300567 448.93223911 324.49399154 453.03579646 325.94189453 457.13720703 C328.31305214 463.86791164 330.62292437 470.61944123 332.93359375 477.37109375 C341.3416133 501.9230666 349.82983529 526.4469355 358.39770508 550.94360352 C363.05571047 564.26579603 367.66971058 577.602946 372.27304077 590.94412231 C378.28519617 608.3680829 384.29939976 625.79133136 390.359375 643.19873047 C390.98162623 644.98674642 391.60323728 646.77498532 392.22412109 648.56347656 C393.86963754 653.30219927 395.53002733 658.03515014 397.21099854 662.76141357 C398.02442307 665.0692941 398.81565827 667.38415071 399.60693359 669.69970703 C400.12642333 671.17640794 400.64673164 672.65282121 401.16796875 674.12890625 C401.39494949 674.81057358 401.62193024 675.49224091 401.85578918 676.19456482 C403.08225294 679.72081179 403.08225294 679.72081179 405.83276367 682.06713867 C408.79544812 681.97535786 410.81923669 681.04509413 413.5078125 679.796875 C414.57773437 679.31089844 415.64765625 678.82492187 416.75 678.32421875 C417.86375 677.80472656 418.9775 677.28523437 420.125 676.75 C441.40486324 666.91498046 441.40486324 666.91498046 449 668 C449.59425781 668.51304687 450.18851563 669.02609375 450.80078125 669.5546875 C454.40332753 671.92225788 457.7431902 670.66599893 461.83203125 670.03125 C465.8081002 669.9920286 468.4139452 671.36884221 472 673 C472.14208522 748.31180266 471.82194325 823.6123133 471.1831104 898.92100595 C471.09496131 909.31978625 471.01098863 919.71859372 470.92993164 930.11743164 C470.83330527 942.51312713 470.73450315 954.90880197 470.63215441 967.30445164 C470.57891775 973.75399249 470.52637641 980.20353613 470.4761219 986.65310097 C470.28865958 1010.53980962 470.05935301 1034.42351566 469.52905273 1058.30541992 C469.51030535 1059.21012169 469.49155796 1060.11482347 469.47224247 1061.04694045 C469.41927563 1063.54705053 469.35971364 1066.04690145 469.29759216 1068.54679871 C469.28257766 1069.28066138 469.26756316 1070.01452406 469.25209367 1070.770625 C469.11518406 1075.76963188 469.11518406 1075.76963188 468 1078 C460.95483173 1078.28785161 454.97712666 1077.3375409 448.1875 1075.5 C446.6878772 1075.09950439 446.6878772 1075.09950439 445.15795898 1074.69091797 C421.5955358 1068.16639785 397.69795384 1057.0399347 378.0859375 1042.34765625 C375.99592268 1040.99736577 374.4000607 1040.53372987 372 1040 C368.90817555 1046.70098674 366.23356173 1053.50938978 363.67578125 1060.4296875 C363.26148361 1061.54332672 362.84718597 1062.65696594 362.42033386 1063.80435181 C361.28644018 1066.85364587 360.15503681 1069.90385017 359.02462769 1072.95443726 C357.81289655 1076.22239851 356.59776056 1079.48909302 355.3828125 1082.75585938 C353.84304109 1086.89652727 352.30351178 1091.03728423 350.76528931 1095.17852783 C347.10559856 1105.03092623 343.43705652 1114.87999072 339.76171875 1124.7265625 C339.50420271 1125.41647655 339.24668667 1126.10639061 338.98136711 1126.81721115 C337.67786476 1130.30928124 336.37420222 1133.80129149 335.07046509 1137.29327393 C332.70159298 1143.63834321 330.33394447 1149.9838691 327.96627617 1156.32938766 C327.18172077 1158.43205069 326.39714329 1160.53470548 325.61256409 1162.63735962 C322.37631072 1171.31057901 319.14065059 1179.98401951 315.90572929 1188.65773582 C315.19787053 1190.55564142 314.48993784 1192.45351942 313.78199768 1194.35139465 C311.49541513 1200.48178387 309.21042548 1206.61276091 306.9284668 1212.74487305 C302.93350663 1223.47681265 298.92941127 1234.20482461 294.87561035 1244.91470337 C293.10243339 1249.60129118 291.33631317 1254.29052377 289.57073975 1258.97998047 C288.74595886 1261.16445954 287.91767235 1263.34761895 287.08551025 1265.52929688 C281.87470911 1279.1924726 277.20865321 1292.14105135 276.4375 1306.875 C275.75166251 1312.36169995 274.8767637 1314.93367566 270.5 1318.375 C268.68029276 1319.60375796 266.84673737 1320.81225354 265 1322 C256.02782272 1328.81943265 250.08700288 1337.42367578 243.71630859 1346.56201172 C240.89611849 1350.56804563 237.97868032 1354.50108404 235.0625 1358.4375 C233.88791269 1360.028566 232.71343392 1361.61971214 231.5390625 1363.2109375 C229.76942561 1365.60595684 227.99945885 1368.00073218 226.22949219 1370.39550781 C219.94498265 1378.90093735 213.67980365 1387.41808621 207.5 1396 C201.31898737 1404.58359269 195.05214333 1413.10201249 188.76611328 1421.60888672 C185.84043897 1425.56991162 182.92049694 1429.53515717 180 1433.5 C178.8333611 1435.08335379 177.66669442 1436.66668712 176.5 1438.25 C175.9225 1439.03375 175.345 1439.8175 174.75 1440.625 C169.50000001 1447.74999999 169.50000001 1447.74999999 167.74975586 1450.12524414 C166.58379194 1451.70768185 165.41793896 1453.29020131 164.25219727 1454.87280273 C161.32568557 1458.84551887 158.39722466 1462.81676994 155.46484375 1466.78515625 C149.77035401 1474.49539457 144.10117057 1482.22163589 138.5 1490 C132.31898737 1498.58359269 126.05214333 1507.10201249 119.76611328 1515.60888672 C116.84043906 1519.56991151 113.92042722 1523.53510594 111 1527.5 C107.49111076 1532.26381471 103.98102197 1537.02671798 100.46484375 1541.78515625 C94.72576518 1549.55599874 89.01570381 1557.34488696 83.375 1565.1875 C78.83004123 1571.50636829 74.20318727 1577.75540833 69.51464844 1583.96826172 C65.26269586 1589.61664797 61.12185654 1595.34096874 56.99389648 1601.08032227 C51.31443685 1608.96991123 45.54325703 1616.79068749 39.76611328 1624.60888672 C36.84043906 1628.56991151 33.92042722 1632.53510594 31 1636.5 C27.49111076 1641.26381471 23.98102197 1646.02671798 20.46484375 1650.78515625 C14.17635113 1659.29991783 7.93514794 1667.84509883 1.75585938 1676.43945312 C-2.26416049 1682.01655742 -6.37541742 1687.51893221 -10.52929688 1692.99682617 C-14.90992796 1698.80437055 -19.07829643 1704.7542789 -23.16821289 1710.76977539 C-24.39696383 1712.54770746 -25.69239002 1714.27923637 -27 1716 C-27.66 1716 -28.32 1716 -29 1716 C-26.9668897 1709.59526936 -24.60260585 1703.39624556 -22 1697.203125 C-21.61218353 1696.27326279 -21.22436707 1695.34340057 -20.82479858 1694.38536072 C-19.55309637 1691.33887897 -18.27665272 1688.29441014 -17 1685.25 C-16.10088391 1683.09944479 -15.20196123 1680.94880871 -14.30322266 1678.7980957 C-7.57708821 1662.71433808 -0.80083952 1646.65174364 5.98999023 1630.59521484 C11.37308834 1617.86579809 16.72915719 1605.12534212 22.0625 1592.375 C22.61748672 1591.04832809 22.61748672 1591.04832809 23.1836853 1589.69485474 C25.79014357 1583.46366281 28.3952435 1577.23190345 31 1571 C33.97821213 1563.87460058 36.95711192 1556.74948958 39.9375 1549.625 C40.30789398 1548.7395047 40.67828796 1547.8540094 41.05990601 1546.94168091 C47.18815169 1532.29426725 53.36102976 1517.66600575 59.54660034 1503.04272461 C66.95707785 1485.5189455 74.28633252 1467.96178995 81.59130859 1450.39379883 C81.99836029 1449.41505295 82.40541199 1448.43630707 82.82479858 1447.42790222 C83.582225 1445.60630438 84.33927309 1443.78454917 85.09585571 1441.96260071 C85.43547333 1441.14559189 85.77509094 1440.32858307 86.125 1439.48681641 C86.44268341 1438.72147079 86.76036682 1437.95612518 87.087677 1437.16758728 C87.94360421 1435.13399071 88.83034821 1433.11642286 89.72216797 1431.09838867 C91.12208426 1427.70397948 91.57185721 1425.62677863 91 1422 C89.33306472 1419.7104273 89.33306472 1419.7104273 86.875 1417.8125 C85.96363281 1417.04550781 85.05226563 1416.27851562 84.11328125 1415.48828125 C79.57895443 1411.86423334 75.0367174 1408.25303606 70.453125 1404.69140625 C62.538938 1398.53714205 54.93570913 1392.12494721 47.5546875 1385.33984375 C45.37302185 1383.34165152 43.16988691 1381.37851111 40.9375 1379.4375 C39.62426183 1378.29251276 38.31186588 1377.14655928 37 1376 C36.32163086 1375.40848145 35.64326172 1374.81696289 34.94433594 1374.20751953 C27.77519203 1367.85942283 20.99793201 1361.15071178 14.23999023 1354.37036133 C12.30890453 1352.43389451 10.37250118 1350.50286044 8.43554688 1348.57226562 C2.93006122 1343.06969887 -2.54412832 1337.589854 -7.5871582 1331.65356445 C-9.42982481 1329.49694082 -11.37349318 1327.44682622 -13.32250977 1325.38671875 C-18.51264642 1319.89034007 -23.32233106 1314.21100607 -27.93139648 1308.22094727 C-30.945522 1304.31007495 -34.07793007 1300.54202504 -37.3125 1296.8125 C-43.7884805 1289.2856956 -49.58313568 1281.26051981 -55.39550781 1273.21728516 C-56.78391029 1271.29861941 -58.18220422 1269.38792075 -59.5859375 1267.48046875 C-70.90795859 1251.92679526 -81.3968342 1235.66979266 -91 1219 C-91.48146484 1218.1656543 -91.96292969 1217.33130859 -92.45898438 1216.47167969 C-102.79793557 1198.49614768 -112.69820204 1180.37083679 -121.3503418 1161.51837158 C-121.94529827 1160.22492653 -122.54500041 1158.93365278 -123.1496582 1157.64471436 C-123.99582058 1155.8342642 -124.81867053 1154.01297464 -125.640625 1152.19140625 C-126.12047852 1151.14154541 -126.60033203 1150.09168457 -127.09472656 1149.01000977 C-128.1414833 1145.52957186 -127.9384581 1143.48434687 -127 1140 C-126.46375 1139.113125 -125.9275 1138.22625 -125.375 1137.3125 C-124.694375 1136.1678125 -124.694375 1136.1678125 -124 1135 C-124.33 1134.01 -124.66 1133.02 -125 1132 C-127.44732416 1131.02820279 -129.91885279 1130.34578047 -132.45703125 1129.6484375 C-136.45170826 1127.05895409 -137.39118132 1123.35565128 -139 1119 C-139.33813721 1118.11747559 -139.67627441 1117.23495117 -140.0246582 1116.32568359 C-154.64162744 1077.55260598 -165.37177081 1037.70230578 -173 997 C-173.13931946 996.26267639 -173.27863892 995.52535278 -173.42218018 994.76568604 C-173.85202731 992.4764945 -174.27310592 990.18585841 -174.69140625 987.89453125 C-174.82272446 987.19454514 -174.95404266 986.49455902 -175.08934021 985.77336121 C-176.88296156 975.76592312 -176.88296156 975.76592312 -175 972 C-163.44164913 971.81356766 -152.11922713 972.31038536 -140.6171875 973.42578125 C-139.02160993 973.57589794 -137.42599753 973.72564485 -135.83035278 973.87504578 C-132.52405491 974.18659601 -129.21840443 974.50415989 -125.91308594 974.82592773 C-121.69264665 975.23604743 -117.47074308 975.62812899 -113.24816704 976.01554585 C-109.96846842 976.3188857 -106.68986196 976.6329474 -103.41147232 976.95009422 C-101.85459355 977.0991818 -100.29736819 977.24469818 -98.73980331 977.38643837 C-96.56732406 977.58549276 -94.39677264 977.79933114 -92.22607422 978.0168457 C-90.99605682 978.13453812 -89.76603943 978.25223053 -88.49874878 978.37348938 C-83.97194813 979.18409021 -79.47256146 980.29091884 -76.37207031 983.8894043 C-72.99022397 991.16954825 -71.09343537 998.69585402 -69.29202271 1006.48071289 C-68.35730644 1010.50187162 -67.37357662 1014.51089812 -66.38671875 1018.51953125 C-66.18815781 1019.32649445 -65.98959686 1020.13345764 -65.78501892 1020.96487427 C-62.75503592 1033.14907559 -58.9734174 1045.09318855 -55 1057 C-54.61763184 1058.14839355 -54.23526367 1059.29678711 -53.84130859 1060.47998047 C-47.56789815 1079.11224446 -40.10322145 1097.10592274 -32 1115 C-31.55124512 1115.9914502 -31.10249023 1116.98290039 -30.64013672 1118.00439453 C-8.85933566 1165.73108249 20.45402342 1211.50223925 55 1251 C55.63035156 1251.72960938 56.26070312 1252.45921875 56.91015625 1253.2109375 C60.74529851 1257.6313976 64.66596863 1261.97435341 68.59375 1266.3125 C69.86656953 1267.73409065 71.1352794 1269.15996348 72.36743164 1270.61694336 C77.79179158 1276.98532871 83.70277817 1282.85400805 89.62426758 1288.75463867 C91.43360933 1290.55862085 93.23754319 1292.36788665 95.04101562 1294.17773438 C100.85759123 1299.99811648 106.69767915 1305.70081673 113 1311 C114.24712354 1312.07823714 115.49321914 1313.15766438 116.73828125 1314.23828125 C117.9293289 1315.26343761 119.12073193 1316.28818123 120.3125 1317.3125 C120.91900391 1317.83650391 121.52550781 1318.36050781 122.15039062 1318.90039062 C122.73626953 1319.40376953 123.32214844 1319.90714844 123.92578125 1320.42578125 C124.44567627 1320.87348877 124.96557129 1321.32119629 125.5012207 1321.7824707 C128.4217038 1324.31442284 128.4217038 1324.31442284 132.07702637 1324.8678894 C134.11562111 1324.16541791 134.11562111 1324.16541791 135.02355957 1322.32131958 C135.26908569 1321.59282806 135.51461182 1320.86433655 135.76757812 1320.11376953 C136.19822571 1318.87580124 136.19822571 1318.87580124 136.63757324 1317.61282349 C136.93248657 1316.71191986 137.2273999 1315.81101624 137.53125 1314.8828125 C138.00794128 1313.49242264 138.00794128 1313.49242264 138.4942627 1312.07394409 C139.51155409 1309.09593379 140.50614155 1306.11090273 141.5 1303.125 C142.16905513 1301.15052671 142.83961113 1299.17656131 143.51171875 1297.203125 C144.48618015 1294.34036893 145.45813608 1291.47695045 146.41996765 1288.60992432 C147.9833591 1283.95070539 149.6031984 1279.33173994 151.36328125 1274.7421875 C153.15301807 1269.89373334 154.0192868 1265.11173034 154.6875 1260 C154.88859375 1258.69591187 154.88859375 1258.69591187 155.09375 1257.36547852 C155.78346451 1252.70772844 155.91278683 1248.64056309 155.5 1243.9375 C155.67578125 1241.421875 155.67578125 1241.421875 157 1239 C160.48370353 1236.32038445 164.39222339 1234.36000059 168.28222656 1232.34033203 C177.14965182 1227.67196149 183.40412688 1221.43769594 190 1214 C190.65742187 1213.27039062 191.31484375 1212.54078125 191.9921875 1211.7890625 C193.06615438 1210.57121488 194.12906612 1209.34351253 195.1796875 1208.10546875 C197.63896227 1205.26094278 200.19433541 1202.5075649 202.75 1199.75 C203.2648999 1199.19393066 203.7797998 1198.63786133 204.31030273 1198.06494141 C205.35795137 1196.93364394 206.40572201 1195.80245944 207.45361328 1194.67138672 C213.15708178 1188.50688635 218.83048997 1182.31492125 224.4375 1176.0625 C228.43517373 1171.60713196 232.49200885 1167.20916481 236.55834961 1162.81665039 C239.56396073 1159.56634649 242.54551924 1156.29702925 245.5 1153 C249.47530054 1148.56379505 253.51207668 1144.18745602 257.55859375 1139.81640625 C260.56410722 1136.56616903 263.54559609 1133.2969435 266.5 1130 C269.96489833 1126.13337433 273.47304568 1122.30986214 277 1118.5 C281.28227279 1113.87380193 285.52207859 1109.21321325 289.73046875 1104.51953125 C294.58556409 1099.12962334 299.50779542 1093.80048195 304.41601562 1088.45898438 C309.1123812 1083.34689626 313.8032514 1078.23114844 318.4375 1073.0625 C322.43517373 1068.60713196 326.49200885 1064.20916481 330.55834961 1059.81665039 C334.28787983 1055.78349169 337.97225332 1051.71275821 341.62890625 1047.61328125 C343.44883988 1045.60745654 345.28784022 1043.6316895 347.15234375 1041.66796875 C347.69632813 1041.09111328 348.2403125 1040.51425781 348.80078125 1039.91992188 C349.86648074 1038.79190821 350.93783794 1037.66920438 352.015625 1036.55273438 C354.8451423 1033.54777207 356.77685575 1030.96240144 358 1027 C354.96757025 1023.49563582 351.93595505 1019.99813388 348.765625 1016.6171875 C338.85753539 1006.02913096 330.06723086 994.50404357 322.125 982.375 C321.68994141 981.73667236 321.25488281 981.09834473 320.80664062 980.44067383 C318.78926182 977.25306427 317.99396206 975.2604938 318.08203125 971.4609375 C319.0201979 967.92384963 320.16880562 964.63298464 321.5625 961.25 C323.46853909 956.76228722 323.46853909 956.76228722 324 952 C323.525625 952.474375 323.05125 952.94875 322.5625 953.4375 C318.99605209 955.61216336 315.17794911 956.52224364 311 956 C307.10865823 953.11591429 305.63588588 949.37069814 304.0625 944.9375 C303.80799072 944.23197998 303.55348145 943.52645996 303.29125977 942.79956055 C297.02834514 924.97884584 293.98932731 906.58765646 291 888 C287.33547233 887.08344799 284.63848671 887.01847851 280.93978882 887.73895264 C279.94028765 887.92884671 278.94078648 888.11874079 277.91099739 888.31438923 C276.2774194 888.63974801 276.2774194 888.63974801 274.61083984 888.97167969 C273.45049162 889.19497798 272.29014339 889.41827627 271.0946331 889.64834118 C267.88981663 890.26699147 264.68678437 890.89407218 261.4843111 891.52471805 C258.05963934 892.19692816 254.63282678 892.85804689 251.20623779 893.520401 C244.56259151 894.80632358 237.92086545 896.10190322 231.27974796 897.40081519 C222.84277711 899.05053762 214.40360696 900.68889576 205.96435547 902.3269043 C202.87282297 902.9270558 199.78130317 903.52727272 196.68978882 904.1275177 C195.92368227 904.27625216 195.15757572 904.42498661 194.36825383 904.57822818 C189.70269298 905.48416002 185.03737383 906.39132534 180.37224162 907.29946178 C161.64147358 910.94567836 142.90512506 914.55897999 124.15655136 918.11271286 C120.65906188 918.77573704 117.16178716 919.43988223 113.6645813 920.10440063 C95.60066407 923.53604584 95.60066407 923.53604584 87.89324951 924.98498535 C83.01417634 925.90228474 78.13665998 926.82745985 73.26016998 927.75839043 C71.51483828 928.09004751 69.76894958 928.41879171 68.02242279 928.74409676 C53.36625066 931.47557013 38.8910623 934.61143635 25.5625 941.5 C16.5708315 945.73689181 16.5708315 945.73689181 12.0625 944.375 C10.36011644 943.61586723 8.67435217 942.81910754 7 942 C-7.51446952 936.32804484 -22.21207824 934.29326786 -37.57594299 932.36042786 C-57.40557332 929.86185473 -57.40557332 929.86185473 -62 924 C-65.51832277 924.0639695 -68.11082325 924.58414122 -71.29777181 926.07464415 C-74.69403751 927.23766745 -77.22502294 927.04087508 -80.79815102 926.74319363 C-81.78052647 926.66379167 -81.78052647 926.66379167 -82.7827479 926.58278563 C-90.28556513 925.94742513 -97.75874454 925.03912455 -105.22958374 924.10890198 C-106.8101691 923.91524553 -108.39079926 923.72195435 -109.97146952 923.52899212 C-114.27202315 923.00294513 -118.57193213 922.4717904 -122.87174559 921.93973196 C-127.52587593 921.36476518 -132.18059964 920.79463933 -136.83525085 920.22390747 C-144.88929387 919.23569884 -152.94296189 918.24448127 -160.99637985 917.25119209 C-172.65854627 915.81282151 -184.32128789 914.37916009 -195.9841729 912.94662916 C-214.9341799 910.61891414 -233.88373826 908.28756769 -252.83300781 905.95385742 C-271.19054498 903.69303153 -289.54826355 901.43368859 -307.90625 899.17651367 C-309.6019499 898.96802078 -309.6019499 898.96802078 -311.33190636 898.75531591 C-319.25251183 897.78146491 -327.17312927 896.80771125 -335.09375 895.83398438 C-343.89775962 894.75165247 -352.7017664 893.66929741 -361.50576782 892.5868988 C-363.10934699 892.38975255 -363.10934699 892.38975255 -364.74532171 892.18862354 C-379.50406023 890.37412997 -394.26263565 888.55831522 -409.02108285 886.74145366 C-414.93610472 886.01332027 -420.85115451 885.28541368 -426.76620458 884.55750937 C-432.23298532 883.88473807 -437.6997183 883.21158043 -443.16641279 882.53810868 C-446.50542696 882.12685282 -449.84448757 881.715975 -453.18356057 881.30519711 C-454.69688352 881.118948 -456.21018771 880.9325463 -457.72346966 880.74596436 C-459.12673385 880.57295996 -460.53003103 880.40022285 -461.93336324 880.22777107 C-463.93195012 879.98183289 -465.93030665 879.73402505 -467.92865825 879.48618233 C-470.8481331 879.1302464 -473.76978139 878.80831264 -476.69474149 878.50078189 C-477.47134546 878.41668328 -478.24794943 878.33258467 -479.04808686 878.24593761 C-480.54174495 878.08511261 -482.03612642 877.93082712 -483.53123661 877.78411413 C-487.07951828 877.39688717 -488.96955539 877.0202964 -492 875 C-476.18388327 872.52774774 -460.32806705 870.46559422 -444.44458008 868.47827148 C-441.72714209 868.13673722 -439.00979695 867.79446681 -436.29244995 867.45220947 C-430.48221758 866.72073677 -424.67178404 865.99088106 -418.86121559 865.26208305 C-410.45060058 864.20709186 -402.04042618 863.14861993 -393.6303701 862.08918334 C-379.96657782 860.36793359 -366.30260089 858.64815515 -352.63842773 856.92993164 C-351.82369827 856.82748125 -351.0089688 856.72503086 -350.16955056 856.61947591 C-341.06606907 855.47477966 -331.96252321 854.33059677 -322.85888672 853.18713379 C-321.62817664 853.03254963 -321.62817664 853.03254963 -320.37260373 852.87484256 C-319.55278778 852.77186961 -318.73297184 852.66889667 -317.888313 852.56280333 C-316.23470534 852.35510184 -314.58109775 852.14739982 -312.92749023 851.93969727 C-311.70190822 851.78575846 -311.70190822 851.78575846 -310.45156697 851.62870979 C-296.81916227 849.91632725 -283.18717447 848.2006507 -269.55551833 846.48231941 C-261.16630801 845.42495896 -252.77675705 844.37038232 -244.38674124 843.31943203 C-238.64487266 842.59997774 -232.9033961 841.87745036 -227.16221628 841.15252047 C-223.85396653 840.73489581 -220.54551141 840.31912847 -217.23667336 839.90617561 C-213.64517381 839.45773482 -210.054375 839.00404076 -206.46369934 838.54905701 C-205.42576463 838.42074586 -204.38782992 838.29243471 -203.31844264 838.16023535 C-194.50623492 837.24943589 -194.50623492 837.24943589 -186 835 C-183.56469942 831.34704913 -183.38393181 828.17601225 -182.984375 823.92578125 C-182.90233826 823.12513748 -182.82030151 822.32449371 -182.73577881 821.49958801 C-182.48182773 819.00050076 -182.23967609 816.50049299 -182 814 C-181.85513338 812.5199886 -181.70996333 811.04000686 -181.56445312 809.56005859 C-181.35107986 807.38245708 -181.13813342 805.20481867 -180.92658997 803.02703857 C-173.63397719 728.29368425 -155.11759635 654.06100049 -123 586 C-122.49629883 584.9270166 -121.99259766 583.8540332 -121.47363281 582.74853516 C-101.35244268 540.02814654 -77.59627342 499.61941405 -49 462 C-48.53126465 461.37963867 -48.0625293 460.75927734 -47.57958984 460.12011719 C-42.59310012 453.52560635 -37.47366314 447.04923596 -32.20703125 440.67578125 C-30.73475177 438.89080524 -29.27377041 437.09645044 -27.82421875 435.29296875 C-22.9511875 429.24279319 -17.85120497 423.47975968 -12.5703125 417.7890625 C-10.41922571 415.4549045 -8.32074342 413.09253383 -6.25 410.6875 C-3.54711966 407.56631675 -0.68660274 404.66550758 2.2578125 401.7734375 C4.04715827 399.95199585 5.71288532 398.06285721 7.375 396.125 C15.19719713 387.15042562 21.67745095 379.80958689 33.9375 378.125 C41.97814763 377.60810122 50.04418718 378.94097541 58 380 C57.43490723 379.74831055 56.86981445 379.49662109 56.28759766 379.23730469 C53.72725595 378.08802149 51.17624815 376.91932207 48.625 375.75 C47.73554687 375.35425781 46.84609375 374.95851563 45.9296875 374.55078125 C45.07890625 374.15761719 44.228125 373.76445312 43.3515625 373.359375 C42.56604004 373.00327148 41.78051758 372.64716797 40.97119141 372.28027344 C38.6732473 370.78777667 37.98958073 369.51808805 37 367 C43.52207212 360.91045622 50.10391577 354.99550811 57.0625 349.40234375 C61.16508046 346.04717489 65.16071815 342.57037418 69.14208984 339.07250977 C77.28633428 332 77.28633428 332 81.625 332 C86.76575185 334.1645271 88.53888268 341.2960824 90.609375 346.1875 C90.9404425 346.96762451 91.27151001 347.74774902 91.61260986 348.55151367 C92.30728223 350.19453482 92.99968458 351.83851738 93.68994141 353.48339844 C94.74867398 355.996852 95.82533047 358.50214823 96.90234375 361.0078125 C97.57664479 362.60890211 98.24985937 364.21044981 98.921875 365.8125 C99.24573181 366.55846436 99.56958862 367.30442871 99.90325928 368.07299805 C101.54708595 372.05517471 102.60992062 374.87614121 101 379 C96.9819042 382.39026833 92.03845707 383.0669524 87 384 C88.43120744 384.55808089 89.87030355 385.09596462 91.3125 385.625 C92.51326172 386.07746094 92.51326172 386.07746094 93.73828125 386.5390625 C94.85783203 386.76722656 94.85783203 386.76722656 96 387 C96.99 386.34 97.98 385.68 99 385 C101.875 384.375 101.875 384.375 105 385 C109.49874701 390.208473 111.90144782 397.09190345 114.3125 403.4375 C114.67150391 404.32759766 115.03050781 405.21769531 115.40039062 406.13476562 C117.56270811 411.77326588 118.90303822 416.93742773 118 423 C115.61147291 427.1799224 111.77036107 430.00933337 108.14453125 433.1171875 C102.73293524 437.86835194 97.86758562 443.08034392 93.1796875 448.53515625 C90.18656755 451.91984924 87.09175171 455.20551708 84 458.5 C79.8420828 462.934031 75.72394683 467.3812319 71.76171875 471.9921875 C69.89776988 474.11651061 67.98342542 476.19034559 66.06152344 478.26220703 C60.45214828 484.3158325 55.15730553 490.55336808 50 497 C49.08923981 498.11905814 48.17774524 499.23751888 47.265625 500.35546875 C24.40808994 528.4854599 4.9347867 558.80022922 -12.60742188 590.48486328 C-13.45120638 592.00882331 -14.29800722 593.53112576 -15.15039062 595.05029297 C-45.87414336 649.81552908 -64.67122381 711.77514332 -75.8125 773.3125 C-75.95988617 774.12262543 -76.10727234 774.93275085 -76.25912476 775.76742554 C-77.78920635 784.23867933 -79.16938011 792.70904762 -80.19140625 801.2578125 C-80.27356888 801.94164505 -80.35573151 802.6254776 -80.44038391 803.33003235 C-81.06860869 808.89802915 -81.21753272 814.4045751 -81 820 C-77.23492927 821.77637197 -74.74292838 822.17258924 -70.625 821.66381836 C-69.57199707 821.53966049 -68.51899414 821.41550262 -67.43408203 821.2875824 C-66.30083496 821.13982864 -65.16758789 820.99207489 -64 820.83984375 C-62.22085205 820.62032799 -62.22085205 820.62032799 -60.40576172 820.39637756 C-57.88657426 820.08217033 -55.36818905 819.76147362 -52.85058594 819.43481445 C-49.07169147 818.94675916 -45.29032434 818.48445497 -41.5078125 818.02539062 C-22.8118692 815.69340099 -4.70598421 812.46824181 12.96875 805.8203125 C19.75370466 803.98417786 26.14621656 808.04013022 32.2890625 810.765625 C38.22703221 813.25391707 44.23689151 814.88486454 50.48735046 816.34977722 C51.40753989 816.56680461 52.32772931 816.783832 53.27580327 817.00743598 C63.62507739 819.41981419 74.03254086 821.52507718 84.45239258 823.60668945 C86.61003056 824.04061843 88.76760622 824.4748574 90.92512512 824.90937805 C96.71275482 826.07388819 102.50134304 827.23356011 108.2902205 828.39184976 C111.91397154 829.11717238 115.53750073 829.84359299 119.16095543 830.57039452 C131.81950377 833.10947149 144.47882727 835.64464048 157.13891602 838.17602539 C167.61239129 840.27029141 178.08468149 842.37035308 188.5559082 844.47583008 C200.00747497 846.77838427 211.46008072 849.07567163 222.91411895 851.36590165 C228.96111296 852.57509674 235.00760768 853.78666316 241.05292702 855.0042057 C246.72426598 856.14621394 252.39703273 857.28083795 258.07098198 858.40980339 C260.14998998 858.82476841 262.22847665 859.24235535 264.30638885 859.66277313 C267.14529734 860.23673308 269.98594631 860.80114333 272.82722473 861.36323547 C273.64560611 861.5310266 274.46398749 861.69881773 275.3071683 861.87169343 C280.29698751 862.84579514 284.91501512 863.15180274 290 863 C290.97554419 857.45661359 291.89922948 851.92208839 292.58984375 846.3359375 C295.8076406 820.81335084 303.00234612 796.45166366 315.09179688 773.71484375 C315.89705835 772.19437154 316.67700394 770.66055134 317.453125 769.125 C331.29365373 742.39846175 353.22062562 718.64572449 377.53222656 701.09545898 C381.37223864 698.31130499 384.74232922 695.45187807 388 692 C386.63309708 688.06051568 384.86270359 685.3114206 382.1875 682.125 C381.383125 681.16464844 380.57875 680.20429687 379.75 679.21484375 C375.64045664 674.39484206 371.49157172 669.60889507 367.33203125 664.83203125 C359.86044044 656.24935868 352.48391146 647.58539004 345.1418457 638.8918457 C341.79782204 634.93513994 338.43525315 630.99473788 335.0625 627.0625 C334.56580811 626.48330811 334.06911621 625.90411621 333.55737305 625.30737305 C331.00489582 622.33243959 328.44930018 619.3602292 325.890625 616.390625 C321.3016409 611.05879366 316.74122166 605.71670329 312.3125 600.25 C308.75732096 595.86848205 305.03230463 591.68289319 301.234375 587.51171875 C298.99865467 584.99848768 296.86622318 582.42688521 294.75 579.8125 C291.14529915 575.36147808 287.44629733 571.00801395 283.6875 566.6875 C283.13642578 566.05400635 282.58535156 565.4205127 282.01757812 564.76782227 C280.89837515 563.48168345 279.77907163 562.19563212 278.65966797 560.90966797 C272.45127377 553.76608759 266.27176028 546.60354128 260.3125 539.25 C256.75732096 534.86848205 253.03230463 530.68289319 249.234375 526.51171875 C246.99865467 523.99848768 244.86622318 521.42688521 242.75 518.8125 C237.49018834 512.3204947 232.02293844 506.01719417 226.51757812 499.73339844 C225.16903281 498.19307158 223.8262836 496.64767459 222.484375 495.1015625 C214.54115473 485.90554063 214.54115473 485.90554063 204.80493164 478.80517578 C198.58951952 475.28121162 198.58951952 475.28121162 196.93505859 471.68554688 C196.26846347 468.9194109 195.81191705 466.19548173 195.4375 463.375 C192.96468352 446.32109327 184.97452638 430.68487223 178.02139282 415.06237793 C170.44742267 398.0305946 163.09358081 380.9086913 155.8125 363.75 C147.95404069 345.23600824 140.02166314 326.75638644 132 308.3125 C130.07151542 303.87764728 128.14307413 299.44277576 126.21484375 295.0078125 C125.75820343 293.95756393 125.30156311 292.90731537 124.83108521 291.82524109 C121.04953415 283.12346898 117.29462471 274.4105737 113.5625 265.6875 C113.27842285 265.02366302 112.9943457 264.35982605 112.70166016 263.6758728 C111.17933168 260.1177719 109.65803889 256.5592291 108.13720703 253.00048828 C103.59562861 242.37354631 99.049314 231.74863259 94.5 221.125 C93.9915152 219.93752167 93.4830304 218.75004333 92.95913696 217.52658081 C84.37169838 197.47826088 75.71673473 177.45981082 67.01367188 157.46142578 C60.28608773 141.99826365 53.63058361 126.5049831 47 111 C46.05748967 108.79669716 45.11494476 106.59340912 44.17236328 104.39013672 C43.71237946 103.3149176 43.25239563 102.23969849 42.7784729 101.13189697 C40.41536452 95.60852949 38.05160919 90.08543919 35.6875 84.5625 C35.18629639 83.39128601 34.68509277 82.22007202 34.16870117 81.0133667 C28.2610467 67.21235982 22.3267206 53.42360505 16.33203125 39.66015625 C15.79097671 38.41726763 15.24993553 37.17437319 14.70890808 35.93147278 C12.13105501 30.01134779 9.54870268 24.09324328 6.9597168 18.17797852 C6.03553624 16.05880373 5.11145815 13.93958426 4.1875 11.8203125 C3.76060379 10.84912979 3.33370758 9.87794708 2.89387512 8.87733459 C2.50995102 7.99500656 2.12602692 7.11267853 1.73046875 6.20361328 C1.39426514 5.43542267 1.05806152 4.66723206 0.71166992 3.87576294 C0 2 0 2 0 0 Z " fill="#000000" transform="translate(492,0)"/>
<path d="M0 0 C1.4409167 4.3227501 -0.47968267 7.184451 -2.21484375 11.16796875 C-2.57218094 12.00902161 -2.92951813 12.85007446 -3.29768372 13.71661377 C-4.50182733 16.54423572 -5.71969146 19.36573921 -6.9375 22.1875 C-7.79868673 24.20219855 -8.6590192 26.21726244 -9.51855469 28.23266602 C-11.85011628 33.69282456 -14.19356216 39.14780772 -16.53948975 44.60180664 C-18.96598231 50.24756701 -21.3829228 55.89741297 -23.80078125 61.546875 C-27.31232234 69.74907616 -30.82746513 77.94971961 -34.34631348 86.14878845 C-40.77568473 101.13067809 -47.1772739 116.12424718 -53.5625 131.125 C-54.03473999 132.23438934 -54.50697998 133.34377869 -54.99353027 134.48678589 C-57.37644147 140.08510295 -59.75888608 145.68361842 -62.14111328 151.28222656 C-65.00801901 158.01948566 -67.87677866 164.75595422 -70.74609375 171.4921875 C-71.22130463 172.60783585 -71.6965155 173.72348419 -72.18612671 174.87294006 C-74.09890507 179.36343468 -76.01176053 183.85389644 -77.92468262 188.34432983 C-82.83367844 199.86786988 -87.74186889 211.39174862 -92.64492798 222.91781616 C-94.70521253 227.76091575 -96.76615782 232.60373405 -98.82714844 237.4465332 C-99.79606317 239.72373764 -100.76466517 242.00107517 -101.73291016 244.27856445 C-102.64483493 246.42353926 -103.55729044 248.56828851 -104.4703064 250.71279907 C-105.34867391 252.77724579 -106.22519714 254.84247829 -107.09976196 256.90853882 C-109.29943485 262.0883465 -111.54948106 267.23726697 -113.88818359 272.35595703 C-114.35443649 273.38870255 -114.82068939 274.42144806 -115.30107117 275.48548889 C-116.18280789 277.43256193 -117.07772689 279.37374454 -117.98860168 281.30735779 C-120.51452818 286.91577629 -121.99345118 291.8177994 -121 298 C-118.56689674 302.97328685 -115.08124767 305.74643517 -110.5625 308.75 C-109.29943726 309.62175384 -108.03774788 310.49550042 -106.77734375 311.37109375 C-106.14296387 311.80921387 -105.50858398 312.24733398 -104.85498047 312.69873047 C-84.94760418 326.66376279 -66.34861507 342.92956432 -48.60009766 359.51318359 C-47.01726447 360.98395779 -45.42309661 362.44122948 -43.82421875 363.89453125 C-33.24846446 373.5244338 -22.69436876 383.38002484 -13.4609375 394.32421875 C-11.92722273 396.08347981 -10.30327942 397.69117576 -8.625 399.3125 C-4.88144044 402.98935917 -1.66703957 407.03138637 1.6171875 411.1171875 C3.97016928 413.96390972 6.42264603 416.67094072 8.9375 419.375 C13.8459531 424.72143814 18.26181524 430.37413985 22.61669922 436.17089844 C24.09646554 438.1275538 25.59496838 440.06871113 27.09765625 442.0078125 C79.89138235 510.24136292 119.82770802 588.38712974 160 735 C160.21172852 735.99338379 160.42345703 736.98676758 160.64160156 738.01025391 C166.21242594 764.36793408 166.21242594 764.36793408 162.59375 770.30859375 C156.15495412 774.50738684 145.22656226 771.67486761 137.90234375 770.94140625 C136.78686661 770.8327977 135.67138947 770.72418915 134.52210999 770.61228943 C132.18483524 770.38346626 129.84779494 770.15223658 127.51098633 769.91870117 C123.91748394 769.56050482 120.3230999 769.21238711 116.72851562 768.86523438 C114.4530661 768.64122245 112.17767325 768.41663403 109.90234375 768.19140625 C108.82331284 768.08719864 107.74428192 767.98299103 106.6325531 767.87562561 C105.6438472 767.77559738 104.6551413 767.67556915 103.63647461 767.57250977 C102.76284775 767.48590591 101.88922089 767.39930206 100.98912048 767.31007385 C99 767 99 767 98 766 C97.95919217 764.00041636 97.95745644 761.99954746 98 760 C96.989375 760.433125 95.97875 760.86625 94.9375 761.3125 C93.96683594 761.71662109 93.96683594 761.71662109 92.9765625 762.12890625 C91.21011048 762.9074019 89.50463907 763.82098247 87.8125 764.75 C82.81766529 766.9019696 77.19187621 766.11759733 72 765 C68.31395189 763.20533518 66.22954364 761.41218762 64 758 C63.25146484 755.71459961 63.25146484 755.71459961 62.7109375 753.15234375 C62.49679199 752.17346191 62.28264648 751.19458008 62.06201172 750.18603516 C61.83529785 749.11401855 61.60858398 748.04200195 61.375 746.9375 C60.84712351 744.56825626 60.31568391 742.19980444 59.78125 739.83203125 C59.49507812 738.56311035 59.20890625 737.29418945 58.9140625 735.98681641 C46.41964608 681.16993071 27.09620659 628.11741288 -0.76269531 579.17773438 C-1.86579151 577.23621542 -2.94908538 575.28564018 -4.0234375 573.328125 C-17.22804413 549.59326246 -32.65813806 526.24892495 -50.02734375 505.33984375 C-50.79848511 504.39794189 -50.79848511 504.39794189 -51.58520508 503.43701172 C-52.58870078 502.21537862 -53.6049731 501.00409587 -54.63549805 499.80517578 C-56.64196114 497.35429949 -57.96064813 495.65990053 -58.15234375 492.4453125 C-56.55990953 489.06611311 -54.14792249 486.7995918 -51.4375 484.3125 C-49.57682097 482.57632737 -47.78051919 480.82158553 -46 479 C-46 478.34 -46 477.68 -46 477 C-47.21816406 477.144375 -48.43632813 477.28875 -49.69140625 477.4375 C-51.31508014 477.62520796 -52.93877943 477.8126963 -54.5625 478 C-55.76229492 478.14308594 -55.76229492 478.14308594 -56.98632812 478.2890625 C-59.32215741 478.55601442 -61.65939708 478.77956388 -64 479 C-65.21558594 479.144375 -66.43117188 479.28875 -67.68359375 479.4375 C-72.43836521 478.810251 -74.36625639 476.45398019 -77.5 473 C-78.29470703 472.17048828 -78.29470703 472.17048828 -79.10546875 471.32421875 C-81.91318295 468.36694109 -84.59577601 465.3142071 -87.25390625 462.22265625 C-91.74572526 457.06197518 -96.59139 452.26294428 -101.4375 447.4375 C-102.34048828 446.53064453 -103.24347656 445.62378906 -104.17382812 444.68945312 C-109.28725311 439.58343354 -114.49349119 434.67811572 -120 430 C-121.0826101 429.06186549 -122.16466621 428.1230912 -123.24609375 427.18359375 C-142.75150945 407.3560134 -142.75150945 407.3560134 -166 397 C-171.07834716 406.80024961 -175.62655873 416.75399531 -179.90643311 426.92590332 C-180.60458346 428.58422221 -181.3063953 430.24100356 -182.01153564 431.8963623 C-185.85872386 440.9338233 -189.41719238 449.83773359 -192.05664062 459.31420898 C-195.79301021 472.71810047 -202.66820395 480.04713478 -212.97998047 489.14746094 C-216.40587015 492.289309 -219.14028248 495.83766606 -222 499.49609375 C-224.22249828 502.27855742 -226.58535421 504.88290677 -229 507.5 C-232.29331699 511.07792463 -235.44651321 514.71539666 -238.5 518.5 C-242.33835414 523.25739668 -246.39622359 527.75783918 -250.53515625 532.25390625 C-252.92707297 534.91875166 -255.19254884 537.64831825 -257.4375 540.4375 C-261.09506264 544.97236161 -264.94617027 549.25536183 -268.91162109 553.51708984 C-272.71398807 557.62779276 -276.24270592 561.92275584 -279.75390625 566.28515625 C-282.0883059 569.10673495 -284.51990598 571.80590712 -287 574.5 C-290.29331699 578.07792463 -293.44651321 581.71539666 -296.5 585.5 C-300.33719031 590.25595419 -304.39385101 594.75504801 -308.53125 599.25 C-310.94378104 601.93737634 -313.2325621 604.68965444 -315.5 607.5 C-319.33719031 612.25595419 -323.39385101 616.75504801 -327.53125 621.25 C-329.94378104 623.93737634 -332.2325621 626.68965444 -334.5 629.5 C-338.33719031 634.25595419 -342.39385101 638.75504801 -346.53125 643.25 C-348.94378104 645.93737634 -351.2325621 648.68965444 -353.5 651.5 C-356.55348679 655.28460334 -359.70668301 658.92207537 -363 662.5 C-367.12545576 666.98308041 -371.00342768 671.61171571 -374.82421875 676.35546875 C-377.5626067 679.6838146 -380.44448341 682.86423964 -383.37109375 686.02734375 C-385.48429293 688.58649383 -387.00592429 690.53373862 -386.9921875 693.93359375 C-385.46808531 697.10780658 -382.82479908 698.91595366 -380.125 701.0625 C-333.97321675 739.34757089 -308.46918068 791.75944452 -302.4921875 850.98046875 C-302.18616426 854.1688378 -302.18616426 854.1688378 -300 857 C-291.28293968 856.3802828 -282.78256752 854.74064987 -274.21826172 853.0793457 C-272.63912071 852.77641653 -271.05990502 852.47387639 -269.48062134 852.17169189 C-265.19474754 851.35045852 -260.90994944 850.52373457 -256.62532949 849.69598794 C-252.05787822 848.81455832 -247.48946738 847.9381288 -242.9211731 847.06108093 C-235.18500346 845.57513345 -227.44946246 844.08595121 -219.71435547 842.59448242 C-211.93290592 841.09408102 -204.15105597 839.59578687 -196.36865234 838.1003418 C-195.42680706 837.91935287 -194.48496177 837.73836394 -193.51457572 837.55189049 C-189.72215673 836.82316082 -185.92972729 836.09448555 -182.13728762 835.36586356 C-171.75324363 833.37062131 -161.36996719 831.3715352 -150.9887085 829.36184692 C-147.25388832 828.63906283 -143.51904113 827.91641846 -139.78417969 827.19384766 C-138.41142608 826.92818351 -138.41142608 826.92818351 -137.01094007 826.65715241 C-125.49140613 824.42902745 -113.96619477 822.23487118 -102.43202782 820.08377934 C-96.7002926 819.01463127 -90.97102564 817.93252964 -85.24235213 816.84710735 C-81.48450275 816.13605038 -77.72571956 815.43173964 -73.96310043 814.74633217 C-57.23585543 811.69625277 -41.18894811 807.94200724 -25.22758675 802.0417738 C-16.76190046 799.04870059 -11.44133216 798.40167456 -3.17626017 801.98994607 C4.69528815 805.37103539 12.77970418 806.38174759 21.2023468 807.44216919 C22.79685571 807.65215877 24.39123913 807.86310313 25.98550445 808.07493412 C30.16108815 808.62569579 34.3386316 809.15953015 38.51725557 809.68668491 C40.91904192 809.98978333 43.32047796 810.29551599 45.72183013 810.60203314 C56.27685004 811.94672823 66.83718923 813.2465327 77.39910567 814.53577828 C82.05630975 815.10493451 86.71309277 815.67751834 91.36993408 816.24963379 C99.40495065 817.23632216 107.44021705 818.22095306 115.47566795 819.20409775 C127.15486276 820.63306327 138.83365269 822.06531648 150.51235644 823.49828912 C169.55394286 825.83459824 188.59583942 828.16836935 207.63793945 830.50048828 C225.9668764 832.74527072 244.2956709 834.99121038 262.62426758 837.23876953 C263.75049682 837.37687388 264.87672607 837.51497823 266.03708347 837.65726756 C271.69672081 838.35129087 277.35635513 839.04533887 283.01598775 839.73940063 C294.13469301 841.10292436 305.25341545 842.46630787 316.37214661 843.82962036 C317.4529594 843.96214345 318.53377219 844.09466654 319.64733688 844.23120548 C337.37290761 846.40457876 355.09855706 848.57730956 372.82440323 850.74843538 C382.31909149 851.91143332 391.81366408 853.0753568 401.30794048 854.24171257 C404.86855753 854.67898725 408.42919109 855.1161273 411.98983765 855.55316162 C413.27747873 855.71122451 413.27747873 855.71122451 414.59113277 855.87248059 C425.71090862 857.2368464 436.83263895 858.58361997 447.95677578 859.91194467 C452.68356913 860.47717902 457.40978605 861.04722133 462.13610137 861.61643624 C465.74368299 862.04851775 469.35213933 862.47264154 472.96070385 862.89642143 C475.07344844 863.15066154 477.18614486 863.40530238 479.29878235 863.66043091 C480.70950522 863.82211223 480.70950522 863.82211223 482.14872754 863.98705983 C483.00352857 864.09199844 483.8583296 864.19693705 484.7390337 864.30505562 C485.47179832 864.39176683 486.20456295 864.47847803 486.95953256 864.56781685 C489.21776179 865.04612324 490.98567799 865.88859465 493 867 C485.11576847 868.52600042 477.22828006 869.68289934 469.25921631 870.66294861 C468.02152378 870.81771575 466.78383126 870.97248289 465.5086329 871.13193995 C462.1039913 871.55709382 458.69903138 871.97951631 455.2939086 872.40078771 C451.60993852 872.85727276 447.92642254 873.3173943 444.24285889 873.77714539 C437.86937191 874.57222253 431.49563801 875.36529364 425.12175751 876.1572094 C415.04526971 877.40935825 404.9696215 878.66818661 394.894104 879.92811584 C391.44236707 880.35967156 387.99062556 880.79119061 384.53888321 881.22270298 C383.67647984 881.33051713 382.81407647 881.43833128 381.92553966 881.54941253 C372.12594312 882.77444247 362.32619593 883.99826469 352.52636719 885.22143555 C351.63125822 885.33316097 350.73614924 885.4448864 349.81391576 885.55999745 C335.28958414 887.37270011 320.76456063 889.17980863 306.23934576 890.98541813 C291.31167198 892.84125062 276.38501046 894.70507755 261.45919824 896.57582289 C252.25957606 897.72857146 243.05918632 898.87477977 233.85770372 900.01258434 C227.5564408 900.79232633 221.25615581 901.57965859 214.95658752 902.37297433 C211.32295011 902.83032213 207.68897014 903.28424715 204.05377197 903.72903442 C200.11201459 904.21141317 196.1723986 904.7099604 192.23284912 905.21006775 C191.08567594 905.34782102 189.93850276 905.48557429 188.75656676 905.6275019 C183.01681236 906.37053057 178.11864444 907.23183794 173 910 C171.33289863 913.33420273 171.38316068 917.10137387 171.01953125 920.7734375 C170.82709795 922.63101153 170.63395149 924.48851178 170.44018555 926.34594727 C170.33846039 927.32830353 170.23673523 928.31065979 170.13192749 929.32278442 C163.35992223 994.031116 148.6054687 1057.64717829 124 1118 C123.60522461 1118.96921387 123.21044922 1119.93842773 122.80371094 1120.93701172 C112.90237642 1145.07859508 102.20462388 1168.80209064 89.38037109 1191.54052734 C88.07439308 1193.86745032 86.79227586 1196.20555085 85.51953125 1198.55078125 C67.60269638 1231.47615825 46.5040143 1262.80216827 23 1292 C22.48969238 1292.63647461 21.97938477 1293.27294922 21.45361328 1293.92871094 C10.02568622 1308.16758145 -1.78080753 1321.91232216 -14.30810547 1335.19482422 C-16.42210897 1337.45037139 -18.50687252 1339.73161361 -20.59082031 1342.01489258 C-29.01204507 1351.22822656 -37.63154456 1360.32313933 -47.17578125 1368.38671875 C-49.22991025 1370.20332533 -51.10207094 1372.14630801 -53 1374.125 C-57.49170707 1378.65193614 -61.87598515 1382.39922791 -68.25 1383.625 C-72.00145581 1382.77239641 -72.8019532 1381.09728466 -75 1378 C-76.31762695 1375.43334961 -76.31762695 1375.43334961 -77.48828125 1372.65234375 C-78.16576416 1371.0585791 -78.16576416 1371.0585791 -78.85693359 1369.43261719 C-79.33727051 1368.27922852 -79.81760742 1367.12583984 -80.3125 1365.9375 C-80.82377441 1364.72610352 -81.33504883 1363.51470703 -81.86181641 1362.26660156 C-83.27823848 1358.90834162 -84.68367911 1355.54557532 -86.08758545 1352.18206787 C-87.35784671 1349.14419842 -88.63605215 1346.10969156 -89.9138031 1343.07496643 C-91.24500879 1339.91121994 -92.57249731 1336.74592456 -93.89877319 1333.58010864 C-94.53896016 1332.05207727 -95.1797474 1330.52429721 -95.82119751 1328.99679565 C-97.61835626 1324.712147 -99.39364934 1320.41953538 -101.13903809 1316.11352539 C-101.72252061 1314.68116803 -102.31232674 1313.25137333 -102.90783691 1311.82397461 C-103.79255185 1309.69679508 -104.65259872 1307.56105812 -105.5078125 1305.421875 C-105.77496063 1304.79226868 -106.04210876 1304.16266235 -106.31735229 1303.51397705 C-108.27637767 1298.49793325 -108.14283034 1295.14439858 -107 1290 C-105.72265625 1287.8203125 -105.72265625 1287.8203125 -104.0625 1286.125 C-103.43085937 1285.465 -102.79921875 1284.805 -102.1484375 1284.125 C-101.43945312 1283.42375 -100.73046875 1282.7225 -100 1282 C-99.22914063 1281.21625 -98.45828125 1280.4325 -97.6640625 1279.625 C-94.26578952 1276.19456671 -90.8227357 1272.81045606 -87.3828125 1269.421875 C-82.90535207 1264.98524248 -78.57332589 1260.50221354 -74.47070312 1255.71582031 C-72.61655785 1253.55265083 -70.68294672 1251.46775728 -68.75 1249.375 C-63.66525398 1243.73868831 -59.03478625 1237.78885375 -54.39404297 1231.78808594 C-53.06050511 1230.0776076 -51.70873646 1228.38391999 -50.34765625 1226.6953125 C7.76915759 1154.37883457 46.59962512 1063.06906531 64.25 965.3125 C64.369198 964.64065674 64.488396 963.96881348 64.61120605 963.27661133 C67.07166678 949.26826198 68.51312852 935.13908269 70 921 C62.84297005 921.83126917 55.68739741 922.6741195 48.53336334 923.53081131 C45.20951854 923.92849158 41.885276 924.32138386 38.56005859 924.70751953 C12.95665409 927.54836003 12.95665409 927.54836003 -11.47265625 935.36328125 C-16.82990917 936.71294466 -21.38289275 935.0108739 -26.23918438 932.72464561 C-33.72632273 929.21938172 -41.23066459 927.06838931 -49.31323242 925.42724609 C-50.49405238 925.18085073 -51.67487234 924.93445538 -52.89147472 924.68059349 C-57.25800617 923.77234411 -61.62900131 922.88645277 -66 922 C-67.81393962 921.63092153 -69.62786436 921.26176986 -71.44177628 920.89255524 C-85.97354945 917.93759206 -100.51220304 915.01708242 -115.05220056 912.10289812 C-118.83014359 911.34567735 -122.60800858 910.58806825 -126.38585472 909.83036423 C-136.89089633 907.7235885 -147.39608271 905.61753945 -157.90182209 903.51424599 C-158.56762836 903.38094659 -159.23343464 903.2476472 -159.91941686 903.11030843 C-160.58651987 902.97674942 -161.25362289 902.84319042 -161.94094115 902.70558417 C-163.29208937 902.43507215 -164.64323724 902.16455842 -165.99438477 901.89404297 C-166.99964154 901.69278006 -166.99964154 901.69278006 -168.02520653 901.48745124 C-178.94807983 899.30041237 -189.86976034 897.10747526 -200.79096851 894.91213818 C-212.06049427 892.64687782 -223.33104589 890.38679 -234.60257024 888.13149393 C-240.90926155 886.86947656 -247.2154937 885.60526388 -253.52065468 884.33562088 C-259.42864456 883.14609058 -265.33787574 881.96293801 -271.24812889 880.78470612 C-273.41457497 880.35167049 -275.58056202 879.9163311 -277.74604797 879.47851944 C-280.70114121 878.88143347 -283.65777628 878.29267261 -286.61494446 877.70596313 C-287.47037332 877.53107223 -288.32580219 877.35618133 -289.20715314 877.1759907 C-293.9012957 876.25501355 -298.21601858 875.82492104 -303 876 C-303.03738281 876.71800781 -303.07476563 877.43601562 -303.11328125 878.17578125 C-306.3306542 928.83363383 -328.0950048 978.91849065 -365.07421875 1014.08203125 C-367.72421074 1016.72127277 -368.95555563 1018.27407532 -369.1875 1022.0625 C-368.32047745 1026.92802657 -364.82145577 1029.89237952 -361.515625 1033.34375 C-359.10743778 1035.88655638 -356.92699917 1038.50859364 -354.75 1041.25 C-350.6504808 1046.32423006 -346.26629138 1051.0623033 -341.79785156 1055.80761719 C-337.77685161 1060.10090903 -334.05017546 1064.56228068 -330.375 1069.15625 C-327.53535544 1072.55635072 -324.53611901 1075.77586445 -321.5 1079 C-316.89422554 1083.89099444 -312.5738633 1088.90767088 -308.375 1094.15625 C-305.5353545 1097.55635185 -302.53610629 1100.775851 -299.5 1104 C-294.87705042 1108.90960298 -290.53398821 1113.94478543 -286.31640625 1119.2109375 C-282.64013503 1123.63734163 -278.69573628 1127.80801112 -274.7734375 1132.015625 C-270.48018201 1136.62148226 -266.37670578 1141.3810007 -262.296875 1146.17578125 C-261.28156606 1147.36745686 -260.26593033 1148.5588541 -259.25 1149.75 C-258.73526123 1150.35360352 -258.22052246 1150.95720703 -257.69018555 1151.57910156 C-254.30910541 1155.52465953 -250.84903479 1159.38108656 -247.3125 1163.1875 C-243.92475627 1166.83413376 -240.68102204 1170.55617401 -237.5625 1174.4375 C-233.19859541 1179.85908343 -228.5157847 1184.92842117 -223.7734375 1190.015625 C-219.47692357 1194.62497796 -215.33261753 1199.34868985 -211.3671875 1204.24609375 C-204.33530316 1212.83267827 -196.68970768 1221.36165106 -186.47265625 1226.19580078 C-179.64267759 1229.59472829 -179.64267759 1229.59472829 -177.82763672 1233.56347656 C-177.09967648 1236.66674985 -176.62749601 1239.71013446 -176.25 1242.875 C-173.98387415 1259.20743855 -167.45243321 1273.56334956 -160.9437561 1288.57727051 C-158.94359645 1293.19238437 -156.95690851 1297.81330027 -154.96875 1302.43359375 C-154.55639603 1303.39113556 -154.14404205 1304.34867737 -153.7191925 1305.3352356 C-149.36655657 1315.45227654 -145.08673023 1325.59964717 -140.8125 1335.75 C-133.70467151 1352.6204351 -126.55309395 1369.4718429 -119.375 1386.3125 C-118.88564972 1387.46068207 -118.39629944 1388.60886414 -117.89212036 1389.7918396 C-115.95343343 1394.34056415 -114.01462402 1398.88923646 -112.0756073 1403.43782043 C-107.79591101 1413.47746998 -103.51992938 1423.51869245 -99.25 1433.5625 C-98.91105713 1434.3597348 -98.57211426 1435.1569696 -98.22290039 1435.97836304 C-92.3554123 1449.78270772 -86.52323685 1463.60184939 -80.69519043 1477.42288208 C-73.51214999 1494.45391893 -66.2732995 1511.46088852 -59.02313232 1528.46343994 C-52.09960385 1544.70162568 -45.20946578 1560.95339272 -38.35351562 1577.22021484 C-31.29178837 1593.97233437 -24.1723107 1610.699528 -17.0406189 1627.42196655 C-9.2966361 1645.58164609 -1.59562676 1663.75902318 6.0625 1681.95507812 C6.43506424 1682.83947067 6.80762848 1683.72386322 7.19148254 1684.63505554 C7.87413729 1686.2556683 8.55608587 1687.87657882 9.23710632 1689.49787903 C9.54388809 1690.22601303 9.85066986 1690.95414703 10.16674805 1691.7043457 C10.46116791 1692.40749908 10.75558777 1693.11065247 11.05892944 1693.83511353 C11.72732442 1695.37272325 12.43019139 1696.8955498 13.15615845 1698.40682983 C13.53235321 1699.1970755 13.90854797 1699.98732117 14.29614258 1700.80151367 C14.64526199 1701.51079514 14.99438141 1702.2200766 15.3540802 1702.95085144 C16.11602964 1705.36809828 15.82401215 1706.63920839 15 1709 C14.14341797 1707.79730469 14.14341797 1707.79730469 13.26953125 1706.5703125 C3.36241801 1692.6724876 -6.6251723 1678.83698168 -16.76635742 1665.10888672 C-22.36385515 1657.52397852 -27.88384856 1649.88444692 -33.39111328 1642.23388672 C-36.09012118 1638.48640231 -38.79531494 1634.74338799 -41.5 1631 C-44.74131453 1626.51389621 -47.98141954 1622.02695169 -51.21484375 1617.53515625 C-56.76804624 1609.82537027 -62.35437205 1602.14242369 -68 1594.5 C-75.27942622 1584.64592179 -82.44830324 1574.71425666 -89.60449219 1564.77050781 C-95.6923875 1556.31406964 -101.80868741 1547.88111091 -108 1539.5 C-115.27942622 1529.64592179 -122.44830324 1519.71425666 -129.60449219 1509.77050781 C-136.3124739 1500.45273383 -143.05391133 1491.1618448 -149.88574219 1481.93432617 C-152.69200845 1478.14302413 -155.48066134 1474.34202355 -158.22265625 1470.50390625 C-158.72458496 1469.80547607 -159.22651367 1469.1070459 -159.74365234 1468.38745117 C-160.68111516 1467.08080491 -161.61279068 1465.76997979 -162.53759766 1464.4543457 C-165.081142 1460.86403482 -165.081142 1460.86403482 -169 1459 C-171.63195683 1460.10872997 -171.63195683 1460.10872997 -174.51171875 1461.83984375 C-175.64552979 1462.48276367 -176.77934082 1463.12568359 -177.94750977 1463.78808594 C-178.55507111 1464.13770386 -179.16263245 1464.48732178 -179.78860474 1464.84753418 C-183.05427872 1466.72203094 -186.34308813 1468.55485013 -189.6328125 1470.38671875 C-190.31902176 1470.76909698 -191.00523102 1471.15147522 -191.7122345 1471.54544067 C-246.55408087 1501.95740723 -306.09190043 1523.28528267 -367.4375 1536 C-368.14602112 1536.14802063 -368.85454224 1536.29604126 -369.58453369 1536.44854736 C-392.42361353 1541.18301444 -392.42361353 1541.18301444 -398 1538 C-399.46701866 1537.59847253 -400.94787439 1537.24471915 -402.4375 1536.9375 C-403.21867187 1536.77378906 -403.99984375 1536.61007812 -404.8046875 1536.44140625 C-405.52914063 1536.29574219 -406.25359375 1536.15007812 -407 1536 C-408.010625 1535.79375 -409.02125 1535.5875 -410.0625 1535.375 C-410.701875 1535.25125 -411.34125 1535.1275 -412 1535 C-412.39063507 1533.56666979 -412.76198474 1532.12807321 -413.125 1530.6875 C-413.33382813 1529.88699219 -413.54265625 1529.08648438 -413.7578125 1528.26171875 C-414 1526 -414 1526 -412 1523 C-411.34 1523 -410.68 1523 -410 1523 C-410 1522.34 -410 1521.68 -410 1521 C-410.78375 1520.71125 -411.5675 1520.4225 -412.375 1520.125 C-415 1519 -415 1519 -417 1517 C-417.63466561 1515.17872554 -418.18678294 1513.32832452 -418.69580078 1511.46801758 C-419.01598175 1510.30953812 -419.33616272 1509.15105865 -419.66604614 1507.95747375 C-420.17553299 1506.07006721 -420.17553299 1506.07006721 -420.6953125 1504.14453125 C-421.05084026 1502.84127237 -421.40671071 1501.53810692 -421.76290894 1500.23503113 C-422.50876879 1497.49994232 -423.24948042 1494.76352155 -423.98681641 1492.02612305 C-424.92887699 1488.53083308 -425.88496084 1485.03956249 -426.84520149 1481.54922962 C-427.58412717 1478.85619191 -428.31472117 1476.16094591 -429.04296494 1473.46500206 C-429.56086733 1471.55437603 -430.08628873 1469.64579324 -430.61184692 1467.73725891 C-432.13737855 1462.03011035 -433.47792009 1456.9195683 -433 1451 C-428.74703216 1449.08738883 -424.43744246 1448.21178365 -419.88671875 1447.33984375 C-407.02037019 1444.7413343 -394.43553688 1441.13654093 -381.8125 1437.5625 C-380.5635495 1437.20996155 -379.314599 1436.8574231 -378.02780151 1436.49420166 C-331.75536431 1423.40578916 -287.89334092 1407.82973177 -245 1386 C-244.3058197 1385.64981812 -243.6116394 1385.29963623 -242.89642334 1384.93884277 C-240.79357522 1383.87389029 -238.69868418 1382.79468061 -236.60546875 1381.7109375 C-235.63339226 1381.22048447 -235.63339226 1381.22048447 -234.64167786 1380.72012329 C-230.80818242 1378.79963046 -230.80818242 1378.79963046 -229 1375 C-231.11863131 1369.71115395 -234.51745178 1365.3032308 -237.875 1360.75 C-239.04834961 1359.14335515 -240.22152171 1357.53658065 -241.39453125 1355.9296875 C-241.99346191 1355.11209961 -242.59239258 1354.29451172 -243.20947266 1353.45214844 C-245.47257462 1350.35280345 -247.71131352 1347.23635069 -249.94970703 1344.11914062 C-254.74111697 1337.45207429 -259.58194418 1330.82426879 -264.5 1324.25 C-264.98025635 1323.60659668 -265.4605127 1322.96319336 -265.95532227 1322.30029297 C-266.86438574 1321.09087249 -267.78025495 1319.8865306 -268.70361328 1318.68798828 C-269.93674861 1317.08235784 -271.13732142 1315.45187352 -272.3359375 1313.8203125 C-274.6675907 1311.35190545 -275.97746936 1310.32857275 -278.8828125 1308.8515625 C-289.79837768 1303.27990381 -289.79837768 1303.27990381 -291.94970703 1297.40771484 C-293.18622693 1291.29111806 -293.41348871 1285.09301304 -293.74853516 1278.87451172 C-294.43190173 1271.06290197 -297.55306593 1263.68200262 -300.3984375 1256.44140625 C-303.76331172 1247.71801847 -304.85695792 1240.28473163 -305 1231 C-305.77386551 1230.77797913 -306.54773102 1230.55595825 -307.345047 1230.32720947 C-310.76043542 1228.61985877 -311.16379026 1227.30044205 -312.47924805 1223.76464844 C-313.10021866 1222.13795227 -313.10021866 1222.13795227 -313.73373413 1220.47839355 C-314.15160187 1219.33052368 -314.5694696 1218.18265381 -315 1217 C-315.41972076 1215.89692505 -315.83944153 1214.7938501 -316.2718811 1213.65734863 C-317.64672257 1210.03455708 -318.99183014 1206.40131336 -320.33203125 1202.765625 C-320.84169667 1201.38888212 -321.35161189 1200.0122317 -321.86175537 1198.63566589 C-322.94809128 1195.703204 -324.03307827 1192.77024829 -325.11697388 1189.83688354 C-327.72667537 1182.77499449 -330.3446035 1175.71615383 -332.9623394 1168.65723991 C-333.56213152 1167.03983214 -334.16184854 1165.42239652 -334.76149178 1163.80493355 C-344.31242714 1138.0438173 -353.97185034 1112.32335589 -363.64349365 1086.60736084 C-364.98248811 1083.04656943 -366.32067696 1079.48547617 -367.65869141 1075.92431641 C-369.69052134 1070.51740734 -371.72482155 1065.11143497 -373.76144409 1059.70632935 C-374.49479967 1057.7593767 -375.22750278 1055.81217814 -375.95950317 1053.86471558 C-376.94745884 1051.23713576 -377.93815223 1048.61060573 -378.9296875 1045.984375 C-379.21491776 1045.22417557 -379.50014801 1044.46397614 -379.79402161 1043.68074036 C-381.04835066 1040.36709797 -382.31870695 1037.12283677 -384 1034 C-388.62366734 1034.51374082 -391.5840779 1036.59531384 -395.25 1039.25 C-415.39952287 1053.16477924 -437.84424425 1062.56439626 -461.375 1069 C-462.12958496 1069.20818359 -462.88416992 1069.41636719 -463.66162109 1069.63085938 C-468.56255033 1070.88553248 -472.94237187 1071.18266828 -478 1071 C-478.93389434 1068.19831699 -479.11688575 1066.57200583 -479.0946064 1063.68258095 C-479.08806783 1062.35237354 -479.08806783 1062.35237354 -479.08139718 1060.99529326 C-479.07138456 1060.0199486 -479.06137194 1059.04460393 -479.05105591 1058.03970337 C-479.04444879 1057.00404499 -479.03784168 1055.96838662 -479.03103435 1054.90134466 C-479.00750654 1051.4128546 -478.97662844 1047.9244678 -478.94580078 1044.43603516 C-478.92743799 1041.94080919 -478.90951432 1039.44557996 -478.89199829 1036.9503479 C-478.84801939 1030.8589487 -478.79924102 1024.76760498 -478.74820484 1018.67626221 C-478.68875093 1011.55978705 -478.63443485 1004.44327542 -478.58024631 997.32675855 C-478.48310886 984.59687186 -478.38082808 971.86703149 -478.27587891 959.13720703 C-478.1745162 946.84231641 -478.07740303 934.54740162 -477.98486328 922.25244141 C-477.88391219 908.84062176 -477.7804418 895.42882573 -477.67282474 882.01705778 C-477.66127499 880.57723261 -477.64972667 879.13740743 -477.63817978 877.69758224 C-477.63249728 876.98940741 -477.62681479 876.28123258 -477.62096009 875.5515979 C-477.5815353 870.61941629 -477.54378412 865.68722357 -477.50668716 860.75502396 C-477.45627464 854.06225352 -477.40155508 847.36953015 -477.34420395 840.67681503 C-477.32394822 838.24436747 -477.30494375 835.81190905 -477.28741455 833.37944031 C-477.23907496 826.73449016 -477.16690664 820.0906433 -477.05580759 813.44643068 C-477.01672436 811.03282251 -476.98348945 808.61911581 -476.95462942 806.20536375 C-476.90298022 802.31482426 -476.82360341 798.42566783 -476.73825073 794.53573608 C-476.72638863 793.35280523 -476.71452652 792.16987437 -476.70230496 790.95109713 C-476.44309452 781.25541888 -473.88915705 773.47881201 -469.6171875 764.84375 C-468.34628198 762.14944328 -467.99654699 761.09719571 -468.10546875 758.03125 C-469.37188938 755.15553503 -471.15065747 755.11193855 -474 754 C-476.12981132 750.03457215 -476.24814115 746.55552559 -476.24291992 742.10864258 C-476.24481827 741.43456863 -476.24671661 740.76049469 -476.24867249 740.06599426 C-476.25236873 737.84205386 -476.24167773 735.61844261 -476.23046875 733.39453125 C-476.2292743 731.83054136 -476.22882435 730.26655075 -476.2290802 728.70256042 C-476.22751637 725.41827925 -476.21924543 722.1341072 -476.20581055 718.84985352 C-476.18900373 714.69394072 -476.18499129 710.5381497 -476.18575573 706.38220692 C-476.18547982 703.14486075 -476.17992956 699.90753986 -476.17275429 696.67020226 C-476.16962572 695.1416105 -476.16761424 693.61301593 -476.16686058 692.08442116 C-476.15545881 681.02625253 -475.70573853 670.03535444 -475 659 C-471.34746791 658.19363305 -468.99292614 657.97614088 -465.3671875 658.96875 C-464.48820801 659.2064209 -463.60922852 659.4440918 -462.70361328 659.68896484 C-461.7701709 659.95660645 -460.83672852 660.22424805 -459.875 660.5 C-458.90159668 660.77408691 -457.92819336 661.04817383 -456.92529297 661.33056641 C-440.31696632 666.11244683 -425.09241411 672.55472822 -409.86328125 680.671875 C-407.17272746 681.91988085 -404.89675488 682.47957743 -402 683 C-401.82100662 682.38598328 -401.64201324 681.77196655 -401.45759583 681.13934326 C-399.7226283 675.26205444 -397.8243037 669.47275008 -395.76171875 663.703125 C-395.44901031 662.82202057 -395.13630188 661.94091614 -394.81411743 661.03311157 C-393.77417848 658.10459662 -392.73081524 655.17731364 -391.6875 652.25 C-390.93554846 650.13436354 -390.18384634 648.01863841 -389.43237305 645.90283203 C-387.81123412 641.33942485 -386.18878016 636.77648811 -384.56542969 632.21386719 C-381.9587961 624.88621695 -379.3576965 617.55660984 -376.7578125 610.2265625 C-376.3102685 608.96480257 -375.86272312 607.70304314 -375.41517639 606.44128418 C-374.73606246 604.52666452 -374.05695098 602.612044 -373.37785435 600.69741821 C-370.8114601 593.46199938 -368.24362788 586.22709098 -365.67578125 578.9921875 C-364.72736876 576.31998966 -363.77896518 573.64778865 -362.83056641 570.97558594 C-362.59604672 570.31480545 -362.36152704 569.65402496 -362.1199007 568.97322083 C-359.80182127 562.44174457 -357.48408268 555.91014739 -355.16643715 549.37851715 C-354.47987761 547.44364654 -353.79330712 545.50877981 -353.10673523 543.57391357 C-351.0602574 537.80657446 -349.01386714 532.03920432 -346.96780682 526.27171707 C-345.83536078 523.07956374 -344.7028523 519.88743256 -343.5703125 516.6953125 C-343.3455958 516.06193214 -343.1208791 515.42855179 -342.8893528 514.77597809 C-339.73330857 505.8808053 -336.57438179 496.98666024 -333.41351318 488.09320068 C-331.63511998 483.08945136 -329.8574838 478.0854332 -328.08001328 473.08135605 C-326.63564659 469.01528225 -325.19028176 464.94956518 -323.74413872 460.88412285 C-323.06564907 458.9761376 -322.38770237 457.06796046 -321.70999146 455.15969849 C-320.88949323 452.84938374 -320.0681772 450.53935918 -319.24581909 448.22970581 C-317.39265785 443.00743559 -315.56154216 437.77770287 -313.77148438 432.53344727 C-313.44917847 431.59203384 -313.12687256 430.65062042 -312.7947998 429.68067932 C-311.79390313 426.30488204 -311.35397924 422.98123632 -310.93920898 419.49462891 C-309.4072489 407.63651981 -304.80513512 402.79581284 -295.76904297 395.53320312 C-292.964721 393.10273915 -290.73875939 390.32181846 -288.5 387.375 C-287.84378662 386.51394653 -287.84378662 386.51394653 -287.17431641 385.63549805 C-285.76924535 383.76672813 -284.38296426 381.88518145 -283 380 C-281.92327274 378.54289806 -280.84644526 377.08587017 -279.76953125 375.62890625 C-278.02364803 373.26227565 -276.28048411 370.89377851 -274.54296875 368.52099609 C-270.0997668 362.45847785 -265.56931296 356.46789136 -261 350.5 C-253.54447196 340.75473241 -246.24870237 330.89965638 -239 321 C-231.07050494 310.17057531 -223.05346786 299.42138456 -214.89111328 288.76611328 C-210.67030643 283.23937635 -206.54499898 277.65645205 -202.5 272 C-197.14909032 264.5173865 -191.60994051 257.1933869 -186.01611328 249.89111328 C-179.22456446 241.01436837 -172.60280411 232.01754389 -166 223 C-158.09138797 212.19909557 -150.09947505 201.47353364 -141.96582031 190.84082031 C-135.19624425 181.97722363 -128.58876628 172.99837223 -122 164 C-114.0012929 153.07605145 -105.91253341 142.23412005 -97.68017578 131.48486328 C-94.03528312 126.71273904 -90.45310417 121.91255716 -87 117 C-82.89413864 111.15879809 -78.59101313 105.48070186 -74.25 99.8125 C-66.70868211 89.96438442 -59.32774653 80.00760811 -52 70 C-44.73380333 60.0764514 -37.41711078 50.20162951 -29.9375 40.4375 C-24.327481 33.11325233 -18.84398153 25.71383759 -13.46972656 18.21508789 C-9.06864384 12.07464257 -4.5667638 6.01821586 0 0 Z " fill="#000000" transform="translate(1507,7)"/>
<path d="M0 0 C6.32248084 1.15805378 12.20980453 3.6549605 18.15454102 6.04266357 C22.27709641 7.69587371 26.42305621 9.28866297 30.56591797 10.89013672 C31.38990082 11.21026733 32.21388367 11.53039795 33.06283569 11.86022949 C91.0027296 34.30721618 154.1977257 47.12414175 216.28442383 49.23266602 C220.56539201 49.38262519 224.84274631 49.56814579 229.11279297 49.91357422 C229.81686279 49.96763428 230.52093262 50.02169434 231.24633789 50.07739258 C233.8375062 50.75931428 234.56472175 51.36180018 236.13232422 53.57373047 C236.42852701 56.3961636 236.54207729 58.99799407 236.52050781 61.82128906 C236.52839325 63.08273994 236.52839325 63.08273994 236.53643799 64.36967468 C236.54965824 67.15402722 236.54089123 69.93780944 236.53076172 72.72216797 C236.53278225 74.65646474 236.53569352 76.59076077 236.53945923 78.52505493 C236.54388564 82.58204388 236.53744272 86.63883483 236.5234375 90.69580078 C236.5063683 95.89347335 236.51617046 101.09068042 236.53415489 106.2883358 C236.54500365 110.28436784 236.54154097 114.28028984 236.53377151 118.27632523 C236.53177134 120.19246094 236.53422236 122.10860667 236.54121017 124.02473068 C236.54884001 126.70588309 236.53719802 129.38628612 236.52050781 132.06738281 C236.52658051 132.85820755 236.5326532 133.64903229 236.53890991 134.46382141 C236.48651941 139.01309442 235.93086747 141.94403095 233.13232422 145.57373047 C220.91507741 155.03779489 184.86939551 145.43185232 170.13232422 143.57373047 C109.94418395 135.87524741 109.94418395 135.87524741 83.13232422 129.57373047 C82.40815308 129.40548767 81.68398193 129.23724487 80.93786621 129.06390381 C-46.25012936 99.50005011 -46.25012936 99.50005011 -60.86767578 77.57373047 C-60.84315846 70.96222692 -57.90493518 67.16225952 -54.05517578 62.13623047 C-53.46986084 61.34982178 -52.8845459 60.56341309 -52.28149414 59.75317383 C-50.48919929 57.35048946 -48.67962228 54.96161352 -46.86767578 52.57373047 C-45.85339302 51.22050874 -44.84029948 49.86639452 -43.82861328 48.51123047 C-41.88405938 45.909027 -39.93275867 43.31209062 -37.97705078 40.71826172 C-34.51109978 36.11149094 -31.09536697 31.46818889 -27.68017578 26.82373047 C-26.50059447 25.22208976 -25.32090977 23.62052518 -24.14111328 22.01904297 C-22.57727073 19.89623298 -21.01390264 17.77311235 -19.45458984 15.64697266 C-18.24204801 13.99466772 -17.02382383 12.34653696 -15.80517578 10.69873047 C-15.15419922 9.81443359 -14.50322266 8.93013672 -13.83251953 8.01904297 C-12.85992188 6.80861328 -12.85992188 6.80861328 -11.86767578 5.57373047 C-11.16771484 4.64302734 -10.46775391 3.71232422 -9.74658203 2.75341797 C-6.21120798 0.07670328 -4.35795144 -0.23249916 0 0 Z " fill="#000000" transform="translate(764.86767578125,1413.42626953125)"/>
<path d="M0 0 C0.6574118 0.01522705 1.31482361 0.0304541 1.99215698 0.04614258 C4.17086518 0.10071737 6.34902578 0.16602311 8.52734375 0.234375 C9.28169708 0.25737671 10.03605042 0.28037842 10.81326294 0.30407715 C89.43854198 2.8029697 167.65375824 20.53446199 240.46484375 50.109375 C241.36654297 50.47546875 242.26824219 50.8415625 243.19726562 51.21875 C249.20266137 53.72219262 249.20266137 53.72219262 251.46484375 55.984375 C251.4775363 62.79641348 248.10577013 67.27837206 244.375 72.765625 C243.75644638 73.69677124 243.13789276 74.62791748 242.50059509 75.58728027 C240.52123601 78.5610032 238.52470065 81.5227186 236.52734375 84.484375 C235.21824466 86.4445407 233.91029054 88.40547159 232.60351562 90.3671875 C229.46862184 95.06794672 226.32068565 99.75977963 223.16802979 104.44863892 C220.72624277 108.08401833 218.29524891 111.7265375 215.8671875 115.37109375 C215.46633438 115.97257736 215.06548126 116.57406097 214.65248108 117.19377136 C212.55308353 120.34554431 210.45905313 123.50079591 208.37109375 126.66015625 C207.96117187 127.27955078 207.55125 127.89894531 207.12890625 128.53710938 C206.31998531 129.75999153 205.51281966 130.98403585 204.70703125 132.20898438 C203.08227137 134.6592271 201.54966956 136.89954919 199.46484375 138.984375 C194.11026718 139.46478638 189.85696375 138.37047772 184.92578125 136.45703125 C183.86099045 136.06084846 183.86099045 136.06084846 182.77468872 135.65666199 C181.25234995 135.08995457 179.73170582 134.51867744 178.21264648 133.9432373 C174.15949261 132.41209681 170.08947382 130.9272272 166.01953125 129.44140625 C165.20164124 129.14237396 164.38375122 128.84334167 163.54107666 128.5352478 C112.5396422 109.97205219 59.43788808 100.13692678 5.35571289 97.02294922 C4.44820282 96.96755981 3.54069275 96.91217041 2.60568237 96.85510254 C0.88953776 96.7508004 -0.82709563 96.6541756 -2.54415894 96.56628418 C-8.31027052 96.20926073 -8.31027052 96.20926073 -10.53515625 93.984375 C-10.72865584 91.10286362 -10.7973448 88.31781254 -10.77807617 85.43554688 C-10.77997452 84.55089249 -10.78187286 83.6662381 -10.78382874 82.754776 C-10.78754349 79.82080313 -10.77682234 76.88707599 -10.765625 73.953125 C-10.76443347 71.92053252 -10.76397998 69.88793949 -10.76423645 67.85534668 C-10.76267037 63.59151777 -10.75437125 59.32777267 -10.7409668 55.06396484 C-10.7239768 49.58921805 -10.72015239 44.11456346 -10.72091198 38.6397934 C-10.72064048 34.44145827 -10.71516251 30.24314345 -10.70791054 26.04481506 C-10.70472076 24.0257228 -10.70275574 22.00662822 -10.70201683 19.98753357 C-10.69985654 17.1693833 -10.69111902 14.3513322 -10.68041992 11.53320312 C-10.68087311 10.69261856 -10.68132629 9.852034 -10.68179321 8.98597717 C-10.64963287 3.21332824 -10.64963287 3.21332824 -9.53515625 0.984375 C-6.10864996 -0.15779376 -3.61131223 -0.08492038 0 0 Z " fill="#000000" transform="translate(1010.53515625,185.015625)"/>
</svg>
