<?xml version="1.0" encoding="UTF-8"?>
<svg version="1.1" xmlns="http://www.w3.org/2000/svg" width="626" height="499">
<path d="M0 0 C3.05981692 2.85588484 5.23850955 5.72592853 7.3984375 9.3046875 C8.35375366 10.87500732 8.35375366 10.87500732 9.32836914 12.47705078 C10.00375732 13.59837402 10.67914551 14.71969727 11.375 15.875 C12.81597499 18.24664513 14.26141539 20.61555655 15.70703125 22.984375 C16.25160225 23.87825424 16.25160225 23.87825424 16.80717468 24.79019165 C20.15666244 30.27939153 23.59473359 35.70978855 27.0625 41.125 C32.55506265 49.71152397 37.98362259 58.33557164 43.35961914 66.99560547 C46.54931286 72.12340986 49.78031356 77.21672898 53.09375 82.265625 C53.74923828 83.27109375 54.40472656 84.2765625 55.08007812 85.3125 C56.33390121 87.23086208 57.59781809 89.14267518 58.87304688 91.046875 C59.70932617 92.33078125 59.70932617 92.33078125 60.5625 93.640625 C61.05878906 94.38860352 61.55507813 95.13658203 62.06640625 95.90722656 C63 98 63 98 62.79125977 100.11303711 C61.51534818 103.15577721 59.2853869 105.02920421 56.9375 107.3125 C56.18932007 108.04424438 56.18932007 108.04424438 55.42602539 108.79077148 C52.06675759 112.05074527 48.59940137 115.15260826 45.03125 118.1796875 C42.54642035 120.40647715 40.25787211 122.79024809 37.9375 125.1875 C31.93200314 131.15665497 28.21303845 134.16228078 19.4375 134.5625 C12.74065151 134.39811631 7.29770411 132.67660453 1.15625 130.09375 C-2.22612716 128.9216391 -4.46129926 128.40358976 -8 129 C-12.24938859 133.66263768 -11.47730258 139.71584631 -11.51171875 145.64453125 C-11.53667419 147.14083069 -11.53667419 147.14083069 -11.56213379 148.6673584 C-11.61982763 152.38219264 -11.65215935 156.09738586 -11.6875 159.8125 C-11.8421875 172.2803125 -11.8421875 172.2803125 -12 185 C-35.43 185 -58.86 185 -83 185 C-83.375 159.75 -83.375 159.75 -83.47802734 151.79199219 C-83.51323311 149.71027339 -83.54915434 147.62856652 -83.5859375 145.546875 C-83.59729736 144.46615723 -83.60865723 143.38543945 -83.62036133 142.27197266 C-83.64042236 141.2370166 -83.6604834 140.20206055 -83.68115234 139.13574219 C-83.69447601 138.23861511 -83.70779968 137.34148804 -83.7215271 136.41717529 C-84.02009699 133.82555592 -84.59624235 132.19001735 -86 130 C-89.4583589 128.48894374 -91.09690252 129.03175625 -94.70703125 130.21484375 C-96.76732211 131.05759988 -98.80977878 131.93632558 -100.85351562 132.81835938 C-106.96323508 135.31486675 -111.79213131 135.41583483 -118.375 134.5625 C-125.04126748 131.68910885 -129.80472233 126.26236339 -134.81640625 121.125 C-135.79377372 120.12451413 -136.77164576 119.12452095 -137.75 118.125 C-138.23847412 117.62532715 -138.72694824 117.1256543 -139.23022461 116.61083984 C-145.00773286 110.8138412 -151.4676974 105.90889012 -158 101 C-156.32648498 96.09553691 -153.6014927 92.01183814 -150.8125 87.6875 C-149.7219904 85.97959163 -148.63217947 84.27123701 -147.54296875 82.5625 C-146.96595215 81.65886719 -146.38893555 80.75523437 -145.79443359 79.82421875 C-142.70685616 74.96474994 -139.66896669 70.07435609 -136.625 65.1875 C-131.2281571 56.53589911 -125.77945266 47.91930572 -120.29199219 39.32495117 C-115.13082194 31.23116477 -110.04247492 23.09267529 -104.97265625 14.94140625 C-102.04845835 10.24612553 -99.10755301 5.57629697 -96 1 C-94.29457031 1.70576172 -94.29457031 1.70576172 -92.5546875 2.42578125 C-61.72057661 14.95948145 -33.2563952 13.91918381 -2.75390625 1.171875 C-1.39072266 0.59179688 -1.39072266 0.59179688 0 0 Z " fill="#000000" transform="translate(360,229)"/>
<path d="M0 0 C3.83393551 3.267883 7.64163078 6.55458115 11.375 9.9375 C15.75212787 13.84753333 20.32072274 17.46012123 25 21 C23.43225369 25.50619977 21.06224207 29.18581364 18.4375 33.125 C15.26507011 37.82313966 15.26507011 37.82313966 13 43 C180.64 42.67 348.28 42.34 521 42 C517.04 35.4 513.08 28.8 509 22 C509 19 509 19 510.34179688 17.65307617 C510.96119141 17.20424072 511.58058594 16.75540527 512.21875 16.29296875 C512.90453125 15.78830078 513.5903125 15.28363281 514.296875 14.76367188 C515.02390625 14.24353516 515.7509375 13.72339844 516.5 13.1875 C517.19609375 12.67896484 517.8921875 12.17042969 518.609375 11.64648438 C520.01894918 10.61671213 521.43305972 9.5931216 522.8515625 8.57568359 C524.32688793 7.49366651 525.77929194 6.37990529 527.2109375 5.24072266 C527.91476562 4.68304199 528.61859375 4.12536133 529.34375 3.55078125 C530.29024414 2.78181519 530.29024414 2.78181519 531.25585938 1.99731445 C532.11920898 1.5036438 532.11920898 1.5036438 533 1 C536.35747839 2.11915946 536.57996301 2.4767821 538.27734375 5.3671875 C538.70200928 6.0780249 539.1266748 6.7888623 539.56420898 7.52124023 C540.01739502 8.29798096 540.47058105 9.07472168 540.9375 9.875 C541.92572423 11.53075984 542.91535339 13.18568182 543.90625 14.83984375 C544.67195312 16.1235083 544.67195312 16.1235083 545.453125 17.43310547 C547.88760903 21.47290425 550.40911766 25.45602436 552.9375 29.4375 C553.6792749 30.60804932 553.6792749 30.60804932 554.43603516 31.80224609 C555.44424443 33.39300527 556.45287247 34.98349911 557.46191406 36.57373047 C559.0374261 39.05903819 560.6091833 41.54668128 562.1796875 44.03515625 C562.70087158 44.86063965 563.22205566 45.68612305 563.7590332 46.53662109 C564.78256327 48.15966343 565.80457421 49.78366492 566.82495117 51.40869141 C568.94401232 54.77807303 571.07031784 58.13408277 573.30859375 61.42578125 C573.94925781 62.37839844 574.58992187 63.33101563 575.25 64.3125 C576.06210938 65.48232422 576.06210938 65.48232422 576.890625 66.67578125 C578 69 578 69 578 75 C372.74 75 167.48 75 -44 75 C-42.87569517 67.12986616 -42.87569517 67.12986616 -40.40234375 63.41796875 C-39.85634521 62.58185059 -39.31034668 61.74573242 -38.74780273 60.88427734 C-37.85170288 59.54937256 -37.85170288 59.54937256 -36.9375 58.1875 C-35.65416105 56.22662599 -34.37299981 54.26432541 -33.09375 52.30078125 C-32.42214844 51.2742041 -31.75054687 50.24762695 -31.05859375 49.18994141 C-27.58760553 43.81139159 -24.26939705 38.3403775 -20.9375 32.875 C-14.15314485 21.78660046 -7.1605739 10.8487905 0 0 Z " fill="#000000" transform="translate(46,424)"/>
<path d="M0 0 C1.54494141 0.86238281 1.54494141 0.86238281 3.12109375 1.7421875 C12.26394745 7.47281882 19.54751863 15.2658937 26.95947266 23.01806641 C38.24877788 34.87654943 38.24877788 34.87654943 53.375 39.375 C59.59997819 39.35989083 64.36238872 37.63350885 69.9921875 35.09375 C73.24542532 33.91075443 75.56647151 33.64784323 79 34 C83.12828641 38.12828641 82.12804076 46.27119533 82.1328125 51.796875 C82.13424759 52.8692038 82.13424759 52.8692038 82.13571167 53.9631958 C82.1363872 55.46569914 82.13457705 56.96820552 82.13037109 58.47070312 C82.12504586 60.73053806 82.13032115 62.99017138 82.13671875 65.25 C82.15394073 88.4920162 82.15394073 88.4920162 79.61303711 91.8125 C77.22556049 93.57013377 75.57723119 93.1177113 72.6875 92.75 C71.76324219 92.64171875 70.83898437 92.5334375 69.88671875 92.421875 C67.94037299 92.13742934 65.99857054 91.8202221 64.0625 91.47265625 C43.26456385 88.2627707 28.97094361 98.40803387 12.9375 110.0625 C-12.91311332 128.81024823 -42.36365956 138.91628763 -74.60620117 134.23071289 C-100.71107968 129.76915184 -121.23242873 116.15062675 -141.28930664 99.63305664 C-154.51619483 88.72901404 -154.51619483 88.72901404 -171 87 C-174.13637794 87.68977449 -177.20216912 88.53202904 -180.296875 89.38671875 C-184.01942153 90.23128494 -186.35122585 90.0868689 -190 89 C-192.58455285 87.10466125 -192.96275506 86.11173483 -194 83 C-194.10110047 81.50252899 -194.14829853 80.00106925 -194.16113281 78.50024414 C-194.17074036 77.59242691 -194.1803479 76.68460968 -194.19024658 75.74928284 C-194.19449646 74.77112106 -194.19874634 73.79295929 -194.203125 72.78515625 C-194.20882507 71.77786972 -194.21452515 70.77058319 -194.22039795 69.73277283 C-194.22984494 67.60188853 -194.23638074 65.47098964 -194.24023438 63.34008789 C-194.24995179 60.07868059 -194.28098311 56.81790033 -194.3125 53.55664062 C-194.31902898 51.48698291 -194.32427987 49.41732069 -194.328125 47.34765625 C-194.3404718 46.37151871 -194.3528186 45.39538116 -194.36553955 44.3896637 C-194.36253845 43.47869431 -194.35953735 42.56772491 -194.35644531 41.62915039 C-194.36009094 40.82989639 -194.36373657 40.0306424 -194.36749268 39.20716858 C-193.89726314 36.3829603 -193.0089898 35.02554585 -191 33 C-184.48457674 32.27606408 -179.20144567 33.57027332 -172.9921875 35.5390625 C-166.73559102 36.5028724 -162.07696092 33.72742963 -157.125 30.1875 C-156.57529541 29.79860596 -156.02559082 29.40971191 -155.45922852 29.0090332 C-152.27155316 26.72871113 -149.16261333 24.36017453 -146.08203125 21.9375 C-103.29093795 -11.69173372 -50.10296309 -28.29060939 0 0 Z M-131 53 C-133.26138597 55.73722124 -133.26138597 55.73722124 -132.8515625 58.42578125 C-129.31582384 69.11409217 -113.67855583 77.14114655 -104.12109375 82.046875 C-96.66727168 85.7033772 -89.00403496 88.77230356 -81 91 C-80.19175781 91.22558594 -79.38351562 91.45117188 -78.55078125 91.68359375 C-51.62186228 97.81341047 -24.43438246 89.06923491 -1.5 75.125 C4.90905784 71.0575316 11.78299774 66.41717735 16 60 C15.7473296 55.15594747 13.35885988 52.28471287 10 49 C6.4367965 45.86139724 2.75286114 42.90808339 -1 40 C-1.74894531 39.4121875 -2.49789062 38.824375 -3.26953125 38.21875 C-45.6817404 6.7252707 -94.81897552 17.14346901 -131 53 Z " fill="#000000" transform="translate(369,102)"/>
<path d="M0 0 C1.16273438 0.56847656 2.32546875 1.13695312 3.5234375 1.72265625 C13.59782137 6.87726525 21.61174378 13.48206649 29.625 21.375 C30.15875244 21.89924561 30.69250488 22.42349121 31.24243164 22.96362305 C35 26.75457004 35 26.75457004 35 29 C35.86044922 29.37511719 35.86044922 29.37511719 36.73828125 29.7578125 C39.30642507 31.16829564 41.08155215 32.84193559 43.1875 34.875 C48.38242046 39.56663588 53.29393324 42.42983588 60.25 43.5 C66.96296759 42.60493765 73.49026292 40.47117735 79.73046875 37.85546875 C82.5961052 36.7753063 84.13169758 36.99221807 87 38 C89.1430873 41.21463096 89.25185537 42.06085291 89.25878906 45.75927734 C89.26509338 46.72392914 89.27139771 47.68858093 89.27789307 48.6824646 C89.27182037 50.24343369 89.27182037 50.24343369 89.265625 51.8359375 C89.26753845 52.90744049 89.2694519 53.97894348 89.27142334 55.08291626 C89.27278505 57.35085281 89.26908958 59.61879715 89.26074219 61.88671875 C89.25006361 65.35434565 89.26062734 68.82145199 89.2734375 72.2890625 C89.27211549 74.49218864 89.26955225 76.69531446 89.265625 78.8984375 C89.26967346 79.9350351 89.27372192 80.97163269 89.27789307 82.03964233 C89.26843658 83.49607651 89.26843658 83.49607651 89.25878906 84.98193359 C89.25719788 85.83226166 89.25560669 86.68258972 89.25396729 87.5586853 C88.93573101 90.61779933 88.23798474 93.76201526 86 96 C80.7863729 96.25640789 76.07557647 95.91937663 70.9375 95 C51.35540598 91.5632436 36.22606966 101.16563704 20.31713867 111.37353516 C-8.55204458 129.83206274 -40.49874971 144.35863627 -75.72241211 136.92456055 C-78.88280469 136.11550329 -81.93078112 135.10320636 -85 134 C-85.63486328 133.7745752 -86.26972656 133.54915039 -86.92382812 133.31689453 C-104.2198407 126.99191277 -118.86523559 115.54172873 -133 104 C-136.30869533 101.29958849 -139.6385819 98.63430283 -143 96 C-143.60328125 95.47148437 -144.2065625 94.94296875 -144.828125 94.3984375 C-150.74431563 89.79409784 -157.85708657 90.13779766 -165.01220703 90.72998047 C-169.03047445 91.27581734 -172.71109916 92.60225821 -176.44921875 94.125 C-179.1765384 95.06055835 -181.13917338 95.31191295 -184 95 C-186.58971573 92.41028427 -186.25748217 91.3592588 -186.2746582 87.75585938 C-186.28419022 86.66132446 -186.29372223 85.56678955 -186.30354309 84.43908691 C-186.30263168 83.25262573 -186.30172028 82.06616455 -186.30078125 80.84375 C-186.30506638 79.63054077 -186.3093515 78.41733154 -186.31376648 77.1673584 C-186.31951792 74.59839503 -186.32000409 72.02941537 -186.31567383 69.46044922 C-186.31251308 65.51632097 -186.33596693 61.5729417 -186.36132812 57.62890625 C-186.36360083 55.13802179 -186.36430475 52.64713529 -186.36328125 50.15625 C-186.372491 48.96978882 -186.38170074 47.78332764 -186.39118958 46.56091309 C-186.38496078 45.46637817 -186.37873199 44.37184326 -186.37231445 43.24414062 C-186.37294388 42.27754517 -186.3735733 41.31094971 -186.3742218 40.31506348 C-186.25072861 39.55109253 -186.12723541 38.78712158 -186 38 C-181.78316492 35.18877661 -178.83168116 36.14365326 -174 37 C-172.62088641 37.33779394 -171.24546342 37.69116586 -169.875 38.0625 C-161.20411997 40.16029356 -156.52252195 38.17451835 -149 34 C-145.86244888 32.03984524 -142.83484805 29.94496632 -139.8125 27.8125 C-138.14493025 26.65567463 -136.476957 25.4994307 -134.80859375 24.34375 C-133.99374512 23.7765625 -133.17889648 23.209375 -132.33935547 22.625 C-90.8793482 -6.1746043 -48.69356339 -24.37314529 0 0 Z M-123.8671875 59.328125 C-124.57101563 60.20984375 -125.27484375 61.0915625 -126 62 C-118.63024495 77.2001198 -95.98007378 86.12915758 -80.81640625 91.54296875 C-54.28514709 100.48587648 -28.56553206 97.01768219 -3.60522461 85.07836914 C11.11641553 77.91005716 11.11641553 77.91005716 23 67 C22.70841205 61.52168097 19.62692662 59.12703295 15.84375 55.5234375 C-3.48310614 38.37350747 -27.9799271 20.63028722 -54.90234375 21.6640625 C-79.52130595 23.2956835 -108.14279808 40.50299633 -123.8671875 59.328125 Z " fill="#000000" transform="translate(186,323)"/>
<path d="M0 0 C1.00804687 0.67804688 2.01609375 1.35609375 3.0546875 2.0546875 C5.10914269 3.43658447 7.16119069 4.82206624 9.2109375 6.2109375 C20.08862004 14.04188243 20.08862004 14.04188243 32.859375 15.859375 C34.86372691 15.35554884 36.86344526 14.83309493 38.859375 14.296875 C43.70279584 13.00246014 47.02015825 12.5689172 51.859375 13.859375 C53.53449382 15.53449382 52.99539488 17.58329448 53.00463867 19.88232422 C53.01420845 21.48936722 53.01420845 21.48936722 53.02397156 23.12887573 C53.02564079 24.87879318 53.02564079 24.87879318 53.02734375 26.6640625 C53.03067215 27.85411896 53.03400055 29.04417542 53.03742981 30.27029419 C53.04250455 32.79396171 53.04483797 35.31763597 53.04467773 37.84130859 C53.04686165 41.71072422 53.06500482 45.57985374 53.08398438 49.44921875 C53.08691864 51.89583235 53.08890321 54.34244732 53.08984375 56.7890625 C53.09702927 57.95162567 53.10421478 59.11418884 53.11161804 60.3119812 C53.10854141 61.38964752 53.10546478 62.46731384 53.10229492 63.57763672 C53.10371994 64.52726288 53.10514496 65.47688904 53.10661316 66.45529175 C52.859375 68.859375 52.859375 68.859375 50.859375 71.859375 C46.78291535 71.41628156 43.28251344 70.68174023 39.421875 69.296875 C31.6554457 66.94090026 22.52883518 66.02667236 14.84375 69.04296875 C11.9687368 70.79571802 9.44493548 72.70161408 6.859375 74.859375 C5.85777344 75.69339844 4.85617187 76.52742188 3.82421875 77.38671875 C2.19962433 78.75650416 0.58192933 80.13307659 -1.02636719 81.52197266 C-11.57948807 90.61746306 -22.80413756 98.38520916 -35.140625 104.859375 C-36.18605469 105.41496094 -37.23148438 105.97054687 -38.30859375 106.54296875 C-58.80108736 116.75103078 -83.189031 118.07305126 -105.140625 111.859375 C-106.27242188 111.56546875 -107.40421875 111.2715625 -108.5703125 110.96875 C-126.31139667 105.76676908 -142.40595103 95.59307767 -157.8203125 85.62890625 C-172.63383056 76.06362482 -185.94726583 68.61102539 -204.078125 71.859375 C-209.22755047 72.77308801 -213.91572696 73.1964652 -219.140625 72.859375 C-222.35251468 69.64748532 -222.26668832 66.36658959 -222.31762695 61.97070312 C-222.33046219 61.00289917 -222.34329742 60.03509521 -222.35652161 59.03796387 C-222.36390854 57.99934204 -222.37129547 56.96072021 -222.37890625 55.890625 C-222.386978 54.81816528 -222.39504974 53.74570557 -222.40336609 52.64074707 C-222.41718476 50.37460946 -222.4279168 48.10845122 -222.43579102 45.84228516 C-222.45306055 42.37232475 -222.49697378 38.90330341 -222.54101562 35.43359375 C-222.55113802 33.23177783 -222.55965554 31.02995383 -222.56640625 28.828125 C-222.58391434 27.78950317 -222.60142242 26.75088135 -222.61946106 25.68078613 C-222.59781046 18.51857543 -222.59781046 18.51857543 -220.27807617 15.17382812 C-218.140625 13.859375 -218.140625 13.859375 -215.515625 13.859375 C-211.75714517 14.97299865 -208.20506834 16.37512762 -204.60546875 17.921875 C-198.7852331 20.13559379 -192.60491745 21.07024838 -186.6484375 18.98828125 C-180.66660976 16.21554955 -176.52329476 12.70391863 -172.140625 7.859375 C-170.47395833 6.19270833 -168.80729167 4.52604167 -167.140625 2.859375 C-166.11899755 1.78323615 -165.09958335 0.70499315 -164.08203125 -0.375 C-114.06370898 -52.83450726 -53.24356587 -35.91339046 0 0 Z M-143.578125 27.984375 C-144.14571533 28.46310059 -144.71330566 28.94182617 -145.2980957 29.43505859 C-148.22419392 31.97305832 -150.98308075 34.63191465 -153.61328125 37.4765625 C-154.37717163 38.30196533 -154.37717163 38.30196533 -155.15649414 39.14404297 C-156.35364585 40.83691591 -156.35364585 40.83691591 -155.89697266 42.95458984 C-151.93790651 52.92509793 -136.67248765 58.90199814 -127.390625 63 C-101.01867177 74.19113553 -75.33939978 77.22366583 -48.140625 66.859375 C-37.15900246 62.24902862 -26.66223507 57.06839012 -17.140625 49.859375 C-16.22925781 49.17746094 -15.31789063 48.49554688 -14.37890625 47.79296875 C-9.63808962 44.14772285 -9.63808962 44.14772285 -7.640625 38.796875 C-16.72998185 20.9968845 -44.81933224 7.90166349 -62.890625 1.5390625 C-93.67771043 -7.63292337 -120.68156863 8.63661875 -143.578125 27.984375 Z " fill="#000000" transform="translate(573.140625,346.140625)"/>
<path d="M0 0 C3.01591228 0.23297162 4.53394329 0.4942714 6.61474609 2.75219727 C7.07961426 3.51588623 7.54448242 4.2795752 8.0234375 5.06640625 C8.56178223 5.93225342 9.10012695 6.79810059 9.65478516 7.69018555 C10.5062915 9.1119812 10.5062915 9.1119812 11.375 10.5625 C12.28258057 12.03360229 12.28258057 12.03360229 13.20849609 13.53442383 C14.49474801 15.62041187 15.77469045 17.71030145 17.04882812 19.80371094 C19.5764419 23.94429146 22.15161713 28.05410133 24.72900391 32.16381836 C26.62876982 35.193512 28.52200423 38.22720692 30.4140625 41.26171875 C33.59165059 46.35244799 36.79037219 51.4294277 40 56.5 C50.80544189 73.58128359 61.50802228 90.72422795 72 108 C71.01 108.495 71.01 108.495 70 109 C68.21923828 108.09130859 68.21923828 108.09130859 66.0703125 106.6484375 C64.88695312 105.86932007 64.88695312 105.86932007 63.6796875 105.07446289 C62.41511719 104.23322876 62.41511719 104.23322876 61.125 103.375 C48.68502529 95.316198 48.68502529 95.316198 34.5390625 91.375 C26.41180703 90.13288228 20.89264182 88.79896935 15.7734375 81.96484375 C12.67755388 77.29846604 9.91071224 72.4732871 7.32421875 67.5078125 C4.99612674 62.46823759 4.99612674 62.46823759 1 59 C0.78085937 59.65097656 0.56171875 60.30195312 0.3359375 60.97265625 C-1.47972598 65.08709835 -3.90146294 68.69139321 -6.375 72.4375 C-7.09816406 73.54448242 -7.09816406 73.54448242 -7.8359375 74.67382812 C-8.78565967 76.12550942 -9.74637109 77.57006707 -10.71850586 79.00683594 C-12.15788631 81.156982 -12.15788631 81.156982 -13.58984375 84.29296875 C-17.50045023 88.68527068 -22.62960951 89.41152831 -28.1875 90.875 C-40.03988604 94.24063425 -51.3645079 98.15257141 -61.82421875 104.79296875 C-62.54222656 105.19128906 -63.26023438 105.58960937 -64 106 C-64.66 105.67 -65.32 105.34 -66 105 C-59.32551959 93.71527327 -52.49854564 82.54629587 -45.4296875 71.50415039 C-41.03315508 64.63456849 -36.69038545 57.73332837 -32.375 50.8125 C-26.44898109 41.3121656 -20.48862355 31.83450259 -14.5 22.37353516 C-12.87155496 19.79675412 -11.24791462 17.21698627 -9.625 14.63671875 C-9.07094482 13.75669189 -8.51688965 12.87666504 -7.94604492 11.9699707 C-6.87749468 10.27252331 -5.80990945 8.57446795 -4.7434082 6.87573242 C-4.02930786 5.74228394 -4.02930786 5.74228394 -3.30078125 4.5859375 C-2.66910034 3.58119385 -2.66910034 3.58119385 -2.0246582 2.55615234 C-1 1 -1 1 0 0 Z " fill="#000000" transform="translate(311,0)"/>
<path d="M0 0 C0.60070312 0.43570313 1.20140625 0.87140625 1.8203125 1.3203125 C3 3 3 3 3.00390625 5.671875 C1.67561858 10.07538122 -0.52960446 13.43927654 -3.0625 17.25 C-4.15932784 18.94155823 -5.25427721 20.63433551 -6.34765625 22.328125 C-7.23155029 23.69227539 -7.23155029 23.69227539 -8.13330078 25.08398438 C-11.49908249 30.34175271 -14.74205426 35.67500557 -18 41 C-23.1534566 49.40068185 -28.35186689 57.76878621 -33.6328125 66.08984375 C-37.29635595 71.86811553 -40.90647574 77.67795833 -44.5 83.5 C-50.59708192 93.37760418 -56.78081958 103.19889728 -63 113 C-64.18142578 112.7834375 -64.18142578 112.7834375 -65.38671875 112.5625 C-75.70951788 110.80334843 -85.91026813 109.66846646 -96.09765625 112.66015625 C-98.34777862 113.06212883 -99.81940737 112.60422651 -102 112 C-87.85202422 89.32539438 -87.85202422 89.32539438 -81 78.5 C-76.47412409 71.34939259 -71.98107075 64.17876586 -67.5 57 C-62.54856826 49.06770632 -57.57817136 41.14813216 -52.57397461 33.24902344 C-49.73030487 28.7553467 -46.90653763 24.24989255 -44.09765625 19.734375 C-43.42798828 18.65865234 -42.75832031 17.58292969 -42.06835938 16.47460938 C-40.76428694 14.37818913 -39.46209852 12.28059536 -38.16210938 10.18164062 C-36.45821318 7.44330153 -34.73618119 4.71795974 -33 2 C-32.54318848 1.27296875 -32.08637695 0.5459375 -31.61572266 -0.203125 C-29.86335833 -2.85373729 -28.53013717 -4.74019768 -25.640625 -6.15625 C-15.08076431 -7.67466134 -8.48267443 -6.84746009 0 0 Z " fill="#000000" transform="translate(219,197)"/>
<path d="M0 0 C1.16499023 -0.00193359 1.16499023 -0.00193359 2.35351562 -0.00390625 C3.55717773 0.00189453 3.55717773 0.00189453 4.78515625 0.0078125 C5.58373047 0.00394531 6.38230469 0.00007812 7.20507812 -0.00390625 C8.37200195 -0.00197266 8.37200195 -0.00197266 9.5625 0 C10.2649585 0.00112793 10.96741699 0.00225586 11.69116211 0.00341797 C14.247052 0.15677715 16.3954301 0.35408993 18.84765625 1.1328125 C20.55419922 3.06860352 20.55419922 3.06860352 22.08984375 5.63671875 C22.67314453 6.59255859 23.25644531 7.54839844 23.85742188 8.53320312 C24.47294922 9.57669922 25.08847656 10.62019531 25.72265625 11.6953125 C27.06338397 13.90520164 28.4045416 16.11483 29.74609375 18.32421875 C30.43489048 19.47002244 31.12336698 20.61601869 31.81152344 21.76220703 C34.92962096 26.92389221 38.13968898 32.02669227 41.34765625 37.1328125 C42.59816914 39.13249185 43.84816747 41.13249308 45.09765625 43.1328125 C45.71640625 44.1228125 46.33515625 45.1128125 46.97265625 46.1328125 C53.90625 57.2265625 60.83984375 68.3203125 67.7734375 79.4140625 C68.41917725 80.44708496 69.06491699 81.48010742 69.73022461 82.54443359 C71.00115673 84.57824654 72.27151657 86.61241723 73.54125977 88.64697266 C76.35131291 93.14830663 79.16771831 97.64502216 82.01171875 102.125 C82.48504639 102.87330078 82.95837402 103.62160156 83.44604492 104.39257812 C84.31226149 105.76083707 85.18198693 107.12688362 86.0559082 108.49023438 C88.84765625 112.90884574 88.84765625 112.90884574 88.84765625 115.1328125 C87.58953125 114.9678125 86.33140625 114.8028125 85.03515625 114.6328125 C79.78050884 114.10734776 74.56087219 114.02016178 69.28515625 114.0078125 C68.49455811 114.00330078 67.70395996 113.99878906 66.8894043 113.99414062 C61.47251562 114.00760013 56.2224299 114.45626757 50.84765625 115.1328125 C50.42581055 114.44469482 50.00396484 113.75657715 49.56933594 113.04760742 C42.22566228 101.0747895 34.87402765 89.10937466 27.35180664 77.24755859 C23.38780527 70.99573937 19.45635108 64.72406335 15.53515625 58.4453125 C14.90907471 57.44306641 14.28299316 56.44082031 13.63793945 55.40820312 C10.38155668 50.19399767 7.12764566 44.97825609 3.875 39.76171875 C2.5742353 37.67707301 1.27345432 35.59243742 -0.02734375 33.5078125 C-0.65044434 32.50766113 -1.27354492 31.50750977 -1.91552734 30.47705078 C-4.60571209 26.16743379 -7.30701281 21.86906309 -10.09375 17.62109375 C-10.52252441 16.96641113 -10.95129883 16.31172852 -11.39306641 15.63720703 C-12.49223838 13.96849266 -13.60112329 12.30618678 -14.7109375 10.64453125 C-16.15234375 8.1328125 -16.15234375 8.1328125 -16.15234375 5.1328125 C-14.90498808 4.4818866 -13.65432543 3.83729581 -12.40234375 3.1953125 C-11.70625 2.83566406 -11.01015625 2.47601563 -10.29296875 2.10546875 C-6.85538782 0.54350223 -3.76256018 0.00605122 0 0 Z " fill="#000000" transform="translate(419.15234375,194.8671875)"/>
<path d="M0 0 C5.96717387 3.40023551 10.69113978 8.26414624 13.15234375 14.79296875 C14.77369587 22.14935153 14.71352821 29.7686105 10.7421875 36.30078125 C10.37351563 36.84089844 10.00484375 37.38101563 9.625 37.9375 C9.08875 38.824375 8.5525 39.71125 8 40.625 C2.81745819 45.67115913 -3.9348276 48.5931593 -11.15625 49 C-19.98055595 48.751428 -25.77061212 45.61200546 -31.9140625 39.375 C-36.41105096 33.90497895 -37.67395553 27.18388878 -37.18359375 20.21875 C-35.73304098 11.54156949 -31.39918562 6.00388069 -24.375 0.9375 C-16.78566184 -3.52681657 -7.95670988 -3.63632442 0 0 Z " fill="#000000" transform="translate(146.375,359.0625)"/>
<path d="M0 0 C4.47326588 3.71873911 7.43909009 8.39539528 9.26953125 13.88671875 C9.94682157 23.52508101 9.24208482 30.34970774 3.14453125 38.07421875 C-2.24523823 43.86906485 -7.80466671 46.05605365 -15.66796875 46.44921875 C-23.97778135 46.12147805 -30.09336617 43.00474544 -35.73046875 36.94921875 C-40.73623775 31.08909975 -41.24594263 24.65925344 -41.1015625 17.2109375 C-40.41942853 11.10045323 -38.22907169 6.26657621 -33.7578125 2.0078125 C-23.12520838 -6.23990845 -11.52081615 -7.49306625 0 0 Z " fill="#000000" transform="translate(328.73046875,137.11328125)"/>
<path d="M0 0 C6.44192431 3.65146112 11.4420921 8.8669135 13.6875 16 C14.72947554 24.982926 14.07507155 32.56204033 8.6875 40 C3.45780712 45.80453848 -2.99210473 48.50901658 -10.66015625 49.0625 C-17.9762319 48.89010352 -25.08983538 46.18279695 -30.3125 41 C-36.09999496 33.45370788 -37.32429134 26.44338584 -36.3125 17 C-33.65558496 8.46927727 -28.64132203 3.5463659 -21.125 -0.875 C-13.8772999 -3.0136656 -6.96684074 -3.14357448 0 0 Z " fill="#000000" transform="translate(502.3125,359)"/>
</svg>
