<?xml version="1.0" standalone="no"?>
<!DOCTYPE svg PUBLIC "-//W3C//DTD SVG 20010904//EN"
 "http://www.w3.org/TR/2001/REC-SVG-20010904/DTD/svg10.dtd">
<svg version="1.0" xmlns="http://www.w3.org/2000/svg"
 width="3000.000000pt" height="3177.000000pt" viewBox="0 0 3000.000000 3177.000000"
 preserveAspectRatio="xMidYMid meet">

<g transform="translate(0.000000,3177.000000) scale(0.100000,-0.100000)"
fill="#000000" stroke="none">
<path d="M15768 31678 c-173 -218 -443 -512 -666 -729 -1099 -1066 -2201
-1680 -3308 -1844 -744 -110 -1455 76 -2067 539 -134 101 -287 241 -388 353
-41 44 -75 80 -77 78 -7 -6 114 -460 159 -595 106 -321 209 -503 377 -668 l84
-84 -48 7 c-148 20 -436 70 -554 97 -359 80 -641 210 -1181 543 -94 58 -173
104 -175 102 -6 -6 24 -165 46 -247 66 -238 191 -503 353 -745 157 -236 406
-529 503 -594 l46 -30 -39 -10 c-64 -17 -531 -118 -648 -140 -606 -113 -971
-141 -1236 -96 -297 51 -723 221 -1064 423 -120 72 -118 73 -81 -98 85 -396
248 -659 551 -893 50 -38 91 -73 93 -77 2 -5 -4 -24 -14 -42 -99 -192 -323
-376 -516 -424 -113 -27 -358 -29 -572 -5 -104 12 -190 20 -191 19 -3 -3 216
-205 325 -300 170 -147 360 -287 495 -365 228 -133 631 -264 1104 -359 l144
-29 153 -170 c253 -283 385 -402 542 -493 193 -113 376 -186 602 -242 109 -27
120 -29 120 -24 0 2 -41 72 -91 156 -242 404 -322 618 -336 903 -6 135 9 222
52 286 122 186 654 86 1217 -228 223 -125 371 -191 648 -290 152 -54 557 -183
575 -183 9 0 -6 42 -42 118 -31 64 -80 177 -110 251 -117 291 -122 410 -28
606 48 100 140 210 221 264 53 35 190 90 314 125 477 138 1165 168 2029 91
1191 -108 2232 -334 3586 -782 511 -169 1122 -394 1581 -583 108 -45 197 -80
199 -78 1 2 -40 93 -91 203 -136 293 -290 639 -394 890 -133 319 -202 446
-389 710 -153 216 -363 474 -578 712 l-73 80 106 7 c127 9 297 0 414 -20 142
-26 386 -112 691 -245 76 -32 140 -59 144 -59 12 0 -111 225 -188 341 -162
246 -352 473 -594 710 -194 189 -323 296 -490 405 -181 118 -470 280 -765 430
-148 74 -268 137 -268 139 0 1 26 18 58 35 226 128 370 288 497 552 120 250
201 586 220 918 l6 105 -23 -26 c-13 -14 -80 -96 -150 -182 -179 -218 -381
-428 -476 -496 -137 -96 -380 -171 -557 -171 l-83 0 52 88 c69 116 177 345
215 457 34 103 65 248 81 385 11 96 27 600 18 600 -2 0 -34 -37 -70 -82z
m-2322 -3269 c368 -21 738 -84 1064 -181 58 -17 109 -34 113 -38 4 -4 -59 -12
-140 -19 -481 -41 -828 -87 -919 -121 -15 -6 -28 -26 -39 -62 -29 -87 -89
-198 -149 -274 -102 -131 -253 -229 -426 -276 -77 -21 -105 -23 -300 -23 -172
1 -245 6 -365 24 -311 47 -568 116 -822 219 -51 20 -93 40 -93 43 0 10 154
138 260 216 204 150 415 271 605 348 291 117 749 172 1211 144z"/>
<path d="M16770 29477 c0 -2 33 -24 73 -47 39 -24 155 -98 257 -165 612 -403
1066 -818 1328 -1212 150 -225 306 -542 437 -888 62 -166 99 -275 93 -280 -2
-2 -87 36 -188 85 -231 112 -361 170 -515 227 -155 58 -587 204 -591 200 -2
-1 35 -47 82 -101 287 -331 567 -716 687 -946 30 -58 92 -204 137 -325 130
-349 383 -943 413 -971 7 -5 48 -25 92 -44 155 -65 552 -258 727 -353 1547
-843 2929 -2053 3947 -3457 1286 -1771 2025 -3866 2191 -6210 36 -521 44
-1325 15 -1725 -101 -1430 -557 -2869 -1342 -4233 -976 -1696 -2408 -3153
-4093 -4164 -1682 -1009 -3525 -1557 -5540 -1649 -318 -15 -1166 -6 -1480 15
-1675 112 -3123 483 -4485 1150 -835 409 -1616 926 -2320 1535 -323 280 -758
707 -1044 1025 -1121 1249 -2027 2776 -2661 4491 -226 612 -424 1311 -499
1760 -53 321 -69 745 -36 987 56 421 231 800 659 1423 48 69 83 125 78 125 -4
0 -23 -11 -42 -23 -49 -33 -473 -282 -605 -355 -173 -96 -324 -165 -364 -166
l-36 -1 -8 125 c-12 175 -1 684 18 875 218 2210 1513 4437 3510 6036 1434
1149 3139 1893 4975 2173 514 79 941 114 1500 123 856 14 1668 -61 2545 -233
1397 -275 2619 -743 3703 -1418 1141 -711 2120 -1699 2817 -2846 469 -771 823
-1628 1014 -2454 55 -238 92 -449 77 -443 -6 3 -50 21 -97 40 -186 78 -342
107 -569 107 -115 0 -263 -13 -369 -33 l-65 -12 75 -39 c113 -58 284 -175 379
-258 503 -441 773 -1002 850 -1761 14 -141 14 -775 0 -997 -31 -485 -83 -868
-175 -1285 -312 -1408 -986 -2583 -2032 -3540 -1351 -1237 -3302 -2016 -5488
-2190 -902 -73 -1873 -29 -2723 121 -181 32 -624 125 -619 130 2 2 383 31 652
49 495 34 1136 42 1909 25 241 -6 440 -9 442 -8 1 2 -4 37 -12 78 -57 297 -77
506 -78 805 -2 403 33 579 164 833 243 474 773 807 1429 900 l125 17 -125 59
c-466 220 -929 355 -1220 356 -271 0 -785 -110 -1221 -264 -416 -146 -711
-276 -1483 -653 -564 -276 -692 -336 -955 -445 -529 -220 -916 -302 -1480
-315 -496 -12 -856 54 -1236 224 -410 183 -777 491 -1185 993 -251 308 -572
792 -759 1143 -28 53 -54 97 -56 97 -2 0 -2 -17 1 -37 2 -21 9 -78 16 -128 48
-395 186 -955 356 -1445 456 -1315 1208 -2551 2238 -3680 553 -606 999 -979
1600 -1337 1285 -766 2973 -1110 4745 -967 274 22 598 63 775 98 l70 13 -55
26 c-681 310 -1030 524 -1184 727 -137 179 -360 630 -554 1120 l-22 55 -258 1
c-447 1 -824 64 -1257 209 -435 145 -669 278 -1123 638 -62 49 -111 91 -109
93 2 3 87 -22 188 -55 926 -299 1535 -426 2319 -486 245 -19 818 -22 1060 -6
866 59 1665 221 2550 517 1080 362 1951 835 2765 1503 294 241 509 443 1089
1024 629 629 831 819 1024 965 329 248 737 445 1167 565 11 3 -20 3 -70 0
-168 -12 -415 -6 -495 11 -153 34 -215 128 -227 341 -8 161 32 330 133 563
218 499 281 660 394 1005 305 939 464 1880 489 2899 14 560 -11 1023 -79 1491
-29 196 -51 302 -136 647 -102 413 -113 471 -126 648 -23 310 36 793 147 1220
19 72 35 135 35 138 0 4 -49 -67 -108 -157 -208 -314 -341 -455 -387 -408 -8
8 -57 118 -109 244 -614 1493 -1586 2857 -2811 3946 -1311 1164 -2893 1997
-4745 2498 -874 236 -1749 382 -2685 447 -300 21 -1093 25 -1325 6 -390 -32
-625 -69 -709 -112 -116 -60 -176 -211 -152 -384 13 -94 28 -152 140 -519 44
-147 81 -274 81 -282 0 -10 -8 -13 -27 -10 -16 2 -82 9 -148 15 -285 26 -583
74 -747 120 -184 51 -432 146 -737 282 -237 105 -433 185 -522 212 -224 68
-319 35 -319 -113 0 -96 84 -378 247 -829 52 -145 93 -265 90 -268 -3 -3 -79
4 -168 16 -321 41 -598 97 -757 155 -204 74 -475 280 -801 609 l-143 145 -177
-80 c-891 -404 -1944 -1080 -2791 -1793 -1682 -1415 -2867 -3126 -3495 -5046
-518 -1586 -656 -3255 -424 -5125 334 -2699 1162 -5044 2485 -7041 1196 -1806
2793 -3287 4704 -4364 2100 -1183 4539 -1840 6838 -1840 314 0 813 15 1162 36
2776 161 5278 886 7460 2162 2171 1270 3983 3078 5277 5267 251 424 562 1022
757 1455 658 1460 1053 2946 1171 4400 56 694 39 1910 -40 2830 -284 3301
-1375 6061 -3269 8270 -216 252 -345 391 -635 684 -1245 1260 -2764 2287
-4545 3072 -1367 603 -2963 1066 -4351 1263 -231 33 -355 46 -355 38z"/>
<path d="M12055 24264 c-349 -20 -421 -27 -446 -42 -14 -10 -132 -107 -263
-217 -173 -146 -235 -203 -230 -215 13 -30 16 -156 5 -196 -38 -142 -192 -238
-423 -265 -329 -38 -808 133 -1273 455 -44 30 -81 53 -82 52 -8 -7 32 -181 63
-275 117 -358 358 -707 644 -932 95 -74 258 -159 308 -159 17 0 19 -13 25
-177 15 -398 87 -649 237 -833 106 -129 259 -288 415 -431 82 -76 151 -136
153 -135 1 2 -11 38 -27 79 -112 281 -94 664 46 992 118 277 295 525 571 803
345 348 748 640 1262 917 252 136 624 302 862 386 54 19 98 36 98 40 0 13
-618 89 -1025 125 -264 24 -743 38 -920 28z"/>
</g>
</svg>
